<?xml version="1.0" encoding="utf-8" standalone="no"?>
<!DOCTYPE svg PUBLIC "-//W3C//DTD SVG 1.1//EN"
  "http://www.w3.org/Graphics/SVG/1.1/DTD/svg11.dtd">
<svg xmlns:xlink="http://www.w3.org/1999/xlink" width="360pt" height="360pt" viewBox="0 0 360 360" xmlns="http://www.w3.org/2000/svg" version="1.1">
 <metadata>
  <rdf:RDF xmlns:dc="http://purl.org/dc/elements/1.1/" xmlns:cc="http://creativecommons.org/ns#" xmlns:rdf="http://www.w3.org/1999/02/22-rdf-syntax-ns#">
   <cc:Work>
    <dc:type rdf:resource="http://purl.org/dc/dcmitype/StillImage"/>
    <dc:date>2022-02-18T16:21:30.348720</dc:date>
    <dc:format>image/svg+xml</dc:format>
    <dc:creator>
     <cc:Agent>
      <dc:title>Matplotlib v3.5.1, https://matplotlib.org/</dc:title>
     </cc:Agent>
    </dc:creator>
   </cc:Work>
  </rdf:RDF>
 </metadata>
 <defs>
  <style type="text/css">*{stroke-linejoin: round; stroke-linecap: butt}</style>
 </defs>
 <g id="figure_1">
  <g id="patch_1">
   <path d="M 0 360 
L 360 360 
L 360 0 
L 0 0 
z
" style="fill: #ffffff"/>
  </g>
  <g id="axes_1">
   <g id="patch_2">
    <path d="M 33.73 250.435 
L 174.6 250.435 
L 174.6 109.565 
L 33.73 109.565 
z
" style="fill: #ffffff"/>
   </g>
   <g id="PathCollection_1">
    <defs>
     <path id="m75dbb9430d" d="M 0 1.581139 
C 0.419323 1.581139 0.821528 1.41454 1.118034 1.118034 
C 1.41454 0.821528 1.581139 0.419323 1.581139 0 
C 1.581139 -0.419323 1.41454 -0.821528 1.118034 -1.118034 
C 0.821528 -1.41454 0.419323 -1.581139 0 -1.581139 
C -0.419323 -1.581139 -0.821528 -1.41454 -1.118034 -1.118034 
C -1.41454 -0.821528 -1.581139 -0.419323 -1.581139 0 
C -1.581139 0.419323 -1.41454 0.821528 -1.118034 1.118034 
C -0.821528 1.41454 -0.419323 1.581139 0 1.581139 
z
" style="stroke: #0000ff"/>
    </defs>
    <g clip-path="url(#p2510777a2e)">
     <use xlink:href="#m75dbb9430d" x="104.165" y="238.695833" style="fill: #0000ff; stroke: #0000ff"/>
     <use xlink:href="#m75dbb9430d" x="162.860833" y="238.695833" style="fill: #0000ff; stroke: #0000ff"/>
     <use xlink:href="#m75dbb9430d" x="162.860833" y="121.304167" style="fill: #0000ff; stroke: #0000ff"/>
     <use xlink:href="#m75dbb9430d" x="104.165" y="180" style="fill: #0000ff; stroke: #0000ff"/>
     <use xlink:href="#m75dbb9430d" x="45.469167" y="121.304167" style="fill: #0000ff; stroke: #0000ff"/>
    </g>
   </g>
   <g id="PathCollection_2">
    <defs>
     <path id="C0_0_977612a908" d="M 0 2.236068 
C 0.593012 2.236068 1.161816 2.000462 1.581139 1.581139 
C 2.000462 1.161816 2.236068 0.593012 2.236068 -0 
C 2.236068 -0.593012 2.000462 -1.161816 1.581139 -1.581139 
C 1.161816 -2.000462 0.593012 -2.236068 0 -2.236068 
C -0.593012 -2.236068 -1.161816 -2.000462 -1.581139 -1.581139 
C -2.000462 -1.161816 -2.236068 -0.593012 -2.236068 0 
C -2.236068 0.593012 -2.000462 1.161816 -1.581139 1.581139 
C -1.161816 2.000462 -0.593012 2.236068 0 2.236068 
z
"/>
    </defs>
    <g clip-path="url(#p2510777a2e)">
     <use xlink:href="#C0_0_977612a908" x="98.295417" y="209.347917" style="fill: #1b9e77; stroke: #1b9e77"/>
    </g>
    <g clip-path="url(#p2510777a2e)">
     <use xlink:href="#C0_0_977612a908" x="115.904167" y="226.956667" style="fill: #666666; stroke: #666666"/>
    </g>
   </g>
   <g id="matplotlib.axis_1">
    <g id="xtick_1">
     <g id="line2d_1">
      <defs>
       <path id="m3fa8602df3" d="M 0 0 
L 0 3.5 
" style="stroke: #000000; stroke-width: 0.8"/>
      </defs>
      <g>
       <use xlink:href="#m3fa8602df3" x="45.469167" y="250.435" style="stroke: #000000; stroke-width: 0.8"/>
      </g>
     </g>
     <g id="text_1">
      <!-- −1 -->
      <g transform="translate(38.098073 265.033437)scale(0.1 -0.1)">
       <defs>
        <path id="DejaVuSans-2212" d="M 678 2272 
L 4684 2272 
L 4684 1741 
L 678 1741 
L 678 2272 
z
" transform="scale(0.015625)"/>
        <path id="DejaVuSans-31" d="M 794 531 
L 1825 531 
L 1825 4091 
L 703 3866 
L 703 4441 
L 1819 4666 
L 2450 4666 
L 2450 531 
L 3481 531 
L 3481 0 
L 794 0 
L 794 531 
z
" transform="scale(0.015625)"/>
       </defs>
       <use xlink:href="#DejaVuSans-2212"/>
       <use xlink:href="#DejaVuSans-31" x="83.789062"/>
      </g>
     </g>
    </g>
    <g id="xtick_2">
     <g id="line2d_2">
      <g>
       <use xlink:href="#m3fa8602df3" x="104.165" y="250.435" style="stroke: #000000; stroke-width: 0.8"/>
      </g>
     </g>
     <g id="text_2">
      <!-- 0 -->
      <g transform="translate(100.98375 265.033437)scale(0.1 -0.1)">
       <defs>
        <path id="DejaVuSans-30" d="M 2034 4250 
Q 1547 4250 1301 3770 
Q 1056 3291 1056 2328 
Q 1056 1369 1301 889 
Q 1547 409 2034 409 
Q 2525 409 2770 889 
Q 3016 1369 3016 2328 
Q 3016 3291 2770 3770 
Q 2525 4250 2034 4250 
z
M 2034 4750 
Q 2819 4750 3233 4129 
Q 3647 3509 3647 2328 
Q 3647 1150 3233 529 
Q 2819 -91 2034 -91 
Q 1250 -91 836 529 
Q 422 1150 422 2328 
Q 422 3509 836 4129 
Q 1250 4750 2034 4750 
z
" transform="scale(0.015625)"/>
       </defs>
       <use xlink:href="#DejaVuSans-30"/>
      </g>
     </g>
    </g>
    <g id="xtick_3">
     <g id="line2d_3">
      <g>
       <use xlink:href="#m3fa8602df3" x="162.860833" y="250.435" style="stroke: #000000; stroke-width: 0.8"/>
      </g>
     </g>
     <g id="text_3">
      <!-- 1 -->
      <g transform="translate(159.679583 265.033437)scale(0.1 -0.1)">
       <use xlink:href="#DejaVuSans-31"/>
      </g>
     </g>
    </g>
   </g>
   <g id="matplotlib.axis_2">
    <g id="ytick_1">
     <g id="line2d_4">
      <defs>
       <path id="m07c1b2adca" d="M 0 0 
L -3.5 0 
" style="stroke: #000000; stroke-width: 0.8"/>
      </defs>
      <g>
       <use xlink:href="#m07c1b2adca" x="33.73" y="238.695833" style="stroke: #000000; stroke-width: 0.8"/>
      </g>
     </g>
     <g id="text_4">
      <!-- 0.0 -->
      <g transform="translate(10.826875 242.495052)scale(0.1 -0.1)">
       <defs>
        <path id="DejaVuSans-2e" d="M 684 794 
L 1344 794 
L 1344 0 
L 684 0 
L 684 794 
z
" transform="scale(0.015625)"/>
       </defs>
       <use xlink:href="#DejaVuSans-30"/>
       <use xlink:href="#DejaVuSans-2e" x="63.623047"/>
       <use xlink:href="#DejaVuSans-30" x="95.410156"/>
      </g>
     </g>
    </g>
    <g id="ytick_2">
     <g id="line2d_5">
      <g>
       <use xlink:href="#m07c1b2adca" x="33.73" y="209.347917" style="stroke: #000000; stroke-width: 0.8"/>
      </g>
     </g>
     <g id="text_5">
      <!-- 0.5 -->
      <g transform="translate(10.826875 213.147135)scale(0.1 -0.1)">
       <defs>
        <path id="DejaVuSans-35" d="M 691 4666 
L 3169 4666 
L 3169 4134 
L 1269 4134 
L 1269 2991 
Q 1406 3038 1543 3061 
Q 1681 3084 1819 3084 
Q 2600 3084 3056 2656 
Q 3513 2228 3513 1497 
Q 3513 744 3044 326 
Q 2575 -91 1722 -91 
Q 1428 -91 1123 -41 
Q 819 9 494 109 
L 494 744 
Q 775 591 1075 516 
Q 1375 441 1709 441 
Q 2250 441 2565 725 
Q 2881 1009 2881 1497 
Q 2881 1984 2565 2268 
Q 2250 2553 1709 2553 
Q 1456 2553 1204 2497 
Q 953 2441 691 2322 
L 691 4666 
z
" transform="scale(0.015625)"/>
       </defs>
       <use xlink:href="#DejaVuSans-30"/>
       <use xlink:href="#DejaVuSans-2e" x="63.623047"/>
       <use xlink:href="#DejaVuSans-35" x="95.410156"/>
      </g>
     </g>
    </g>
    <g id="ytick_3">
     <g id="line2d_6">
      <g>
       <use xlink:href="#m07c1b2adca" x="33.73" y="180" style="stroke: #000000; stroke-width: 0.8"/>
      </g>
     </g>
     <g id="text_6">
      <!-- 1.0 -->
      <g transform="translate(10.826875 183.799219)scale(0.1 -0.1)">
       <use xlink:href="#DejaVuSans-31"/>
       <use xlink:href="#DejaVuSans-2e" x="63.623047"/>
       <use xlink:href="#DejaVuSans-30" x="95.410156"/>
      </g>
     </g>
    </g>
    <g id="ytick_4">
     <g id="line2d_7">
      <g>
       <use xlink:href="#m07c1b2adca" x="33.73" y="150.652083" style="stroke: #000000; stroke-width: 0.8"/>
      </g>
     </g>
     <g id="text_7">
      <!-- 1.5 -->
      <g transform="translate(10.826875 154.451302)scale(0.1 -0.1)">
       <use xlink:href="#DejaVuSans-31"/>
       <use xlink:href="#DejaVuSans-2e" x="63.623047"/>
       <use xlink:href="#DejaVuSans-35" x="95.410156"/>
      </g>
     </g>
    </g>
    <g id="ytick_5">
     <g id="line2d_8">
      <g>
       <use xlink:href="#m07c1b2adca" x="33.73" y="121.304167" style="stroke: #000000; stroke-width: 0.8"/>
      </g>
     </g>
     <g id="text_8">
      <!-- 2.0 -->
      <g transform="translate(10.826875 125.103385)scale(0.1 -0.1)">
       <defs>
        <path id="DejaVuSans-32" d="M 1228 531 
L 3431 531 
L 3431 0 
L 469 0 
L 469 531 
Q 828 903 1448 1529 
Q 2069 2156 2228 2338 
Q 2531 2678 2651 2914 
Q 2772 3150 2772 3378 
Q 2772 3750 2511 3984 
Q 2250 4219 1831 4219 
Q 1534 4219 1204 4116 
Q 875 4013 500 3803 
L 500 4441 
Q 881 4594 1212 4672 
Q 1544 4750 1819 4750 
Q 2544 4750 2975 4387 
Q 3406 4025 3406 3419 
Q 3406 3131 3298 2873 
Q 3191 2616 2906 2266 
Q 2828 2175 2409 1742 
Q 1991 1309 1228 531 
z
" transform="scale(0.015625)"/>
       </defs>
       <use xlink:href="#DejaVuSans-32"/>
       <use xlink:href="#DejaVuSans-2e" x="63.623047"/>
       <use xlink:href="#DejaVuSans-30" x="95.410156"/>
      </g>
     </g>
    </g>
   </g>
   <g id="LineCollection_1">
    <path d="M 104.165 238.695833 
L 162.860833 238.695833 
" clip-path="url(#p2510777a2e)" style="fill: none; stroke: #ff0000; stroke-width: 3"/>
    <path d="M 162.860833 238.695833 
L 162.860833 121.304167 
" clip-path="url(#p2510777a2e)" style="fill: none; stroke: #ff0000; stroke-width: 3"/>
    <path d="M 162.860833 121.304167 
L 104.165 180 
" clip-path="url(#p2510777a2e)" style="fill: none; stroke: #808000; stroke-width: 3"/>
    <path d="M 104.165 180 
L 45.469167 121.304167 
" clip-path="url(#p2510777a2e)" style="fill: none; stroke: #808000; stroke-width: 3"/>
    <path d="M 45.469167 121.304167 
L 104.165 238.695833 
" clip-path="url(#p2510777a2e)" style="fill: none; stroke: #00ff00; stroke-width: 3"/>
    <path d="M 104.165 238.695833 
L 104.165 180 
" clip-path="url(#p2510777a2e)" style="fill: none; stroke: #008080; stroke-width: 3"/>
   </g>
   <g id="patch_3">
    <path d="M 33.73 250.435 
L 33.73 109.565 
" style="fill: none; stroke: #000000; stroke-width: 0.8; stroke-linejoin: miter; stroke-linecap: square"/>
   </g>
   <g id="patch_4">
    <path d="M 174.6 250.435 
L 174.6 109.565 
" style="fill: none; stroke: #000000; stroke-width: 0.8; stroke-linejoin: miter; stroke-linecap: square"/>
   </g>
   <g id="patch_5">
    <path d="M 33.73 250.435 
L 174.6 250.435 
" style="fill: none; stroke: #000000; stroke-width: 0.8; stroke-linejoin: miter; stroke-linecap: square"/>
   </g>
   <g id="patch_6">
    <path d="M 33.73 109.565 
L 174.6 109.565 
" style="fill: none; stroke: #000000; stroke-width: 0.8; stroke-linejoin: miter; stroke-linecap: square"/>
   </g>
   <g id="text_9">
    <!-- In -->
    <g transform="translate(98.5925 103.565)scale(0.12 -0.12)">
     <defs>
      <path id="DejaVuSans-49" d="M 628 4666 
L 1259 4666 
L 1259 0 
L 628 0 
L 628 4666 
z
" transform="scale(0.015625)"/>
      <path id="DejaVuSans-6e" d="M 3513 2113 
L 3513 0 
L 2938 0 
L 2938 2094 
Q 2938 2591 2744 2837 
Q 2550 3084 2163 3084 
Q 1697 3084 1428 2787 
Q 1159 2491 1159 1978 
L 1159 0 
L 581 0 
L 581 3500 
L 1159 3500 
L 1159 2956 
Q 1366 3272 1645 3428 
Q 1925 3584 2291 3584 
Q 2894 3584 3203 3211 
Q 3513 2838 3513 2113 
z
" transform="scale(0.015625)"/>
     </defs>
     <use xlink:href="#DejaVuSans-49"/>
     <use xlink:href="#DejaVuSans-6e" x="29.492188"/>
    </g>
   </g>
  </g>
  <g id="axes_2">
   <g id="patch_7">
    <path d="M 208.33 250.435 
L 349.2 250.435 
L 349.2 109.565 
L 208.33 109.565 
z
" style="fill: #ffffff"/>
   </g>
   <g id="PathCollection_3">
    <g clip-path="url(#pd30078d486)">
     <use xlink:href="#m75dbb9430d" x="278.765" y="238.695833" style="fill: #0000ff; stroke: #0000ff"/>
     <use xlink:href="#m75dbb9430d" x="337.460833" y="238.695833" style="fill: #0000ff; stroke: #0000ff"/>
     <use xlink:href="#m75dbb9430d" x="337.460833" y="121.304167" style="fill: #0000ff; stroke: #0000ff"/>
     <use xlink:href="#m75dbb9430d" x="278.765" y="180" style="fill: #0000ff; stroke: #0000ff"/>
     <use xlink:href="#m75dbb9430d" x="220.069167" y="121.304167" style="fill: #0000ff; stroke: #0000ff"/>
     <use xlink:href="#m75dbb9430d" x="246.318741" y="173.803316" style="fill: #0000ff; stroke: #0000ff"/>
     <use xlink:href="#m75dbb9430d" x="240.821278" y="142.056278" style="fill: #0000ff; stroke: #0000ff"/>
     <use xlink:href="#m75dbb9430d" x="265.640213" y="212.446259" style="fill: #0000ff; stroke: #0000ff"/>
     <use xlink:href="#m75dbb9430d" x="259.793139" y="161.028139" style="fill: #0000ff; stroke: #0000ff"/>
     <use xlink:href="#m75dbb9430d" x="233.193954" y="147.553741" style="fill: #0000ff; stroke: #0000ff"/>
     <use xlink:href="#m75dbb9430d" x="278.765" y="209.347917" style="fill: #0000ff; stroke: #0000ff"/>
     <use xlink:href="#m75dbb9430d" x="337.460833" y="180" style="fill: #0000ff; stroke: #0000ff"/>
     <use xlink:href="#m75dbb9430d" x="255.979477" y="193.124787" style="fill: #0000ff; stroke: #0000ff"/>
     <use xlink:href="#m75dbb9430d" x="308.112917" y="238.695833" style="fill: #0000ff; stroke: #0000ff"/>
     <use xlink:href="#m75dbb9430d" x="308.112917" y="194.673958" style="fill: #0000ff; stroke: #0000ff"/>
     <use xlink:href="#m75dbb9430d" x="293.438958" y="224.021875" style="fill: #0000ff; stroke: #0000ff"/>
     <use xlink:href="#m75dbb9430d" x="278.765" y="224.021875" style="fill: #0000ff; stroke: #0000ff"/>
     <use xlink:href="#m75dbb9430d" x="272.202606" y="225.571046" style="fill: #0000ff; stroke: #0000ff"/>
     <use xlink:href="#m75dbb9430d" x="293.438958" y="238.695833" style="fill: #0000ff; stroke: #0000ff"/>
     <use xlink:href="#m75dbb9430d" x="300.775937" y="231.358854" style="fill: #0000ff; stroke: #0000ff"/>
     <use xlink:href="#m75dbb9430d" x="293.438958" y="231.358854" style="fill: #0000ff; stroke: #0000ff"/>
     <use xlink:href="#m75dbb9430d" x="286.101979" y="227.690365" style="fill: #0000ff; stroke: #0000ff"/>
     <use xlink:href="#m75dbb9430d" x="278.765" y="231.358854" style="fill: #0000ff; stroke: #0000ff"/>
     <use xlink:href="#m75dbb9430d" x="275.483803" y="232.13344" style="fill: #0000ff; stroke: #0000ff"/>
     <use xlink:href="#m75dbb9430d" x="300.775937" y="238.695833" style="fill: #0000ff; stroke: #0000ff"/>
     <use xlink:href="#m75dbb9430d" x="337.460833" y="209.347917" style="fill: #0000ff; stroke: #0000ff"/>
     <use xlink:href="#m75dbb9430d" x="310.558576" y="214.239236" style="fill: #0000ff; stroke: #0000ff"/>
     <use xlink:href="#m75dbb9430d" x="303.332764" y="221.465049" style="fill: #0000ff; stroke: #0000ff"/>
     <use xlink:href="#m75dbb9430d" x="299.139211" y="225.658601" style="fill: #0000ff; stroke: #0000ff"/>
     <use xlink:href="#m75dbb9430d" x="310.799768" y="228.672003" style="fill: #0000ff; stroke: #0000ff"/>
     <use xlink:href="#m75dbb9430d" x="295.49183" y="206.398303" style="fill: #0000ff; stroke: #0000ff"/>
     <use xlink:href="#m75dbb9430d" x="310.551284" y="221.457757" style="fill: #0000ff; stroke: #0000ff"/>
     <use xlink:href="#m75dbb9430d" x="337.460833" y="224.021875" style="fill: #0000ff; stroke: #0000ff"/>
     <use xlink:href="#m75dbb9430d" x="324.470796" y="217.862554" style="fill: #0000ff; stroke: #0000ff"/>
     <use xlink:href="#m75dbb9430d" x="317.044809" y="217.855053" style="fill: #0000ff; stroke: #0000ff"/>
     <use xlink:href="#m75dbb9430d" x="322.786875" y="238.695833" style="fill: #0000ff; stroke: #0000ff"/>
     <use xlink:href="#m75dbb9430d" x="320.772264" y="203.542983" style="fill: #0000ff; stroke: #0000ff"/>
     <use xlink:href="#m75dbb9430d" x="320.748362" y="227.204482" style="fill: #0000ff; stroke: #0000ff"/>
     <use xlink:href="#m75dbb9430d" x="315.326583" y="224.904682" style="fill: #0000ff; stroke: #0000ff"/>
     <use xlink:href="#m75dbb9430d" x="317.052526" y="210.215636" style="fill: #0000ff; stroke: #0000ff"/>
     <use xlink:href="#m75dbb9430d" x="320.753827" y="221.794066" style="fill: #0000ff; stroke: #0000ff"/>
     <use xlink:href="#m75dbb9430d" x="324.773874" y="210.146851" style="fill: #0000ff; stroke: #0000ff"/>
     <use xlink:href="#m75dbb9430d" x="311.782862" y="202.904879" style="fill: #0000ff; stroke: #0000ff"/>
     <use xlink:href="#m75dbb9430d" x="337.460833" y="216.684896" style="fill: #0000ff; stroke: #0000ff"/>
     <use xlink:href="#m75dbb9430d" x="337.460833" y="194.673958" style="fill: #0000ff; stroke: #0000ff"/>
     <use xlink:href="#m75dbb9430d" x="331.323213" y="213.016406" style="fill: #0000ff; stroke: #0000ff"/>
     <use xlink:href="#m75dbb9430d" x="331.245012" y="220.353385" style="fill: #0000ff; stroke: #0000ff"/>
     <use xlink:href="#m75dbb9430d" x="329.891735" y="229.746585" style="fill: #0000ff; stroke: #0000ff"/>
     <use xlink:href="#m75dbb9430d" x="337.460833" y="202.010937" style="fill: #0000ff; stroke: #0000ff"/>
     <use xlink:href="#m75dbb9430d" x="330.726547" y="205.469479" style="fill: #0000ff; stroke: #0000ff"/>
     <use xlink:href="#m75dbb9430d" x="305.027935" y="227.180406" style="fill: #0000ff; stroke: #0000ff"/>
     <use xlink:href="#m75dbb9430d" x="296.50029" y="215.447123" style="fill: #0000ff; stroke: #0000ff"/>
     <use xlink:href="#m75dbb9430d" x="315.449896" y="238.695833" style="fill: #0000ff; stroke: #0000ff"/>
     <use xlink:href="#m75dbb9430d" x="319.118385" y="233.42012" style="fill: #0000ff; stroke: #0000ff"/>
     <use xlink:href="#m75dbb9430d" x="325.057541" y="233.203609" style="fill: #0000ff; stroke: #0000ff"/>
     <use xlink:href="#m75dbb9430d" x="330.123854" y="238.695833" style="fill: #0000ff; stroke: #0000ff"/>
     <use xlink:href="#m75dbb9430d" x="311.781406" y="234.307143" style="fill: #0000ff; stroke: #0000ff"/>
     <use xlink:href="#m75dbb9430d" x="316.809513" y="195.730006" style="fill: #0000ff; stroke: #0000ff"/>
     <use xlink:href="#m75dbb9430d" x="303.040684" y="201.869154" style="fill: #0000ff; stroke: #0000ff"/>
     <use xlink:href="#m75dbb9430d" x="326.464255" y="224.458705" style="fill: #0000ff; stroke: #0000ff"/>
     <use xlink:href="#m75dbb9430d" x="337.460833" y="231.358854" style="fill: #0000ff; stroke: #0000ff"/>
     <use xlink:href="#m75dbb9430d" x="327.414052" y="195.904935" style="fill: #0000ff; stroke: #0000ff"/>
     <use xlink:href="#m75dbb9430d" x="332.003957" y="199.671191" style="fill: #0000ff; stroke: #0000ff"/>
     <use xlink:href="#m75dbb9430d" x="303.491151" y="214.397624" style="fill: #0000ff; stroke: #0000ff"/>
     <use xlink:href="#m75dbb9430d" x="306.885709" y="208.10921" style="fill: #0000ff; stroke: #0000ff"/>
     <use xlink:href="#m75dbb9430d" x="300.933109" y="208.956345" style="fill: #0000ff; stroke: #0000ff"/>
     <use xlink:href="#m75dbb9430d" x="287.826731" y="211.833156" style="fill: #0000ff; stroke: #0000ff"/>
     <use xlink:href="#m75dbb9430d" x="285.557196" y="219.608707" style="fill: #0000ff; stroke: #0000ff"/>
     <use xlink:href="#m75dbb9430d" x="290.797248" y="216.919186" style="fill: #0000ff; stroke: #0000ff"/>
     <use xlink:href="#m75dbb9430d" x="278.765" y="216.684896" style="fill: #0000ff; stroke: #0000ff"/>
     <use xlink:href="#m75dbb9430d" x="316.708722" y="142.056278" style="fill: #0000ff; stroke: #0000ff"/>
     <use xlink:href="#m75dbb9430d" x="337.460833" y="150.652083" style="fill: #0000ff; stroke: #0000ff"/>
     <use xlink:href="#m75dbb9430d" x="292.559813" y="189.095269" style="fill: #0000ff; stroke: #0000ff"/>
     <use xlink:href="#m75dbb9430d" x="326.303037" y="201.645595" style="fill: #0000ff; stroke: #0000ff"/>
     <use xlink:href="#m75dbb9430d" x="337.460833" y="187.336979" style="fill: #0000ff; stroke: #0000ff"/>
     <use xlink:href="#m75dbb9430d" x="325.65553" y="183.66849" style="fill: #0000ff; stroke: #0000ff"/>
     <use xlink:href="#m75dbb9430d" x="331.91255" y="191.005469" style="fill: #0000ff; stroke: #0000ff"/>
     <use xlink:href="#m75dbb9430d" x="332.128172" y="183.66849" style="fill: #0000ff; stroke: #0000ff"/>
     <use xlink:href="#m75dbb9430d" x="337.460833" y="165.326042" style="fill: #0000ff; stroke: #0000ff"/>
     <use xlink:href="#m75dbb9430d" x="328.891851" y="173.253917" style="fill: #0000ff; stroke: #0000ff"/>
     <use xlink:href="#m75dbb9430d" x="293.16427" y="211.238306" style="fill: #0000ff; stroke: #0000ff"/>
     <use xlink:href="#m75dbb9430d" x="299.565454" y="194.033875" style="fill: #0000ff; stroke: #0000ff"/>
     <use xlink:href="#m75dbb9430d" x="297.736861" y="161.028139" style="fill: #0000ff; stroke: #0000ff"/>
     <use xlink:href="#m75dbb9430d" x="278.765" y="194.673958" style="fill: #0000ff; stroke: #0000ff"/>
     <use xlink:href="#m75dbb9430d" x="296.764762" y="199.964419" style="fill: #0000ff; stroke: #0000ff"/>
     <use xlink:href="#m75dbb9430d" x="286.596185" y="201.295451" style="fill: #0000ff; stroke: #0000ff"/>
     <use xlink:href="#m75dbb9430d" x="304.997174" y="178.890514" style="fill: #0000ff; stroke: #0000ff"/>
     <use xlink:href="#m75dbb9430d" x="300.188674" y="185.711593" style="fill: #0000ff; stroke: #0000ff"/>
     <use xlink:href="#m75dbb9430d" x="304.150795" y="190.192776" style="fill: #0000ff; stroke: #0000ff"/>
     <use xlink:href="#m75dbb9430d" x="313.599152" y="185.831018" style="fill: #0000ff; stroke: #0000ff"/>
     <use xlink:href="#m75dbb9430d" x="288.250931" y="170.514069" style="fill: #0000ff; stroke: #0000ff"/>
     <use xlink:href="#m75dbb9430d" x="292.761573" y="179.258279" style="fill: #0000ff; stroke: #0000ff"/>
     <use xlink:href="#m75dbb9430d" x="294.964058" y="184.224017" style="fill: #0000ff; stroke: #0000ff"/>
     <use xlink:href="#m75dbb9430d" x="291.064199" y="195.921837" style="fill: #0000ff; stroke: #0000ff"/>
     <use xlink:href="#m75dbb9430d" x="285.341439" y="191.090934" style="fill: #0000ff; stroke: #0000ff"/>
     <use xlink:href="#m75dbb9430d" x="283.989596" y="196.436556" style="fill: #0000ff; stroke: #0000ff"/>
     <use xlink:href="#m75dbb9430d" x="278.765" y="202.010937" style="fill: #0000ff; stroke: #0000ff"/>
     <use xlink:href="#m75dbb9430d" x="287.284452" y="184.066506" style="fill: #0000ff; stroke: #0000ff"/>
     <use xlink:href="#m75dbb9430d" x="283.507965" y="175.257035" style="fill: #0000ff; stroke: #0000ff"/>
     <use xlink:href="#m75dbb9430d" x="278.765" y="187.336979" style="fill: #0000ff; stroke: #0000ff"/>
     <use xlink:href="#m75dbb9430d" x="260.809845" y="202.785523" style="fill: #0000ff; stroke: #0000ff"/>
     <use xlink:href="#m75dbb9430d" x="265.705308" y="183.66849" style="fill: #0000ff; stroke: #0000ff"/>
     <use xlink:href="#m75dbb9430d" x="284.307069" y="206.903465" style="fill: #0000ff; stroke: #0000ff"/>
     <use xlink:href="#m75dbb9430d" x="312.907677" y="191.525345" style="fill: #0000ff; stroke: #0000ff"/>
     <use xlink:href="#m75dbb9430d" x="298.160548" y="170.937756" style="fill: #0000ff; stroke: #0000ff"/>
     <use xlink:href="#m75dbb9430d" x="292.993896" y="165.771104" style="fill: #0000ff; stroke: #0000ff"/>
     <use xlink:href="#m75dbb9430d" x="293.084735" y="173.556081" style="fill: #0000ff; stroke: #0000ff"/>
     <use xlink:href="#m75dbb9430d" x="298.825472" y="177.281098" style="fill: #0000ff; stroke: #0000ff"/>
     <use xlink:href="#m75dbb9430d" x="312.701886" y="165.352174" style="fill: #0000ff; stroke: #0000ff"/>
     <use xlink:href="#m75dbb9430d" x="304.493267" y="165.703134" style="fill: #0000ff; stroke: #0000ff"/>
     <use xlink:href="#m75dbb9430d" x="304.617804" y="172.301693" style="fill: #0000ff; stroke: #0000ff"/>
     <use xlink:href="#m75dbb9430d" x="314.022861" y="175.065503" style="fill: #0000ff; stroke: #0000ff"/>
     <use xlink:href="#m75dbb9430d" x="307.222792" y="151.542208" style="fill: #0000ff; stroke: #0000ff"/>
     <use xlink:href="#m75dbb9430d" x="302.479827" y="156.285173" style="fill: #0000ff; stroke: #0000ff"/>
     <use xlink:href="#m75dbb9430d" x="309.548858" y="158.611239" style="fill: #0000ff; stroke: #0000ff"/>
     <use xlink:href="#m75dbb9430d" x="323.89724" y="156.007749" style="fill: #0000ff; stroke: #0000ff"/>
     <use xlink:href="#m75dbb9430d" x="317.066576" y="159.202747" style="fill: #0000ff; stroke: #0000ff"/>
     <use xlink:href="#m75dbb9430d" x="321.822344" y="167.201938" style="fill: #0000ff; stroke: #0000ff"/>
     <use xlink:href="#m75dbb9430d" x="311.965757" y="146.799243" style="fill: #0000ff; stroke: #0000ff"/>
     <use xlink:href="#m75dbb9430d" x="319.404458" y="149.494978" style="fill: #0000ff; stroke: #0000ff"/>
     <use xlink:href="#m75dbb9430d" x="322.304554" y="161.501928" style="fill: #0000ff; stroke: #0000ff"/>
     <use xlink:href="#m75dbb9430d" x="329.487569" y="164.98" style="fill: #0000ff; stroke: #0000ff"/>
     <use xlink:href="#m75dbb9430d" x="313.747541" y="153.317085" style="fill: #0000ff; stroke: #0000ff"/>
     <use xlink:href="#m75dbb9430d" x="328.566775" y="147.980468" style="fill: #0000ff; stroke: #0000ff"/>
     <use xlink:href="#m75dbb9430d" x="337.460833" y="157.989062" style="fill: #0000ff; stroke: #0000ff"/>
     <use xlink:href="#m75dbb9430d" x="327.084778" y="131.680222" style="fill: #0000ff; stroke: #0000ff"/>
     <use xlink:href="#m75dbb9430d" x="337.460833" y="135.978125" style="fill: #0000ff; stroke: #0000ff"/>
     <use xlink:href="#m75dbb9430d" x="330.516482" y="158.111211" style="fill: #0000ff; stroke: #0000ff"/>
     <use xlink:href="#m75dbb9430d" x="321.89675" y="136.86825" style="fill: #0000ff; stroke: #0000ff"/>
     <use xlink:href="#m75dbb9430d" x="329.861764" y="139.645236" style="fill: #0000ff; stroke: #0000ff"/>
     <use xlink:href="#m75dbb9430d" x="323.188569" y="143.915833" style="fill: #0000ff; stroke: #0000ff"/>
     <use xlink:href="#m75dbb9430d" x="337.460833" y="143.315104" style="fill: #0000ff; stroke: #0000ff"/>
     <use xlink:href="#m75dbb9430d" x="332.026454" y="134.423919" style="fill: #0000ff; stroke: #0000ff"/>
     <use xlink:href="#m75dbb9430d" x="332.272806" y="126.492194" style="fill: #0000ff; stroke: #0000ff"/>
     <use xlink:href="#m75dbb9430d" x="337.460833" y="128.641146" style="fill: #0000ff; stroke: #0000ff"/>
     <use xlink:href="#m75dbb9430d" x="310.215685" y="170.636776" style="fill: #0000ff; stroke: #0000ff"/>
     <use xlink:href="#m75dbb9430d" x="310.932672" y="180.334975" style="fill: #0000ff; stroke: #0000ff"/>
     <use xlink:href="#m75dbb9430d" x="316.552686" y="169.774968" style="fill: #0000ff; stroke: #0000ff"/>
     <use xlink:href="#m75dbb9430d" x="321.613988" y="175.445301" style="fill: #0000ff; stroke: #0000ff"/>
     <use xlink:href="#m75dbb9430d" x="317.551251" y="180.595469" style="fill: #0000ff; stroke: #0000ff"/>
     <use xlink:href="#m75dbb9430d" x="332.037815" y="152.565437" style="fill: #0000ff; stroke: #0000ff"/>
     <use xlink:href="#m75dbb9430d" x="322.20099" y="190.409531" style="fill: #0000ff; stroke: #0000ff"/>
     <use xlink:href="#m75dbb9430d" x="337.460833" y="172.663021" style="fill: #0000ff; stroke: #0000ff"/>
     <use xlink:href="#m75dbb9430d" x="332.930011" y="169.386258" style="fill: #0000ff; stroke: #0000ff"/>
     <use xlink:href="#m75dbb9430d" x="286.101979" y="238.695833" style="fill: #0000ff; stroke: #0000ff"/>
     <use xlink:href="#m75dbb9430d" x="287.936224" y="233.193099" style="fill: #0000ff; stroke: #0000ff"/>
    </g>
   </g>
   <g id="PolyCollection_1">
    <path d="M 260.809845 202.785523 
L 265.640213 212.446259 
L 278.765 202.010937 
z
" clip-path="url(#pd30078d486)" style="fill: #b3e2cd"/>
    <path d="M 240.821278 142.056278 
L 220.069167 121.304167 
L 233.193954 147.553741 
z
" clip-path="url(#pd30078d486)" style="fill: #b3e2cd"/>
    <path d="M 300.188674 185.711593 
L 294.964058 184.224017 
L 292.559813 189.095269 
z
" clip-path="url(#pd30078d486)" style="fill: #cccccc"/>
    <path d="M 310.551284 221.457757 
L 315.326583 224.904682 
L 317.044809 217.855053 
z
" clip-path="url(#pd30078d486)" style="fill: #cccccc"/>
    <path d="M 265.640213 212.446259 
L 278.765 209.347917 
L 278.765 202.010937 
z
" clip-path="url(#pd30078d486)" style="fill: #b3e2cd"/>
    <path d="M 233.193954 147.553741 
L 246.318741 173.803316 
L 259.793139 161.028139 
z
" clip-path="url(#pd30078d486)" style="fill: #b3e2cd"/>
    <path d="M 265.705308 183.66849 
L 259.793139 161.028139 
L 246.318741 173.803316 
z
" clip-path="url(#pd30078d486)" style="fill: #b3e2cd"/>
    <path d="M 259.793139 161.028139 
L 240.821278 142.056278 
L 233.193954 147.553741 
z
" clip-path="url(#pd30078d486)" style="fill: #b3e2cd"/>
    <path d="M 311.782862 202.904879 
L 316.809513 195.730006 
L 308.112917 194.673958 
z
" clip-path="url(#pd30078d486)" style="fill: #cccccc"/>
    <path d="M 275.483803 232.13344 
L 278.765 238.695833 
L 278.765 231.358854 
z
" clip-path="url(#pd30078d486)" style="fill: #b3e2cd"/>
    <path d="M 287.936224 233.193099 
L 293.438958 238.695833 
L 293.438958 231.358854 
z
" clip-path="url(#pd30078d486)" style="fill: #cccccc"/>
    <path d="M 313.599152 185.831018 
L 310.932672 180.334975 
L 304.150795 190.192776 
z
" clip-path="url(#pd30078d486)" style="fill: #cccccc"/>
    <path d="M 260.809845 202.785523 
L 265.705308 183.66849 
L 255.979477 193.124787 
z
" clip-path="url(#pd30078d486)" style="fill: #b3e2cd"/>
    <path d="M 293.438958 224.021875 
L 299.139211 225.658601 
L 296.50029 215.447123 
z
" clip-path="url(#pd30078d486)" style="fill: #cccccc"/>
    <path d="M 296.764762 199.964419 
L 291.064199 195.921837 
L 286.596185 201.295451 
z
" clip-path="url(#pd30078d486)" style="fill: #cccccc"/>
    <path d="M 296.50029 215.447123 
L 299.139211 225.658601 
L 303.332764 221.465049 
z
" clip-path="url(#pd30078d486)" style="fill: #cccccc"/>
    <path d="M 293.438958 238.695833 
L 300.775937 231.358854 
L 293.438958 231.358854 
z
" clip-path="url(#pd30078d486)" style="fill: #cccccc"/>
    <path d="M 272.202606 225.571046 
L 278.765 216.684896 
L 265.640213 212.446259 
z
" clip-path="url(#pd30078d486)" style="fill: #b3e2cd"/>
    <path d="M 278.765 224.021875 
L 286.101979 227.690365 
L 285.557196 219.608707 
z
" clip-path="url(#pd30078d486)" style="fill: #cccccc"/>
    <path d="M 278.765 216.684896 
L 272.202606 225.571046 
L 278.765 224.021875 
z
" clip-path="url(#pd30078d486)" style="fill: #b3e2cd"/>
    <path d="M 287.936224 233.193099 
L 293.438958 231.358854 
L 286.101979 227.690365 
z
" clip-path="url(#pd30078d486)" style="fill: #cccccc"/>
    <path d="M 310.558576 214.239236 
L 303.491151 214.397624 
L 310.551284 221.457757 
z
" clip-path="url(#pd30078d486)" style="fill: #cccccc"/>
    <path d="M 300.775937 238.695833 
L 308.112917 238.695833 
L 300.775937 231.358854 
z
" clip-path="url(#pd30078d486)" style="fill: #cccccc"/>
    <path d="M 286.101979 227.690365 
L 293.438958 231.358854 
L 293.438958 224.021875 
z
" clip-path="url(#pd30078d486)" style="fill: #cccccc"/>
    <path d="M 299.139211 225.658601 
L 293.438958 231.358854 
L 300.775937 231.358854 
z
" clip-path="url(#pd30078d486)" style="fill: #cccccc"/>
    <path d="M 278.765 238.695833 
L 286.101979 238.695833 
L 278.765 231.358854 
z
" clip-path="url(#pd30078d486)" style="fill: #cccccc"/>
    <path d="M 296.50029 215.447123 
L 290.797248 216.919186 
L 293.438958 224.021875 
z
" clip-path="url(#pd30078d486)" style="fill: #cccccc"/>
    <path d="M 286.101979 227.690365 
L 278.765 224.021875 
L 278.765 231.358854 
z
" clip-path="url(#pd30078d486)" style="fill: #cccccc"/>
    <path d="M 272.202606 225.571046 
L 275.483803 232.13344 
L 278.765 224.021875 
z
" clip-path="url(#pd30078d486)" style="fill: #b3e2cd"/>
    <path d="M 278.765 224.021875 
L 275.483803 232.13344 
L 278.765 231.358854 
z
" clip-path="url(#pd30078d486)" style="fill: #b3e2cd"/>
    <path d="M 300.775937 231.358854 
L 293.438958 238.695833 
L 300.775937 238.695833 
z
" clip-path="url(#pd30078d486)" style="fill: #cccccc"/>
    <path d="M 293.16427 211.238306 
L 290.797248 216.919186 
L 296.50029 215.447123 
z
" clip-path="url(#pd30078d486)" style="fill: #cccccc"/>
    <path d="M 305.027935 227.180406 
L 303.332764 221.465049 
L 299.139211 225.658601 
z
" clip-path="url(#pd30078d486)" style="fill: #cccccc"/>
    <path d="M 317.044809 217.855053 
L 317.052526 210.215636 
L 310.558576 214.239236 
z
" clip-path="url(#pd30078d486)" style="fill: #cccccc"/>
    <path d="M 311.781406 234.307143 
L 305.027935 227.180406 
L 300.775937 231.358854 
z
" clip-path="url(#pd30078d486)" style="fill: #cccccc"/>
    <path d="M 296.50029 215.447123 
L 303.332764 221.465049 
L 303.491151 214.397624 
z
" clip-path="url(#pd30078d486)" style="fill: #cccccc"/>
    <path d="M 293.438958 231.358854 
L 299.139211 225.658601 
L 293.438958 224.021875 
z
" clip-path="url(#pd30078d486)" style="fill: #cccccc"/>
    <path d="M 305.027935 227.180406 
L 299.139211 225.658601 
L 300.775937 231.358854 
z
" clip-path="url(#pd30078d486)" style="fill: #cccccc"/>
    <path d="M 329.891735 229.746585 
L 337.460833 224.021875 
L 331.245012 220.353385 
z
" clip-path="url(#pd30078d486)" style="fill: #cccccc"/>
    <path d="M 317.044809 217.855053 
L 310.558576 214.239236 
L 310.551284 221.457757 
z
" clip-path="url(#pd30078d486)" style="fill: #cccccc"/>
    <path d="M 310.558576 214.239236 
L 306.885709 208.10921 
L 303.491151 214.397624 
z
" clip-path="url(#pd30078d486)" style="fill: #cccccc"/>
    <path d="M 296.764762 199.964419 
L 303.040684 201.869154 
L 299.565454 194.033875 
z
" clip-path="url(#pd30078d486)" style="fill: #cccccc"/>
    <path d="M 305.027935 227.180406 
L 310.551284 221.457757 
L 303.332764 221.465049 
z
" clip-path="url(#pd30078d486)" style="fill: #cccccc"/>
    <path d="M 331.245012 220.353385 
L 326.464255 224.458705 
L 329.891735 229.746585 
z
" clip-path="url(#pd30078d486)" style="fill: #cccccc"/>
    <path d="M 337.460833 209.347917 
L 331.323213 213.016406 
L 337.460833 216.684896 
z
" clip-path="url(#pd30078d486)" style="fill: #cccccc"/>
    <path d="M 320.753827 221.794066 
L 324.470796 217.862554 
L 317.044809 217.855053 
z
" clip-path="url(#pd30078d486)" style="fill: #cccccc"/>
    <path d="M 320.772264 203.542983 
L 311.782862 202.904879 
L 317.052526 210.215636 
z
" clip-path="url(#pd30078d486)" style="fill: #cccccc"/>
    <path d="M 315.326583 224.904682 
L 310.551284 221.457757 
L 310.799768 228.672003 
z
" clip-path="url(#pd30078d486)" style="fill: #cccccc"/>
    <path d="M 324.470796 217.862554 
L 324.773874 210.146851 
L 317.052526 210.215636 
z
" clip-path="url(#pd30078d486)" style="fill: #cccccc"/>
    <path d="M 324.773874 210.146851 
L 320.772264 203.542983 
L 317.052526 210.215636 
z
" clip-path="url(#pd30078d486)" style="fill: #cccccc"/>
    <path d="M 315.449896 238.695833 
L 322.786875 238.695833 
L 319.118385 233.42012 
z
" clip-path="url(#pd30078d486)" style="fill: #cccccc"/>
    <path d="M 332.003957 199.671191 
L 331.91255 191.005469 
L 327.414052 195.904935 
z
" clip-path="url(#pd30078d486)" style="fill: #cccccc"/>
    <path d="M 310.799768 228.672003 
L 311.781406 234.307143 
L 319.118385 233.42012 
z
" clip-path="url(#pd30078d486)" style="fill: #cccccc"/>
    <path d="M 329.891735 229.746585 
L 325.057541 233.203609 
L 330.123854 238.695833 
z
" clip-path="url(#pd30078d486)" style="fill: #cccccc"/>
    <path d="M 319.118385 233.42012 
L 315.326583 224.904682 
L 310.799768 228.672003 
z
" clip-path="url(#pd30078d486)" style="fill: #cccccc"/>
    <path d="M 315.326583 224.904682 
L 320.748362 227.204482 
L 320.753827 221.794066 
z
" clip-path="url(#pd30078d486)" style="fill: #cccccc"/>
    <path d="M 324.470796 217.862554 
L 317.052526 210.215636 
L 317.044809 217.855053 
z
" clip-path="url(#pd30078d486)" style="fill: #cccccc"/>
    <path d="M 320.772264 203.542983 
L 316.809513 195.730006 
L 311.782862 202.904879 
z
" clip-path="url(#pd30078d486)" style="fill: #cccccc"/>
    <path d="M 315.326583 224.904682 
L 320.753827 221.794066 
L 317.044809 217.855053 
z
" clip-path="url(#pd30078d486)" style="fill: #cccccc"/>
    <path d="M 325.057541 233.203609 
L 326.464255 224.458705 
L 320.748362 227.204482 
z
" clip-path="url(#pd30078d486)" style="fill: #cccccc"/>
    <path d="M 324.470796 217.862554 
L 331.245012 220.353385 
L 331.323213 213.016406 
z
" clip-path="url(#pd30078d486)" style="fill: #cccccc"/>
    <path d="M 337.460833 209.347917 
L 330.726547 205.469479 
L 331.323213 213.016406 
z
" clip-path="url(#pd30078d486)" style="fill: #cccccc"/>
    <path d="M 303.040684 201.869154 
L 311.782862 202.904879 
L 308.112917 194.673958 
z
" clip-path="url(#pd30078d486)" style="fill: #cccccc"/>
    <path d="M 317.052526 210.215636 
L 311.782862 202.904879 
L 306.885709 208.10921 
z
" clip-path="url(#pd30078d486)" style="fill: #cccccc"/>
    <path d="M 330.726547 205.469479 
L 337.460833 209.347917 
L 337.460833 202.010937 
z
" clip-path="url(#pd30078d486)" style="fill: #cccccc"/>
    <path d="M 331.245012 220.353385 
L 337.460833 216.684896 
L 331.323213 213.016406 
z
" clip-path="url(#pd30078d486)" style="fill: #cccccc"/>
    <path d="M 332.003957 199.671191 
L 330.726547 205.469479 
L 337.460833 202.010937 
z
" clip-path="url(#pd30078d486)" style="fill: #cccccc"/>
    <path d="M 324.470796 217.862554 
L 331.323213 213.016406 
L 324.773874 210.146851 
z
" clip-path="url(#pd30078d486)" style="fill: #cccccc"/>
    <path d="M 324.470796 217.862554 
L 320.753827 221.794066 
L 326.464255 224.458705 
z
" clip-path="url(#pd30078d486)" style="fill: #cccccc"/>
    <path d="M 337.460833 224.021875 
L 337.460833 216.684896 
L 331.245012 220.353385 
z
" clip-path="url(#pd30078d486)" style="fill: #cccccc"/>
    <path d="M 320.748362 227.204482 
L 319.118385 233.42012 
L 325.057541 233.203609 
z
" clip-path="url(#pd30078d486)" style="fill: #cccccc"/>
    <path d="M 337.460833 231.358854 
L 337.460833 224.021875 
L 329.891735 229.746585 
z
" clip-path="url(#pd30078d486)" style="fill: #cccccc"/>
    <path d="M 337.460833 194.673958 
L 331.91255 191.005469 
L 332.003957 199.671191 
z
" clip-path="url(#pd30078d486)" style="fill: #cccccc"/>
    <path d="M 331.323213 213.016406 
L 330.726547 205.469479 
L 324.773874 210.146851 
z
" clip-path="url(#pd30078d486)" style="fill: #cccccc"/>
    <path d="M 324.773874 210.146851 
L 330.726547 205.469479 
L 326.303037 201.645595 
z
" clip-path="url(#pd30078d486)" style="fill: #cccccc"/>
    <path d="M 311.781406 234.307143 
L 300.775937 231.358854 
L 308.112917 238.695833 
z
" clip-path="url(#pd30078d486)" style="fill: #cccccc"/>
    <path d="M 310.551284 221.457757 
L 305.027935 227.180406 
L 310.799768 228.672003 
z
" clip-path="url(#pd30078d486)" style="fill: #cccccc"/>
    <path d="M 303.332764 221.465049 
L 310.551284 221.457757 
L 303.491151 214.397624 
z
" clip-path="url(#pd30078d486)" style="fill: #cccccc"/>
    <path d="M 296.50029 215.447123 
L 300.933109 208.956345 
L 293.16427 211.238306 
z
" clip-path="url(#pd30078d486)" style="fill: #cccccc"/>
    <path d="M 325.057541 233.203609 
L 319.118385 233.42012 
L 322.786875 238.695833 
z
" clip-path="url(#pd30078d486)" style="fill: #cccccc"/>
    <path d="M 305.027935 227.180406 
L 311.781406 234.307143 
L 310.799768 228.672003 
z
" clip-path="url(#pd30078d486)" style="fill: #cccccc"/>
    <path d="M 319.118385 233.42012 
L 320.748362 227.204482 
L 315.326583 224.904682 
z
" clip-path="url(#pd30078d486)" style="fill: #cccccc"/>
    <path d="M 330.123854 238.695833 
L 337.460833 238.695833 
L 337.460833 231.358854 
z
" clip-path="url(#pd30078d486)" style="fill: #cccccc"/>
    <path d="M 325.057541 233.203609 
L 329.891735 229.746585 
L 326.464255 224.458705 
z
" clip-path="url(#pd30078d486)" style="fill: #cccccc"/>
    <path d="M 308.112917 238.695833 
L 315.449896 238.695833 
L 311.781406 234.307143 
z
" clip-path="url(#pd30078d486)" style="fill: #cccccc"/>
    <path d="M 325.057541 233.203609 
L 322.786875 238.695833 
L 330.123854 238.695833 
z
" clip-path="url(#pd30078d486)" style="fill: #cccccc"/>
    <path d="M 319.118385 233.42012 
L 311.781406 234.307143 
L 315.449896 238.695833 
z
" clip-path="url(#pd30078d486)" style="fill: #cccccc"/>
    <path d="M 316.809513 195.730006 
L 326.303037 201.645595 
L 327.414052 195.904935 
z
" clip-path="url(#pd30078d486)" style="fill: #cccccc"/>
    <path d="M 316.809513 195.730006 
L 327.414052 195.904935 
L 322.20099 190.409531 
z
" clip-path="url(#pd30078d486)" style="fill: #cccccc"/>
    <path d="M 299.565454 194.033875 
L 303.040684 201.869154 
L 308.112917 194.673958 
z
" clip-path="url(#pd30078d486)" style="fill: #cccccc"/>
    <path d="M 296.50029 215.447123 
L 303.491151 214.397624 
L 300.933109 208.956345 
z
" clip-path="url(#pd30078d486)" style="fill: #cccccc"/>
    <path d="M 324.470796 217.862554 
L 326.464255 224.458705 
L 331.245012 220.353385 
z
" clip-path="url(#pd30078d486)" style="fill: #cccccc"/>
    <path d="M 320.748362 227.204482 
L 326.464255 224.458705 
L 320.753827 221.794066 
z
" clip-path="url(#pd30078d486)" style="fill: #cccccc"/>
    <path d="M 332.128172 183.66849 
L 337.460833 187.336979 
L 337.460833 180 
z
" clip-path="url(#pd30078d486)" style="fill: #cccccc"/>
    <path d="M 330.123854 238.695833 
L 337.460833 231.358854 
L 329.891735 229.746585 
z
" clip-path="url(#pd30078d486)" style="fill: #cccccc"/>
    <path d="M 320.772264 203.542983 
L 326.303037 201.645595 
L 316.809513 195.730006 
z
" clip-path="url(#pd30078d486)" style="fill: #cccccc"/>
    <path d="M 337.460833 194.673958 
L 332.003957 199.671191 
L 337.460833 202.010937 
z
" clip-path="url(#pd30078d486)" style="fill: #cccccc"/>
    <path d="M 326.303037 201.645595 
L 332.003957 199.671191 
L 327.414052 195.904935 
z
" clip-path="url(#pd30078d486)" style="fill: #cccccc"/>
    <path d="M 310.558576 214.239236 
L 317.052526 210.215636 
L 306.885709 208.10921 
z
" clip-path="url(#pd30078d486)" style="fill: #cccccc"/>
    <path d="M 295.49183 206.398303 
L 293.16427 211.238306 
L 300.933109 208.956345 
z
" clip-path="url(#pd30078d486)" style="fill: #cccccc"/>
    <path d="M 311.782862 202.904879 
L 303.040684 201.869154 
L 306.885709 208.10921 
z
" clip-path="url(#pd30078d486)" style="fill: #cccccc"/>
    <path d="M 300.933109 208.956345 
L 303.040684 201.869154 
L 295.49183 206.398303 
z
" clip-path="url(#pd30078d486)" style="fill: #cccccc"/>
    <path d="M 303.491151 214.397624 
L 306.885709 208.10921 
L 300.933109 208.956345 
z
" clip-path="url(#pd30078d486)" style="fill: #cccccc"/>
    <path d="M 303.040684 201.869154 
L 300.933109 208.956345 
L 306.885709 208.10921 
z
" clip-path="url(#pd30078d486)" style="fill: #cccccc"/>
    <path d="M 286.596185 201.295451 
L 295.49183 206.398303 
L 296.764762 199.964419 
z
" clip-path="url(#pd30078d486)" style="fill: #cccccc"/>
    <path d="M 278.765 216.684896 
L 278.765 224.021875 
L 285.557196 219.608707 
z
" clip-path="url(#pd30078d486)" style="fill: #cccccc"/>
    <path d="M 293.438958 224.021875 
L 285.557196 219.608707 
L 286.101979 227.690365 
z
" clip-path="url(#pd30078d486)" style="fill: #cccccc"/>
    <path d="M 278.765 216.684896 
L 287.826731 211.833156 
L 278.765 209.347917 
z
" clip-path="url(#pd30078d486)" style="fill: #cccccc"/>
    <path d="M 287.826731 211.833156 
L 285.557196 219.608707 
L 290.797248 216.919186 
z
" clip-path="url(#pd30078d486)" style="fill: #cccccc"/>
    <path d="M 293.438958 224.021875 
L 290.797248 216.919186 
L 285.557196 219.608707 
z
" clip-path="url(#pd30078d486)" style="fill: #cccccc"/>
    <path d="M 287.826731 211.833156 
L 278.765 216.684896 
L 285.557196 219.608707 
z
" clip-path="url(#pd30078d486)" style="fill: #cccccc"/>
    <path d="M 265.640213 212.446259 
L 278.765 216.684896 
L 278.765 209.347917 
z
" clip-path="url(#pd30078d486)" style="fill: #b3e2cd"/>
    <path d="M 325.65553 183.66849 
L 332.128172 183.66849 
L 328.891851 173.253917 
z
" clip-path="url(#pd30078d486)" style="fill: #cccccc"/>
    <path d="M 316.708722 142.056278 
L 319.404458 149.494978 
L 323.188569 143.915833 
z
" clip-path="url(#pd30078d486)" style="fill: #cccccc"/>
    <path d="M 285.341439 191.090934 
L 292.559813 189.095269 
L 287.284452 184.066506 
z
" clip-path="url(#pd30078d486)" style="fill: #cccccc"/>
    <path d="M 287.826731 211.833156 
L 284.307069 206.903465 
L 278.765 209.347917 
z
" clip-path="url(#pd30078d486)" style="fill: #cccccc"/>
    <path d="M 324.773874 210.146851 
L 326.303037 201.645595 
L 320.772264 203.542983 
z
" clip-path="url(#pd30078d486)" style="fill: #cccccc"/>
    <path d="M 332.003957 199.671191 
L 326.303037 201.645595 
L 330.726547 205.469479 
z
" clip-path="url(#pd30078d486)" style="fill: #cccccc"/>
    <path d="M 309.548858 158.611239 
L 313.747541 153.317085 
L 307.222792 151.542208 
z
" clip-path="url(#pd30078d486)" style="fill: #cccccc"/>
    <path d="M 337.460833 194.673958 
L 337.460833 187.336979 
L 331.91255 191.005469 
z
" clip-path="url(#pd30078d486)" style="fill: #cccccc"/>
    <path d="M 314.022861 175.065503 
L 304.997174 178.890514 
L 310.932672 180.334975 
z
" clip-path="url(#pd30078d486)" style="fill: #cccccc"/>
    <path d="M 332.128172 183.66849 
L 331.91255 191.005469 
L 337.460833 187.336979 
z
" clip-path="url(#pd30078d486)" style="fill: #cccccc"/>
    <path d="M 322.20099 190.409531 
L 331.91255 191.005469 
L 325.65553 183.66849 
z
" clip-path="url(#pd30078d486)" style="fill: #cccccc"/>
    <path d="M 328.891851 173.253917 
L 332.128172 183.66849 
L 337.460833 180 
z
" clip-path="url(#pd30078d486)" style="fill: #cccccc"/>
    <path d="M 331.91255 191.005469 
L 332.128172 183.66849 
L 325.65553 183.66849 
z
" clip-path="url(#pd30078d486)" style="fill: #cccccc"/>
    <path d="M 322.304554 161.501928 
L 330.516482 158.111211 
L 323.89724 156.007749 
z
" clip-path="url(#pd30078d486)" style="fill: #cccccc"/>
    <path d="M 329.487569 164.98 
L 332.930011 169.386258 
L 337.460833 165.326042 
z
" clip-path="url(#pd30078d486)" style="fill: #cccccc"/>
    <path d="M 297.736861 161.028139 
L 298.160548 170.937756 
L 304.493267 165.703134 
z
" clip-path="url(#pd30078d486)" style="fill: #cccccc"/>
    <path d="M 295.49183 206.398303 
L 287.826731 211.833156 
L 293.16427 211.238306 
z
" clip-path="url(#pd30078d486)" style="fill: #cccccc"/>
    <path d="M 290.797248 216.919186 
L 293.16427 211.238306 
L 287.826731 211.833156 
z
" clip-path="url(#pd30078d486)" style="fill: #cccccc"/>
    <path d="M 299.565454 194.033875 
L 304.150795 190.192776 
L 300.188674 185.711593 
z
" clip-path="url(#pd30078d486)" style="fill: #cccccc"/>
    <path d="M 303.040684 201.869154 
L 296.764762 199.964419 
L 295.49183 206.398303 
z
" clip-path="url(#pd30078d486)" style="fill: #cccccc"/>
    <path d="M 278.765 194.673958 
L 283.989596 196.436556 
L 285.341439 191.090934 
z
" clip-path="url(#pd30078d486)" style="fill: #cccccc"/>
    <path d="M 300.188674 185.711593 
L 292.559813 189.095269 
L 299.565454 194.033875 
z
" clip-path="url(#pd30078d486)" style="fill: #cccccc"/>
    <path d="M 265.705308 183.66849 
L 278.765 194.673958 
L 278.765 187.336979 
z
" clip-path="url(#pd30078d486)" style="fill: #b3e2cd"/>
    <path d="M 292.559813 189.095269 
L 291.064199 195.921837 
L 299.565454 194.033875 
z
" clip-path="url(#pd30078d486)" style="fill: #cccccc"/>
    <path d="M 283.989596 196.436556 
L 291.064199 195.921837 
L 285.341439 191.090934 
z
" clip-path="url(#pd30078d486)" style="fill: #cccccc"/>
    <path d="M 283.989596 196.436556 
L 278.765 202.010937 
L 286.596185 201.295451 
z
" clip-path="url(#pd30078d486)" style="fill: #cccccc"/>
    <path d="M 295.49183 206.398303 
L 286.596185 201.295451 
L 284.307069 206.903465 
z
" clip-path="url(#pd30078d486)" style="fill: #cccccc"/>
    <path d="M 312.907677 191.525345 
L 304.150795 190.192776 
L 308.112917 194.673958 
z
" clip-path="url(#pd30078d486)" style="fill: #cccccc"/>
    <path d="M 310.215685 170.636776 
L 314.022861 175.065503 
L 316.552686 169.774968 
z
" clip-path="url(#pd30078d486)" style="fill: #cccccc"/>
    <path d="M 304.150795 190.192776 
L 299.565454 194.033875 
L 308.112917 194.673958 
z
" clip-path="url(#pd30078d486)" style="fill: #cccccc"/>
    <path d="M 293.084735 173.556081 
L 292.993896 165.771104 
L 288.250931 170.514069 
z
" clip-path="url(#pd30078d486)" style="fill: #cccccc"/>
    <path d="M 312.907677 191.525345 
L 308.112917 194.673958 
L 316.809513 195.730006 
z
" clip-path="url(#pd30078d486)" style="fill: #cccccc"/>
    <path d="M 304.997174 178.890514 
L 300.188674 185.711593 
L 304.150795 190.192776 
z
" clip-path="url(#pd30078d486)" style="fill: #cccccc"/>
    <path d="M 313.599152 185.831018 
L 312.907677 191.525345 
L 322.20099 190.409531 
z
" clip-path="url(#pd30078d486)" style="fill: #cccccc"/>
    <path d="M 328.891851 173.253917 
L 321.822344 167.201938 
L 321.613988 175.445301 
z
" clip-path="url(#pd30078d486)" style="fill: #cccccc"/>
    <path d="M 300.188674 185.711593 
L 298.825472 177.281098 
L 294.964058 184.224017 
z
" clip-path="url(#pd30078d486)" style="fill: #cccccc"/>
    <path d="M 283.507965 175.257035 
L 293.084735 173.556081 
L 288.250931 170.514069 
z
" clip-path="url(#pd30078d486)" style="fill: #cccccc"/>
    <path d="M 287.284452 184.066506 
L 283.507965 175.257035 
L 278.765 180 
z
" clip-path="url(#pd30078d486)" style="fill: #cccccc"/>
    <path d="M 298.825472 177.281098 
L 300.188674 185.711593 
L 304.997174 178.890514 
z
" clip-path="url(#pd30078d486)" style="fill: #cccccc"/>
    <path d="M 287.284452 184.066506 
L 294.964058 184.224017 
L 292.761573 179.258279 
z
" clip-path="url(#pd30078d486)" style="fill: #cccccc"/>
    <path d="M 299.565454 194.033875 
L 291.064199 195.921837 
L 296.764762 199.964419 
z
" clip-path="url(#pd30078d486)" style="fill: #cccccc"/>
    <path d="M 291.064199 195.921837 
L 292.559813 189.095269 
L 285.341439 191.090934 
z
" clip-path="url(#pd30078d486)" style="fill: #cccccc"/>
    <path d="M 292.559813 189.095269 
L 294.964058 184.224017 
L 287.284452 184.066506 
z
" clip-path="url(#pd30078d486)" style="fill: #cccccc"/>
    <path d="M 278.765 187.336979 
L 278.765 194.673958 
L 285.341439 191.090934 
z
" clip-path="url(#pd30078d486)" style="fill: #cccccc"/>
    <path d="M 278.765 202.010937 
L 278.765 209.347917 
L 284.307069 206.903465 
z
" clip-path="url(#pd30078d486)" style="fill: #cccccc"/>
    <path d="M 291.064199 195.921837 
L 283.989596 196.436556 
L 286.596185 201.295451 
z
" clip-path="url(#pd30078d486)" style="fill: #cccccc"/>
    <path d="M 283.989596 196.436556 
L 278.765 194.673958 
L 278.765 202.010937 
z
" clip-path="url(#pd30078d486)" style="fill: #cccccc"/>
    <path d="M 278.765 194.673958 
L 265.705308 183.66849 
L 260.809845 202.785523 
z
" clip-path="url(#pd30078d486)" style="fill: #b3e2cd"/>
    <path d="M 292.761573 179.258279 
L 293.084735 173.556081 
L 283.507965 175.257035 
z
" clip-path="url(#pd30078d486)" style="fill: #cccccc"/>
    <path d="M 278.765 187.336979 
L 287.284452 184.066506 
L 278.765 180 
z
" clip-path="url(#pd30078d486)" style="fill: #cccccc"/>
    <path d="M 287.284452 184.066506 
L 278.765 187.336979 
L 285.341439 191.090934 
z
" clip-path="url(#pd30078d486)" style="fill: #cccccc"/>
    <path d="M 292.761573 179.258279 
L 283.507965 175.257035 
L 287.284452 184.066506 
z
" clip-path="url(#pd30078d486)" style="fill: #cccccc"/>
    <path d="M 265.705308 183.66849 
L 278.765 187.336979 
L 278.765 180 
z
" clip-path="url(#pd30078d486)" style="fill: #b3e2cd"/>
    <path d="M 259.793139 161.028139 
L 265.705308 183.66849 
L 278.765 180 
z
" clip-path="url(#pd30078d486)" style="fill: #b3e2cd"/>
    <path d="M 278.765 194.673958 
L 260.809845 202.785523 
L 278.765 202.010937 
z
" clip-path="url(#pd30078d486)" style="fill: #b3e2cd"/>
    <path d="M 246.318741 173.803316 
L 255.979477 193.124787 
L 265.705308 183.66849 
z
" clip-path="url(#pd30078d486)" style="fill: #b3e2cd"/>
    <path d="M 295.49183 206.398303 
L 284.307069 206.903465 
L 287.826731 211.833156 
z
" clip-path="url(#pd30078d486)" style="fill: #cccccc"/>
    <path d="M 278.765 202.010937 
L 284.307069 206.903465 
L 286.596185 201.295451 
z
" clip-path="url(#pd30078d486)" style="fill: #cccccc"/>
    <path d="M 322.20099 190.409531 
L 312.907677 191.525345 
L 316.809513 195.730006 
z
" clip-path="url(#pd30078d486)" style="fill: #cccccc"/>
    <path d="M 304.150795 190.192776 
L 312.907677 191.525345 
L 313.599152 185.831018 
z
" clip-path="url(#pd30078d486)" style="fill: #cccccc"/>
    <path d="M 298.825472 177.281098 
L 298.160548 170.937756 
L 293.084735 173.556081 
z
" clip-path="url(#pd30078d486)" style="fill: #cccccc"/>
    <path d="M 310.215685 170.636776 
L 304.493267 165.703134 
L 304.617804 172.301693 
z
" clip-path="url(#pd30078d486)" style="fill: #cccccc"/>
    <path d="M 298.825472 177.281098 
L 293.084735 173.556081 
L 292.761573 179.258279 
z
" clip-path="url(#pd30078d486)" style="fill: #cccccc"/>
    <path d="M 298.160548 170.937756 
L 297.736861 161.028139 
L 292.993896 165.771104 
z
" clip-path="url(#pd30078d486)" style="fill: #cccccc"/>
    <path d="M 292.993896 165.771104 
L 293.084735 173.556081 
L 298.160548 170.937756 
z
" clip-path="url(#pd30078d486)" style="fill: #cccccc"/>
    <path d="M 294.964058 184.224017 
L 298.825472 177.281098 
L 292.761573 179.258279 
z
" clip-path="url(#pd30078d486)" style="fill: #cccccc"/>
    <path d="M 304.617804 172.301693 
L 298.825472 177.281098 
L 304.997174 178.890514 
z
" clip-path="url(#pd30078d486)" style="fill: #cccccc"/>
    <path d="M 329.487569 164.98 
L 330.516482 158.111211 
L 322.304554 161.501928 
z
" clip-path="url(#pd30078d486)" style="fill: #cccccc"/>
    <path d="M 297.736861 161.028139 
L 304.493267 165.703134 
L 302.479827 156.285173 
z
" clip-path="url(#pd30078d486)" style="fill: #cccccc"/>
    <path d="M 304.617804 172.301693 
L 304.493267 165.703134 
L 298.160548 170.937756 
z
" clip-path="url(#pd30078d486)" style="fill: #cccccc"/>
    <path d="M 304.493267 165.703134 
L 309.548858 158.611239 
L 302.479827 156.285173 
z
" clip-path="url(#pd30078d486)" style="fill: #cccccc"/>
    <path d="M 298.825472 177.281098 
L 304.617804 172.301693 
L 298.160548 170.937756 
z
" clip-path="url(#pd30078d486)" style="fill: #cccccc"/>
    <path d="M 304.997174 178.890514 
L 314.022861 175.065503 
L 310.215685 170.636776 
z
" clip-path="url(#pd30078d486)" style="fill: #cccccc"/>
    <path d="M 317.551251 180.595469 
L 325.65553 183.66849 
L 321.613988 175.445301 
z
" clip-path="url(#pd30078d486)" style="fill: #cccccc"/>
    <path d="M 321.613988 175.445301 
L 321.822344 167.201938 
L 316.552686 169.774968 
z
" clip-path="url(#pd30078d486)" style="fill: #cccccc"/>
    <path d="M 309.548858 158.611239 
L 312.701886 165.352174 
L 317.066576 159.202747 
z
" clip-path="url(#pd30078d486)" style="fill: #cccccc"/>
    <path d="M 317.066576 159.202747 
L 313.747541 153.317085 
L 309.548858 158.611239 
z
" clip-path="url(#pd30078d486)" style="fill: #cccccc"/>
    <path d="M 309.548858 158.611239 
L 304.493267 165.703134 
L 312.701886 165.352174 
z
" clip-path="url(#pd30078d486)" style="fill: #cccccc"/>
    <path d="M 307.222792 151.542208 
L 302.479827 156.285173 
L 309.548858 158.611239 
z
" clip-path="url(#pd30078d486)" style="fill: #cccccc"/>
    <path d="M 322.304554 161.501928 
L 323.89724 156.007749 
L 317.066576 159.202747 
z
" clip-path="url(#pd30078d486)" style="fill: #cccccc"/>
    <path d="M 323.89724 156.007749 
L 328.566775 147.980468 
L 319.404458 149.494978 
z
" clip-path="url(#pd30078d486)" style="fill: #cccccc"/>
    <path d="M 321.822344 167.201938 
L 317.066576 159.202747 
L 312.701886 165.352174 
z
" clip-path="url(#pd30078d486)" style="fill: #cccccc"/>
    <path d="M 311.965757 146.799243 
L 313.747541 153.317085 
L 319.404458 149.494978 
z
" clip-path="url(#pd30078d486)" style="fill: #cccccc"/>
    <path d="M 316.552686 169.774968 
L 321.822344 167.201938 
L 312.701886 165.352174 
z
" clip-path="url(#pd30078d486)" style="fill: #cccccc"/>
    <path d="M 332.930011 169.386258 
L 329.487569 164.98 
L 328.891851 173.253917 
z
" clip-path="url(#pd30078d486)" style="fill: #cccccc"/>
    <path d="M 332.037815 152.565437 
L 323.89724 156.007749 
L 330.516482 158.111211 
z
" clip-path="url(#pd30078d486)" style="fill: #cccccc"/>
    <path d="M 319.404458 149.494978 
L 317.066576 159.202747 
L 323.89724 156.007749 
z
" clip-path="url(#pd30078d486)" style="fill: #cccccc"/>
    <path d="M 316.708722 142.056278 
L 311.965757 146.799243 
L 319.404458 149.494978 
z
" clip-path="url(#pd30078d486)" style="fill: #cccccc"/>
    <path d="M 317.066576 159.202747 
L 321.822344 167.201938 
L 322.304554 161.501928 
z
" clip-path="url(#pd30078d486)" style="fill: #cccccc"/>
    <path d="M 329.487569 164.98 
L 322.304554 161.501928 
L 321.822344 167.201938 
z
" clip-path="url(#pd30078d486)" style="fill: #cccccc"/>
    <path d="M 328.891851 173.253917 
L 329.487569 164.98 
L 321.822344 167.201938 
z
" clip-path="url(#pd30078d486)" style="fill: #cccccc"/>
    <path d="M 328.566775 147.980468 
L 332.037815 152.565437 
L 337.460833 150.652083 
z
" clip-path="url(#pd30078d486)" style="fill: #cccccc"/>
    <path d="M 319.404458 149.494978 
L 313.747541 153.317085 
L 317.066576 159.202747 
z
" clip-path="url(#pd30078d486)" style="fill: #cccccc"/>
    <path d="M 307.222792 151.542208 
L 313.747541 153.317085 
L 311.965757 146.799243 
z
" clip-path="url(#pd30078d486)" style="fill: #cccccc"/>
    <path d="M 332.026454 134.423919 
L 332.272806 126.492194 
L 327.084778 131.680222 
z
" clip-path="url(#pd30078d486)" style="fill: #cccccc"/>
    <path d="M 319.404458 149.494978 
L 328.566775 147.980468 
L 323.188569 143.915833 
z
" clip-path="url(#pd30078d486)" style="fill: #cccccc"/>
    <path d="M 329.861764 139.645236 
L 327.084778 131.680222 
L 321.89675 136.86825 
z
" clip-path="url(#pd30078d486)" style="fill: #cccccc"/>
    <path d="M 337.460833 165.326042 
L 337.460833 157.989062 
L 330.516482 158.111211 
z
" clip-path="url(#pd30078d486)" style="fill: #cccccc"/>
    <path d="M 329.861764 139.645236 
L 337.460833 143.315104 
L 337.460833 135.978125 
z
" clip-path="url(#pd30078d486)" style="fill: #cccccc"/>
    <path d="M 337.460833 165.326042 
L 330.516482 158.111211 
L 329.487569 164.98 
z
" clip-path="url(#pd30078d486)" style="fill: #cccccc"/>
    <path d="M 337.460833 157.989062 
L 337.460833 150.652083 
L 332.037815 152.565437 
z
" clip-path="url(#pd30078d486)" style="fill: #cccccc"/>
    <path d="M 337.460833 143.315104 
L 328.566775 147.980468 
L 337.460833 150.652083 
z
" clip-path="url(#pd30078d486)" style="fill: #cccccc"/>
    <path d="M 321.89675 136.86825 
L 323.188569 143.915833 
L 329.861764 139.645236 
z
" clip-path="url(#pd30078d486)" style="fill: #cccccc"/>
    <path d="M 337.460833 135.978125 
L 332.026454 134.423919 
L 329.861764 139.645236 
z
" clip-path="url(#pd30078d486)" style="fill: #cccccc"/>
    <path d="M 329.861764 139.645236 
L 323.188569 143.915833 
L 328.566775 147.980468 
z
" clip-path="url(#pd30078d486)" style="fill: #cccccc"/>
    <path d="M 321.89675 136.86825 
L 316.708722 142.056278 
L 323.188569 143.915833 
z
" clip-path="url(#pd30078d486)" style="fill: #cccccc"/>
    <path d="M 332.272806 126.492194 
L 337.460833 128.641146 
L 337.460833 121.304167 
z
" clip-path="url(#pd30078d486)" style="fill: #cccccc"/>
    <path d="M 328.566775 147.980468 
L 337.460833 143.315104 
L 329.861764 139.645236 
z
" clip-path="url(#pd30078d486)" style="fill: #cccccc"/>
    <path d="M 327.084778 131.680222 
L 329.861764 139.645236 
L 332.026454 134.423919 
z
" clip-path="url(#pd30078d486)" style="fill: #cccccc"/>
    <path d="M 332.026454 134.423919 
L 337.460833 128.641146 
L 332.272806 126.492194 
z
" clip-path="url(#pd30078d486)" style="fill: #cccccc"/>
    <path d="M 337.460833 128.641146 
L 332.026454 134.423919 
L 337.460833 135.978125 
z
" clip-path="url(#pd30078d486)" style="fill: #cccccc"/>
    <path d="M 304.493267 165.703134 
L 310.215685 170.636776 
L 312.701886 165.352174 
z
" clip-path="url(#pd30078d486)" style="fill: #cccccc"/>
    <path d="M 304.997174 178.890514 
L 310.215685 170.636776 
L 304.617804 172.301693 
z
" clip-path="url(#pd30078d486)" style="fill: #cccccc"/>
    <path d="M 304.150795 190.192776 
L 310.932672 180.334975 
L 304.997174 178.890514 
z
" clip-path="url(#pd30078d486)" style="fill: #cccccc"/>
    <path d="M 317.551251 180.595469 
L 310.932672 180.334975 
L 313.599152 185.831018 
z
" clip-path="url(#pd30078d486)" style="fill: #cccccc"/>
    <path d="M 310.215685 170.636776 
L 316.552686 169.774968 
L 312.701886 165.352174 
z
" clip-path="url(#pd30078d486)" style="fill: #cccccc"/>
    <path d="M 316.552686 169.774968 
L 314.022861 175.065503 
L 321.613988 175.445301 
z
" clip-path="url(#pd30078d486)" style="fill: #cccccc"/>
    <path d="M 317.551251 180.595469 
L 321.613988 175.445301 
L 314.022861 175.065503 
z
" clip-path="url(#pd30078d486)" style="fill: #cccccc"/>
    <path d="M 325.65553 183.66849 
L 328.891851 173.253917 
L 321.613988 175.445301 
z
" clip-path="url(#pd30078d486)" style="fill: #cccccc"/>
    <path d="M 310.932672 180.334975 
L 317.551251 180.595469 
L 314.022861 175.065503 
z
" clip-path="url(#pd30078d486)" style="fill: #cccccc"/>
    <path d="M 317.551251 180.595469 
L 313.599152 185.831018 
L 322.20099 190.409531 
z
" clip-path="url(#pd30078d486)" style="fill: #cccccc"/>
    <path d="M 323.89724 156.007749 
L 332.037815 152.565437 
L 328.566775 147.980468 
z
" clip-path="url(#pd30078d486)" style="fill: #cccccc"/>
    <path d="M 337.460833 157.989062 
L 332.037815 152.565437 
L 330.516482 158.111211 
z
" clip-path="url(#pd30078d486)" style="fill: #cccccc"/>
    <path d="M 331.91255 191.005469 
L 322.20099 190.409531 
L 327.414052 195.904935 
z
" clip-path="url(#pd30078d486)" style="fill: #cccccc"/>
    <path d="M 322.20099 190.409531 
L 325.65553 183.66849 
L 317.551251 180.595469 
z
" clip-path="url(#pd30078d486)" style="fill: #cccccc"/>
    <path d="M 328.891851 173.253917 
L 337.460833 172.663021 
L 332.930011 169.386258 
z
" clip-path="url(#pd30078d486)" style="fill: #cccccc"/>
    <path d="M 328.891851 173.253917 
L 337.460833 180 
L 337.460833 172.663021 
z
" clip-path="url(#pd30078d486)" style="fill: #cccccc"/>
    <path d="M 337.460833 165.326042 
L 332.930011 169.386258 
L 337.460833 172.663021 
z
" clip-path="url(#pd30078d486)" style="fill: #cccccc"/>
    <path d="M 278.765 231.358854 
L 287.936224 233.193099 
L 286.101979 227.690365 
z
" clip-path="url(#pd30078d486)" style="fill: #cccccc"/>
    <path d="M 286.101979 238.695833 
L 287.936224 233.193099 
L 278.765 231.358854 
z
" clip-path="url(#pd30078d486)" style="fill: #cccccc"/>
    <path d="M 293.438958 238.695833 
L 287.936224 233.193099 
L 286.101979 238.695833 
z
" clip-path="url(#pd30078d486)" style="fill: #cccccc"/>
   </g>
   <g id="line2d_9">
    <path d="M 240.821278 142.056278 
L 220.069167 121.304167 
M 259.793139 161.028139 
L 278.765 180 
M 259.793139 161.028139 
L 246.318741 173.803316 
M 259.793139 161.028139 
L 240.821278 142.056278 
M 233.193954 147.553741 
L 220.069167 121.304167 
M 233.193954 147.553741 
L 246.318741 173.803316 
M 233.193954 147.553741 
L 240.821278 142.056278 
M 233.193954 147.553741 
L 259.793139 161.028139 
M 278.765 209.347917 
L 265.640213 212.446259 
M 255.979477 193.124787 
L 246.318741 173.803316 
M 272.202606 225.571046 
L 265.640213 212.446259 
M 272.202606 225.571046 
L 278.765 224.021875 
M 300.775937 231.358854 
L 308.112917 238.695833 
M 300.775937 231.358854 
L 293.438958 238.695833 
M 293.438958 231.358854 
L 293.438958 224.021875 
M 293.438958 231.358854 
L 293.438958 238.695833 
M 293.438958 231.358854 
L 300.775937 231.358854 
M 286.101979 227.690365 
L 293.438958 224.021875 
M 286.101979 227.690365 
L 278.765 224.021875 
M 286.101979 227.690365 
L 293.438958 231.358854 
M 278.765 231.358854 
L 278.765 238.695833 
M 278.765 231.358854 
L 278.765 224.021875 
M 278.765 231.358854 
L 286.101979 227.690365 
M 275.483803 232.13344 
L 278.765 238.695833 
M 275.483803 232.13344 
L 278.765 224.021875 
M 275.483803 232.13344 
L 272.202606 225.571046 
M 275.483803 232.13344 
L 278.765 231.358854 
M 300.775937 238.695833 
L 308.112917 238.695833 
M 300.775937 238.695833 
L 293.438958 238.695833 
M 300.775937 238.695833 
L 300.775937 231.358854 
M 299.139211 225.658601 
L 293.438958 224.021875 
M 299.139211 225.658601 
L 300.775937 231.358854 
M 299.139211 225.658601 
L 293.438958 231.358854 
M 299.139211 225.658601 
L 303.332764 221.465049 
M 310.551284 221.457757 
L 310.558576 214.239236 
M 310.551284 221.457757 
L 303.332764 221.465049 
M 310.551284 221.457757 
L 310.799768 228.672003 
M 317.044809 217.855053 
L 310.558576 214.239236 
M 317.044809 217.855053 
L 310.551284 221.457757 
M 317.044809 217.855053 
L 324.470796 217.862554 
M 315.326583 224.904682 
L 310.799768 228.672003 
M 315.326583 224.904682 
L 310.551284 221.457757 
M 315.326583 224.904682 
L 317.044809 217.855053 
M 315.326583 224.904682 
L 320.748362 227.204482 
M 317.052526 210.215636 
L 310.558576 214.239236 
M 317.052526 210.215636 
L 324.470796 217.862554 
M 317.052526 210.215636 
L 317.044809 217.855053 
M 317.052526 210.215636 
L 320.772264 203.542983 
M 320.753827 221.794066 
L 324.470796 217.862554 
M 320.753827 221.794066 
L 317.044809 217.855053 
M 320.753827 221.794066 
L 320.748362 227.204482 
M 320.753827 221.794066 
L 315.326583 224.904682 
M 324.773874 210.146851 
L 324.470796 217.862554 
M 324.773874 210.146851 
L 320.772264 203.542983 
M 324.773874 210.146851 
L 317.052526 210.215636 
M 311.782862 202.904879 
L 308.112917 194.673958 
M 311.782862 202.904879 
L 320.772264 203.542983 
M 311.782862 202.904879 
L 317.052526 210.215636 
M 337.460833 216.684896 
L 337.460833 209.347917 
M 337.460833 216.684896 
L 337.460833 224.021875 
M 331.323213 213.016406 
L 337.460833 209.347917 
M 331.323213 213.016406 
L 324.470796 217.862554 
M 331.323213 213.016406 
L 324.773874 210.146851 
M 331.323213 213.016406 
L 337.460833 216.684896 
M 331.245012 220.353385 
L 337.460833 224.021875 
M 331.245012 220.353385 
L 324.470796 217.862554 
M 331.245012 220.353385 
L 337.460833 216.684896 
M 331.245012 220.353385 
L 331.323213 213.016406 
M 329.891735 229.746585 
L 337.460833 224.021875 
M 329.891735 229.746585 
L 331.245012 220.353385 
M 337.460833 202.010937 
L 337.460833 209.347917 
M 337.460833 202.010937 
L 337.460833 194.673958 
M 330.726547 205.469479 
L 337.460833 209.347917 
M 330.726547 205.469479 
L 324.773874 210.146851 
M 330.726547 205.469479 
L 331.323213 213.016406 
M 330.726547 205.469479 
L 337.460833 202.010937 
M 305.027935 227.180406 
L 300.775937 231.358854 
M 305.027935 227.180406 
L 303.332764 221.465049 
M 305.027935 227.180406 
L 299.139211 225.658601 
M 305.027935 227.180406 
L 310.799768 228.672003 
M 305.027935 227.180406 
L 310.551284 221.457757 
M 296.50029 215.447123 
L 293.438958 224.021875 
M 296.50029 215.447123 
L 303.332764 221.465049 
M 296.50029 215.447123 
L 299.139211 225.658601 
M 315.449896 238.695833 
L 308.112917 238.695833 
M 315.449896 238.695833 
L 322.786875 238.695833 
M 319.118385 233.42012 
L 310.799768 228.672003 
M 319.118385 233.42012 
L 322.786875 238.695833 
M 319.118385 233.42012 
L 320.748362 227.204482 
M 319.118385 233.42012 
L 315.326583 224.904682 
M 319.118385 233.42012 
L 315.449896 238.695833 
M 325.057541 233.203609 
L 322.786875 238.695833 
M 325.057541 233.203609 
L 320.748362 227.204482 
M 325.057541 233.203609 
L 329.891735 229.746585 
M 325.057541 233.203609 
L 319.118385 233.42012 
M 330.123854 238.695833 
L 337.460833 238.695833 
M 330.123854 238.695833 
L 322.786875 238.695833 
M 330.123854 238.695833 
L 329.891735 229.746585 
M 330.123854 238.695833 
L 325.057541 233.203609 
M 311.781406 234.307143 
L 308.112917 238.695833 
M 311.781406 234.307143 
L 300.775937 231.358854 
M 311.781406 234.307143 
L 310.799768 228.672003 
M 311.781406 234.307143 
L 305.027935 227.180406 
M 311.781406 234.307143 
L 315.449896 238.695833 
M 311.781406 234.307143 
L 319.118385 233.42012 
M 316.809513 195.730006 
L 308.112917 194.673958 
M 316.809513 195.730006 
L 320.772264 203.542983 
M 316.809513 195.730006 
L 311.782862 202.904879 
M 303.040684 201.869154 
L 308.112917 194.673958 
M 303.040684 201.869154 
L 295.49183 206.398303 
M 303.040684 201.869154 
L 311.782862 202.904879 
M 326.464255 224.458705 
L 324.470796 217.862554 
M 326.464255 224.458705 
L 320.748362 227.204482 
M 326.464255 224.458705 
L 320.753827 221.794066 
M 326.464255 224.458705 
L 331.245012 220.353385 
M 326.464255 224.458705 
L 329.891735 229.746585 
M 326.464255 224.458705 
L 325.057541 233.203609 
M 337.460833 231.358854 
L 337.460833 238.695833 
M 337.460833 231.358854 
L 337.460833 224.021875 
M 337.460833 231.358854 
L 329.891735 229.746585 
M 337.460833 231.358854 
L 330.123854 238.695833 
M 327.414052 195.904935 
L 316.809513 195.730006 
M 332.003957 199.671191 
L 337.460833 194.673958 
M 332.003957 199.671191 
L 337.460833 202.010937 
M 332.003957 199.671191 
L 330.726547 205.469479 
M 332.003957 199.671191 
L 327.414052 195.904935 
M 303.491151 214.397624 
L 310.558576 214.239236 
M 303.491151 214.397624 
L 303.332764 221.465049 
M 303.491151 214.397624 
L 310.551284 221.457757 
M 303.491151 214.397624 
L 296.50029 215.447123 
M 306.885709 208.10921 
L 310.558576 214.239236 
M 306.885709 208.10921 
L 317.052526 210.215636 
M 306.885709 208.10921 
L 311.782862 202.904879 
M 306.885709 208.10921 
L 303.040684 201.869154 
M 306.885709 208.10921 
L 303.491151 214.397624 
M 300.933109 208.956345 
L 295.49183 206.398303 
M 300.933109 208.956345 
L 296.50029 215.447123 
M 300.933109 208.956345 
L 303.040684 201.869154 
M 300.933109 208.956345 
L 303.491151 214.397624 
M 300.933109 208.956345 
L 306.885709 208.10921 
M 287.826731 211.833156 
L 278.765 209.347917 
M 287.826731 211.833156 
L 295.49183 206.398303 
M 285.557196 219.608707 
L 293.438958 224.021875 
M 285.557196 219.608707 
L 278.765 224.021875 
M 285.557196 219.608707 
L 286.101979 227.690365 
M 285.557196 219.608707 
L 287.826731 211.833156 
M 290.797248 216.919186 
L 293.438958 224.021875 
M 290.797248 216.919186 
L 296.50029 215.447123 
M 290.797248 216.919186 
L 287.826731 211.833156 
M 290.797248 216.919186 
L 285.557196 219.608707 
M 278.765 216.684896 
L 265.640213 212.446259 
M 278.765 216.684896 
L 278.765 209.347917 
M 278.765 216.684896 
L 278.765 224.021875 
M 278.765 216.684896 
L 272.202606 225.571046 
M 278.765 216.684896 
L 287.826731 211.833156 
M 278.765 216.684896 
L 285.557196 219.608707 
M 326.303037 201.645595 
L 320.772264 203.542983 
M 326.303037 201.645595 
L 324.773874 210.146851 
M 326.303037 201.645595 
L 330.726547 205.469479 
M 326.303037 201.645595 
L 316.809513 195.730006 
M 326.303037 201.645595 
L 327.414052 195.904935 
M 326.303037 201.645595 
L 332.003957 199.671191 
M 337.460833 187.336979 
L 337.460833 180 
M 337.460833 187.336979 
L 337.460833 194.673958 
M 331.91255 191.005469 
L 337.460833 194.673958 
M 331.91255 191.005469 
L 327.414052 195.904935 
M 331.91255 191.005469 
L 332.003957 199.671191 
M 331.91255 191.005469 
L 337.460833 187.336979 
M 331.91255 191.005469 
L 325.65553 183.66849 
M 332.128172 183.66849 
L 337.460833 180 
M 332.128172 183.66849 
L 337.460833 187.336979 
M 332.128172 183.66849 
L 325.65553 183.66849 
M 332.128172 183.66849 
L 331.91255 191.005469 
M 328.891851 173.253917 
L 337.460833 180 
M 328.891851 173.253917 
L 325.65553 183.66849 
M 328.891851 173.253917 
L 332.128172 183.66849 
M 293.16427 211.238306 
L 295.49183 206.398303 
M 293.16427 211.238306 
L 296.50029 215.447123 
M 293.16427 211.238306 
L 300.933109 208.956345 
M 293.16427 211.238306 
L 287.826731 211.833156 
M 293.16427 211.238306 
L 290.797248 216.919186 
M 299.565454 194.033875 
L 308.112917 194.673958 
M 299.565454 194.033875 
L 303.040684 201.869154 
M 299.565454 194.033875 
L 292.559813 189.095269 
M 296.764762 199.964419 
L 295.49183 206.398303 
M 296.764762 199.964419 
L 303.040684 201.869154 
M 296.764762 199.964419 
L 299.565454 194.033875 
M 286.596185 201.295451 
L 295.49183 206.398303 
M 286.596185 201.295451 
L 296.764762 199.964419 
M 300.188674 185.711593 
L 292.559813 189.095269 
M 300.188674 185.711593 
L 299.565454 194.033875 
M 300.188674 185.711593 
L 304.997174 178.890514 
M 304.150795 190.192776 
L 308.112917 194.673958 
M 304.150795 190.192776 
L 299.565454 194.033875 
M 304.150795 190.192776 
L 304.997174 178.890514 
M 304.150795 190.192776 
L 300.188674 185.711593 
M 313.599152 185.831018 
L 304.150795 190.192776 
M 294.964058 184.224017 
L 292.559813 189.095269 
M 294.964058 184.224017 
L 300.188674 185.711593 
M 294.964058 184.224017 
L 292.761573 179.258279 
M 291.064199 195.921837 
L 292.559813 189.095269 
M 291.064199 195.921837 
L 299.565454 194.033875 
M 291.064199 195.921837 
L 296.764762 199.964419 
M 291.064199 195.921837 
L 286.596185 201.295451 
M 285.341439 191.090934 
L 292.559813 189.095269 
M 285.341439 191.090934 
L 278.765 194.673958 
M 285.341439 191.090934 
L 291.064199 195.921837 
M 283.989596 196.436556 
L 278.765 194.673958 
M 283.989596 196.436556 
L 286.596185 201.295451 
M 283.989596 196.436556 
L 291.064199 195.921837 
M 283.989596 196.436556 
L 285.341439 191.090934 
M 278.765 202.010937 
L 265.640213 212.446259 
M 278.765 202.010937 
L 278.765 209.347917 
M 278.765 202.010937 
L 278.765 194.673958 
M 278.765 202.010937 
L 286.596185 201.295451 
M 278.765 202.010937 
L 283.989596 196.436556 
M 287.284452 184.066506 
L 278.765 180 
M 287.284452 184.066506 
L 292.559813 189.095269 
M 287.284452 184.066506 
L 292.761573 179.258279 
M 287.284452 184.066506 
L 294.964058 184.224017 
M 287.284452 184.066506 
L 285.341439 191.090934 
M 283.507965 175.257035 
L 278.765 180 
M 283.507965 175.257035 
L 288.250931 170.514069 
M 283.507965 175.257035 
L 292.761573 179.258279 
M 283.507965 175.257035 
L 287.284452 184.066506 
M 278.765 187.336979 
L 278.765 180 
M 278.765 187.336979 
L 278.765 194.673958 
M 278.765 187.336979 
L 285.341439 191.090934 
M 278.765 187.336979 
L 287.284452 184.066506 
M 260.809845 202.785523 
L 265.640213 212.446259 
M 260.809845 202.785523 
L 255.979477 193.124787 
M 260.809845 202.785523 
L 278.765 194.673958 
M 260.809845 202.785523 
L 278.765 202.010937 
M 265.705308 183.66849 
L 278.765 180 
M 265.705308 183.66849 
L 246.318741 173.803316 
M 265.705308 183.66849 
L 259.793139 161.028139 
M 265.705308 183.66849 
L 255.979477 193.124787 
M 265.705308 183.66849 
L 278.765 194.673958 
M 265.705308 183.66849 
L 278.765 187.336979 
M 265.705308 183.66849 
L 260.809845 202.785523 
M 284.307069 206.903465 
L 278.765 209.347917 
M 284.307069 206.903465 
L 295.49183 206.398303 
M 284.307069 206.903465 
L 287.826731 211.833156 
M 284.307069 206.903465 
L 286.596185 201.295451 
M 284.307069 206.903465 
L 278.765 202.010937 
M 312.907677 191.525345 
L 308.112917 194.673958 
M 312.907677 191.525345 
L 316.809513 195.730006 
M 312.907677 191.525345 
L 304.150795 190.192776 
M 312.907677 191.525345 
L 313.599152 185.831018 
M 298.160548 170.937756 
L 297.736861 161.028139 
M 292.993896 165.771104 
L 297.736861 161.028139 
M 292.993896 165.771104 
L 288.250931 170.514069 
M 292.993896 165.771104 
L 298.160548 170.937756 
M 293.084735 173.556081 
L 288.250931 170.514069 
M 293.084735 173.556081 
L 292.761573 179.258279 
M 293.084735 173.556081 
L 283.507965 175.257035 
M 293.084735 173.556081 
L 298.160548 170.937756 
M 293.084735 173.556081 
L 292.993896 165.771104 
M 298.825472 177.281098 
L 304.997174 178.890514 
M 298.825472 177.281098 
L 300.188674 185.711593 
M 298.825472 177.281098 
L 292.761573 179.258279 
M 298.825472 177.281098 
L 294.964058 184.224017 
M 298.825472 177.281098 
L 298.160548 170.937756 
M 298.825472 177.281098 
L 293.084735 173.556081 
M 304.493267 165.703134 
L 297.736861 161.028139 
M 304.493267 165.703134 
L 298.160548 170.937756 
M 304.493267 165.703134 
L 312.701886 165.352174 
M 304.617804 172.301693 
L 304.997174 178.890514 
M 304.617804 172.301693 
L 298.160548 170.937756 
M 304.617804 172.301693 
L 298.825472 177.281098 
M 304.617804 172.301693 
L 304.493267 165.703134 
M 314.022861 175.065503 
L 304.997174 178.890514 
M 302.479827 156.285173 
L 297.736861 161.028139 
M 302.479827 156.285173 
L 304.493267 165.703134 
M 302.479827 156.285173 
L 307.222792 151.542208 
M 309.548858 158.611239 
L 312.701886 165.352174 
M 309.548858 158.611239 
L 304.493267 165.703134 
M 309.548858 158.611239 
L 307.222792 151.542208 
M 309.548858 158.611239 
L 302.479827 156.285173 
M 317.066576 159.202747 
L 312.701886 165.352174 
M 317.066576 159.202747 
L 309.548858 158.611239 
M 317.066576 159.202747 
L 323.89724 156.007749 
M 321.822344 167.201938 
L 328.891851 173.253917 
M 321.822344 167.201938 
L 312.701886 165.352174 
M 321.822344 167.201938 
L 317.066576 159.202747 
M 311.965757 146.799243 
L 316.708722 142.056278 
M 311.965757 146.799243 
L 307.222792 151.542208 
M 319.404458 149.494978 
L 316.708722 142.056278 
M 319.404458 149.494978 
L 323.89724 156.007749 
M 319.404458 149.494978 
L 317.066576 159.202747 
M 319.404458 149.494978 
L 311.965757 146.799243 
M 322.304554 161.501928 
L 323.89724 156.007749 
M 322.304554 161.501928 
L 317.066576 159.202747 
M 322.304554 161.501928 
L 321.822344 167.201938 
M 329.487569 164.98 
L 337.460833 165.326042 
M 329.487569 164.98 
L 328.891851 173.253917 
M 329.487569 164.98 
L 321.822344 167.201938 
M 329.487569 164.98 
L 322.304554 161.501928 
M 313.747541 153.317085 
L 307.222792 151.542208 
M 313.747541 153.317085 
L 309.548858 158.611239 
M 313.747541 153.317085 
L 317.066576 159.202747 
M 313.747541 153.317085 
L 311.965757 146.799243 
M 313.747541 153.317085 
L 319.404458 149.494978 
M 328.566775 147.980468 
L 337.460833 150.652083 
M 328.566775 147.980468 
L 323.89724 156.007749 
M 328.566775 147.980468 
L 319.404458 149.494978 
M 337.460833 157.989062 
L 337.460833 150.652083 
M 337.460833 157.989062 
L 337.460833 165.326042 
M 330.516482 158.111211 
L 337.460833 165.326042 
M 330.516482 158.111211 
L 323.89724 156.007749 
M 330.516482 158.111211 
L 322.304554 161.501928 
M 330.516482 158.111211 
L 329.487569 164.98 
M 330.516482 158.111211 
L 337.460833 157.989062 
M 321.89675 136.86825 
L 316.708722 142.056278 
M 321.89675 136.86825 
L 327.084778 131.680222 
M 329.861764 139.645236 
L 328.566775 147.980468 
M 329.861764 139.645236 
L 327.084778 131.680222 
M 329.861764 139.645236 
L 337.460833 135.978125 
M 329.861764 139.645236 
L 321.89675 136.86825 
M 323.188569 143.915833 
L 316.708722 142.056278 
M 323.188569 143.915833 
L 319.404458 149.494978 
M 323.188569 143.915833 
L 328.566775 147.980468 
M 323.188569 143.915833 
L 321.89675 136.86825 
M 323.188569 143.915833 
L 329.861764 139.645236 
M 337.460833 143.315104 
L 337.460833 150.652083 
M 337.460833 143.315104 
L 328.566775 147.980468 
M 337.460833 143.315104 
L 337.460833 135.978125 
M 337.460833 143.315104 
L 329.861764 139.645236 
M 332.026454 134.423919 
L 327.084778 131.680222 
M 332.026454 134.423919 
L 337.460833 135.978125 
M 332.026454 134.423919 
L 329.861764 139.645236 
M 332.272806 126.492194 
L 337.460833 121.304167 
M 332.272806 126.492194 
L 327.084778 131.680222 
M 332.272806 126.492194 
L 332.026454 134.423919 
M 337.460833 128.641146 
L 337.460833 121.304167 
M 337.460833 128.641146 
L 337.460833 135.978125 
M 337.460833 128.641146 
L 332.026454 134.423919 
M 337.460833 128.641146 
L 332.272806 126.492194 
M 310.215685 170.636776 
L 304.997174 178.890514 
M 310.215685 170.636776 
L 312.701886 165.352174 
M 310.215685 170.636776 
L 304.493267 165.703134 
M 310.215685 170.636776 
L 304.617804 172.301693 
M 310.215685 170.636776 
L 314.022861 175.065503 
M 310.932672 180.334975 
L 304.997174 178.890514 
M 310.932672 180.334975 
L 304.150795 190.192776 
M 310.932672 180.334975 
L 313.599152 185.831018 
M 310.932672 180.334975 
L 314.022861 175.065503 
M 316.552686 169.774968 
L 312.701886 165.352174 
M 316.552686 169.774968 
L 314.022861 175.065503 
M 316.552686 169.774968 
L 321.822344 167.201938 
M 316.552686 169.774968 
L 310.215685 170.636776 
M 321.613988 175.445301 
L 325.65553 183.66849 
M 321.613988 175.445301 
L 328.891851 173.253917 
M 321.613988 175.445301 
L 314.022861 175.065503 
M 321.613988 175.445301 
L 321.822344 167.201938 
M 321.613988 175.445301 
L 316.552686 169.774968 
M 317.551251 180.595469 
L 325.65553 183.66849 
M 317.551251 180.595469 
L 313.599152 185.831018 
M 317.551251 180.595469 
L 314.022861 175.065503 
M 317.551251 180.595469 
L 310.932672 180.334975 
M 317.551251 180.595469 
L 321.613988 175.445301 
M 332.037815 152.565437 
L 337.460833 150.652083 
M 332.037815 152.565437 
L 323.89724 156.007749 
M 332.037815 152.565437 
L 328.566775 147.980468 
M 332.037815 152.565437 
L 337.460833 157.989062 
M 332.037815 152.565437 
L 330.516482 158.111211 
M 322.20099 190.409531 
L 316.809513 195.730006 
M 322.20099 190.409531 
L 327.414052 195.904935 
M 322.20099 190.409531 
L 325.65553 183.66849 
M 322.20099 190.409531 
L 331.91255 191.005469 
M 322.20099 190.409531 
L 313.599152 185.831018 
M 322.20099 190.409531 
L 312.907677 191.525345 
M 322.20099 190.409531 
L 317.551251 180.595469 
M 337.460833 172.663021 
L 337.460833 180 
M 337.460833 172.663021 
L 337.460833 165.326042 
M 337.460833 172.663021 
L 328.891851 173.253917 
M 332.930011 169.386258 
L 337.460833 165.326042 
M 332.930011 169.386258 
L 328.891851 173.253917 
M 332.930011 169.386258 
L 329.487569 164.98 
M 332.930011 169.386258 
L 337.460833 172.663021 
M 286.101979 238.695833 
L 278.765 238.695833 
M 286.101979 238.695833 
L 293.438958 238.695833 
M 286.101979 238.695833 
L 278.765 231.358854 
M 287.936224 233.193099 
L 293.438958 238.695833 
M 287.936224 233.193099 
L 293.438958 231.358854 
M 287.936224 233.193099 
L 286.101979 227.690365 
M 287.936224 233.193099 
L 278.765 231.358854 
M 287.936224 233.193099 
L 286.101979 238.695833 
L 286.101979 238.695833 
" clip-path="url(#pd30078d486)" style="fill: none; stroke: #000000; stroke-width: 1.5; stroke-linecap: square"/>
   </g>
   <g id="matplotlib.axis_3">
    <g id="xtick_4">
     <g id="line2d_10">
      <g>
       <use xlink:href="#m3fa8602df3" x="220.069167" y="250.435" style="stroke: #000000; stroke-width: 0.8"/>
      </g>
     </g>
     <g id="text_10">
      <!-- −1 -->
      <g transform="translate(212.698073 265.033437)scale(0.1 -0.1)">
       <use xlink:href="#DejaVuSans-2212"/>
       <use xlink:href="#DejaVuSans-31" x="83.789062"/>
      </g>
     </g>
    </g>
    <g id="xtick_5">
     <g id="line2d_11">
      <g>
       <use xlink:href="#m3fa8602df3" x="278.765" y="250.435" style="stroke: #000000; stroke-width: 0.8"/>
      </g>
     </g>
     <g id="text_11">
      <!-- 0 -->
      <g transform="translate(275.58375 265.033437)scale(0.1 -0.1)">
       <use xlink:href="#DejaVuSans-30"/>
      </g>
     </g>
    </g>
    <g id="xtick_6">
     <g id="line2d_12">
      <g>
       <use xlink:href="#m3fa8602df3" x="337.460833" y="250.435" style="stroke: #000000; stroke-width: 0.8"/>
      </g>
     </g>
     <g id="text_12">
      <!-- 1 -->
      <g transform="translate(334.279583 265.033437)scale(0.1 -0.1)">
       <use xlink:href="#DejaVuSans-31"/>
      </g>
     </g>
    </g>
   </g>
   <g id="matplotlib.axis_4">
    <g id="ytick_6">
     <g id="line2d_13">
      <g>
       <use xlink:href="#m07c1b2adca" x="208.33" y="238.695833" style="stroke: #000000; stroke-width: 0.8"/>
      </g>
     </g>
     <g id="text_13">
      <!-- 0.0 -->
      <g transform="translate(185.426875 242.495052)scale(0.1 -0.1)">
       <use xlink:href="#DejaVuSans-30"/>
       <use xlink:href="#DejaVuSans-2e" x="63.623047"/>
       <use xlink:href="#DejaVuSans-30" x="95.410156"/>
      </g>
     </g>
    </g>
    <g id="ytick_7">
     <g id="line2d_14">
      <g>
       <use xlink:href="#m07c1b2adca" x="208.33" y="209.347917" style="stroke: #000000; stroke-width: 0.8"/>
      </g>
     </g>
     <g id="text_14">
      <!-- 0.5 -->
      <g transform="translate(185.426875 213.147135)scale(0.1 -0.1)">
       <use xlink:href="#DejaVuSans-30"/>
       <use xlink:href="#DejaVuSans-2e" x="63.623047"/>
       <use xlink:href="#DejaVuSans-35" x="95.410156"/>
      </g>
     </g>
    </g>
    <g id="ytick_8">
     <g id="line2d_15">
      <g>
       <use xlink:href="#m07c1b2adca" x="208.33" y="180" style="stroke: #000000; stroke-width: 0.8"/>
      </g>
     </g>
     <g id="text_15">
      <!-- 1.0 -->
      <g transform="translate(185.426875 183.799219)scale(0.1 -0.1)">
       <use xlink:href="#DejaVuSans-31"/>
       <use xlink:href="#DejaVuSans-2e" x="63.623047"/>
       <use xlink:href="#DejaVuSans-30" x="95.410156"/>
      </g>
     </g>
    </g>
    <g id="ytick_9">
     <g id="line2d_16">
      <g>
       <use xlink:href="#m07c1b2adca" x="208.33" y="150.652083" style="stroke: #000000; stroke-width: 0.8"/>
      </g>
     </g>
     <g id="text_16">
      <!-- 1.5 -->
      <g transform="translate(185.426875 154.451302)scale(0.1 -0.1)">
       <use xlink:href="#DejaVuSans-31"/>
       <use xlink:href="#DejaVuSans-2e" x="63.623047"/>
       <use xlink:href="#DejaVuSans-35" x="95.410156"/>
      </g>
     </g>
    </g>
    <g id="ytick_10">
     <g id="line2d_17">
      <g>
       <use xlink:href="#m07c1b2adca" x="208.33" y="121.304167" style="stroke: #000000; stroke-width: 0.8"/>
      </g>
     </g>
     <g id="text_17">
      <!-- 2.0 -->
      <g transform="translate(185.426875 125.103385)scale(0.1 -0.1)">
       <use xlink:href="#DejaVuSans-32"/>
       <use xlink:href="#DejaVuSans-2e" x="63.623047"/>
       <use xlink:href="#DejaVuSans-30" x="95.410156"/>
      </g>
     </g>
    </g>
   </g>
   <g id="line2d_18"/>
   <g id="LineCollection_2">
    <path d="M 337.460833 238.695833 
L 330.123854 238.695833 
" clip-path="url(#pd30078d486)" style="fill: none; stroke: #ff0000; stroke-width: 3"/>
    <path d="M 337.460833 121.304167 
L 337.460833 128.641146 
" clip-path="url(#pd30078d486)" style="fill: none; stroke: #ff0000; stroke-width: 3"/>
    <path d="M 283.507965 175.257035 
L 278.765 180 
" clip-path="url(#pd30078d486)" style="fill: none; stroke: #808000; stroke-width: 3"/>
    <path d="M 240.821278 142.056278 
L 220.069167 121.304167 
" clip-path="url(#pd30078d486)" style="fill: none; stroke: #808000; stroke-width: 3"/>
    <path d="M 278.765 238.695833 
L 275.483803 232.13344 
" clip-path="url(#pd30078d486)" style="fill: none; stroke: #00ff00; stroke-width: 3"/>
    <path d="M 278.765 209.347917 
L 278.765 202.010937 
" clip-path="url(#pd30078d486)" style="fill: none; stroke: #008080; stroke-width: 3"/>
    <path d="M 246.318741 173.803316 
L 233.193954 147.553741 
" clip-path="url(#pd30078d486)" style="fill: none; stroke: #00ff00; stroke-width: 3"/>
    <path d="M 240.821278 142.056278 
L 259.793139 161.028139 
" clip-path="url(#pd30078d486)" style="fill: none; stroke: #808000; stroke-width: 3"/>
    <path d="M 265.640213 212.446259 
L 260.809845 202.785523 
" clip-path="url(#pd30078d486)" style="fill: none; stroke: #00ff00; stroke-width: 3"/>
    <path d="M 259.793139 161.028139 
L 278.765 180 
" clip-path="url(#pd30078d486)" style="fill: none; stroke: #808000; stroke-width: 3"/>
    <path d="M 233.193954 147.553741 
L 220.069167 121.304167 
" clip-path="url(#pd30078d486)" style="fill: none; stroke: #00ff00; stroke-width: 3"/>
    <path d="M 278.765 231.358854 
L 278.765 238.695833 
" clip-path="url(#pd30078d486)" style="fill: none; stroke: #008080; stroke-width: 3"/>
    <path d="M 337.460833 180 
L 337.460833 187.336979 
" clip-path="url(#pd30078d486)" style="fill: none; stroke: #ff0000; stroke-width: 3"/>
    <path d="M 255.979477 193.124787 
L 246.318741 173.803316 
" clip-path="url(#pd30078d486)" style="fill: none; stroke: #00ff00; stroke-width: 3"/>
    <path d="M 308.112917 238.695833 
L 300.775937 238.695833 
" clip-path="url(#pd30078d486)" style="fill: none; stroke: #ff0000; stroke-width: 3"/>
    <path d="M 278.765 224.021875 
L 278.765 216.684896 
" clip-path="url(#pd30078d486)" style="fill: none; stroke: #008080; stroke-width: 3"/>
    <path d="M 272.202606 225.571046 
L 265.640213 212.446259 
" clip-path="url(#pd30078d486)" style="fill: none; stroke: #00ff00; stroke-width: 3"/>
    <path d="M 293.438958 238.695833 
L 286.101979 238.695833 
" clip-path="url(#pd30078d486)" style="fill: none; stroke: #ff0000; stroke-width: 3"/>
    <path d="M 278.765 231.358854 
L 278.765 224.021875 
" clip-path="url(#pd30078d486)" style="fill: none; stroke: #008080; stroke-width: 3"/>
    <path d="M 275.483803 232.13344 
L 272.202606 225.571046 
" clip-path="url(#pd30078d486)" style="fill: none; stroke: #00ff00; stroke-width: 3"/>
    <path d="M 300.775937 238.695833 
L 293.438958 238.695833 
" clip-path="url(#pd30078d486)" style="fill: none; stroke: #ff0000; stroke-width: 3"/>
    <path d="M 337.460833 209.347917 
L 337.460833 216.684896 
" clip-path="url(#pd30078d486)" style="fill: none; stroke: #ff0000; stroke-width: 3"/>
    <path d="M 337.460833 224.021875 
L 337.460833 231.358854 
" clip-path="url(#pd30078d486)" style="fill: none; stroke: #ff0000; stroke-width: 3"/>
    <path d="M 322.786875 238.695833 
L 315.449896 238.695833 
" clip-path="url(#pd30078d486)" style="fill: none; stroke: #ff0000; stroke-width: 3"/>
    <path d="M 337.460833 216.684896 
L 337.460833 224.021875 
" clip-path="url(#pd30078d486)" style="fill: none; stroke: #ff0000; stroke-width: 3"/>
    <path d="M 337.460833 194.673958 
L 337.460833 202.010937 
" clip-path="url(#pd30078d486)" style="fill: none; stroke: #ff0000; stroke-width: 3"/>
    <path d="M 337.460833 202.010937 
L 337.460833 209.347917 
" clip-path="url(#pd30078d486)" style="fill: none; stroke: #ff0000; stroke-width: 3"/>
    <path d="M 315.449896 238.695833 
L 308.112917 238.695833 
" clip-path="url(#pd30078d486)" style="fill: none; stroke: #ff0000; stroke-width: 3"/>
    <path d="M 330.123854 238.695833 
L 322.786875 238.695833 
" clip-path="url(#pd30078d486)" style="fill: none; stroke: #ff0000; stroke-width: 3"/>
    <path d="M 337.460833 231.358854 
L 337.460833 238.695833 
" clip-path="url(#pd30078d486)" style="fill: none; stroke: #ff0000; stroke-width: 3"/>
    <path d="M 278.765 216.684896 
L 278.765 209.347917 
" clip-path="url(#pd30078d486)" style="fill: none; stroke: #008080; stroke-width: 3"/>
    <path d="M 316.708722 142.056278 
L 321.89675 136.86825 
" clip-path="url(#pd30078d486)" style="fill: none; stroke: #808000; stroke-width: 3"/>
    <path d="M 337.460833 150.652083 
L 337.460833 157.989062 
" clip-path="url(#pd30078d486)" style="fill: none; stroke: #ff0000; stroke-width: 3"/>
    <path d="M 337.460833 187.336979 
L 337.460833 194.673958 
" clip-path="url(#pd30078d486)" style="fill: none; stroke: #ff0000; stroke-width: 3"/>
    <path d="M 337.460833 165.326042 
L 337.460833 172.663021 
" clip-path="url(#pd30078d486)" style="fill: none; stroke: #ff0000; stroke-width: 3"/>
    <path d="M 297.736861 161.028139 
L 302.479827 156.285173 
" clip-path="url(#pd30078d486)" style="fill: none; stroke: #808000; stroke-width: 3"/>
    <path d="M 278.765 194.673958 
L 278.765 187.336979 
" clip-path="url(#pd30078d486)" style="fill: none; stroke: #008080; stroke-width: 3"/>
    <path d="M 288.250931 170.514069 
L 292.993896 165.771104 
" clip-path="url(#pd30078d486)" style="fill: none; stroke: #808000; stroke-width: 3"/>
    <path d="M 278.765 202.010937 
L 278.765 194.673958 
" clip-path="url(#pd30078d486)" style="fill: none; stroke: #008080; stroke-width: 3"/>
    <path d="M 283.507965 175.257035 
L 288.250931 170.514069 
" clip-path="url(#pd30078d486)" style="fill: none; stroke: #808000; stroke-width: 3"/>
    <path d="M 278.765 187.336979 
L 278.765 180 
" clip-path="url(#pd30078d486)" style="fill: none; stroke: #008080; stroke-width: 3"/>
    <path d="M 260.809845 202.785523 
L 255.979477 193.124787 
" clip-path="url(#pd30078d486)" style="fill: none; stroke: #00ff00; stroke-width: 3"/>
    <path d="M 292.993896 165.771104 
L 297.736861 161.028139 
" clip-path="url(#pd30078d486)" style="fill: none; stroke: #808000; stroke-width: 3"/>
    <path d="M 307.222792 151.542208 
L 311.965757 146.799243 
" clip-path="url(#pd30078d486)" style="fill: none; stroke: #808000; stroke-width: 3"/>
    <path d="M 302.479827 156.285173 
L 307.222792 151.542208 
" clip-path="url(#pd30078d486)" style="fill: none; stroke: #808000; stroke-width: 3"/>
    <path d="M 311.965757 146.799243 
L 316.708722 142.056278 
" clip-path="url(#pd30078d486)" style="fill: none; stroke: #808000; stroke-width: 3"/>
    <path d="M 337.460833 157.989062 
L 337.460833 165.326042 
" clip-path="url(#pd30078d486)" style="fill: none; stroke: #ff0000; stroke-width: 3"/>
    <path d="M 327.084778 131.680222 
L 332.272806 126.492194 
" clip-path="url(#pd30078d486)" style="fill: none; stroke: #808000; stroke-width: 3"/>
    <path d="M 337.460833 135.978125 
L 337.460833 143.315104 
" clip-path="url(#pd30078d486)" style="fill: none; stroke: #ff0000; stroke-width: 3"/>
    <path d="M 321.89675 136.86825 
L 327.084778 131.680222 
" clip-path="url(#pd30078d486)" style="fill: none; stroke: #808000; stroke-width: 3"/>
    <path d="M 337.460833 143.315104 
L 337.460833 150.652083 
" clip-path="url(#pd30078d486)" style="fill: none; stroke: #ff0000; stroke-width: 3"/>
    <path d="M 332.272806 126.492194 
L 337.460833 121.304167 
" clip-path="url(#pd30078d486)" style="fill: none; stroke: #808000; stroke-width: 3"/>
    <path d="M 337.460833 128.641146 
L 337.460833 135.978125 
" clip-path="url(#pd30078d486)" style="fill: none; stroke: #ff0000; stroke-width: 3"/>
    <path d="M 337.460833 172.663021 
L 337.460833 180 
" clip-path="url(#pd30078d486)" style="fill: none; stroke: #ff0000; stroke-width: 3"/>
    <path d="M 286.101979 238.695833 
L 278.765 238.695833 
" clip-path="url(#pd30078d486)" style="fill: none; stroke: #ff0000; stroke-width: 3"/>
   </g>
   <g id="patch_8">
    <path d="M 208.33 250.435 
L 208.33 109.565 
" style="fill: none; stroke: #000000; stroke-width: 0.8; stroke-linejoin: miter; stroke-linecap: square"/>
   </g>
   <g id="patch_9">
    <path d="M 349.2 250.435 
L 349.2 109.565 
" style="fill: none; stroke: #000000; stroke-width: 0.8; stroke-linejoin: miter; stroke-linecap: square"/>
   </g>
   <g id="patch_10">
    <path d="M 208.33 250.435 
L 349.2 250.435 
" style="fill: none; stroke: #000000; stroke-width: 0.8; stroke-linejoin: miter; stroke-linecap: square"/>
   </g>
   <g id="patch_11">
    <path d="M 208.33 109.565 
L 349.2 109.565 
" style="fill: none; stroke: #000000; stroke-width: 0.8; stroke-linejoin: miter; stroke-linecap: square"/>
   </g>
   <g id="text_18">
    <!-- Out -->
    <g transform="translate(267.887187 103.565)scale(0.12 -0.12)">
     <defs>
      <path id="DejaVuSans-4f" d="M 2522 4238 
Q 1834 4238 1429 3725 
Q 1025 3213 1025 2328 
Q 1025 1447 1429 934 
Q 1834 422 2522 422 
Q 3209 422 3611 934 
Q 4013 1447 4013 2328 
Q 4013 3213 3611 3725 
Q 3209 4238 2522 4238 
z
M 2522 4750 
Q 3503 4750 4090 4092 
Q 4678 3434 4678 2328 
Q 4678 1225 4090 567 
Q 3503 -91 2522 -91 
Q 1538 -91 948 565 
Q 359 1222 359 2328 
Q 359 3434 948 4092 
Q 1538 4750 2522 4750 
z
" transform="scale(0.015625)"/>
      <path id="DejaVuSans-75" d="M 544 1381 
L 544 3500 
L 1119 3500 
L 1119 1403 
Q 1119 906 1312 657 
Q 1506 409 1894 409 
Q 2359 409 2629 706 
Q 2900 1003 2900 1516 
L 2900 3500 
L 3475 3500 
L 3475 0 
L 2900 0 
L 2900 538 
Q 2691 219 2414 64 
Q 2138 -91 1772 -91 
Q 1169 -91 856 284 
Q 544 659 544 1381 
z
M 1991 3584 
L 1991 3584 
z
" transform="scale(0.015625)"/>
      <path id="DejaVuSans-74" d="M 1172 4494 
L 1172 3500 
L 2356 3500 
L 2356 3053 
L 1172 3053 
L 1172 1153 
Q 1172 725 1289 603 
Q 1406 481 1766 481 
L 2356 481 
L 2356 0 
L 1766 0 
Q 1100 0 847 248 
Q 594 497 594 1153 
L 594 3053 
L 172 3053 
L 172 3500 
L 594 3500 
L 594 4494 
L 1172 4494 
z
" transform="scale(0.015625)"/>
     </defs>
     <use xlink:href="#DejaVuSans-4f"/>
     <use xlink:href="#DejaVuSans-75" x="78.710938"/>
     <use xlink:href="#DejaVuSans-74" x="142.089844"/>
    </g>
   </g>
  </g>
 </g>
 <defs>
  <clipPath id="p2510777a2e">
   <rect x="33.73" y="109.565" width="140.87" height="140.87"/>
  </clipPath>
  <clipPath id="pd30078d486">
   <rect x="208.33" y="109.565" width="140.87" height="140.87"/>
  </clipPath>
 </defs>
</svg>
