<?xml version="1.0" encoding="utf-8" standalone="no"?>
<!DOCTYPE svg PUBLIC "-//W3C//DTD SVG 1.1//EN"
  "http://www.w3.org/Graphics/SVG/1.1/DTD/svg11.dtd">
<svg xmlns:xlink="http://www.w3.org/1999/xlink" width="360pt" height="360pt" viewBox="0 0 360 360" xmlns="http://www.w3.org/2000/svg" version="1.1">
 <metadata>
  <rdf:RDF xmlns:dc="http://purl.org/dc/elements/1.1/" xmlns:cc="http://creativecommons.org/ns#" xmlns:rdf="http://www.w3.org/1999/02/22-rdf-syntax-ns#">
   <cc:Work>
    <dc:type rdf:resource="http://purl.org/dc/dcmitype/StillImage"/>
    <dc:date>2022-12-05T11:38:57.468667</dc:date>
    <dc:format>image/svg+xml</dc:format>
    <dc:creator>
     <cc:Agent>
      <dc:title>Matplotlib v3.6.2, https://matplotlib.org/</dc:title>
     </cc:Agent>
    </dc:creator>
   </cc:Work>
  </rdf:RDF>
 </metadata>
 <defs>
  <style type="text/css">*{stroke-linejoin: round; stroke-linecap: butt}</style>
 </defs>
 <g id="figure_1">
  <g id="patch_1">
   <path d="M 0 360 
L 360 360 
L 360 0 
L 0 0 
z
" style="fill: #ffffff"/>
  </g>
  <g id="axes_1">
   <g id="patch_2">
    <path d="M 33.73 305.108 
L 286.106 305.108 
L 286.106 52.732 
L 33.73 52.732 
z
" style="fill: #ffffff"/>
   </g>
   <g id="PolyCollection_1">
    <path d="M 206.521523 196.844432 
L 207.00025 217.897289 
L 245.955273 207.599091 
z
" clip-path="url(#p99e99671a5)" style="fill: #d99999"/>
    <path d="M 102.559818 293.636364 
L 116.899364 274.51697 
L 81.0505 262.567348 
z
" clip-path="url(#p99e99671a5)" style="fill: #d99999"/>
    <path d="M 159.918 178.92 
L 162.919902 149.491358 
L 133.829148 154.856465 
z
" clip-path="url(#p99e99671a5)" style="fill: #d99999"/>
    <path d="M 116.229583 185.677517 
L 99.551205 155.718347 
L 82.723547 184.708406 
z
" clip-path="url(#p99e99671a5)" style="fill: #d99999"/>
    <path d="M 159.918 293.636364 
L 163.502886 264.957273 
L 138.730402 262.567348 
z
" clip-path="url(#p99e99671a5)" style="fill: #d99999"/>
    <path d="M 195.766864 272.127045 
L 163.502886 264.957273 
L 188.597091 293.636364 
z
" clip-path="url(#p99e99671a5)" style="fill: #d99999"/>
    <path d="M 249.540159 182.504886 
L 206.521523 196.844432 
L 245.955273 207.599091 
z
" clip-path="url(#p99e99671a5)" style="fill: #d99999"/>
    <path d="M 162.919902 149.491358 
L 145.590059 137.075939 
L 133.829148 154.856465 
z
" clip-path="url(#p99e99671a5)" style="fill: #d99999"/>
    <path d="M 274.634364 236.278182 
L 245.955273 207.599091 
L 245.955273 236.278182 
z
" clip-path="url(#p99e99671a5)" style="fill: #d99999"/>
    <path d="M 217.276182 293.636364 
L 245.955273 264.957273 
L 217.276182 264.957273 
z
" clip-path="url(#p99e99671a5)" style="fill: #d99999"/>
    <path d="M 66.621197 164.580455 
L 45.201636 178.92 
L 82.723547 184.708406 
z
" clip-path="url(#p99e99671a5)" style="fill: #d99999"/>
    <path d="M 96.149282 99.293263 
L 102.559818 121.561818 
L 118.651585 93.758838 
z
" clip-path="url(#p99e99671a5)" style="fill: #d99999"/>
    <path d="M 188.597091 64.203636 
L 170.722014 92.329541 
L 200.846542 92.882727 
z
" clip-path="url(#p99e99671a5)" style="fill: #d99999"/>
    <path d="M 238.7855 114.392045 
L 217.276182 121.561818 
L 245.955273 135.901364 
z
" clip-path="url(#p99e99671a5)" style="fill: #d99999"/>
    <path d="M 45.201636 207.599091 
L 45.201636 236.278182 
L 69.825644 236.510178 
z
" clip-path="url(#p99e99671a5)" style="fill: #d99999"/>
    <path d="M 159.918 236.278182 
L 188.597091 250.617727 
L 186.036458 219.89013 
z
" clip-path="url(#p99e99671a5)" style="fill: #d99999"/>
    <path d="M 195.766864 272.127045 
L 217.276182 264.957273 
L 188.597091 250.617727 
z
" clip-path="url(#p99e99671a5)" style="fill: #d99999"/>
    <path d="M 245.955273 236.278182 
L 245.955273 264.957273 
L 274.634364 236.278182 
z
" clip-path="url(#p99e99671a5)" style="fill: #d99999"/>
    <path d="M 245.955273 207.599091 
L 274.634364 207.599091 
L 249.540159 182.504886 
z
" clip-path="url(#p99e99671a5)" style="fill: #d99999"/>
    <path d="M 274.634364 178.92 
L 249.540159 182.504886 
L 274.634364 207.599091 
z
" clip-path="url(#p99e99671a5)" style="fill: #d99999"/>
    <path d="M 274.634364 264.957273 
L 274.634364 236.278182 
L 245.955273 264.957273 
z
" clip-path="url(#p99e99671a5)" style="fill: #d99999"/>
    <path d="M 245.955273 293.636364 
L 274.634364 293.636364 
L 245.955273 264.957273 
z
" clip-path="url(#p99e99671a5)" style="fill: #d99999"/>
    <path d="M 217.276182 236.278182 
L 245.955273 264.957273 
L 245.955273 236.278182 
z
" clip-path="url(#p99e99671a5)" style="fill: #d99999"/>
    <path d="M 245.955273 207.599091 
L 217.276182 236.278182 
L 245.955273 236.278182 
z
" clip-path="url(#p99e99671a5)" style="fill: #d99999"/>
    <path d="M 245.955273 207.599091 
L 274.634364 236.278182 
L 274.634364 207.599091 
z
" clip-path="url(#p99e99671a5)" style="fill: #d99999"/>
    <path d="M 199.250386 133.432601 
L 231.615727 164.580455 
L 217.276182 121.561818 
z
" clip-path="url(#p99e99671a5)" style="fill: #d99999"/>
    <path d="M 245.955273 135.901364 
L 274.634364 150.240909 
L 274.634364 121.561818 
z
" clip-path="url(#p99e99671a5)" style="fill: #d99999"/>
    <path d="M 188.597091 250.617727 
L 217.276182 264.957273 
L 217.276182 236.278182 
z
" clip-path="url(#p99e99671a5)" style="fill: #d99999"/>
    <path d="M 245.955273 264.957273 
L 217.276182 236.278182 
L 217.276182 264.957273 
z
" clip-path="url(#p99e99671a5)" style="fill: #d99999"/>
    <path d="M 159.918 236.278182 
L 163.502886 264.957273 
L 188.597091 250.617727 
z
" clip-path="url(#p99e99671a5)" style="fill: #d99999"/>
    <path d="M 188.597091 250.617727 
L 207.00025 217.897289 
L 186.036458 219.89013 
z
" clip-path="url(#p99e99671a5)" style="fill: #d99999"/>
    <path d="M 116.899364 274.51697 
L 102.559818 293.636364 
L 131.238909 293.636364 
z
" clip-path="url(#p99e99671a5)" style="fill: #d99999"/>
    <path d="M 217.276182 293.636364 
L 217.276182 264.957273 
L 195.766864 272.127045 
z
" clip-path="url(#p99e99671a5)" style="fill: #d99999"/>
    <path d="M 163.502886 264.957273 
L 195.766864 272.127045 
L 188.597091 250.617727 
z
" clip-path="url(#p99e99671a5)" style="fill: #d99999"/>
    <path d="M 116.899364 274.51697 
L 131.238909 293.636364 
L 138.730402 262.567348 
z
" clip-path="url(#p99e99671a5)" style="fill: #d99999"/>
    <path d="M 163.502886 264.957273 
L 159.918 293.636364 
L 188.597091 293.636364 
z
" clip-path="url(#p99e99671a5)" style="fill: #d99999"/>
    <path d="M 159.918 236.278182 
L 132.74893 226.468699 
L 138.730402 262.567348 
z
" clip-path="url(#p99e99671a5)" style="fill: #d99999"/>
    <path d="M 217.276182 293.636364 
L 195.766864 272.127045 
L 188.597091 293.636364 
z
" clip-path="url(#p99e99671a5)" style="fill: #d99999"/>
    <path d="M 186.036458 219.89013 
L 154.619509 207.599091 
L 159.918 236.278182 
z
" clip-path="url(#p99e99671a5)" style="fill: #d99999"/>
    <path d="M 81.0505 262.567348 
L 73.880727 293.636364 
L 102.559818 293.636364 
z
" clip-path="url(#p99e99671a5)" style="fill: #d99999"/>
    <path d="M 131.238909 293.636364 
L 159.918 293.636364 
L 138.730402 262.567348 
z
" clip-path="url(#p99e99671a5)" style="fill: #d99999"/>
    <path d="M 81.0505 262.567348 
L 116.899364 274.51697 
L 116.899364 250.617727 
z
" clip-path="url(#p99e99671a5)" style="fill: #d99999"/>
    <path d="M 159.918 236.278182 
L 138.730402 262.567348 
L 163.502886 264.957273 
z
" clip-path="url(#p99e99671a5)" style="fill: #d99999"/>
    <path d="M 116.899364 250.617727 
L 116.899364 274.51697 
L 138.730402 262.567348 
z
" clip-path="url(#p99e99671a5)" style="fill: #d99999"/>
    <path d="M 93.941501 241.492246 
L 81.0505 262.567348 
L 116.899364 250.617727 
z
" clip-path="url(#p99e99671a5)" style="fill: #d99999"/>
    <path d="M 93.941501 241.492246 
L 69.825644 236.510178 
L 81.0505 262.567348 
z
" clip-path="url(#p99e99671a5)" style="fill: #d99999"/>
    <path d="M 63.87292 274.96508 
L 45.201636 293.636364 
L 73.880727 293.636364 
z
" clip-path="url(#p99e99671a5)" style="fill: #d99999"/>
    <path d="M 132.74893 226.468699 
L 159.918 236.278182 
L 154.619509 207.599091 
z
" clip-path="url(#p99e99671a5)" style="fill: #d99999"/>
    <path d="M 86.129089 218.055009 
L 93.941501 241.492246 
L 132.74893 226.468699 
z
" clip-path="url(#p99e99671a5)" style="fill: #d99999"/>
    <path d="M 132.74893 226.468699 
L 93.941501 241.492246 
L 116.899364 250.617727 
z
" clip-path="url(#p99e99671a5)" style="fill: #d99999"/>
    <path d="M 63.87292 274.96508 
L 73.880727 293.636364 
L 81.0505 262.567348 
z
" clip-path="url(#p99e99671a5)" style="fill: #d99999"/>
    <path d="M 69.825644 236.510178 
L 93.941501 241.492246 
L 86.129089 218.055009 
z
" clip-path="url(#p99e99671a5)" style="fill: #d99999"/>
    <path d="M 69.825644 236.510178 
L 86.129089 218.055009 
L 68.165092 203.042395 
z
" clip-path="url(#p99e99671a5)" style="fill: #d99999"/>
    <path d="M 69.825644 236.510178 
L 45.201636 236.278182 
L 45.201636 264.957273 
z
" clip-path="url(#p99e99671a5)" style="fill: #d99999"/>
    <path d="M 245.955273 264.957273 
L 217.276182 293.636364 
L 245.955273 293.636364 
z
" clip-path="url(#p99e99671a5)" style="fill: #d99999"/>
    <path d="M 245.955273 264.957273 
L 274.634364 293.636364 
L 274.634364 264.957273 
z
" clip-path="url(#p99e99671a5)" style="fill: #d99999"/>
    <path d="M 274.634364 150.240909 
L 249.540159 182.504886 
L 274.634364 178.92 
z
" clip-path="url(#p99e99671a5)" style="fill: #d99999"/>
    <path d="M 206.521523 196.844432 
L 249.540159 182.504886 
L 231.615727 164.580455 
z
" clip-path="url(#p99e99671a5)" style="fill: #d99999"/>
    <path d="M 192.181977 153.825795 
L 182.213451 120.181651 
L 162.919902 149.491358 
z
" clip-path="url(#p99e99671a5)" style="fill: #d99999"/>
    <path d="M 274.634364 150.240909 
L 245.955273 135.901364 
L 231.615727 164.580455 
z
" clip-path="url(#p99e99671a5)" style="fill: #d99999"/>
    <path d="M 180.675438 194.497457 
L 154.619509 207.599091 
L 186.036458 219.89013 
z
" clip-path="url(#p99e99671a5)" style="fill: #d99999"/>
    <path d="M 192.181977 153.825795 
L 195.323152 176.67798 
L 231.615727 164.580455 
z
" clip-path="url(#p99e99671a5)" style="fill: #d99999"/>
    <path d="M 195.323152 176.67798 
L 159.918 178.92 
L 180.675438 194.497457 
z
" clip-path="url(#p99e99671a5)" style="fill: #d99999"/>
    <path d="M 207.00025 217.897289 
L 188.597091 250.617727 
L 217.276182 236.278182 
z
" clip-path="url(#p99e99671a5)" style="fill: #d99999"/>
    <path d="M 180.675438 194.497457 
L 186.036458 219.89013 
L 206.521523 196.844432 
z
" clip-path="url(#p99e99671a5)" style="fill: #d99999"/>
    <path d="M 245.955273 207.599091 
L 207.00025 217.897289 
L 217.276182 236.278182 
z
" clip-path="url(#p99e99671a5)" style="fill: #d99999"/>
    <path d="M 206.521523 196.844432 
L 186.036458 219.89013 
L 207.00025 217.897289 
z
" clip-path="url(#p99e99671a5)" style="fill: #d99999"/>
    <path d="M 195.323152 176.67798 
L 180.675438 194.497457 
L 206.521523 196.844432 
z
" clip-path="url(#p99e99671a5)" style="fill: #d99999"/>
    <path d="M 180.675438 194.497457 
L 159.918 178.92 
L 154.619509 207.599091 
z
" clip-path="url(#p99e99671a5)" style="fill: #d99999"/>
    <path d="M 231.615727 164.580455 
L 195.323152 176.67798 
L 206.521523 196.844432 
z
" clip-path="url(#p99e99671a5)" style="fill: #d99999"/>
    <path d="M 159.918 178.92 
L 195.323152 176.67798 
L 192.181977 153.825795 
z
" clip-path="url(#p99e99671a5)" style="fill: #d99999"/>
    <path d="M 139.254368 189.931369 
L 154.619509 207.599091 
L 159.918 178.92 
z
" clip-path="url(#p99e99671a5)" style="fill: #d99999"/>
    <path d="M 116.899364 250.617727 
L 138.730402 262.567348 
L 132.74893 226.468699 
z
" clip-path="url(#p99e99671a5)" style="fill: #d99999"/>
    <path d="M 133.829148 154.856465 
L 116.229583 185.677517 
L 139.254368 189.931369 
z
" clip-path="url(#p99e99671a5)" style="fill: #d99999"/>
    <path d="M 116.229583 185.677517 
L 133.829148 154.856465 
L 99.551205 155.718347 
z
" clip-path="url(#p99e99671a5)" style="fill: #d99999"/>
    <path d="M 139.254368 189.931369 
L 132.74893 226.468699 
L 154.619509 207.599091 
z
" clip-path="url(#p99e99671a5)" style="fill: #d99999"/>
    <path d="M 132.74893 226.468699 
L 116.229583 185.677517 
L 99.051531 199.888099 
z
" clip-path="url(#p99e99671a5)" style="fill: #d99999"/>
    <path d="M 133.829148 154.856465 
L 139.254368 189.931369 
L 159.918 178.92 
z
" clip-path="url(#p99e99671a5)" style="fill: #d99999"/>
    <path d="M 132.74893 226.468699 
L 139.254368 189.931369 
L 116.229583 185.677517 
z
" clip-path="url(#p99e99671a5)" style="fill: #d99999"/>
    <path d="M 162.919902 149.491358 
L 159.918 178.92 
L 192.181977 153.825795 
z
" clip-path="url(#p99e99671a5)" style="fill: #d99999"/>
    <path d="M 99.551205 155.718347 
L 133.829148 154.856465 
L 116.305372 139.983337 
z
" clip-path="url(#p99e99671a5)" style="fill: #d99999"/>
    <path d="M 182.213451 120.181651 
L 192.181977 153.825795 
L 199.250386 133.432601 
z
" clip-path="url(#p99e99671a5)" style="fill: #d99999"/>
    <path d="M 162.919902 149.491358 
L 162.588227 111.982109 
L 145.590059 137.075939 
z
" clip-path="url(#p99e99671a5)" style="fill: #d99999"/>
    <path d="M 200.846542 92.882727 
L 182.213451 120.181651 
L 217.276182 121.561818 
z
" clip-path="url(#p99e99671a5)" style="fill: #d99999"/>
    <path d="M 145.590059 137.075939 
L 141.72362 116.111284 
L 116.305372 139.983337 
z
" clip-path="url(#p99e99671a5)" style="fill: #d99999"/>
    <path d="M 200.846542 92.882727 
L 170.722014 92.329541 
L 182.213451 120.181651 
z
" clip-path="url(#p99e99671a5)" style="fill: #d99999"/>
    <path d="M 73.880727 92.882727 
L 96.149282 99.293263 
L 102.559818 64.203636 
z
" clip-path="url(#p99e99671a5)" style="fill: #d99999"/>
    <path d="M 162.588227 111.982109 
L 162.919902 149.491358 
L 182.213451 120.181651 
z
" clip-path="url(#p99e99671a5)" style="fill: #d99999"/>
    <path d="M 116.305372 139.983337 
L 141.72362 116.111284 
L 102.559818 121.561818 
z
" clip-path="url(#p99e99671a5)" style="fill: #d99999"/>
    <path d="M 76.720772 136.496603 
L 45.201636 150.240909 
L 66.621197 164.580455 
z
" clip-path="url(#p99e99671a5)" style="fill: #d99999"/>
    <path d="M 82.723547 184.708406 
L 68.165092 203.042395 
L 99.051531 199.888099 
z
" clip-path="url(#p99e99671a5)" style="fill: #d99999"/>
    <path d="M 231.615727 164.580455 
L 199.250386 133.432601 
L 192.181977 153.825795 
z
" clip-path="url(#p99e99671a5)" style="fill: #d99999"/>
    <path d="M 217.276182 121.561818 
L 182.213451 120.181651 
L 199.250386 133.432601 
z
" clip-path="url(#p99e99671a5)" style="fill: #d99999"/>
    <path d="M 145.590059 137.075939 
L 116.305372 139.983337 
L 133.829148 154.856465 
z
" clip-path="url(#p99e99671a5)" style="fill: #d99999"/>
    <path d="M 223.400907 86.758002 
L 217.276182 64.203636 
L 200.846542 92.882727 
z
" clip-path="url(#p99e99671a5)" style="fill: #d99999"/>
    <path d="M 118.651585 93.758838 
L 102.559818 121.561818 
L 141.72362 116.111284 
z
" clip-path="url(#p99e99671a5)" style="fill: #d99999"/>
    <path d="M 102.559818 121.561818 
L 99.551205 155.718347 
L 116.305372 139.983337 
z
" clip-path="url(#p99e99671a5)" style="fill: #d99999"/>
    <path d="M 45.201636 178.92 
L 66.621197 164.580455 
L 45.201636 150.240909 
z
" clip-path="url(#p99e99671a5)" style="fill: #d99999"/>
    <path d="M 67.515531 115.196622 
L 45.201636 121.561818 
L 76.720772 136.496603 
z
" clip-path="url(#p99e99671a5)" style="fill: #d99999"/>
    <path d="M 68.165092 203.042395 
L 45.201636 178.92 
L 45.201636 207.599091 
z
" clip-path="url(#p99e99671a5)" style="fill: #d99999"/>
    <path d="M 132.74893 226.468699 
L 99.051531 199.888099 
L 86.129089 218.055009 
z
" clip-path="url(#p99e99671a5)" style="fill: #d99999"/>
    <path d="M 116.229583 185.677517 
L 82.723547 184.708406 
L 99.051531 199.888099 
z
" clip-path="url(#p99e99671a5)" style="fill: #d99999"/>
    <path d="M 82.723547 184.708406 
L 99.551205 155.718347 
L 66.621197 164.580455 
z
" clip-path="url(#p99e99671a5)" style="fill: #d99999"/>
    <path d="M 99.551205 155.718347 
L 76.720772 136.496603 
L 66.621197 164.580455 
z
" clip-path="url(#p99e99671a5)" style="fill: #d99999"/>
    <path d="M 68.165092 203.042395 
L 86.129089 218.055009 
L 99.051531 199.888099 
z
" clip-path="url(#p99e99671a5)" style="fill: #d99999"/>
    <path d="M 76.720772 136.496603 
L 99.551205 155.718347 
L 102.559818 121.561818 
z
" clip-path="url(#p99e99671a5)" style="fill: #d99999"/>
    <path d="M 45.201636 178.92 
L 68.165092 203.042395 
L 82.723547 184.708406 
z
" clip-path="url(#p99e99671a5)" style="fill: #d99999"/>
    <path d="M 69.825644 236.510178 
L 68.165092 203.042395 
L 45.201636 207.599091 
z
" clip-path="url(#p99e99671a5)" style="fill: #d99999"/>
    <path d="M 102.559818 121.561818 
L 96.149282 99.293263 
L 67.515531 115.196622 
z
" clip-path="url(#p99e99671a5)" style="fill: #d99999"/>
    <path d="M 45.201636 150.240909 
L 76.720772 136.496603 
L 45.201636 121.561818 
z
" clip-path="url(#p99e99671a5)" style="fill: #d99999"/>
    <path d="M 217.276182 121.561818 
L 238.7855 114.392045 
L 223.400907 86.758002 
z
" clip-path="url(#p99e99671a5)" style="fill: #d99999"/>
    <path d="M 170.722014 92.329541 
L 188.597091 64.203636 
L 159.918 64.203636 
z
" clip-path="url(#p99e99671a5)" style="fill: #d99999"/>
    <path d="M 144.604716 90.05382 
L 159.918 64.203636 
L 131.238909 64.203636 
z
" clip-path="url(#p99e99671a5)" style="fill: #d99999"/>
    <path d="M 200.846542 92.882727 
L 217.276182 64.203636 
L 188.597091 64.203636 
z
" clip-path="url(#p99e99671a5)" style="fill: #d99999"/>
    <path d="M 162.588227 111.982109 
L 170.722014 92.329541 
L 144.604716 90.05382 
z
" clip-path="url(#p99e99671a5)" style="fill: #d99999"/>
    <path d="M 145.590059 137.075939 
L 162.588227 111.982109 
L 141.72362 116.111284 
z
" clip-path="url(#p99e99671a5)" style="fill: #d99999"/>
    <path d="M 118.651585 93.758838 
L 141.72362 116.111284 
L 144.604716 90.05382 
z
" clip-path="url(#p99e99671a5)" style="fill: #d99999"/>
    <path d="M 182.213451 120.181651 
L 170.722014 92.329541 
L 162.588227 111.982109 
z
" clip-path="url(#p99e99671a5)" style="fill: #d99999"/>
    <path d="M 141.72362 116.111284 
L 162.588227 111.982109 
L 144.604716 90.05382 
z
" clip-path="url(#p99e99671a5)" style="fill: #d99999"/>
    <path d="M 102.559818 64.203636 
L 118.651585 93.758838 
L 131.238909 64.203636 
z
" clip-path="url(#p99e99671a5)" style="fill: #d99999"/>
    <path d="M 159.918 64.203636 
L 144.604716 90.05382 
L 170.722014 92.329541 
z
" clip-path="url(#p99e99671a5)" style="fill: #d99999"/>
    <path d="M 131.238909 64.203636 
L 118.651585 93.758838 
L 144.604716 90.05382 
z
" clip-path="url(#p99e99671a5)" style="fill: #d99999"/>
    <path d="M 69.825644 236.510178 
L 63.87292 274.96508 
L 81.0505 262.567348 
z
" clip-path="url(#p99e99671a5)" style="fill: #d99999"/>
    <path d="M 45.201636 264.957273 
L 63.87292 274.96508 
L 69.825644 236.510178 
z
" clip-path="url(#p99e99671a5)" style="fill: #d99999"/>
    <path d="M 45.201636 293.636364 
L 63.87292 274.96508 
L 45.201636 264.957273 
z
" clip-path="url(#p99e99671a5)" style="fill: #d99999"/>
    <path d="M 238.7855 114.392045 
L 274.634364 121.561818 
L 245.955273 92.882727 
z
" clip-path="url(#p99e99671a5)" style="fill: #d99999"/>
    <path d="M 249.540159 182.504886 
L 274.634364 150.240909 
L 231.615727 164.580455 
z
" clip-path="url(#p99e99671a5)" style="fill: #d99999"/>
    <path d="M 217.276182 121.561818 
L 231.615727 164.580455 
L 245.955273 135.901364 
z
" clip-path="url(#p99e99671a5)" style="fill: #d99999"/>
    <path d="M 217.276182 64.203636 
L 223.400907 86.758002 
L 245.955273 64.203636 
z
" clip-path="url(#p99e99671a5)" style="fill: #d99999"/>
    <path d="M 274.634364 92.882727 
L 274.634364 64.203636 
L 245.955273 92.882727 
z
" clip-path="url(#p99e99671a5)" style="fill: #d99999"/>
    <path d="M 274.634364 121.561818 
L 238.7855 114.392045 
L 245.955273 135.901364 
z
" clip-path="url(#p99e99671a5)" style="fill: #d99999"/>
    <path d="M 238.7855 114.392045 
L 245.955273 92.882727 
L 223.400907 86.758002 
z
" clip-path="url(#p99e99671a5)" style="fill: #d99999"/>
    <path d="M 223.400907 86.758002 
L 200.846542 92.882727 
L 217.276182 121.561818 
z
" clip-path="url(#p99e99671a5)" style="fill: #d99999"/>
    <path d="M 245.955273 64.203636 
L 223.400907 86.758002 
L 245.955273 92.882727 
z
" clip-path="url(#p99e99671a5)" style="fill: #d99999"/>
    <path d="M 245.955273 92.882727 
L 274.634364 121.561818 
L 274.634364 92.882727 
z
" clip-path="url(#p99e99671a5)" style="fill: #d99999"/>
    <path d="M 245.955273 92.882727 
L 274.634364 64.203636 
L 245.955273 64.203636 
z
" clip-path="url(#p99e99671a5)" style="fill: #d99999"/>
    <path d="M 45.201636 121.561818 
L 67.515531 115.196622 
L 45.201636 92.882727 
z
" clip-path="url(#p99e99671a5)" style="fill: #d99999"/>
    <path d="M 73.880727 64.203636 
L 45.201636 64.203636 
L 73.880727 92.882727 
z
" clip-path="url(#p99e99671a5)" style="fill: #d99999"/>
    <path d="M 102.559818 64.203636 
L 96.149282 99.293263 
L 118.651585 93.758838 
z
" clip-path="url(#p99e99671a5)" style="fill: #d99999"/>
    <path d="M 96.149282 99.293263 
L 73.880727 92.882727 
L 67.515531 115.196622 
z
" clip-path="url(#p99e99671a5)" style="fill: #d99999"/>
    <path d="M 67.515531 115.196622 
L 76.720772 136.496603 
L 102.559818 121.561818 
z
" clip-path="url(#p99e99671a5)" style="fill: #d99999"/>
    <path d="M 45.201636 92.882727 
L 67.515531 115.196622 
L 73.880727 92.882727 
z
" clip-path="url(#p99e99671a5)" style="fill: #d99999"/>
    <path d="M 73.880727 92.882727 
L 102.559818 64.203636 
L 73.880727 64.203636 
z
" clip-path="url(#p99e99671a5)" style="fill: #d99999"/>
    <path d="M 73.880727 92.882727 
L 45.201636 64.203636 
L 45.201636 92.882727 
z
" clip-path="url(#p99e99671a5)" style="fill: #d99999"/>
   </g>
   <g id="line2d_1">
    <path d="M 245.955273 207.599091 
L 217.276182 236.278182 
M 245.955273 207.599091 
L 274.634364 236.278182 
M 245.955273 264.957273 
L 274.634364 293.636364 
M 245.955273 264.957273 
L 217.276182 236.278182 
M 245.955273 264.957273 
L 217.276182 293.636364 
M 245.955273 264.957273 
L 274.634364 236.278182 
M 245.955273 236.278182 
L 217.276182 236.278182 
M 245.955273 236.278182 
L 274.634364 236.278182 
M 245.955273 236.278182 
L 245.955273 207.599091 
M 245.955273 236.278182 
L 245.955273 264.957273 
M 274.634364 207.599091 
L 274.634364 178.92 
M 274.634364 207.599091 
L 274.634364 236.278182 
M 274.634364 207.599091 
L 245.955273 207.599091 
M 231.615727 164.580455 
L 217.276182 121.561818 
M 217.276182 264.957273 
L 217.276182 236.278182 
M 217.276182 264.957273 
L 217.276182 293.636364 
M 217.276182 264.957273 
L 245.955273 264.957273 
M 188.597091 250.617727 
L 217.276182 236.278182 
M 188.597091 250.617727 
L 159.918 236.278182 
M 188.597091 250.617727 
L 217.276182 264.957273 
M 163.502886 264.957273 
L 159.918 293.636364 
M 163.502886 264.957273 
L 159.918 236.278182 
M 163.502886 264.957273 
L 188.597091 250.617727 
M 188.597091 293.636364 
L 159.918 293.636364 
M 188.597091 293.636364 
L 217.276182 293.636364 
M 188.597091 293.636364 
L 163.502886 264.957273 
M 131.238909 293.636364 
L 159.918 293.636364 
M 131.238909 293.636364 
L 102.559818 293.636364 
M 195.766864 272.127045 
L 217.276182 293.636364 
M 195.766864 272.127045 
L 217.276182 264.957273 
M 195.766864 272.127045 
L 188.597091 250.617727 
M 195.766864 272.127045 
L 163.502886 264.957273 
M 195.766864 272.127045 
L 188.597091 293.636364 
M 116.899364 274.51697 
L 102.559818 293.636364 
M 116.899364 274.51697 
L 131.238909 293.636364 
M 116.899364 274.51697 
L 116.899364 250.617727 
M 138.730402 262.567348 
L 159.918 293.636364 
M 138.730402 262.567348 
L 159.918 236.278182 
M 138.730402 262.567348 
L 163.502886 264.957273 
M 138.730402 262.567348 
L 131.238909 293.636364 
M 138.730402 262.567348 
L 116.899364 250.617727 
M 138.730402 262.567348 
L 116.899364 274.51697 
M 81.0505 262.567348 
L 102.559818 293.636364 
M 81.0505 262.567348 
L 116.899364 250.617727 
M 81.0505 262.567348 
L 116.899364 274.51697 
M 73.880727 293.636364 
L 45.201636 293.636364 
M 73.880727 293.636364 
L 102.559818 293.636364 
M 73.880727 293.636364 
L 81.0505 262.567348 
M 93.941501 241.492246 
L 116.899364 250.617727 
M 93.941501 241.492246 
L 81.0505 262.567348 
M 93.941501 241.492246 
L 86.129089 218.055009 
M 69.825644 236.510178 
L 45.201636 236.278182 
M 69.825644 236.510178 
L 81.0505 262.567348 
M 69.825644 236.510178 
L 86.129089 218.055009 
M 69.825644 236.510178 
L 93.941501 241.492246 
M 245.955273 293.636364 
L 274.634364 293.636364 
M 245.955273 293.636364 
L 217.276182 293.636364 
M 245.955273 293.636364 
L 245.955273 264.957273 
M 274.634364 264.957273 
L 274.634364 293.636364 
M 274.634364 264.957273 
L 274.634364 236.278182 
M 274.634364 264.957273 
L 245.955273 264.957273 
M 249.540159 182.504886 
L 274.634364 178.92 
M 249.540159 182.504886 
L 245.955273 207.599091 
M 249.540159 182.504886 
L 274.634364 207.599091 
M 249.540159 182.504886 
L 231.615727 164.580455 
M 192.181977 153.825795 
L 159.918 178.92 
M 192.181977 153.825795 
L 231.615727 164.580455 
M 206.521523 196.844432 
L 245.955273 207.599091 
M 206.521523 196.844432 
L 231.615727 164.580455 
M 206.521523 196.844432 
L 249.540159 182.504886 
M 186.036458 219.89013 
L 159.918 236.278182 
M 186.036458 219.89013 
L 188.597091 250.617727 
M 186.036458 219.89013 
L 206.521523 196.844432 
M 207.00025 217.897289 
L 217.276182 236.278182 
M 207.00025 217.897289 
L 245.955273 207.599091 
M 207.00025 217.897289 
L 188.597091 250.617727 
M 207.00025 217.897289 
L 206.521523 196.844432 
M 207.00025 217.897289 
L 186.036458 219.89013 
M 180.675438 194.497457 
L 159.918 178.92 
M 180.675438 194.497457 
L 206.521523 196.844432 
M 180.675438 194.497457 
L 186.036458 219.89013 
M 195.323152 176.67798 
L 159.918 178.92 
M 195.323152 176.67798 
L 231.615727 164.580455 
M 195.323152 176.67798 
L 192.181977 153.825795 
M 195.323152 176.67798 
L 206.521523 196.844432 
M 195.323152 176.67798 
L 180.675438 194.497457 
M 154.619509 207.599091 
L 159.918 178.92 
M 154.619509 207.599091 
L 159.918 236.278182 
M 154.619509 207.599091 
L 186.036458 219.89013 
M 154.619509 207.599091 
L 180.675438 194.497457 
M 132.74893 226.468699 
L 159.918 236.278182 
M 132.74893 226.468699 
L 116.899364 250.617727 
M 132.74893 226.468699 
L 138.730402 262.567348 
M 132.74893 226.468699 
L 86.129089 218.055009 
M 132.74893 226.468699 
L 93.941501 241.492246 
M 132.74893 226.468699 
L 154.619509 207.599091 
M 132.74893 226.468699 
L 116.229583 185.677517 
M 139.254368 189.931369 
L 159.918 178.92 
M 139.254368 189.931369 
L 154.619509 207.599091 
M 139.254368 189.931369 
L 116.229583 185.677517 
M 139.254368 189.931369 
L 132.74893 226.468699 
M 133.829148 154.856465 
L 159.918 178.92 
M 133.829148 154.856465 
L 116.229583 185.677517 
M 133.829148 154.856465 
L 139.254368 189.931369 
M 162.919902 149.491358 
L 159.918 178.92 
M 162.919902 149.491358 
L 192.181977 153.825795 
M 162.919902 149.491358 
L 133.829148 154.856465 
M 182.213451 120.181651 
L 217.276182 121.561818 
M 182.213451 120.181651 
L 192.181977 153.825795 
M 182.213451 120.181651 
L 162.919902 149.491358 
M 141.72362 116.111284 
L 102.559818 121.561818 
M 145.590059 137.075939 
L 133.829148 154.856465 
M 145.590059 137.075939 
L 162.919902 149.491358 
M 145.590059 137.075939 
L 141.72362 116.111284 
M 99.551205 155.718347 
L 102.559818 121.561818 
M 99.551205 155.718347 
L 116.229583 185.677517 
M 99.551205 155.718347 
L 133.829148 154.856465 
M 199.250386 133.432601 
L 217.276182 121.561818 
M 199.250386 133.432601 
L 231.615727 164.580455 
M 199.250386 133.432601 
L 192.181977 153.825795 
M 199.250386 133.432601 
L 182.213451 120.181651 
M 116.305372 139.983337 
L 102.559818 121.561818 
M 116.305372 139.983337 
L 133.829148 154.856465 
M 116.305372 139.983337 
L 141.72362 116.111284 
M 116.305372 139.983337 
L 145.590059 137.075939 
M 116.305372 139.983337 
L 99.551205 155.718347 
M 82.723547 184.708406 
L 45.201636 178.92 
M 82.723547 184.708406 
L 116.229583 185.677517 
M 82.723547 184.708406 
L 99.551205 155.718347 
M 99.051531 199.888099 
L 86.129089 218.055009 
M 99.051531 199.888099 
L 116.229583 185.677517 
M 99.051531 199.888099 
L 132.74893 226.468699 
M 99.051531 199.888099 
L 82.723547 184.708406 
M 45.201636 150.240909 
L 45.201636 178.92 
M 45.201636 150.240909 
L 45.201636 121.561818 
M 45.201636 207.599091 
L 45.201636 178.92 
M 45.201636 207.599091 
L 45.201636 236.278182 
M 45.201636 207.599091 
L 69.825644 236.510178 
M 66.621197 164.580455 
L 45.201636 178.92 
M 66.621197 164.580455 
L 99.551205 155.718347 
M 66.621197 164.580455 
L 82.723547 184.708406 
M 66.621197 164.580455 
L 45.201636 150.240909 
M 68.165092 203.042395 
L 45.201636 178.92 
M 68.165092 203.042395 
L 86.129089 218.055009 
M 68.165092 203.042395 
L 69.825644 236.510178 
M 68.165092 203.042395 
L 82.723547 184.708406 
M 68.165092 203.042395 
L 99.051531 199.888099 
M 68.165092 203.042395 
L 45.201636 207.599091 
M 76.720772 136.496603 
L 102.559818 121.561818 
M 76.720772 136.496603 
L 99.551205 155.718347 
M 76.720772 136.496603 
L 45.201636 121.561818 
M 76.720772 136.496603 
L 45.201636 150.240909 
M 76.720772 136.496603 
L 66.621197 164.580455 
M 200.846542 92.882727 
L 217.276182 121.561818 
M 200.846542 92.882727 
L 182.213451 120.181651 
M 200.846542 92.882727 
L 217.276182 64.203636 
M 188.597091 64.203636 
L 159.918 64.203636 
M 188.597091 64.203636 
L 217.276182 64.203636 
M 188.597091 64.203636 
L 200.846542 92.882727 
M 170.722014 92.329541 
L 159.918 64.203636 
M 170.722014 92.329541 
L 182.213451 120.181651 
M 170.722014 92.329541 
L 200.846542 92.882727 
M 170.722014 92.329541 
L 188.597091 64.203636 
M 131.238909 64.203636 
L 159.918 64.203636 
M 131.238909 64.203636 
L 102.559818 64.203636 
M 162.588227 111.982109 
L 162.919902 149.491358 
M 162.588227 111.982109 
L 182.213451 120.181651 
M 162.588227 111.982109 
L 141.72362 116.111284 
M 162.588227 111.982109 
L 145.590059 137.075939 
M 162.588227 111.982109 
L 170.722014 92.329541 
M 118.651585 93.758838 
L 102.559818 121.561818 
M 118.651585 93.758838 
L 141.72362 116.111284 
M 118.651585 93.758838 
L 102.559818 64.203636 
M 118.651585 93.758838 
L 131.238909 64.203636 
M 144.604716 90.05382 
L 159.918 64.203636 
M 144.604716 90.05382 
L 141.72362 116.111284 
M 144.604716 90.05382 
L 170.722014 92.329541 
M 144.604716 90.05382 
L 131.238909 64.203636 
M 144.604716 90.05382 
L 162.588227 111.982109 
M 144.604716 90.05382 
L 118.651585 93.758838 
M 45.201636 264.957273 
L 45.201636 293.636364 
M 45.201636 264.957273 
L 45.201636 236.278182 
M 45.201636 264.957273 
L 69.825644 236.510178 
M 63.87292 274.96508 
L 45.201636 293.636364 
M 63.87292 274.96508 
L 81.0505 262.567348 
M 63.87292 274.96508 
L 73.880727 293.636364 
M 63.87292 274.96508 
L 69.825644 236.510178 
M 63.87292 274.96508 
L 45.201636 264.957273 
M 274.634364 150.240909 
L 274.634364 178.92 
M 274.634364 150.240909 
L 231.615727 164.580455 
M 274.634364 150.240909 
L 249.540159 182.504886 
M 274.634364 150.240909 
L 274.634364 121.561818 
M 245.955273 135.901364 
L 217.276182 121.561818 
M 245.955273 135.901364 
L 231.615727 164.580455 
M 245.955273 135.901364 
L 274.634364 121.561818 
M 245.955273 135.901364 
L 274.634364 150.240909 
M 245.955273 92.882727 
L 274.634364 64.203636 
M 245.955273 92.882727 
L 274.634364 121.561818 
M 238.7855 114.392045 
L 217.276182 121.561818 
M 238.7855 114.392045 
L 274.634364 121.561818 
M 238.7855 114.392045 
L 245.955273 135.901364 
M 238.7855 114.392045 
L 245.955273 92.882727 
M 223.400907 86.758002 
L 217.276182 121.561818 
M 223.400907 86.758002 
L 217.276182 64.203636 
M 223.400907 86.758002 
L 200.846542 92.882727 
M 223.400907 86.758002 
L 245.955273 92.882727 
M 223.400907 86.758002 
L 238.7855 114.392045 
M 274.634364 92.882727 
L 274.634364 64.203636 
M 274.634364 92.882727 
L 274.634364 121.561818 
M 274.634364 92.882727 
L 245.955273 92.882727 
M 245.955273 64.203636 
L 274.634364 64.203636 
M 245.955273 64.203636 
L 217.276182 64.203636 
M 245.955273 64.203636 
L 245.955273 92.882727 
M 245.955273 64.203636 
L 223.400907 86.758002 
M 73.880727 92.882727 
L 45.201636 64.203636 
M 73.880727 92.882727 
L 102.559818 64.203636 
M 96.149282 99.293263 
L 102.559818 121.561818 
M 96.149282 99.293263 
L 102.559818 64.203636 
M 96.149282 99.293263 
L 118.651585 93.758838 
M 96.149282 99.293263 
L 73.880727 92.882727 
M 67.515531 115.196622 
L 102.559818 121.561818 
M 67.515531 115.196622 
L 45.201636 121.561818 
M 67.515531 115.196622 
L 76.720772 136.496603 
M 67.515531 115.196622 
L 73.880727 92.882727 
M 67.515531 115.196622 
L 96.149282 99.293263 
M 73.880727 64.203636 
L 45.201636 64.203636 
M 73.880727 64.203636 
L 102.559818 64.203636 
M 73.880727 64.203636 
L 73.880727 92.882727 
M 45.201636 92.882727 
L 45.201636 64.203636 
M 45.201636 92.882727 
L 45.201636 121.561818 
M 45.201636 92.882727 
L 73.880727 92.882727 
M 45.201636 92.882727 
L 67.515531 115.196622 
L 67.515531 115.196622 
" clip-path="url(#p99e99671a5)" style="fill: none; stroke: #000000; stroke-width: 2; stroke-linecap: square"/>
   </g>
   <g id="matplotlib.axis_1">
    <g id="xtick_1">
     <g id="line2d_2">
      <defs>
       <path id="mb758404ee8" d="M 0 0 
L 0 3.5 
" style="stroke: #000000; stroke-width: 0.8"/>
      </defs>
      <g>
       <use xlink:href="#mb758404ee8" x="45.201636" y="305.108" style="stroke: #000000; stroke-width: 0.8"/>
      </g>
     </g>
     <g id="text_1">
      <!-- 0.0 -->
      <g transform="translate(37.250074 319.706437) scale(0.1 -0.1)">
       <defs>
        <path id="DejaVuSans-30" d="M 2034 4250 
Q 1547 4250 1301 3770 
Q 1056 3291 1056 2328 
Q 1056 1369 1301 889 
Q 1547 409 2034 409 
Q 2525 409 2770 889 
Q 3016 1369 3016 2328 
Q 3016 3291 2770 3770 
Q 2525 4250 2034 4250 
z
M 2034 4750 
Q 2819 4750 3233 4129 
Q 3647 3509 3647 2328 
Q 3647 1150 3233 529 
Q 2819 -91 2034 -91 
Q 1250 -91 836 529 
Q 422 1150 422 2328 
Q 422 3509 836 4129 
Q 1250 4750 2034 4750 
z
" transform="scale(0.015625)"/>
        <path id="DejaVuSans-2e" d="M 684 794 
L 1344 794 
L 1344 0 
L 684 0 
L 684 794 
z
" transform="scale(0.015625)"/>
       </defs>
       <use xlink:href="#DejaVuSans-30"/>
       <use xlink:href="#DejaVuSans-2e" x="63.623047"/>
       <use xlink:href="#DejaVuSans-30" x="95.410156"/>
      </g>
     </g>
    </g>
    <g id="xtick_2">
     <g id="line2d_3">
      <g>
       <use xlink:href="#mb758404ee8" x="91.088182" y="305.108" style="stroke: #000000; stroke-width: 0.8"/>
      </g>
     </g>
     <g id="text_2">
      <!-- 0.2 -->
      <g transform="translate(83.136619 319.706437) scale(0.1 -0.1)">
       <defs>
        <path id="DejaVuSans-32" d="M 1228 531 
L 3431 531 
L 3431 0 
L 469 0 
L 469 531 
Q 828 903 1448 1529 
Q 2069 2156 2228 2338 
Q 2531 2678 2651 2914 
Q 2772 3150 2772 3378 
Q 2772 3750 2511 3984 
Q 2250 4219 1831 4219 
Q 1534 4219 1204 4116 
Q 875 4013 500 3803 
L 500 4441 
Q 881 4594 1212 4672 
Q 1544 4750 1819 4750 
Q 2544 4750 2975 4387 
Q 3406 4025 3406 3419 
Q 3406 3131 3298 2873 
Q 3191 2616 2906 2266 
Q 2828 2175 2409 1742 
Q 1991 1309 1228 531 
z
" transform="scale(0.015625)"/>
       </defs>
       <use xlink:href="#DejaVuSans-30"/>
       <use xlink:href="#DejaVuSans-2e" x="63.623047"/>
       <use xlink:href="#DejaVuSans-32" x="95.410156"/>
      </g>
     </g>
    </g>
    <g id="xtick_3">
     <g id="line2d_4">
      <g>
       <use xlink:href="#mb758404ee8" x="136.974727" y="305.108" style="stroke: #000000; stroke-width: 0.8"/>
      </g>
     </g>
     <g id="text_3">
      <!-- 0.4 -->
      <g transform="translate(129.023165 319.706437) scale(0.1 -0.1)">
       <defs>
        <path id="DejaVuSans-34" d="M 2419 4116 
L 825 1625 
L 2419 1625 
L 2419 4116 
z
M 2253 4666 
L 3047 4666 
L 3047 1625 
L 3713 1625 
L 3713 1100 
L 3047 1100 
L 3047 0 
L 2419 0 
L 2419 1100 
L 313 1100 
L 313 1709 
L 2253 4666 
z
" transform="scale(0.015625)"/>
       </defs>
       <use xlink:href="#DejaVuSans-30"/>
       <use xlink:href="#DejaVuSans-2e" x="63.623047"/>
       <use xlink:href="#DejaVuSans-34" x="95.410156"/>
      </g>
     </g>
    </g>
    <g id="xtick_4">
     <g id="line2d_5">
      <g>
       <use xlink:href="#mb758404ee8" x="182.861273" y="305.108" style="stroke: #000000; stroke-width: 0.8"/>
      </g>
     </g>
     <g id="text_4">
      <!-- 0.6 -->
      <g transform="translate(174.90971 319.706437) scale(0.1 -0.1)">
       <defs>
        <path id="DejaVuSans-36" d="M 2113 2584 
Q 1688 2584 1439 2293 
Q 1191 2003 1191 1497 
Q 1191 994 1439 701 
Q 1688 409 2113 409 
Q 2538 409 2786 701 
Q 3034 994 3034 1497 
Q 3034 2003 2786 2293 
Q 2538 2584 2113 2584 
z
M 3366 4563 
L 3366 3988 
Q 3128 4100 2886 4159 
Q 2644 4219 2406 4219 
Q 1781 4219 1451 3797 
Q 1122 3375 1075 2522 
Q 1259 2794 1537 2939 
Q 1816 3084 2150 3084 
Q 2853 3084 3261 2657 
Q 3669 2231 3669 1497 
Q 3669 778 3244 343 
Q 2819 -91 2113 -91 
Q 1303 -91 875 529 
Q 447 1150 447 2328 
Q 447 3434 972 4092 
Q 1497 4750 2381 4750 
Q 2619 4750 2861 4703 
Q 3103 4656 3366 4563 
z
" transform="scale(0.015625)"/>
       </defs>
       <use xlink:href="#DejaVuSans-30"/>
       <use xlink:href="#DejaVuSans-2e" x="63.623047"/>
       <use xlink:href="#DejaVuSans-36" x="95.410156"/>
      </g>
     </g>
    </g>
    <g id="xtick_5">
     <g id="line2d_6">
      <g>
       <use xlink:href="#mb758404ee8" x="228.747818" y="305.108" style="stroke: #000000; stroke-width: 0.8"/>
      </g>
     </g>
     <g id="text_5">
      <!-- 0.8 -->
      <g transform="translate(220.796256 319.706437) scale(0.1 -0.1)">
       <defs>
        <path id="DejaVuSans-38" d="M 2034 2216 
Q 1584 2216 1326 1975 
Q 1069 1734 1069 1313 
Q 1069 891 1326 650 
Q 1584 409 2034 409 
Q 2484 409 2743 651 
Q 3003 894 3003 1313 
Q 3003 1734 2745 1975 
Q 2488 2216 2034 2216 
z
M 1403 2484 
Q 997 2584 770 2862 
Q 544 3141 544 3541 
Q 544 4100 942 4425 
Q 1341 4750 2034 4750 
Q 2731 4750 3128 4425 
Q 3525 4100 3525 3541 
Q 3525 3141 3298 2862 
Q 3072 2584 2669 2484 
Q 3125 2378 3379 2068 
Q 3634 1759 3634 1313 
Q 3634 634 3220 271 
Q 2806 -91 2034 -91 
Q 1263 -91 848 271 
Q 434 634 434 1313 
Q 434 1759 690 2068 
Q 947 2378 1403 2484 
z
M 1172 3481 
Q 1172 3119 1398 2916 
Q 1625 2713 2034 2713 
Q 2441 2713 2670 2916 
Q 2900 3119 2900 3481 
Q 2900 3844 2670 4047 
Q 2441 4250 2034 4250 
Q 1625 4250 1398 4047 
Q 1172 3844 1172 3481 
z
" transform="scale(0.015625)"/>
       </defs>
       <use xlink:href="#DejaVuSans-30"/>
       <use xlink:href="#DejaVuSans-2e" x="63.623047"/>
       <use xlink:href="#DejaVuSans-38" x="95.410156"/>
      </g>
     </g>
    </g>
    <g id="xtick_6">
     <g id="line2d_7">
      <g>
       <use xlink:href="#mb758404ee8" x="274.634364" y="305.108" style="stroke: #000000; stroke-width: 0.8"/>
      </g>
     </g>
     <g id="text_6">
      <!-- 1.0 -->
      <g transform="translate(266.682801 319.706437) scale(0.1 -0.1)">
       <defs>
        <path id="DejaVuSans-31" d="M 794 531 
L 1825 531 
L 1825 4091 
L 703 3866 
L 703 4441 
L 1819 4666 
L 2450 4666 
L 2450 531 
L 3481 531 
L 3481 0 
L 794 0 
L 794 531 
z
" transform="scale(0.015625)"/>
       </defs>
       <use xlink:href="#DejaVuSans-31"/>
       <use xlink:href="#DejaVuSans-2e" x="63.623047"/>
       <use xlink:href="#DejaVuSans-30" x="95.410156"/>
      </g>
     </g>
    </g>
   </g>
   <g id="matplotlib.axis_2">
    <g id="ytick_1">
     <g id="line2d_8">
      <defs>
       <path id="me5c7c8dfc9" d="M 0 0 
L -3.5 0 
" style="stroke: #000000; stroke-width: 0.8"/>
      </defs>
      <g>
       <use xlink:href="#me5c7c8dfc9" x="33.73" y="293.636364" style="stroke: #000000; stroke-width: 0.8"/>
      </g>
     </g>
     <g id="text_7">
      <!-- 0.0 -->
      <g transform="translate(10.826875 297.435582) scale(0.1 -0.1)">
       <use xlink:href="#DejaVuSans-30"/>
       <use xlink:href="#DejaVuSans-2e" x="63.623047"/>
       <use xlink:href="#DejaVuSans-30" x="95.410156"/>
      </g>
     </g>
    </g>
    <g id="ytick_2">
     <g id="line2d_9">
      <g>
       <use xlink:href="#me5c7c8dfc9" x="33.73" y="247.749818" style="stroke: #000000; stroke-width: 0.8"/>
      </g>
     </g>
     <g id="text_8">
      <!-- 0.2 -->
      <g transform="translate(10.826875 251.549037) scale(0.1 -0.1)">
       <use xlink:href="#DejaVuSans-30"/>
       <use xlink:href="#DejaVuSans-2e" x="63.623047"/>
       <use xlink:href="#DejaVuSans-32" x="95.410156"/>
      </g>
     </g>
    </g>
    <g id="ytick_3">
     <g id="line2d_10">
      <g>
       <use xlink:href="#me5c7c8dfc9" x="33.73" y="201.863273" style="stroke: #000000; stroke-width: 0.8"/>
      </g>
     </g>
     <g id="text_9">
      <!-- 0.4 -->
      <g transform="translate(10.826875 205.662491) scale(0.1 -0.1)">
       <use xlink:href="#DejaVuSans-30"/>
       <use xlink:href="#DejaVuSans-2e" x="63.623047"/>
       <use xlink:href="#DejaVuSans-34" x="95.410156"/>
      </g>
     </g>
    </g>
    <g id="ytick_4">
     <g id="line2d_11">
      <g>
       <use xlink:href="#me5c7c8dfc9" x="33.73" y="155.976727" style="stroke: #000000; stroke-width: 0.8"/>
      </g>
     </g>
     <g id="text_10">
      <!-- 0.6 -->
      <g transform="translate(10.826875 159.775946) scale(0.1 -0.1)">
       <use xlink:href="#DejaVuSans-30"/>
       <use xlink:href="#DejaVuSans-2e" x="63.623047"/>
       <use xlink:href="#DejaVuSans-36" x="95.410156"/>
      </g>
     </g>
    </g>
    <g id="ytick_5">
     <g id="line2d_12">
      <g>
       <use xlink:href="#me5c7c8dfc9" x="33.73" y="110.090182" style="stroke: #000000; stroke-width: 0.8"/>
      </g>
     </g>
     <g id="text_11">
      <!-- 0.8 -->
      <g transform="translate(10.826875 113.889401) scale(0.1 -0.1)">
       <use xlink:href="#DejaVuSans-30"/>
       <use xlink:href="#DejaVuSans-2e" x="63.623047"/>
       <use xlink:href="#DejaVuSans-38" x="95.410156"/>
      </g>
     </g>
    </g>
    <g id="ytick_6">
     <g id="line2d_13">
      <g>
       <use xlink:href="#me5c7c8dfc9" x="33.73" y="64.203636" style="stroke: #000000; stroke-width: 0.8"/>
      </g>
     </g>
     <g id="text_12">
      <!-- 1.0 -->
      <g transform="translate(10.826875 68.002855) scale(0.1 -0.1)">
       <use xlink:href="#DejaVuSans-31"/>
       <use xlink:href="#DejaVuSans-2e" x="63.623047"/>
       <use xlink:href="#DejaVuSans-30" x="95.410156"/>
      </g>
     </g>
    </g>
   </g>
   <g id="line2d_14"/>
   <g id="LineCollection_1">
    <path d="M 45.201636 293.636364 
L 45.201636 264.957273 
" clip-path="url(#p99e99671a5)" style="fill: none; stroke: #ff0000; stroke-width: 3"/>
    <path d="M 45.201636 64.203636 
L 73.880727 64.203636 
" clip-path="url(#p99e99671a5)" style="fill: none; stroke: #00ff00; stroke-width: 3"/>
    <path d="M 274.634364 64.203636 
L 274.634364 92.882727 
" clip-path="url(#p99e99671a5)" style="fill: none; stroke: #0000ff; stroke-width: 3"/>
    <path d="M 274.634364 293.636364 
L 245.955273 293.636364 
" clip-path="url(#p99e99671a5)" style="fill: none; stroke: #00cfff; stroke-width: 3"/>
    <path d="M 45.201636 178.92 
L 45.201636 150.240909 
" clip-path="url(#p99e99671a5)" style="fill: none; stroke: #ff0000; stroke-width: 3"/>
    <path d="M 159.918 293.636364 
L 131.238909 293.636364 
" clip-path="url(#p99e99671a5)" style="fill: none; stroke: #00cfff; stroke-width: 3"/>
    <path d="M 274.634364 178.92 
L 274.634364 207.599091 
" clip-path="url(#p99e99671a5)" style="fill: none; stroke: #0000ff; stroke-width: 3"/>
    <path d="M 159.918 64.203636 
L 188.597091 64.203636 
" clip-path="url(#p99e99671a5)" style="fill: none; stroke: #00ff00; stroke-width: 3"/>
    <path d="M 217.276182 293.636364 
L 188.597091 293.636364 
" clip-path="url(#p99e99671a5)" style="fill: none; stroke: #00cfff; stroke-width: 3"/>
    <path d="M 274.634364 236.278182 
L 274.634364 264.957273 
" clip-path="url(#p99e99671a5)" style="fill: none; stroke: #0000ff; stroke-width: 3"/>
    <path d="M 274.634364 207.599091 
L 274.634364 236.278182 
" clip-path="url(#p99e99671a5)" style="fill: none; stroke: #0000ff; stroke-width: 3"/>
    <path d="M 102.559818 293.636364 
L 73.880727 293.636364 
" clip-path="url(#p99e99671a5)" style="fill: none; stroke: #00cfff; stroke-width: 3"/>
    <path d="M 188.597091 293.636364 
L 159.918 293.636364 
" clip-path="url(#p99e99671a5)" style="fill: none; stroke: #00cfff; stroke-width: 3"/>
    <path d="M 131.238909 293.636364 
L 102.559818 293.636364 
" clip-path="url(#p99e99671a5)" style="fill: none; stroke: #00cfff; stroke-width: 3"/>
    <path d="M 45.201636 236.278182 
L 45.201636 207.599091 
" clip-path="url(#p99e99671a5)" style="fill: none; stroke: #ff0000; stroke-width: 3"/>
    <path d="M 73.880727 293.636364 
L 45.201636 293.636364 
" clip-path="url(#p99e99671a5)" style="fill: none; stroke: #00cfff; stroke-width: 3"/>
    <path d="M 245.955273 293.636364 
L 217.276182 293.636364 
" clip-path="url(#p99e99671a5)" style="fill: none; stroke: #00cfff; stroke-width: 3"/>
    <path d="M 274.634364 264.957273 
L 274.634364 293.636364 
" clip-path="url(#p99e99671a5)" style="fill: none; stroke: #0000ff; stroke-width: 3"/>
    <path d="M 274.634364 121.561818 
L 274.634364 150.240909 
" clip-path="url(#p99e99671a5)" style="fill: none; stroke: #0000ff; stroke-width: 3"/>
    <path d="M 217.276182 64.203636 
L 245.955273 64.203636 
" clip-path="url(#p99e99671a5)" style="fill: none; stroke: #00ff00; stroke-width: 3"/>
    <path d="M 102.559818 64.203636 
L 131.238909 64.203636 
" clip-path="url(#p99e99671a5)" style="fill: none; stroke: #00ff00; stroke-width: 3"/>
    <path d="M 45.201636 121.561818 
L 45.201636 92.882727 
" clip-path="url(#p99e99671a5)" style="fill: none; stroke: #ff0000; stroke-width: 3"/>
    <path d="M 45.201636 150.240909 
L 45.201636 121.561818 
" clip-path="url(#p99e99671a5)" style="fill: none; stroke: #ff0000; stroke-width: 3"/>
    <path d="M 45.201636 207.599091 
L 45.201636 178.92 
" clip-path="url(#p99e99671a5)" style="fill: none; stroke: #ff0000; stroke-width: 3"/>
    <path d="M 188.597091 64.203636 
L 217.276182 64.203636 
" clip-path="url(#p99e99671a5)" style="fill: none; stroke: #00ff00; stroke-width: 3"/>
    <path d="M 131.238909 64.203636 
L 159.918 64.203636 
" clip-path="url(#p99e99671a5)" style="fill: none; stroke: #00ff00; stroke-width: 3"/>
    <path d="M 45.201636 264.957273 
L 45.201636 236.278182 
" clip-path="url(#p99e99671a5)" style="fill: none; stroke: #ff0000; stroke-width: 3"/>
    <path d="M 274.634364 150.240909 
L 274.634364 178.92 
" clip-path="url(#p99e99671a5)" style="fill: none; stroke: #0000ff; stroke-width: 3"/>
    <path d="M 274.634364 92.882727 
L 274.634364 121.561818 
" clip-path="url(#p99e99671a5)" style="fill: none; stroke: #0000ff; stroke-width: 3"/>
    <path d="M 245.955273 64.203636 
L 274.634364 64.203636 
" clip-path="url(#p99e99671a5)" style="fill: none; stroke: #00ff00; stroke-width: 3"/>
    <path d="M 73.880727 64.203636 
L 102.559818 64.203636 
" clip-path="url(#p99e99671a5)" style="fill: none; stroke: #00ff00; stroke-width: 3"/>
    <path d="M 45.201636 92.882727 
L 45.201636 64.203636 
" clip-path="url(#p99e99671a5)" style="fill: none; stroke: #ff0000; stroke-width: 3"/>
   </g>
   <g id="line2d_15">
    <path d="M 45.201636 293.636364 
" clip-path="url(#p99e99671a5)" style="fill: none; stroke: #ff0000; stroke-width: 1.5; stroke-linecap: square"/>
   </g>
   <g id="line2d_16">
    <path d="M 45.201636 293.636364 
" clip-path="url(#p99e99671a5)" style="fill: none; stroke: #00ff00; stroke-width: 1.5; stroke-linecap: square"/>
   </g>
   <g id="line2d_17">
    <path d="M 45.201636 293.636364 
" clip-path="url(#p99e99671a5)" style="fill: none; stroke: #0000ff; stroke-width: 1.5; stroke-linecap: square"/>
   </g>
   <g id="line2d_18">
    <path d="M 45.201636 293.636364 
" clip-path="url(#p99e99671a5)" style="fill: none; stroke: #00cfff; stroke-width: 1.5; stroke-linecap: square"/>
   </g>
   <g id="patch_3">
    <path d="M 33.73 305.108 
L 33.73 52.732 
" style="fill: none; stroke: #000000; stroke-width: 0.8; stroke-linejoin: miter; stroke-linecap: square"/>
   </g>
   <g id="patch_4">
    <path d="M 286.106 305.108 
L 286.106 52.732 
" style="fill: none; stroke: #000000; stroke-width: 0.8; stroke-linejoin: miter; stroke-linecap: square"/>
   </g>
   <g id="patch_5">
    <path d="M 33.73 305.108 
L 286.106 305.108 
" style="fill: none; stroke: #000000; stroke-width: 0.8; stroke-linejoin: miter; stroke-linecap: square"/>
   </g>
   <g id="patch_6">
    <path d="M 33.73 52.732 
L 286.106 52.732 
" style="fill: none; stroke: #000000; stroke-width: 0.8; stroke-linejoin: miter; stroke-linecap: square"/>
   </g>
  </g>
  <g id="axes_2">
   <g id="patch_7">
    <path d="M 301.8795 343.08 
L 318.2955 343.08 
L 318.2955 14.76 
L 301.8795 14.76 
z
" style="fill: #ffffff"/>
   </g>
   <g id="patch_8">
    <path clip-path="url(#pb86a18e006)" style="fill: #ffffff; stroke: #ffffff; stroke-width: 0.01; stroke-linejoin: miter"/>
   </g>
   <g id="QuadMesh_1">
    <path d="M 301.8795 343.08 
L 318.2955 343.08 
L 318.2955 277.416 
L 301.8795 277.416 
L 301.8795 343.08 
" clip-path="url(#pb86a18e006)" style="fill: #d99999"/>
    <path d="M 301.8795 277.416 
L 318.2955 277.416 
L 318.2955 211.752 
L 301.8795 211.752 
L 301.8795 277.416 
" clip-path="url(#pb86a18e006)" style="fill: #99d999"/>
    <path d="M 301.8795 211.752 
L 318.2955 211.752 
L 318.2955 146.088 
L 301.8795 146.088 
L 301.8795 211.752 
" clip-path="url(#pb86a18e006)" style="fill: #9999d9"/>
    <path d="M 301.8795 146.088 
L 318.2955 146.088 
L 318.2955 80.424 
L 301.8795 80.424 
L 301.8795 146.088 
" clip-path="url(#pb86a18e006)" style="fill: #00e0ff"/>
    <path d="M 301.8795 80.424 
L 318.2955 80.424 
L 318.2955 14.76 
L 301.8795 14.76 
L 301.8795 80.424 
" clip-path="url(#pb86a18e006)" style="fill: #ffb353"/>
   </g>
   <g id="matplotlib.axis_3"/>
   <g id="matplotlib.axis_4">
    <g id="ytick_7">
     <g id="line2d_19">
      <defs>
       <path id="m2e9ce2ac59" d="M 0 0 
L 3.5 0 
" style="stroke: #000000; stroke-width: 0.8"/>
      </defs>
      <g>
       <use xlink:href="#m2e9ce2ac59" x="318.2955" y="343.08" style="stroke: #000000; stroke-width: 0.8"/>
      </g>
     </g>
     <g id="text_13">
      <!-- 1 -->
      <g transform="translate(325.2955 346.879219) scale(0.1 -0.1)">
       <use xlink:href="#DejaVuSans-31"/>
      </g>
     </g>
    </g>
    <g id="ytick_8">
     <g id="line2d_20">
      <g>
       <use xlink:href="#m2e9ce2ac59" x="318.2955" y="261" style="stroke: #000000; stroke-width: 0.8"/>
      </g>
     </g>
     <g id="text_14">
      <!-- 2 -->
      <g transform="translate(325.2955 264.799219) scale(0.1 -0.1)">
       <use xlink:href="#DejaVuSans-32"/>
      </g>
     </g>
    </g>
    <g id="ytick_9">
     <g id="line2d_21">
      <g>
       <use xlink:href="#m2e9ce2ac59" x="318.2955" y="178.92" style="stroke: #000000; stroke-width: 0.8"/>
      </g>
     </g>
     <g id="text_15">
      <!-- 3 -->
      <g transform="translate(325.2955 182.719219) scale(0.1 -0.1)">
       <defs>
        <path id="DejaVuSans-33" d="M 2597 2516 
Q 3050 2419 3304 2112 
Q 3559 1806 3559 1356 
Q 3559 666 3084 287 
Q 2609 -91 1734 -91 
Q 1441 -91 1130 -33 
Q 819 25 488 141 
L 488 750 
Q 750 597 1062 519 
Q 1375 441 1716 441 
Q 2309 441 2620 675 
Q 2931 909 2931 1356 
Q 2931 1769 2642 2001 
Q 2353 2234 1838 2234 
L 1294 2234 
L 1294 2753 
L 1863 2753 
Q 2328 2753 2575 2939 
Q 2822 3125 2822 3475 
Q 2822 3834 2567 4026 
Q 2313 4219 1838 4219 
Q 1578 4219 1281 4162 
Q 984 4106 628 3988 
L 628 4550 
Q 988 4650 1302 4700 
Q 1616 4750 1894 4750 
Q 2613 4750 3031 4423 
Q 3450 4097 3450 3541 
Q 3450 3153 3228 2886 
Q 3006 2619 2597 2516 
z
" transform="scale(0.015625)"/>
       </defs>
       <use xlink:href="#DejaVuSans-33"/>
      </g>
     </g>
    </g>
    <g id="ytick_10">
     <g id="line2d_22">
      <g>
       <use xlink:href="#m2e9ce2ac59" x="318.2955" y="96.84" style="stroke: #000000; stroke-width: 0.8"/>
      </g>
     </g>
     <g id="text_16">
      <!-- 4 -->
      <g transform="translate(325.2955 100.639219) scale(0.1 -0.1)">
       <use xlink:href="#DejaVuSans-34"/>
      </g>
     </g>
    </g>
    <g id="ytick_11">
     <g id="line2d_23">
      <g>
       <use xlink:href="#m2e9ce2ac59" x="318.2955" y="14.76" style="stroke: #000000; stroke-width: 0.8"/>
      </g>
     </g>
     <g id="text_17">
      <!-- 5 -->
      <g transform="translate(325.2955 18.559219) scale(0.1 -0.1)">
       <defs>
        <path id="DejaVuSans-35" d="M 691 4666 
L 3169 4666 
L 3169 4134 
L 1269 4134 
L 1269 2991 
Q 1406 3038 1543 3061 
Q 1681 3084 1819 3084 
Q 2600 3084 3056 2656 
Q 3513 2228 3513 1497 
Q 3513 744 3044 326 
Q 2575 -91 1722 -91 
Q 1428 -91 1123 -41 
Q 819 9 494 109 
L 494 744 
Q 775 591 1075 516 
Q 1375 441 1709 441 
Q 2250 441 2565 725 
Q 2881 1009 2881 1497 
Q 2881 1984 2565 2268 
Q 2250 2553 1709 2553 
Q 1456 2553 1204 2497 
Q 953 2441 691 2322 
L 691 4666 
z
" transform="scale(0.015625)"/>
       </defs>
       <use xlink:href="#DejaVuSans-35"/>
      </g>
     </g>
    </g>
   </g>
   <g id="LineCollection_2"/>
   <g id="patch_9">
    <path d="M 301.8795 343.08 
L 310.0875 343.08 
L 318.2955 343.08 
L 318.2955 14.76 
L 310.0875 14.76 
L 301.8795 14.76 
L 301.8795 343.08 
z
" style="fill: none; stroke: #000000; stroke-width: 0.8; stroke-linejoin: miter; stroke-linecap: square"/>
   </g>
  </g>
 </g>
 <defs>
  <clipPath id="p99e99671a5">
   <rect x="33.73" y="52.732" width="252.376" height="252.376"/>
  </clipPath>
  <clipPath id="pb86a18e006">
   <rect x="301.8795" y="14.76" width="16.416" height="328.32"/>
  </clipPath>
 </defs>
</svg>
