<?xml version="1.0" encoding="utf-8" standalone="no"?>
<!DOCTYPE svg PUBLIC "-//W3C//DTD SVG 1.1//EN"
  "http://www.w3.org/Graphics/SVG/1.1/DTD/svg11.dtd">
<svg xmlns:xlink="http://www.w3.org/1999/xlink" width="360pt" height="360pt" viewBox="0 0 360 360" xmlns="http://www.w3.org/2000/svg" version="1.1">
 <metadata>
  <rdf:RDF xmlns:dc="http://purl.org/dc/elements/1.1/" xmlns:cc="http://creativecommons.org/ns#" xmlns:rdf="http://www.w3.org/1999/02/22-rdf-syntax-ns#">
   <cc:Work>
    <dc:type rdf:resource="http://purl.org/dc/dcmitype/StillImage"/>
    <dc:date>2022-04-01T07:54:59.107647</dc:date>
    <dc:format>image/svg+xml</dc:format>
    <dc:creator>
     <cc:Agent>
      <dc:title>Matplotlib v3.5.1, https://matplotlib.org/</dc:title>
     </cc:Agent>
    </dc:creator>
   </cc:Work>
  </rdf:RDF>
 </metadata>
 <defs>
  <style type="text/css">*{stroke-linejoin: round; stroke-linecap: butt}</style>
 </defs>
 <g id="figure_1">
  <g id="patch_1">
   <path d="M 0 360 
L 360 360 
L 360 0 
L 0 0 
z
" style="fill: #ffffff"/>
  </g>
  <g id="axes_1">
   <g id="patch_2">
    <path d="M 33.73 250.435 
L 174.6 250.435 
L 174.6 109.565 
L 33.73 109.565 
z
" style="fill: #ffffff"/>
   </g>
   <g id="PathCollection_1">
    <defs>
     <path id="mc71c19b2ef" d="M 0 1.581139 
C 0.419323 1.581139 0.821528 1.41454 1.118034 1.118034 
C 1.41454 0.821528 1.581139 0.419323 1.581139 0 
C 1.581139 -0.419323 1.41454 -0.821528 1.118034 -1.118034 
C 0.821528 -1.41454 0.419323 -1.581139 0 -1.581139 
C -0.419323 -1.581139 -0.821528 -1.41454 -1.118034 -1.118034 
C -1.41454 -0.821528 -1.581139 -0.419323 -1.581139 0 
C -1.581139 0.419323 -1.41454 0.821528 -1.118034 1.118034 
C -0.821528 1.41454 -0.419323 1.581139 0 1.581139 
z
" style="stroke: #0000ff"/>
    </defs>
    <g clip-path="url(#pe85a8069a3)">
     <use xlink:href="#mc71c19b2ef" x="104.165" y="238.695833" style="fill: #0000ff; stroke: #0000ff"/>
     <use xlink:href="#mc71c19b2ef" x="162.860833" y="238.695833" style="fill: #0000ff; stroke: #0000ff"/>
     <use xlink:href="#mc71c19b2ef" x="162.860833" y="121.304167" style="fill: #0000ff; stroke: #0000ff"/>
     <use xlink:href="#mc71c19b2ef" x="104.165" y="180" style="fill: #0000ff; stroke: #0000ff"/>
     <use xlink:href="#mc71c19b2ef" x="45.469167" y="121.304167" style="fill: #0000ff; stroke: #0000ff"/>
    </g>
   </g>
   <g id="matplotlib.axis_1">
    <g id="xtick_1">
     <g id="line2d_1">
      <defs>
       <path id="m0cfa18fa44" d="M 0 0 
L 0 3.5 
" style="stroke: #000000; stroke-width: 0.8"/>
      </defs>
      <g>
       <use xlink:href="#m0cfa18fa44" x="45.469167" y="250.435" style="stroke: #000000; stroke-width: 0.8"/>
      </g>
     </g>
     <g id="text_1">
      <!-- −1 -->
      <g transform="translate(38.098073 265.033437)scale(0.1 -0.1)">
       <defs>
        <path id="DejaVuSans-2212" d="M 678 2272 
L 4684 2272 
L 4684 1741 
L 678 1741 
L 678 2272 
z
" transform="scale(0.015625)"/>
        <path id="DejaVuSans-31" d="M 794 531 
L 1825 531 
L 1825 4091 
L 703 3866 
L 703 4441 
L 1819 4666 
L 2450 4666 
L 2450 531 
L 3481 531 
L 3481 0 
L 794 0 
L 794 531 
z
" transform="scale(0.015625)"/>
       </defs>
       <use xlink:href="#DejaVuSans-2212"/>
       <use xlink:href="#DejaVuSans-31" x="83.789062"/>
      </g>
     </g>
    </g>
    <g id="xtick_2">
     <g id="line2d_2">
      <g>
       <use xlink:href="#m0cfa18fa44" x="104.165" y="250.435" style="stroke: #000000; stroke-width: 0.8"/>
      </g>
     </g>
     <g id="text_2">
      <!-- 0 -->
      <g transform="translate(100.98375 265.033437)scale(0.1 -0.1)">
       <defs>
        <path id="DejaVuSans-30" d="M 2034 4250 
Q 1547 4250 1301 3770 
Q 1056 3291 1056 2328 
Q 1056 1369 1301 889 
Q 1547 409 2034 409 
Q 2525 409 2770 889 
Q 3016 1369 3016 2328 
Q 3016 3291 2770 3770 
Q 2525 4250 2034 4250 
z
M 2034 4750 
Q 2819 4750 3233 4129 
Q 3647 3509 3647 2328 
Q 3647 1150 3233 529 
Q 2819 -91 2034 -91 
Q 1250 -91 836 529 
Q 422 1150 422 2328 
Q 422 3509 836 4129 
Q 1250 4750 2034 4750 
z
" transform="scale(0.015625)"/>
       </defs>
       <use xlink:href="#DejaVuSans-30"/>
      </g>
     </g>
    </g>
    <g id="xtick_3">
     <g id="line2d_3">
      <g>
       <use xlink:href="#m0cfa18fa44" x="162.860833" y="250.435" style="stroke: #000000; stroke-width: 0.8"/>
      </g>
     </g>
     <g id="text_3">
      <!-- 1 -->
      <g transform="translate(159.679583 265.033437)scale(0.1 -0.1)">
       <use xlink:href="#DejaVuSans-31"/>
      </g>
     </g>
    </g>
   </g>
   <g id="matplotlib.axis_2">
    <g id="ytick_1">
     <g id="line2d_4">
      <defs>
       <path id="mb77a57aa26" d="M 0 0 
L -3.5 0 
" style="stroke: #000000; stroke-width: 0.8"/>
      </defs>
      <g>
       <use xlink:href="#mb77a57aa26" x="33.73" y="238.695833" style="stroke: #000000; stroke-width: 0.8"/>
      </g>
     </g>
     <g id="text_4">
      <!-- 0.0 -->
      <g transform="translate(10.826875 242.495052)scale(0.1 -0.1)">
       <defs>
        <path id="DejaVuSans-2e" d="M 684 794 
L 1344 794 
L 1344 0 
L 684 0 
L 684 794 
z
" transform="scale(0.015625)"/>
       </defs>
       <use xlink:href="#DejaVuSans-30"/>
       <use xlink:href="#DejaVuSans-2e" x="63.623047"/>
       <use xlink:href="#DejaVuSans-30" x="95.410156"/>
      </g>
     </g>
    </g>
    <g id="ytick_2">
     <g id="line2d_5">
      <g>
       <use xlink:href="#mb77a57aa26" x="33.73" y="209.347917" style="stroke: #000000; stroke-width: 0.8"/>
      </g>
     </g>
     <g id="text_5">
      <!-- 0.5 -->
      <g transform="translate(10.826875 213.147135)scale(0.1 -0.1)">
       <defs>
        <path id="DejaVuSans-35" d="M 691 4666 
L 3169 4666 
L 3169 4134 
L 1269 4134 
L 1269 2991 
Q 1406 3038 1543 3061 
Q 1681 3084 1819 3084 
Q 2600 3084 3056 2656 
Q 3513 2228 3513 1497 
Q 3513 744 3044 326 
Q 2575 -91 1722 -91 
Q 1428 -91 1123 -41 
Q 819 9 494 109 
L 494 744 
Q 775 591 1075 516 
Q 1375 441 1709 441 
Q 2250 441 2565 725 
Q 2881 1009 2881 1497 
Q 2881 1984 2565 2268 
Q 2250 2553 1709 2553 
Q 1456 2553 1204 2497 
Q 953 2441 691 2322 
L 691 4666 
z
" transform="scale(0.015625)"/>
       </defs>
       <use xlink:href="#DejaVuSans-30"/>
       <use xlink:href="#DejaVuSans-2e" x="63.623047"/>
       <use xlink:href="#DejaVuSans-35" x="95.410156"/>
      </g>
     </g>
    </g>
    <g id="ytick_3">
     <g id="line2d_6">
      <g>
       <use xlink:href="#mb77a57aa26" x="33.73" y="180" style="stroke: #000000; stroke-width: 0.8"/>
      </g>
     </g>
     <g id="text_6">
      <!-- 1.0 -->
      <g transform="translate(10.826875 183.799219)scale(0.1 -0.1)">
       <use xlink:href="#DejaVuSans-31"/>
       <use xlink:href="#DejaVuSans-2e" x="63.623047"/>
       <use xlink:href="#DejaVuSans-30" x="95.410156"/>
      </g>
     </g>
    </g>
    <g id="ytick_4">
     <g id="line2d_7">
      <g>
       <use xlink:href="#mb77a57aa26" x="33.73" y="150.652083" style="stroke: #000000; stroke-width: 0.8"/>
      </g>
     </g>
     <g id="text_7">
      <!-- 1.5 -->
      <g transform="translate(10.826875 154.451302)scale(0.1 -0.1)">
       <use xlink:href="#DejaVuSans-31"/>
       <use xlink:href="#DejaVuSans-2e" x="63.623047"/>
       <use xlink:href="#DejaVuSans-35" x="95.410156"/>
      </g>
     </g>
    </g>
    <g id="ytick_5">
     <g id="line2d_8">
      <g>
       <use xlink:href="#mb77a57aa26" x="33.73" y="121.304167" style="stroke: #000000; stroke-width: 0.8"/>
      </g>
     </g>
     <g id="text_8">
      <!-- 2.0 -->
      <g transform="translate(10.826875 125.103385)scale(0.1 -0.1)">
       <defs>
        <path id="DejaVuSans-32" d="M 1228 531 
L 3431 531 
L 3431 0 
L 469 0 
L 469 531 
Q 828 903 1448 1529 
Q 2069 2156 2228 2338 
Q 2531 2678 2651 2914 
Q 2772 3150 2772 3378 
Q 2772 3750 2511 3984 
Q 2250 4219 1831 4219 
Q 1534 4219 1204 4116 
Q 875 4013 500 3803 
L 500 4441 
Q 881 4594 1212 4672 
Q 1544 4750 1819 4750 
Q 2544 4750 2975 4387 
Q 3406 4025 3406 3419 
Q 3406 3131 3298 2873 
Q 3191 2616 2906 2266 
Q 2828 2175 2409 1742 
Q 1991 1309 1228 531 
z
" transform="scale(0.015625)"/>
       </defs>
       <use xlink:href="#DejaVuSans-32"/>
       <use xlink:href="#DejaVuSans-2e" x="63.623047"/>
       <use xlink:href="#DejaVuSans-30" x="95.410156"/>
      </g>
     </g>
    </g>
   </g>
   <g id="LineCollection_1">
    <path d="M 104.165 238.695833 
L 162.860833 238.695833 
" clip-path="url(#pe85a8069a3)" style="fill: none; stroke: #ff0000; stroke-width: 3"/>
    <path d="M 162.860833 238.695833 
L 162.860833 121.304167 
" clip-path="url(#pe85a8069a3)" style="fill: none; stroke: #ff0000; stroke-width: 3"/>
    <path d="M 162.860833 121.304167 
L 104.165 180 
" clip-path="url(#pe85a8069a3)" style="fill: none; stroke: #55aa00; stroke-width: 3"/>
    <path d="M 104.165 180 
L 45.469167 121.304167 
" clip-path="url(#pe85a8069a3)" style="fill: none; stroke: #55aa00; stroke-width: 3"/>
    <path d="M 45.469167 121.304167 
L 104.165 238.695833 
" clip-path="url(#pe85a8069a3)" style="fill: none; stroke: #00aa55; stroke-width: 3"/>
   </g>
   <g id="patch_3">
    <path d="M 33.73 250.435 
L 33.73 109.565 
" style="fill: none; stroke: #000000; stroke-width: 0.8; stroke-linejoin: miter; stroke-linecap: square"/>
   </g>
   <g id="patch_4">
    <path d="M 174.6 250.435 
L 174.6 109.565 
" style="fill: none; stroke: #000000; stroke-width: 0.8; stroke-linejoin: miter; stroke-linecap: square"/>
   </g>
   <g id="patch_5">
    <path d="M 33.73 250.435 
L 174.6 250.435 
" style="fill: none; stroke: #000000; stroke-width: 0.8; stroke-linejoin: miter; stroke-linecap: square"/>
   </g>
   <g id="patch_6">
    <path d="M 33.73 109.565 
L 174.6 109.565 
" style="fill: none; stroke: #000000; stroke-width: 0.8; stroke-linejoin: miter; stroke-linecap: square"/>
   </g>
   <g id="text_9">
    <!-- In -->
    <g transform="translate(98.5925 103.565)scale(0.12 -0.12)">
     <defs>
      <path id="DejaVuSans-49" d="M 628 4666 
L 1259 4666 
L 1259 0 
L 628 0 
L 628 4666 
z
" transform="scale(0.015625)"/>
      <path id="DejaVuSans-6e" d="M 3513 2113 
L 3513 0 
L 2938 0 
L 2938 2094 
Q 2938 2591 2744 2837 
Q 2550 3084 2163 3084 
Q 1697 3084 1428 2787 
Q 1159 2491 1159 1978 
L 1159 0 
L 581 0 
L 581 3500 
L 1159 3500 
L 1159 2956 
Q 1366 3272 1645 3428 
Q 1925 3584 2291 3584 
Q 2894 3584 3203 3211 
Q 3513 2838 3513 2113 
z
" transform="scale(0.015625)"/>
     </defs>
     <use xlink:href="#DejaVuSans-49"/>
     <use xlink:href="#DejaVuSans-6e" x="29.492188"/>
    </g>
   </g>
  </g>
  <g id="axes_2">
   <g id="patch_7">
    <path d="M 208.33 250.435 
L 349.2 250.435 
L 349.2 109.565 
L 208.33 109.565 
z
" style="fill: #ffffff"/>
   </g>
   <g id="PathCollection_2">
    <g clip-path="url(#p42ff51a113)">
     <use xlink:href="#mc71c19b2ef" x="278.765" y="238.695833" style="fill: #0000ff; stroke: #0000ff"/>
     <use xlink:href="#mc71c19b2ef" x="337.460833" y="238.695833" style="fill: #0000ff; stroke: #0000ff"/>
     <use xlink:href="#mc71c19b2ef" x="337.460833" y="121.304167" style="fill: #0000ff; stroke: #0000ff"/>
     <use xlink:href="#mc71c19b2ef" x="278.765" y="180" style="fill: #0000ff; stroke: #0000ff"/>
     <use xlink:href="#mc71c19b2ef" x="220.069167" y="121.304167" style="fill: #0000ff; stroke: #0000ff"/>
     <use xlink:href="#mc71c19b2ef" x="246.318741" y="173.803316" style="fill: #0000ff; stroke: #0000ff"/>
     <use xlink:href="#mc71c19b2ef" x="240.821278" y="142.056278" style="fill: #0000ff; stroke: #0000ff"/>
     <use xlink:href="#mc71c19b2ef" x="262.541871" y="206.249575" style="fill: #0000ff; stroke: #0000ff"/>
     <use xlink:href="#mc71c19b2ef" x="259.793139" y="161.028139" style="fill: #0000ff; stroke: #0000ff"/>
     <use xlink:href="#mc71c19b2ef" x="233.193954" y="147.553741" style="fill: #0000ff; stroke: #0000ff"/>
     <use xlink:href="#mc71c19b2ef" x="230.445222" y="131.680222" style="fill: #0000ff; stroke: #0000ff"/>
     <use xlink:href="#mc71c19b2ef" x="226.63156" y="134.428954" style="fill: #0000ff; stroke: #0000ff"/>
     <use xlink:href="#mc71c19b2ef" x="239.756348" y="160.678529" style="fill: #0000ff; stroke: #0000ff"/>
     <use xlink:href="#mc71c19b2ef" x="250.307208" y="151.542208" style="fill: #0000ff; stroke: #0000ff"/>
     <use xlink:href="#mc71c19b2ef" x="229.912757" y="140.991348" style="fill: #0000ff; stroke: #0000ff"/>
     <use xlink:href="#mc71c19b2ef" x="235.63325" y="136.86825" style="fill: #0000ff; stroke: #0000ff"/>
     <use xlink:href="#mc71c19b2ef" x="245.564243" y="146.799243" style="fill: #0000ff; stroke: #0000ff"/>
     <use xlink:href="#mc71c19b2ef" x="236.475151" y="154.116135" style="fill: #0000ff; stroke: #0000ff"/>
     <use xlink:href="#mc71c19b2ef" x="243.719827" y="154.595293" style="fill: #0000ff; stroke: #0000ff"/>
     <use xlink:href="#mc71c19b2ef" x="249.739897" y="162.85042" style="fill: #0000ff; stroke: #0000ff"/>
     <use xlink:href="#mc71c19b2ef" x="255.050173" y="156.285173" style="fill: #0000ff; stroke: #0000ff"/>
     <use xlink:href="#mc71c19b2ef" x="245.160908" y="159.86702" style="fill: #0000ff; stroke: #0000ff"/>
     <use xlink:href="#mc71c19b2ef" x="243.037544" y="167.240922" style="fill: #0000ff; stroke: #0000ff"/>
     <use xlink:href="#mc71c19b2ef" x="239.461143" y="148.521643" style="fill: #0000ff; stroke: #0000ff"/>
     <use xlink:href="#mc71c19b2ef" x="269.279069" y="170.514069" style="fill: #0000ff; stroke: #0000ff"/>
     <use xlink:href="#mc71c19b2ef" x="256.398179" y="170.940896" style="fill: #0000ff; stroke: #0000ff"/>
     <use xlink:href="#mc71c19b2ef" x="255.327952" y="165.036622" style="fill: #0000ff; stroke: #0000ff"/>
     <use xlink:href="#mc71c19b2ef" x="250.421899" y="169.074195" style="fill: #0000ff; stroke: #0000ff"/>
     <use xlink:href="#mc71c19b2ef" x="254.430306" y="190.026445" style="fill: #0000ff; stroke: #0000ff"/>
     <use xlink:href="#mc71c19b2ef" x="264.536104" y="165.771104" style="fill: #0000ff; stroke: #0000ff"/>
     <use xlink:href="#mc71c19b2ef" x="250.374524" y="181.914881" style="fill: #0000ff; stroke: #0000ff"/>
     <use xlink:href="#mc71c19b2ef" x="262.01518" y="181.16428" style="fill: #0000ff; stroke: #0000ff"/>
     <use xlink:href="#mc71c19b2ef" x="248.346632" y="177.859098" style="fill: #0000ff; stroke: #0000ff"/>
     <use xlink:href="#mc71c19b2ef" x="252.402415" y="185.970663" style="fill: #0000ff; stroke: #0000ff"/>
     <use xlink:href="#mc71c19b2ef" x="262.946983" y="173.997565" style="fill: #0000ff; stroke: #0000ff"/>
     <use xlink:href="#mc71c19b2ef" x="255.956202" y="177.838488" style="fill: #0000ff; stroke: #0000ff"/>
     <use xlink:href="#mc71c19b2ef" x="267.570473" y="193.595818" style="fill: #0000ff; stroke: #0000ff"/>
     <use xlink:href="#mc71c19b2ef" x="261.84638" y="188.69673" style="fill: #0000ff; stroke: #0000ff"/>
     <use xlink:href="#mc71c19b2ef" x="257.844528" y="184.838933" style="fill: #0000ff; stroke: #0000ff"/>
     <use xlink:href="#mc71c19b2ef" x="274.022035" y="175.257035" style="fill: #0000ff; stroke: #0000ff"/>
     <use xlink:href="#mc71c19b2ef" x="268.066041" y="178.307068" style="fill: #0000ff; stroke: #0000ff"/>
     <use xlink:href="#mc71c19b2ef" x="269.118464" y="185.993588" style="fill: #0000ff; stroke: #0000ff"/>
     <use xlink:href="#mc71c19b2ef" x="279.587872" y="192.084121" style="fill: #0000ff; stroke: #0000ff"/>
     <use xlink:href="#mc71c19b2ef" x="273.037637" y="181.541675" style="fill: #0000ff; stroke: #0000ff"/>
     <use xlink:href="#mc71c19b2ef" x="275.271886" y="187.45961" style="fill: #0000ff; stroke: #0000ff"/>
     <use xlink:href="#mc71c19b2ef" x="274.96549" y="203.860659" style="fill: #0000ff; stroke: #0000ff"/>
     <use xlink:href="#mc71c19b2ef" x="316.708722" y="142.056278" style="fill: #0000ff; stroke: #0000ff"/>
     <use xlink:href="#mc71c19b2ef" x="337.460833" y="180" style="fill: #0000ff; stroke: #0000ff"/>
     <use xlink:href="#mc71c19b2ef" x="337.460833" y="150.652083" style="fill: #0000ff; stroke: #0000ff"/>
     <use xlink:href="#mc71c19b2ef" x="274.066279" y="196.712283" style="fill: #0000ff; stroke: #0000ff"/>
     <use xlink:href="#mc71c19b2ef" x="267.974196" y="201.082319" style="fill: #0000ff; stroke: #0000ff"/>
     <use xlink:href="#mc71c19b2ef" x="297.736861" y="161.028139" style="fill: #0000ff; stroke: #0000ff"/>
     <use xlink:href="#mc71c19b2ef" x="302.210416" y="184.473555" style="fill: #0000ff; stroke: #0000ff"/>
     <use xlink:href="#mc71c19b2ef" x="289.900977" y="185.31177" style="fill: #0000ff; stroke: #0000ff"/>
     <use xlink:href="#mc71c19b2ef" x="282.836699" y="185.792814" style="fill: #0000ff; stroke: #0000ff"/>
     <use xlink:href="#mc71c19b2ef" x="295.542801" y="205.141983" style="fill: #0000ff; stroke: #0000ff"/>
     <use xlink:href="#mc71c19b2ef" x="288.250931" y="170.514069" style="fill: #0000ff; stroke: #0000ff"/>
     <use xlink:href="#mc71c19b2ef" x="296.682674" y="194.100008" style="fill: #0000ff; stroke: #0000ff"/>
     <use xlink:href="#mc71c19b2ef" x="283.507965" y="175.257035" style="fill: #0000ff; stroke: #0000ff"/>
     <use xlink:href="#mc71c19b2ef" x="286.038935" y="180.707564" style="fill: #0000ff; stroke: #0000ff"/>
     <use xlink:href="#mc71c19b2ef" x="294.808149" y="177.27374" style="fill: #0000ff; stroke: #0000ff"/>
     <use xlink:href="#mc71c19b2ef" x="289.281637" y="176.074483" style="fill: #0000ff; stroke: #0000ff"/>
     <use xlink:href="#mc71c19b2ef" x="295.960464" y="183.494137" style="fill: #0000ff; stroke: #0000ff"/>
     <use xlink:href="#mc71c19b2ef" x="307.87663" y="171.242899" style="fill: #0000ff; stroke: #0000ff"/>
     <use xlink:href="#mc71c19b2ef" x="292.993896" y="165.771104" style="fill: #0000ff; stroke: #0000ff"/>
     <use xlink:href="#mc71c19b2ef" x="300.445343" y="168.479585" style="fill: #0000ff; stroke: #0000ff"/>
     <use xlink:href="#mc71c19b2ef" x="295.195569" y="171.31824" style="fill: #0000ff; stroke: #0000ff"/>
     <use xlink:href="#mc71c19b2ef" x="301.997814" y="175.678588" style="fill: #0000ff; stroke: #0000ff"/>
     <use xlink:href="#mc71c19b2ef" x="288.05834" y="193.744458" style="fill: #0000ff; stroke: #0000ff"/>
     <use xlink:href="#mc71c19b2ef" x="292.519769" y="190.301668" style="fill: #0000ff; stroke: #0000ff"/>
     <use xlink:href="#mc71c19b2ef" x="282.434792" y="199.996988" style="fill: #0000ff; stroke: #0000ff"/>
     <use xlink:href="#mc71c19b2ef" x="292.152422" y="199.212169" style="fill: #0000ff; stroke: #0000ff"/>
     <use xlink:href="#mc71c19b2ef" x="270.653435" y="222.472704" style="fill: #0000ff; stroke: #0000ff"/>
     <use xlink:href="#mc71c19b2ef" x="284.692927" y="213.514162" style="fill: #0000ff; stroke: #0000ff"/>
     <use xlink:href="#mc71c19b2ef" x="281.385161" y="207.119541" style="fill: #0000ff; stroke: #0000ff"/>
     <use xlink:href="#mc71c19b2ef" x="266.597653" y="214.361139" style="fill: #0000ff; stroke: #0000ff"/>
     <use xlink:href="#mc71c19b2ef" x="288.643741" y="207.417692" style="fill: #0000ff; stroke: #0000ff"/>
     <use xlink:href="#mc71c19b2ef" x="275.654603" y="214.136625" style="fill: #0000ff; stroke: #0000ff"/>
     <use xlink:href="#mc71c19b2ef" x="308.112917" y="238.695833" style="fill: #0000ff; stroke: #0000ff"/>
     <use xlink:href="#mc71c19b2ef" x="295.324453" y="216.07552" style="fill: #0000ff; stroke: #0000ff"/>
     <use xlink:href="#mc71c19b2ef" x="293.508516" y="210.570306" style="fill: #0000ff; stroke: #0000ff"/>
     <use xlink:href="#mc71c19b2ef" x="302.233103" y="210.74454" style="fill: #0000ff; stroke: #0000ff"/>
     <use xlink:href="#mc71c19b2ef" x="269.307714" y="207.936381" style="fill: #0000ff; stroke: #0000ff"/>
     <use xlink:href="#mc71c19b2ef" x="287.492938" y="202.072691" style="fill: #0000ff; stroke: #0000ff"/>
     <use xlink:href="#mc71c19b2ef" x="268.625544" y="218.416922" style="fill: #0000ff; stroke: #0000ff"/>
     <use xlink:href="#mc71c19b2ef" x="280.798085" y="222.890665" style="fill: #0000ff; stroke: #0000ff"/>
     <use xlink:href="#mc71c19b2ef" x="307.180303" y="224.297934" style="fill: #0000ff; stroke: #0000ff"/>
     <use xlink:href="#mc71c19b2ef" x="305.081792" y="200.546878" style="fill: #0000ff; stroke: #0000ff"/>
     <use xlink:href="#mc71c19b2ef" x="280.408348" y="217.231597" style="fill: #0000ff; stroke: #0000ff"/>
     <use xlink:href="#mc71c19b2ef" x="274.709218" y="230.584269" style="fill: #0000ff; stroke: #0000ff"/>
     <use xlink:href="#mc71c19b2ef" x="288.60168" y="220.63497" style="fill: #0000ff; stroke: #0000ff"/>
     <use xlink:href="#mc71c19b2ef" x="293.438958" y="238.695833" style="fill: #0000ff; stroke: #0000ff"/>
     <use xlink:href="#mc71c19b2ef" x="297.183843" y="226.053123" style="fill: #0000ff; stroke: #0000ff"/>
     <use xlink:href="#mc71c19b2ef" x="287.274211" y="230.66873" style="fill: #0000ff; stroke: #0000ff"/>
     <use xlink:href="#mc71c19b2ef" x="294.075718" y="221.470285" style="fill: #0000ff; stroke: #0000ff"/>
     <use xlink:href="#mc71c19b2ef" x="285.739984" y="225.361059" style="fill: #0000ff; stroke: #0000ff"/>
     <use xlink:href="#mc71c19b2ef" x="302.55671" y="218.306018" style="fill: #0000ff; stroke: #0000ff"/>
     <use xlink:href="#mc71c19b2ef" x="337.460833" y="209.347917" style="fill: #0000ff; stroke: #0000ff"/>
     <use xlink:href="#mc71c19b2ef" x="314.311655" y="214.015281" style="fill: #0000ff; stroke: #0000ff"/>
     <use xlink:href="#mc71c19b2ef" x="307.753537" y="214.295947" style="fill: #0000ff; stroke: #0000ff"/>
     <use xlink:href="#mc71c19b2ef" x="310.708708" y="206.587569" style="fill: #0000ff; stroke: #0000ff"/>
     <use xlink:href="#mc71c19b2ef" x="305.201022" y="206.076903" style="fill: #0000ff; stroke: #0000ff"/>
     <use xlink:href="#mc71c19b2ef" x="324.441126" y="204.514103" style="fill: #0000ff; stroke: #0000ff"/>
     <use xlink:href="#mc71c19b2ef" x="317.89763" y="207.688145" style="fill: #0000ff; stroke: #0000ff"/>
     <use xlink:href="#mc71c19b2ef" x="337.460833" y="224.021875" style="fill: #0000ff; stroke: #0000ff"/>
     <use xlink:href="#mc71c19b2ef" x="316.15019" y="195.753738" style="fill: #0000ff; stroke: #0000ff"/>
     <use xlink:href="#mc71c19b2ef" x="326.26776" y="216.611774" style="fill: #0000ff; stroke: #0000ff"/>
     <use xlink:href="#mc71c19b2ef" x="315.089092" y="202.004238" style="fill: #0000ff; stroke: #0000ff"/>
     <use xlink:href="#mc71c19b2ef" x="323.471565" y="210.847235" style="fill: #0000ff; stroke: #0000ff"/>
     <use xlink:href="#mc71c19b2ef" x="330.559646" y="210.969474" style="fill: #0000ff; stroke: #0000ff"/>
     <use xlink:href="#mc71c19b2ef" x="337.460833" y="216.684896" style="fill: #0000ff; stroke: #0000ff"/>
     <use xlink:href="#mc71c19b2ef" x="331.840092" y="220.353385" style="fill: #0000ff; stroke: #0000ff"/>
     <use xlink:href="#mc71c19b2ef" x="322.786875" y="238.695833" style="fill: #0000ff; stroke: #0000ff"/>
     <use xlink:href="#mc71c19b2ef" x="329.240935" y="230.475935" style="fill: #0000ff; stroke: #0000ff"/>
     <use xlink:href="#mc71c19b2ef" x="272.681326" y="226.528486" style="fill: #0000ff; stroke: #0000ff"/>
     <use xlink:href="#mc71c19b2ef" x="303.340951" y="231.77578" style="fill: #0000ff; stroke: #0000ff"/>
     <use xlink:href="#mc71c19b2ef" x="300.775937" y="238.695833" style="fill: #0000ff; stroke: #0000ff"/>
     <use xlink:href="#mc71c19b2ef" x="296.671944" y="232.777483" style="fill: #0000ff; stroke: #0000ff"/>
     <use xlink:href="#mc71c19b2ef" x="280.978992" y="232.519109" style="fill: #0000ff; stroke: #0000ff"/>
     <use xlink:href="#mc71c19b2ef" x="286.101979" y="238.695833" style="fill: #0000ff; stroke: #0000ff"/>
     <use xlink:href="#mc71c19b2ef" x="304.724578" y="192.317556" style="fill: #0000ff; stroke: #0000ff"/>
     <use xlink:href="#mc71c19b2ef" x="309.780299" y="196.220513" style="fill: #0000ff; stroke: #0000ff"/>
     <use xlink:href="#mc71c19b2ef" x="313.058086" y="185.321577" style="fill: #0000ff; stroke: #0000ff"/>
     <use xlink:href="#mc71c19b2ef" x="308.986391" y="178.827287" style="fill: #0000ff; stroke: #0000ff"/>
     <use xlink:href="#mc71c19b2ef" x="307.460855" y="187.115603" style="fill: #0000ff; stroke: #0000ff"/>
     <use xlink:href="#mc71c19b2ef" x="323.434531" y="174.292353" style="fill: #0000ff; stroke: #0000ff"/>
     <use xlink:href="#mc71c19b2ef" x="315.411323" y="174.013794" style="fill: #0000ff; stroke: #0000ff"/>
     <use xlink:href="#mc71c19b2ef" x="319.19562" y="180.70009" style="fill: #0000ff; stroke: #0000ff"/>
     <use xlink:href="#mc71c19b2ef" x="319.977011" y="158.194056" style="fill: #0000ff; stroke: #0000ff"/>
     <use xlink:href="#mc71c19b2ef" x="320.48249" y="188.795308" style="fill: #0000ff; stroke: #0000ff"/>
     <use xlink:href="#mc71c19b2ef" x="328.398447" y="182.182086" style="fill: #0000ff; stroke: #0000ff"/>
     <use xlink:href="#mc71c19b2ef" x="319.682464" y="166.677762" style="fill: #0000ff; stroke: #0000ff"/>
     <use xlink:href="#mc71c19b2ef" x="337.460833" y="194.673958" style="fill: #0000ff; stroke: #0000ff"/>
     <use xlink:href="#mc71c19b2ef" x="323.354542" y="184.188854" style="fill: #0000ff; stroke: #0000ff"/>
     <use xlink:href="#mc71c19b2ef" x="328.931765" y="190.864731" style="fill: #0000ff; stroke: #0000ff"/>
     <use xlink:href="#mc71c19b2ef" x="337.460833" y="165.326042" style="fill: #0000ff; stroke: #0000ff"/>
     <use xlink:href="#mc71c19b2ef" x="307.222792" y="151.542208" style="fill: #0000ff; stroke: #0000ff"/>
     <use xlink:href="#mc71c19b2ef" x="337.460833" y="187.336979" style="fill: #0000ff; stroke: #0000ff"/>
     <use xlink:href="#mc71c19b2ef" x="328.32294" y="162.730786" style="fill: #0000ff; stroke: #0000ff"/>
     <use xlink:href="#mc71c19b2ef" x="311.139988" y="162.134208" style="fill: #0000ff; stroke: #0000ff"/>
     <use xlink:href="#mc71c19b2ef" x="332.044376" y="186.315842" style="fill: #0000ff; stroke: #0000ff"/>
     <use xlink:href="#mc71c19b2ef" x="323.017061" y="162.54657" style="fill: #0000ff; stroke: #0000ff"/>
     <use xlink:href="#mc71c19b2ef" x="325.709117" y="168.439852" style="fill: #0000ff; stroke: #0000ff"/>
     <use xlink:href="#mc71c19b2ef" x="337.460833" y="172.663021" style="fill: #0000ff; stroke: #0000ff"/>
     <use xlink:href="#mc71c19b2ef" x="330.468617" y="173.657902" style="fill: #0000ff; stroke: #0000ff"/>
     <use xlink:href="#mc71c19b2ef" x="313.325425" y="168.056107" style="fill: #0000ff; stroke: #0000ff"/>
     <use xlink:href="#mc71c19b2ef" x="316.520181" y="162.321004" style="fill: #0000ff; stroke: #0000ff"/>
     <use xlink:href="#mc71c19b2ef" x="304.333866" y="162.848202" style="fill: #0000ff; stroke: #0000ff"/>
     <use xlink:href="#mc71c19b2ef" x="302.479827" y="156.285173" style="fill: #0000ff; stroke: #0000ff"/>
     <use xlink:href="#mc71c19b2ef" x="330.446431" y="198.926452" style="fill: #0000ff; stroke: #0000ff"/>
     <use xlink:href="#mc71c19b2ef" x="337.460833" y="202.010937" style="fill: #0000ff; stroke: #0000ff"/>
     <use xlink:href="#mc71c19b2ef" x="323.586348" y="196.042199" style="fill: #0000ff; stroke: #0000ff"/>
     <use xlink:href="#mc71c19b2ef" x="330.447472" y="204.948485" style="fill: #0000ff; stroke: #0000ff"/>
     <use xlink:href="#mc71c19b2ef" x="320.469164" y="200.635783" style="fill: #0000ff; stroke: #0000ff"/>
     <use xlink:href="#mc71c19b2ef" x="337.460833" y="157.989062" style="fill: #0000ff; stroke: #0000ff"/>
     <use xlink:href="#mc71c19b2ef" x="328.149914" y="153.103993" style="fill: #0000ff; stroke: #0000ff"/>
     <use xlink:href="#mc71c19b2ef" x="313.382789" y="155.284422" style="fill: #0000ff; stroke: #0000ff"/>
     <use xlink:href="#mc71c19b2ef" x="319.72149" y="149.845963" style="fill: #0000ff; stroke: #0000ff"/>
     <use xlink:href="#mc71c19b2ef" x="308.073892" y="157.338218" style="fill: #0000ff; stroke: #0000ff"/>
     <use xlink:href="#mc71c19b2ef" x="311.965757" y="146.799243" style="fill: #0000ff; stroke: #0000ff"/>
     <use xlink:href="#mc71c19b2ef" x="322.989062" y="153.923905" style="fill: #0000ff; stroke: #0000ff"/>
     <use xlink:href="#mc71c19b2ef" x="331.845329" y="167.713344" style="fill: #0000ff; stroke: #0000ff"/>
     <use xlink:href="#mc71c19b2ef" x="332.335815" y="178.624838" style="fill: #0000ff; stroke: #0000ff"/>
     <use xlink:href="#mc71c19b2ef" x="331.59313" y="157.857058" style="fill: #0000ff; stroke: #0000ff"/>
     <use xlink:href="#mc71c19b2ef" x="337.460833" y="135.978125" style="fill: #0000ff; stroke: #0000ff"/>
     <use xlink:href="#mc71c19b2ef" x="327.084778" y="131.680222" style="fill: #0000ff; stroke: #0000ff"/>
     <use xlink:href="#mc71c19b2ef" x="327.419641" y="142.39114" style="fill: #0000ff; stroke: #0000ff"/>
     <use xlink:href="#mc71c19b2ef" x="321.993334" y="144.489839" style="fill: #0000ff; stroke: #0000ff"/>
     <use xlink:href="#mc71c19b2ef" x="321.89675" y="136.86825" style="fill: #0000ff; stroke: #0000ff"/>
     <use xlink:href="#mc71c19b2ef" x="337.460833" y="143.315104" style="fill: #0000ff; stroke: #0000ff"/>
     <use xlink:href="#mc71c19b2ef" x="332.735291" y="139.646615" style="fill: #0000ff; stroke: #0000ff"/>
     <use xlink:href="#mc71c19b2ef" x="332.060162" y="146.983594" style="fill: #0000ff; stroke: #0000ff"/>
     <use xlink:href="#mc71c19b2ef" x="298.898017" y="199.908522" style="fill: #0000ff; stroke: #0000ff"/>
     <use xlink:href="#mc71c19b2ef" x="318.315098" y="224.406036" style="fill: #0000ff; stroke: #0000ff"/>
     <use xlink:href="#mc71c19b2ef" x="325.497096" y="223.779719" style="fill: #0000ff; stroke: #0000ff"/>
     <use xlink:href="#mc71c19b2ef" x="330.123854" y="238.695833" style="fill: #0000ff; stroke: #0000ff"/>
     <use xlink:href="#mc71c19b2ef" x="337.460833" y="231.358854" style="fill: #0000ff; stroke: #0000ff"/>
     <use xlink:href="#mc71c19b2ef" x="332.272806" y="126.492194" style="fill: #0000ff; stroke: #0000ff"/>
     <use xlink:href="#mc71c19b2ef" x="337.460833" y="128.641146" style="fill: #0000ff; stroke: #0000ff"/>
     <use xlink:href="#mc71c19b2ef" x="332.902219" y="132.309635" style="fill: #0000ff; stroke: #0000ff"/>
     <use xlink:href="#mc71c19b2ef" x="319.729182" y="217.894587" style="fill: #0000ff; stroke: #0000ff"/>
     <use xlink:href="#mc71c19b2ef" x="312.784415" y="220.570328" style="fill: #0000ff; stroke: #0000ff"/>
     <use xlink:href="#mc71c19b2ef" x="312.6815" y="231.170752" style="fill: #0000ff; stroke: #0000ff"/>
     <use xlink:href="#mc71c19b2ef" x="315.449896" y="238.695833" style="fill: #0000ff; stroke: #0000ff"/>
     <use xlink:href="#mc71c19b2ef" x="320.16233" y="231.672559" style="fill: #0000ff; stroke: #0000ff"/>
     <use xlink:href="#mc71c19b2ef" x="258.486088" y="198.13801" style="fill: #0000ff; stroke: #0000ff"/>
     <use xlink:href="#mc71c19b2ef" x="263.869589" y="197.549531" style="fill: #0000ff; stroke: #0000ff"/>
    </g>
   </g>
   <g id="line2d_9">
    <path d="M 233.193954 147.553741 
L 240.821278 142.056278 
M 230.445222 131.680222 
L 220.069167 121.304167 
M 226.63156 134.428954 
L 220.069167 121.304167 
M 226.63156 134.428954 
L 230.445222 131.680222 
M 229.912757 140.991348 
L 233.193954 147.553741 
M 229.912757 140.991348 
L 230.445222 131.680222 
M 229.912757 140.991348 
L 226.63156 134.428954 
M 235.63325 136.86825 
L 240.821278 142.056278 
M 235.63325 136.86825 
L 233.193954 147.553741 
M 235.63325 136.86825 
L 230.445222 131.680222 
M 235.63325 136.86825 
L 229.912757 140.991348 
M 245.564243 146.799243 
L 240.821278 142.056278 
M 245.564243 146.799243 
L 250.307208 151.542208 
M 236.475151 154.116135 
L 233.193954 147.553741 
M 236.475151 154.116135 
L 239.756348 160.678529 
M 243.719827 154.595293 
L 239.756348 160.678529 
M 243.719827 154.595293 
L 250.307208 151.542208 
M 243.719827 154.595293 
L 245.564243 146.799243 
M 243.719827 154.595293 
L 236.475151 154.116135 
M 255.050173 156.285173 
L 259.793139 161.028139 
M 255.050173 156.285173 
L 250.307208 151.542208 
M 255.050173 156.285173 
L 249.739897 162.85042 
M 245.160908 159.86702 
L 239.756348 160.678529 
M 245.160908 159.86702 
L 250.307208 151.542208 
M 245.160908 159.86702 
L 243.719827 154.595293 
M 245.160908 159.86702 
L 249.739897 162.85042 
M 245.160908 159.86702 
L 255.050173 156.285173 
M 243.037544 167.240922 
L 246.318741 173.803316 
M 243.037544 167.240922 
L 239.756348 160.678529 
M 243.037544 167.240922 
L 249.739897 162.85042 
M 243.037544 167.240922 
L 245.160908 159.86702 
M 239.461143 148.521643 
L 240.821278 142.056278 
M 239.461143 148.521643 
L 233.193954 147.553741 
M 239.461143 148.521643 
L 245.564243 146.799243 
M 239.461143 148.521643 
L 236.475151 154.116135 
M 239.461143 148.521643 
L 243.719827 154.595293 
M 255.327952 165.036622 
L 259.793139 161.028139 
M 255.327952 165.036622 
L 249.739897 162.85042 
M 255.327952 165.036622 
L 255.050173 156.285173 
M 255.327952 165.036622 
L 256.398179 170.940896 
M 250.421899 169.074195 
L 246.318741 173.803316 
M 250.421899 169.074195 
L 249.739897 162.85042 
M 250.421899 169.074195 
L 243.037544 167.240922 
M 250.421899 169.074195 
L 256.398179 170.940896 
M 250.421899 169.074195 
L 255.327952 165.036622 
M 264.536104 165.771104 
L 259.793139 161.028139 
M 264.536104 165.771104 
L 269.279069 170.514069 
M 264.536104 165.771104 
L 256.398179 170.940896 
M 264.536104 165.771104 
L 255.327952 165.036622 
M 248.346632 177.859098 
L 246.318741 173.803316 
M 248.346632 177.859098 
L 256.398179 170.940896 
M 248.346632 177.859098 
L 250.421899 169.074195 
M 248.346632 177.859098 
L 250.374524 181.914881 
M 252.402415 185.970663 
L 254.430306 190.026445 
M 252.402415 185.970663 
L 250.374524 181.914881 
M 262.946983 173.997565 
L 269.279069 170.514069 
M 262.946983 173.997565 
L 256.398179 170.940896 
M 262.946983 173.997565 
L 264.536104 165.771104 
M 262.946983 173.997565 
L 262.01518 181.16428 
M 255.956202 177.838488 
L 256.398179 170.940896 
M 255.956202 177.838488 
L 250.374524 181.914881 
M 255.956202 177.838488 
L 262.01518 181.16428 
M 255.956202 177.838488 
L 248.346632 177.859098 
M 255.956202 177.838488 
L 262.946983 173.997565 
M 261.84638 188.69673 
L 254.430306 190.026445 
M 261.84638 188.69673 
L 262.01518 181.16428 
M 261.84638 188.69673 
L 267.570473 193.595818 
M 257.844528 184.838933 
L 254.430306 190.026445 
M 257.844528 184.838933 
L 250.374524 181.914881 
M 257.844528 184.838933 
L 262.01518 181.16428 
M 257.844528 184.838933 
L 252.402415 185.970663 
M 257.844528 184.838933 
L 255.956202 177.838488 
M 257.844528 184.838933 
L 261.84638 188.69673 
M 274.022035 175.257035 
L 278.765 180 
M 274.022035 175.257035 
L 269.279069 170.514069 
M 268.066041 178.307068 
L 269.279069 170.514069 
M 268.066041 178.307068 
L 262.01518 181.16428 
M 268.066041 178.307068 
L 262.946983 173.997565 
M 268.066041 178.307068 
L 274.022035 175.257035 
M 269.118464 185.993588 
L 262.01518 181.16428 
M 269.118464 185.993588 
L 267.570473 193.595818 
M 269.118464 185.993588 
L 261.84638 188.69673 
M 269.118464 185.993588 
L 268.066041 178.307068 
M 273.037637 181.541675 
L 278.765 180 
M 273.037637 181.541675 
L 274.022035 175.257035 
M 273.037637 181.541675 
L 268.066041 178.307068 
M 273.037637 181.541675 
L 269.118464 185.993588 
M 275.271886 187.45961 
L 278.765 180 
M 275.271886 187.45961 
L 267.570473 193.595818 
M 275.271886 187.45961 
L 269.118464 185.993588 
M 275.271886 187.45961 
L 279.587872 192.084121 
M 275.271886 187.45961 
L 273.037637 181.541675 
M 274.066279 196.712283 
L 267.570473 193.595818 
M 274.066279 196.712283 
L 279.587872 192.084121 
M 274.066279 196.712283 
L 275.271886 187.45961 
M 274.066279 196.712283 
L 274.96549 203.860659 
M 267.974196 201.082319 
L 262.541871 206.249575 
M 267.974196 201.082319 
L 267.570473 193.595818 
M 267.974196 201.082319 
L 274.96549 203.860659 
M 267.974196 201.082319 
L 274.066279 196.712283 
M 282.836699 185.792814 
L 278.765 180 
M 282.836699 185.792814 
L 279.587872 192.084121 
M 282.836699 185.792814 
L 275.271886 187.45961 
M 282.836699 185.792814 
L 289.900977 185.31177 
M 296.682674 194.100008 
L 302.210416 184.473555 
M 283.507965 175.257035 
L 278.765 180 
M 283.507965 175.257035 
L 288.250931 170.514069 
M 286.038935 180.707564 
L 278.765 180 
M 286.038935 180.707564 
L 289.900977 185.31177 
M 286.038935 180.707564 
L 282.836699 185.792814 
M 286.038935 180.707564 
L 283.507965 175.257035 
M 294.808149 177.27374 
L 289.900977 185.31177 
M 289.281637 176.074483 
L 289.900977 185.31177 
M 289.281637 176.074483 
L 288.250931 170.514069 
M 289.281637 176.074483 
L 283.507965 175.257035 
M 289.281637 176.074483 
L 286.038935 180.707564 
M 289.281637 176.074483 
L 294.808149 177.27374 
M 295.960464 183.494137 
L 302.210416 184.473555 
M 295.960464 183.494137 
L 289.900977 185.31177 
M 295.960464 183.494137 
L 296.682674 194.100008 
M 295.960464 183.494137 
L 294.808149 177.27374 
M 292.993896 165.771104 
L 297.736861 161.028139 
M 292.993896 165.771104 
L 288.250931 170.514069 
M 300.445343 168.479585 
L 297.736861 161.028139 
M 300.445343 168.479585 
L 307.87663 171.242899 
M 300.445343 168.479585 
L 292.993896 165.771104 
M 295.195569 171.31824 
L 288.250931 170.514069 
M 295.195569 171.31824 
L 294.808149 177.27374 
M 295.195569 171.31824 
L 289.281637 176.074483 
M 295.195569 171.31824 
L 292.993896 165.771104 
M 295.195569 171.31824 
L 300.445343 168.479585 
M 301.997814 175.678588 
L 302.210416 184.473555 
M 301.997814 175.678588 
L 294.808149 177.27374 
M 301.997814 175.678588 
L 295.960464 183.494137 
M 301.997814 175.678588 
L 307.87663 171.242899 
M 301.997814 175.678588 
L 300.445343 168.479585 
M 301.997814 175.678588 
L 295.195569 171.31824 
M 288.05834 193.744458 
L 279.587872 192.084121 
M 288.05834 193.744458 
L 289.900977 185.31177 
M 288.05834 193.744458 
L 282.836699 185.792814 
M 288.05834 193.744458 
L 296.682674 194.100008 
M 292.519769 190.301668 
L 289.900977 185.31177 
M 292.519769 190.301668 
L 296.682674 194.100008 
M 292.519769 190.301668 
L 295.960464 183.494137 
M 292.519769 190.301668 
L 288.05834 193.744458 
M 282.434792 199.996988 
L 279.587872 192.084121 
M 282.434792 199.996988 
L 274.96549 203.860659 
M 282.434792 199.996988 
L 274.066279 196.712283 
M 282.434792 199.996988 
L 288.05834 193.744458 
M 292.152422 199.212169 
L 295.542801 205.141983 
M 292.152422 199.212169 
L 296.682674 194.100008 
M 292.152422 199.212169 
L 288.05834 193.744458 
M 281.385161 207.119541 
L 274.96549 203.860659 
M 281.385161 207.119541 
L 282.434792 199.996988 
M 281.385161 207.119541 
L 284.692927 213.514162 
M 266.597653 214.361139 
L 262.541871 206.249575 
M 288.643741 207.417692 
L 295.542801 205.141983 
M 288.643741 207.417692 
L 284.692927 213.514162 
M 288.643741 207.417692 
L 281.385161 207.119541 
M 275.654603 214.136625 
L 274.96549 203.860659 
M 275.654603 214.136625 
L 270.653435 222.472704 
M 275.654603 214.136625 
L 284.692927 213.514162 
M 275.654603 214.136625 
L 281.385161 207.119541 
M 275.654603 214.136625 
L 266.597653 214.361139 
M 295.324453 216.07552 
L 284.692927 213.514162 
M 293.508516 210.570306 
L 295.542801 205.141983 
M 293.508516 210.570306 
L 284.692927 213.514162 
M 293.508516 210.570306 
L 288.643741 207.417692 
M 293.508516 210.570306 
L 295.324453 216.07552 
M 302.233103 210.74454 
L 295.542801 205.141983 
M 302.233103 210.74454 
L 295.324453 216.07552 
M 302.233103 210.74454 
L 293.508516 210.570306 
M 269.307714 207.936381 
L 262.541871 206.249575 
M 269.307714 207.936381 
L 274.96549 203.860659 
M 269.307714 207.936381 
L 267.974196 201.082319 
M 269.307714 207.936381 
L 266.597653 214.361139 
M 269.307714 207.936381 
L 275.654603 214.136625 
M 287.492938 202.072691 
L 295.542801 205.141983 
M 287.492938 202.072691 
L 288.05834 193.744458 
M 287.492938 202.072691 
L 282.434792 199.996988 
M 287.492938 202.072691 
L 292.152422 199.212169 
M 287.492938 202.072691 
L 281.385161 207.119541 
M 287.492938 202.072691 
L 288.643741 207.417692 
M 268.625544 218.416922 
L 270.653435 222.472704 
M 268.625544 218.416922 
L 266.597653 214.361139 
M 268.625544 218.416922 
L 275.654603 214.136625 
M 280.798085 222.890665 
L 270.653435 222.472704 
M 280.408348 217.231597 
L 270.653435 222.472704 
M 280.408348 217.231597 
L 284.692927 213.514162 
M 280.408348 217.231597 
L 275.654603 214.136625 
M 280.408348 217.231597 
L 280.798085 222.890665 
M 274.709218 230.584269 
L 278.765 238.695833 
M 274.709218 230.584269 
L 280.798085 222.890665 
M 288.60168 220.63497 
L 284.692927 213.514162 
M 288.60168 220.63497 
L 295.324453 216.07552 
M 288.60168 220.63497 
L 280.798085 222.890665 
M 288.60168 220.63497 
L 280.408348 217.231597 
M 297.183843 226.053123 
L 307.180303 224.297934 
M 287.274211 230.66873 
L 293.438958 238.695833 
M 287.274211 230.66873 
L 297.183843 226.053123 
M 294.075718 221.470285 
L 295.324453 216.07552 
M 294.075718 221.470285 
L 288.60168 220.63497 
M 294.075718 221.470285 
L 297.183843 226.053123 
M 294.075718 221.470285 
L 287.274211 230.66873 
M 285.739984 225.361059 
L 280.798085 222.890665 
M 285.739984 225.361059 
L 288.60168 220.63497 
M 285.739984 225.361059 
L 287.274211 230.66873 
M 285.739984 225.361059 
L 294.075718 221.470285 
M 302.55671 218.306018 
L 295.324453 216.07552 
M 302.55671 218.306018 
L 302.233103 210.74454 
M 302.55671 218.306018 
L 307.180303 224.297934 
M 302.55671 218.306018 
L 297.183843 226.053123 
M 302.55671 218.306018 
L 294.075718 221.470285 
M 307.753537 214.295947 
L 302.233103 210.74454 
M 307.753537 214.295947 
L 307.180303 224.297934 
M 307.753537 214.295947 
L 302.55671 218.306018 
M 307.753537 214.295947 
L 314.311655 214.015281 
M 310.708708 206.587569 
L 305.081792 200.546878 
M 310.708708 206.587569 
L 314.311655 214.015281 
M 310.708708 206.587569 
L 307.753537 214.295947 
M 305.201022 206.076903 
L 295.542801 205.141983 
M 305.201022 206.076903 
L 302.233103 210.74454 
M 305.201022 206.076903 
L 305.081792 200.546878 
M 305.201022 206.076903 
L 307.753537 214.295947 
M 305.201022 206.076903 
L 310.708708 206.587569 
M 317.89763 207.688145 
L 314.311655 214.015281 
M 317.89763 207.688145 
L 310.708708 206.587569 
M 317.89763 207.688145 
L 324.441126 204.514103 
M 315.089092 202.004238 
L 305.081792 200.546878 
M 315.089092 202.004238 
L 310.708708 206.587569 
M 315.089092 202.004238 
L 317.89763 207.688145 
M 315.089092 202.004238 
L 316.15019 195.753738 
M 323.471565 210.847235 
L 314.311655 214.015281 
M 323.471565 210.847235 
L 324.441126 204.514103 
M 323.471565 210.847235 
L 317.89763 207.688145 
M 323.471565 210.847235 
L 326.26776 216.611774 
M 330.559646 210.969474 
L 337.460833 209.347917 
M 330.559646 210.969474 
L 324.441126 204.514103 
M 330.559646 210.969474 
L 326.26776 216.611774 
M 330.559646 210.969474 
L 323.471565 210.847235 
M 337.460833 216.684896 
L 337.460833 209.347917 
M 337.460833 216.684896 
L 337.460833 224.021875 
M 337.460833 216.684896 
L 330.559646 210.969474 
M 331.840092 220.353385 
L 337.460833 224.021875 
M 331.840092 220.353385 
L 326.26776 216.611774 
M 331.840092 220.353385 
L 330.559646 210.969474 
M 331.840092 220.353385 
L 337.460833 216.684896 
M 329.240935 230.475935 
L 337.460833 224.021875 
M 329.240935 230.475935 
L 331.840092 220.353385 
M 329.240935 230.475935 
L 322.786875 238.695833 
M 272.681326 226.528486 
L 270.653435 222.472704 
M 272.681326 226.528486 
L 280.798085 222.890665 
M 272.681326 226.528486 
L 274.709218 230.584269 
M 303.340951 231.77578 
L 308.112917 238.695833 
M 303.340951 231.77578 
L 307.180303 224.297934 
M 303.340951 231.77578 
L 297.183843 226.053123 
M 300.775937 238.695833 
L 308.112917 238.695833 
M 300.775937 238.695833 
L 293.438958 238.695833 
M 300.775937 238.695833 
L 303.340951 231.77578 
M 296.671944 232.777483 
L 293.438958 238.695833 
M 296.671944 232.777483 
L 297.183843 226.053123 
M 296.671944 232.777483 
L 287.274211 230.66873 
M 296.671944 232.777483 
L 303.340951 231.77578 
M 296.671944 232.777483 
L 300.775937 238.695833 
M 280.978992 232.519109 
L 278.765 238.695833 
M 280.978992 232.519109 
L 280.798085 222.890665 
M 280.978992 232.519109 
L 274.709218 230.584269 
M 280.978992 232.519109 
L 287.274211 230.66873 
M 280.978992 232.519109 
L 285.739984 225.361059 
M 286.101979 238.695833 
L 278.765 238.695833 
M 286.101979 238.695833 
L 293.438958 238.695833 
M 286.101979 238.695833 
L 287.274211 230.66873 
M 286.101979 238.695833 
L 280.978992 232.519109 
M 304.724578 192.317556 
L 302.210416 184.473555 
M 304.724578 192.317556 
L 296.682674 194.100008 
M 304.724578 192.317556 
L 305.081792 200.546878 
M 309.780299 196.220513 
L 305.081792 200.546878 
M 309.780299 196.220513 
L 316.15019 195.753738 
M 309.780299 196.220513 
L 315.089092 202.004238 
M 309.780299 196.220513 
L 304.724578 192.317556 
M 313.058086 185.321577 
L 316.15019 195.753738 
M 313.058086 185.321577 
L 309.780299 196.220513 
M 308.986391 178.827287 
L 302.210416 184.473555 
M 308.986391 178.827287 
L 307.87663 171.242899 
M 308.986391 178.827287 
L 301.997814 175.678588 
M 308.986391 178.827287 
L 313.058086 185.321577 
M 307.460855 187.115603 
L 302.210416 184.473555 
M 307.460855 187.115603 
L 304.724578 192.317556 
M 307.460855 187.115603 
L 309.780299 196.220513 
M 307.460855 187.115603 
L 313.058086 185.321577 
M 307.460855 187.115603 
L 308.986391 178.827287 
M 315.411323 174.013794 
L 307.87663 171.242899 
M 315.411323 174.013794 
L 308.986391 178.827287 
M 315.411323 174.013794 
L 323.434531 174.292353 
M 319.19562 180.70009 
L 313.058086 185.321577 
M 319.19562 180.70009 
L 308.986391 178.827287 
M 319.19562 180.70009 
L 323.434531 174.292353 
M 319.19562 180.70009 
L 315.411323 174.013794 
M 320.48249 188.795308 
L 316.15019 195.753738 
M 320.48249 188.795308 
L 313.058086 185.321577 
M 320.48249 188.795308 
L 319.19562 180.70009 
M 328.398447 182.182086 
L 323.434531 174.292353 
M 319.682464 166.677762 
L 323.434531 174.292353 
M 319.682464 166.677762 
L 315.411323 174.013794 
M 323.354542 184.188854 
L 323.434531 174.292353 
M 323.354542 184.188854 
L 319.19562 180.70009 
M 323.354542 184.188854 
L 320.48249 188.795308 
M 323.354542 184.188854 
L 328.398447 182.182086 
M 328.931765 190.864731 
L 320.48249 188.795308 
M 328.931765 190.864731 
L 328.398447 182.182086 
M 328.931765 190.864731 
L 337.460833 194.673958 
M 328.931765 190.864731 
L 323.354542 184.188854 
M 337.460833 187.336979 
L 337.460833 180 
M 337.460833 187.336979 
L 337.460833 194.673958 
M 337.460833 187.336979 
L 328.931765 190.864731 
M 328.32294 162.730786 
L 337.460833 165.326042 
M 311.139988 162.134208 
L 307.87663 171.242899 
M 332.044376 186.315842 
L 337.460833 180 
M 332.044376 186.315842 
L 328.398447 182.182086 
M 332.044376 186.315842 
L 328.931765 190.864731 
M 332.044376 186.315842 
L 337.460833 187.336979 
M 323.017061 162.54657 
L 319.977011 158.194056 
M 323.017061 162.54657 
L 319.682464 166.677762 
M 323.017061 162.54657 
L 328.32294 162.730786 
M 325.709117 168.439852 
L 323.434531 174.292353 
M 325.709117 168.439852 
L 319.682464 166.677762 
M 325.709117 168.439852 
L 328.32294 162.730786 
M 325.709117 168.439852 
L 323.017061 162.54657 
M 337.460833 172.663021 
L 337.460833 180 
M 337.460833 172.663021 
L 337.460833 165.326042 
M 330.468617 173.657902 
L 323.434531 174.292353 
M 330.468617 173.657902 
L 328.398447 182.182086 
M 330.468617 173.657902 
L 325.709117 168.439852 
M 330.468617 173.657902 
L 337.460833 172.663021 
M 313.325425 168.056107 
L 307.87663 171.242899 
M 313.325425 168.056107 
L 315.411323 174.013794 
M 313.325425 168.056107 
L 319.682464 166.677762 
M 313.325425 168.056107 
L 311.139988 162.134208 
M 316.520181 162.321004 
L 319.977011 158.194056 
M 316.520181 162.321004 
L 319.682464 166.677762 
M 316.520181 162.321004 
L 311.139988 162.134208 
M 316.520181 162.321004 
L 323.017061 162.54657 
M 316.520181 162.321004 
L 313.325425 168.056107 
M 304.333866 162.848202 
L 297.736861 161.028139 
M 304.333866 162.848202 
L 307.87663 171.242899 
M 304.333866 162.848202 
L 300.445343 168.479585 
M 304.333866 162.848202 
L 311.139988 162.134208 
M 302.479827 156.285173 
L 297.736861 161.028139 
M 302.479827 156.285173 
L 307.222792 151.542208 
M 302.479827 156.285173 
L 304.333866 162.848202 
M 330.446431 198.926452 
L 324.441126 204.514103 
M 330.446431 198.926452 
L 337.460833 194.673958 
M 330.446431 198.926452 
L 328.931765 190.864731 
M 337.460833 202.010937 
L 337.460833 209.347917 
M 337.460833 202.010937 
L 337.460833 194.673958 
M 337.460833 202.010937 
L 330.446431 198.926452 
M 323.586348 196.042199 
L 324.441126 204.514103 
M 323.586348 196.042199 
L 316.15019 195.753738 
M 323.586348 196.042199 
L 320.48249 188.795308 
M 323.586348 196.042199 
L 328.931765 190.864731 
M 323.586348 196.042199 
L 330.446431 198.926452 
M 330.447472 204.948485 
L 337.460833 209.347917 
M 330.447472 204.948485 
L 324.441126 204.514103 
M 330.447472 204.948485 
L 330.559646 210.969474 
M 330.447472 204.948485 
L 330.446431 198.926452 
M 330.447472 204.948485 
L 337.460833 202.010937 
M 320.469164 200.635783 
L 324.441126 204.514103 
M 320.469164 200.635783 
L 317.89763 207.688145 
M 320.469164 200.635783 
L 316.15019 195.753738 
M 320.469164 200.635783 
L 315.089092 202.004238 
M 320.469164 200.635783 
L 323.586348 196.042199 
M 337.460833 157.989062 
L 337.460833 150.652083 
M 337.460833 157.989062 
L 337.460833 165.326042 
M 328.149914 153.103993 
L 337.460833 150.652083 
M 328.149914 153.103993 
L 328.32294 162.730786 
M 313.382789 155.284422 
L 319.977011 158.194056 
M 313.382789 155.284422 
L 307.222792 151.542208 
M 313.382789 155.284422 
L 311.139988 162.134208 
M 313.382789 155.284422 
L 316.520181 162.321004 
M 319.72149 149.845963 
L 316.708722 142.056278 
M 319.72149 149.845963 
L 319.977011 158.194056 
M 319.72149 149.845963 
L 328.149914 153.103993 
M 319.72149 149.845963 
L 313.382789 155.284422 
M 308.073892 157.338218 
L 307.222792 151.542208 
M 308.073892 157.338218 
L 311.139988 162.134208 
M 308.073892 157.338218 
L 304.333866 162.848202 
M 308.073892 157.338218 
L 302.479827 156.285173 
M 308.073892 157.338218 
L 313.382789 155.284422 
M 311.965757 146.799243 
L 316.708722 142.056278 
M 311.965757 146.799243 
L 307.222792 151.542208 
M 311.965757 146.799243 
L 313.382789 155.284422 
M 311.965757 146.799243 
L 319.72149 149.845963 
M 322.989062 153.923905 
L 319.977011 158.194056 
M 322.989062 153.923905 
L 328.32294 162.730786 
M 322.989062 153.923905 
L 323.017061 162.54657 
M 322.989062 153.923905 
L 328.149914 153.103993 
M 322.989062 153.923905 
L 319.72149 149.845963 
M 331.845329 167.713344 
L 337.460833 165.326042 
M 331.845329 167.713344 
L 328.32294 162.730786 
M 331.845329 167.713344 
L 325.709117 168.439852 
M 331.845329 167.713344 
L 337.460833 172.663021 
M 331.845329 167.713344 
L 330.468617 173.657902 
M 332.335815 178.624838 
L 337.460833 180 
M 332.335815 178.624838 
L 328.398447 182.182086 
M 332.335815 178.624838 
L 332.044376 186.315842 
M 332.335815 178.624838 
L 337.460833 172.663021 
M 332.335815 178.624838 
L 330.468617 173.657902 
M 331.59313 157.857058 
L 337.460833 150.652083 
M 331.59313 157.857058 
L 337.460833 165.326042 
M 331.59313 157.857058 
L 328.32294 162.730786 
M 331.59313 157.857058 
L 337.460833 157.989062 
M 331.59313 157.857058 
L 328.149914 153.103993 
M 327.419641 142.39114 
L 328.149914 153.103993 
M 327.419641 142.39114 
L 327.084778 131.680222 
M 321.993334 144.489839 
L 316.708722 142.056278 
M 321.993334 144.489839 
L 328.149914 153.103993 
M 321.993334 144.489839 
L 319.72149 149.845963 
M 321.993334 144.489839 
L 327.419641 142.39114 
M 321.89675 136.86825 
L 316.708722 142.056278 
M 321.89675 136.86825 
L 327.084778 131.680222 
M 321.89675 136.86825 
L 327.419641 142.39114 
M 321.89675 136.86825 
L 321.993334 144.489839 
M 337.460833 143.315104 
L 337.460833 150.652083 
M 337.460833 143.315104 
L 337.460833 135.978125 
M 332.735291 139.646615 
L 337.460833 135.978125 
M 332.735291 139.646615 
L 327.084778 131.680222 
M 332.735291 139.646615 
L 327.419641 142.39114 
M 332.735291 139.646615 
L 337.460833 143.315104 
M 332.060162 146.983594 
L 337.460833 150.652083 
M 332.060162 146.983594 
L 328.149914 153.103993 
M 332.060162 146.983594 
L 327.419641 142.39114 
M 332.060162 146.983594 
L 337.460833 143.315104 
M 332.060162 146.983594 
L 332.735291 139.646615 
M 298.898017 199.908522 
L 295.542801 205.141983 
M 298.898017 199.908522 
L 296.682674 194.100008 
M 298.898017 199.908522 
L 292.152422 199.212169 
M 298.898017 199.908522 
L 305.081792 200.546878 
M 298.898017 199.908522 
L 305.201022 206.076903 
M 298.898017 199.908522 
L 304.724578 192.317556 
M 325.497096 223.779719 
L 326.26776 216.611774 
M 325.497096 223.779719 
L 331.840092 220.353385 
M 325.497096 223.779719 
L 329.240935 230.475935 
M 325.497096 223.779719 
L 318.315098 224.406036 
M 330.123854 238.695833 
L 337.460833 238.695833 
M 330.123854 238.695833 
L 322.786875 238.695833 
M 330.123854 238.695833 
L 329.240935 230.475935 
M 337.460833 231.358854 
L 337.460833 238.695833 
M 337.460833 231.358854 
L 337.460833 224.021875 
M 337.460833 231.358854 
L 329.240935 230.475935 
M 337.460833 231.358854 
L 330.123854 238.695833 
M 332.272806 126.492194 
L 337.460833 121.304167 
M 332.272806 126.492194 
L 327.084778 131.680222 
M 337.460833 128.641146 
L 337.460833 121.304167 
M 337.460833 128.641146 
L 337.460833 135.978125 
M 337.460833 128.641146 
L 332.272806 126.492194 
M 332.902219 132.309635 
L 337.460833 135.978125 
M 332.902219 132.309635 
L 327.084778 131.680222 
M 332.902219 132.309635 
L 332.735291 139.646615 
M 332.902219 132.309635 
L 332.272806 126.492194 
M 332.902219 132.309635 
L 337.460833 128.641146 
M 319.729182 217.894587 
L 314.311655 214.015281 
M 319.729182 217.894587 
L 326.26776 216.611774 
M 319.729182 217.894587 
L 323.471565 210.847235 
M 319.729182 217.894587 
L 318.315098 224.406036 
M 319.729182 217.894587 
L 325.497096 223.779719 
M 312.784415 220.570328 
L 307.180303 224.297934 
M 312.784415 220.570328 
L 314.311655 214.015281 
M 312.784415 220.570328 
L 307.753537 214.295947 
M 312.784415 220.570328 
L 318.315098 224.406036 
M 312.784415 220.570328 
L 319.729182 217.894587 
M 312.6815 231.170752 
L 308.112917 238.695833 
M 312.6815 231.170752 
L 307.180303 224.297934 
M 312.6815 231.170752 
L 303.340951 231.77578 
M 312.6815 231.170752 
L 318.315098 224.406036 
M 312.6815 231.170752 
L 312.784415 220.570328 
M 315.449896 238.695833 
L 308.112917 238.695833 
M 315.449896 238.695833 
L 322.786875 238.695833 
M 315.449896 238.695833 
L 312.6815 231.170752 
M 320.16233 231.672559 
L 322.786875 238.695833 
M 320.16233 231.672559 
L 329.240935 230.475935 
M 320.16233 231.672559 
L 318.315098 224.406036 
M 320.16233 231.672559 
L 325.497096 223.779719 
M 320.16233 231.672559 
L 312.6815 231.170752 
M 320.16233 231.672559 
L 315.449896 238.695833 
M 258.486088 198.13801 
L 262.541871 206.249575 
M 258.486088 198.13801 
L 254.430306 190.026445 
M 258.486088 198.13801 
L 261.84638 188.69673 
M 263.869589 197.549531 
L 262.541871 206.249575 
M 263.869589 197.549531 
L 267.570473 193.595818 
M 263.869589 197.549531 
L 261.84638 188.69673 
M 263.869589 197.549531 
L 267.974196 201.082319 
M 263.869589 197.549531 
L 258.486088 198.13801 
L 258.486088 198.13801 
" clip-path="url(#p42ff51a113)" style="fill: none; stroke: #000000; stroke-width: 1.5; stroke-linecap: square"/>
   </g>
   <g id="matplotlib.axis_3">
    <g id="xtick_4">
     <g id="line2d_10">
      <g>
       <use xlink:href="#m0cfa18fa44" x="220.069167" y="250.435" style="stroke: #000000; stroke-width: 0.8"/>
      </g>
     </g>
     <g id="text_10">
      <!-- −1 -->
      <g transform="translate(212.698073 265.033437)scale(0.1 -0.1)">
       <use xlink:href="#DejaVuSans-2212"/>
       <use xlink:href="#DejaVuSans-31" x="83.789062"/>
      </g>
     </g>
    </g>
    <g id="xtick_5">
     <g id="line2d_11">
      <g>
       <use xlink:href="#m0cfa18fa44" x="278.765" y="250.435" style="stroke: #000000; stroke-width: 0.8"/>
      </g>
     </g>
     <g id="text_11">
      <!-- 0 -->
      <g transform="translate(275.58375 265.033437)scale(0.1 -0.1)">
       <use xlink:href="#DejaVuSans-30"/>
      </g>
     </g>
    </g>
    <g id="xtick_6">
     <g id="line2d_12">
      <g>
       <use xlink:href="#m0cfa18fa44" x="337.460833" y="250.435" style="stroke: #000000; stroke-width: 0.8"/>
      </g>
     </g>
     <g id="text_12">
      <!-- 1 -->
      <g transform="translate(334.279583 265.033437)scale(0.1 -0.1)">
       <use xlink:href="#DejaVuSans-31"/>
      </g>
     </g>
    </g>
   </g>
   <g id="matplotlib.axis_4">
    <g id="ytick_6">
     <g id="line2d_13">
      <g>
       <use xlink:href="#mb77a57aa26" x="208.33" y="238.695833" style="stroke: #000000; stroke-width: 0.8"/>
      </g>
     </g>
     <g id="text_13">
      <!-- 0.0 -->
      <g transform="translate(185.426875 242.495052)scale(0.1 -0.1)">
       <use xlink:href="#DejaVuSans-30"/>
       <use xlink:href="#DejaVuSans-2e" x="63.623047"/>
       <use xlink:href="#DejaVuSans-30" x="95.410156"/>
      </g>
     </g>
    </g>
    <g id="ytick_7">
     <g id="line2d_14">
      <g>
       <use xlink:href="#mb77a57aa26" x="208.33" y="209.347917" style="stroke: #000000; stroke-width: 0.8"/>
      </g>
     </g>
     <g id="text_14">
      <!-- 0.5 -->
      <g transform="translate(185.426875 213.147135)scale(0.1 -0.1)">
       <use xlink:href="#DejaVuSans-30"/>
       <use xlink:href="#DejaVuSans-2e" x="63.623047"/>
       <use xlink:href="#DejaVuSans-35" x="95.410156"/>
      </g>
     </g>
    </g>
    <g id="ytick_8">
     <g id="line2d_15">
      <g>
       <use xlink:href="#mb77a57aa26" x="208.33" y="180" style="stroke: #000000; stroke-width: 0.8"/>
      </g>
     </g>
     <g id="text_15">
      <!-- 1.0 -->
      <g transform="translate(185.426875 183.799219)scale(0.1 -0.1)">
       <use xlink:href="#DejaVuSans-31"/>
       <use xlink:href="#DejaVuSans-2e" x="63.623047"/>
       <use xlink:href="#DejaVuSans-30" x="95.410156"/>
      </g>
     </g>
    </g>
    <g id="ytick_9">
     <g id="line2d_16">
      <g>
       <use xlink:href="#mb77a57aa26" x="208.33" y="150.652083" style="stroke: #000000; stroke-width: 0.8"/>
      </g>
     </g>
     <g id="text_16">
      <!-- 1.5 -->
      <g transform="translate(185.426875 154.451302)scale(0.1 -0.1)">
       <use xlink:href="#DejaVuSans-31"/>
       <use xlink:href="#DejaVuSans-2e" x="63.623047"/>
       <use xlink:href="#DejaVuSans-35" x="95.410156"/>
      </g>
     </g>
    </g>
    <g id="ytick_10">
     <g id="line2d_17">
      <g>
       <use xlink:href="#mb77a57aa26" x="208.33" y="121.304167" style="stroke: #000000; stroke-width: 0.8"/>
      </g>
     </g>
     <g id="text_17">
      <!-- 2.0 -->
      <g transform="translate(185.426875 125.103385)scale(0.1 -0.1)">
       <use xlink:href="#DejaVuSans-32"/>
       <use xlink:href="#DejaVuSans-2e" x="63.623047"/>
       <use xlink:href="#DejaVuSans-30" x="95.410156"/>
      </g>
     </g>
    </g>
   </g>
   <g id="line2d_18"/>
   <g id="LineCollection_2">
    <path d="M 337.460833 238.695833 
L 330.123854 238.695833 
" clip-path="url(#p42ff51a113)" style="fill: none; stroke: #ff0000; stroke-width: 3"/>
    <path d="M 337.460833 121.304167 
L 337.460833 128.641146 
" clip-path="url(#p42ff51a113)" style="fill: none; stroke: #ff0000; stroke-width: 3"/>
    <path d="M 283.507965 175.257035 
L 278.765 180 
" clip-path="url(#p42ff51a113)" style="fill: none; stroke: #55aa00; stroke-width: 3"/>
    <path d="M 230.445222 131.680222 
L 220.069167 121.304167 
" clip-path="url(#p42ff51a113)" style="fill: none; stroke: #55aa00; stroke-width: 3"/>
    <path d="M 278.765 238.695833 
L 274.709218 230.584269 
" clip-path="url(#p42ff51a113)" style="fill: none; stroke: #00aa55; stroke-width: 3"/>
    <path d="M 246.318741 173.803316 
L 243.037544 167.240922 
" clip-path="url(#p42ff51a113)" style="fill: none; stroke: #00aa55; stroke-width: 3"/>
    <path d="M 240.821278 142.056278 
L 245.564243 146.799243 
" clip-path="url(#p42ff51a113)" style="fill: none; stroke: #55aa00; stroke-width: 3"/>
    <path d="M 262.541871 206.249575 
L 258.486088 198.13801 
" clip-path="url(#p42ff51a113)" style="fill: none; stroke: #00aa55; stroke-width: 3"/>
    <path d="M 259.793139 161.028139 
L 264.536104 165.771104 
" clip-path="url(#p42ff51a113)" style="fill: none; stroke: #55aa00; stroke-width: 3"/>
    <path d="M 233.193954 147.553741 
L 229.912757 140.991348 
" clip-path="url(#p42ff51a113)" style="fill: none; stroke: #00aa55; stroke-width: 3"/>
    <path d="M 230.445222 131.680222 
L 235.63325 136.86825 
" clip-path="url(#p42ff51a113)" style="fill: none; stroke: #55aa00; stroke-width: 3"/>
    <path d="M 226.63156 134.428954 
L 220.069167 121.304167 
" clip-path="url(#p42ff51a113)" style="fill: none; stroke: #00aa55; stroke-width: 3"/>
    <path d="M 239.756348 160.678529 
L 236.475151 154.116135 
" clip-path="url(#p42ff51a113)" style="fill: none; stroke: #00aa55; stroke-width: 3"/>
    <path d="M 250.307208 151.542208 
L 255.050173 156.285173 
" clip-path="url(#p42ff51a113)" style="fill: none; stroke: #55aa00; stroke-width: 3"/>
    <path d="M 229.912757 140.991348 
L 226.63156 134.428954 
" clip-path="url(#p42ff51a113)" style="fill: none; stroke: #00aa55; stroke-width: 3"/>
    <path d="M 235.63325 136.86825 
L 240.821278 142.056278 
" clip-path="url(#p42ff51a113)" style="fill: none; stroke: #55aa00; stroke-width: 3"/>
    <path d="M 245.564243 146.799243 
L 250.307208 151.542208 
" clip-path="url(#p42ff51a113)" style="fill: none; stroke: #55aa00; stroke-width: 3"/>
    <path d="M 236.475151 154.116135 
L 233.193954 147.553741 
" clip-path="url(#p42ff51a113)" style="fill: none; stroke: #00aa55; stroke-width: 3"/>
    <path d="M 255.050173 156.285173 
L 259.793139 161.028139 
" clip-path="url(#p42ff51a113)" style="fill: none; stroke: #55aa00; stroke-width: 3"/>
    <path d="M 243.037544 167.240922 
L 239.756348 160.678529 
" clip-path="url(#p42ff51a113)" style="fill: none; stroke: #00aa55; stroke-width: 3"/>
    <path d="M 269.279069 170.514069 
L 274.022035 175.257035 
" clip-path="url(#p42ff51a113)" style="fill: none; stroke: #55aa00; stroke-width: 3"/>
    <path d="M 254.430306 190.026445 
L 252.402415 185.970663 
" clip-path="url(#p42ff51a113)" style="fill: none; stroke: #00aa55; stroke-width: 3"/>
    <path d="M 264.536104 165.771104 
L 269.279069 170.514069 
" clip-path="url(#p42ff51a113)" style="fill: none; stroke: #55aa00; stroke-width: 3"/>
    <path d="M 250.374524 181.914881 
L 248.346632 177.859098 
" clip-path="url(#p42ff51a113)" style="fill: none; stroke: #00aa55; stroke-width: 3"/>
    <path d="M 248.346632 177.859098 
L 246.318741 173.803316 
" clip-path="url(#p42ff51a113)" style="fill: none; stroke: #00aa55; stroke-width: 3"/>
    <path d="M 252.402415 185.970663 
L 250.374524 181.914881 
" clip-path="url(#p42ff51a113)" style="fill: none; stroke: #00aa55; stroke-width: 3"/>
    <path d="M 274.022035 175.257035 
L 278.765 180 
" clip-path="url(#p42ff51a113)" style="fill: none; stroke: #55aa00; stroke-width: 3"/>
    <path d="M 316.708722 142.056278 
L 321.89675 136.86825 
" clip-path="url(#p42ff51a113)" style="fill: none; stroke: #55aa00; stroke-width: 3"/>
    <path d="M 337.460833 180 
L 337.460833 187.336979 
" clip-path="url(#p42ff51a113)" style="fill: none; stroke: #ff0000; stroke-width: 3"/>
    <path d="M 337.460833 150.652083 
L 337.460833 157.989062 
" clip-path="url(#p42ff51a113)" style="fill: none; stroke: #ff0000; stroke-width: 3"/>
    <path d="M 297.736861 161.028139 
L 302.479827 156.285173 
" clip-path="url(#p42ff51a113)" style="fill: none; stroke: #55aa00; stroke-width: 3"/>
    <path d="M 288.250931 170.514069 
L 292.993896 165.771104 
" clip-path="url(#p42ff51a113)" style="fill: none; stroke: #55aa00; stroke-width: 3"/>
    <path d="M 283.507965 175.257035 
L 288.250931 170.514069 
" clip-path="url(#p42ff51a113)" style="fill: none; stroke: #55aa00; stroke-width: 3"/>
    <path d="M 292.993896 165.771104 
L 297.736861 161.028139 
" clip-path="url(#p42ff51a113)" style="fill: none; stroke: #55aa00; stroke-width: 3"/>
    <path d="M 270.653435 222.472704 
L 268.625544 218.416922 
" clip-path="url(#p42ff51a113)" style="fill: none; stroke: #00aa55; stroke-width: 3"/>
    <path d="M 266.597653 214.361139 
L 262.541871 206.249575 
" clip-path="url(#p42ff51a113)" style="fill: none; stroke: #00aa55; stroke-width: 3"/>
    <path d="M 308.112917 238.695833 
L 300.775937 238.695833 
" clip-path="url(#p42ff51a113)" style="fill: none; stroke: #ff0000; stroke-width: 3"/>
    <path d="M 268.625544 218.416922 
L 266.597653 214.361139 
" clip-path="url(#p42ff51a113)" style="fill: none; stroke: #00aa55; stroke-width: 3"/>
    <path d="M 274.709218 230.584269 
L 272.681326 226.528486 
" clip-path="url(#p42ff51a113)" style="fill: none; stroke: #00aa55; stroke-width: 3"/>
    <path d="M 293.438958 238.695833 
L 286.101979 238.695833 
" clip-path="url(#p42ff51a113)" style="fill: none; stroke: #ff0000; stroke-width: 3"/>
    <path d="M 337.460833 209.347917 
L 337.460833 216.684896 
" clip-path="url(#p42ff51a113)" style="fill: none; stroke: #ff0000; stroke-width: 3"/>
    <path d="M 337.460833 224.021875 
L 337.460833 231.358854 
" clip-path="url(#p42ff51a113)" style="fill: none; stroke: #ff0000; stroke-width: 3"/>
    <path d="M 337.460833 216.684896 
L 337.460833 224.021875 
" clip-path="url(#p42ff51a113)" style="fill: none; stroke: #ff0000; stroke-width: 3"/>
    <path d="M 322.786875 238.695833 
L 315.449896 238.695833 
" clip-path="url(#p42ff51a113)" style="fill: none; stroke: #ff0000; stroke-width: 3"/>
    <path d="M 272.681326 226.528486 
L 270.653435 222.472704 
" clip-path="url(#p42ff51a113)" style="fill: none; stroke: #00aa55; stroke-width: 3"/>
    <path d="M 300.775937 238.695833 
L 293.438958 238.695833 
" clip-path="url(#p42ff51a113)" style="fill: none; stroke: #ff0000; stroke-width: 3"/>
    <path d="M 286.101979 238.695833 
L 278.765 238.695833 
" clip-path="url(#p42ff51a113)" style="fill: none; stroke: #ff0000; stroke-width: 3"/>
    <path d="M 337.460833 194.673958 
L 337.460833 202.010937 
" clip-path="url(#p42ff51a113)" style="fill: none; stroke: #ff0000; stroke-width: 3"/>
    <path d="M 337.460833 165.326042 
L 337.460833 172.663021 
" clip-path="url(#p42ff51a113)" style="fill: none; stroke: #ff0000; stroke-width: 3"/>
    <path d="M 307.222792 151.542208 
L 311.965757 146.799243 
" clip-path="url(#p42ff51a113)" style="fill: none; stroke: #55aa00; stroke-width: 3"/>
    <path d="M 337.460833 187.336979 
L 337.460833 194.673958 
" clip-path="url(#p42ff51a113)" style="fill: none; stroke: #ff0000; stroke-width: 3"/>
    <path d="M 337.460833 172.663021 
L 337.460833 180 
" clip-path="url(#p42ff51a113)" style="fill: none; stroke: #ff0000; stroke-width: 3"/>
    <path d="M 302.479827 156.285173 
L 307.222792 151.542208 
" clip-path="url(#p42ff51a113)" style="fill: none; stroke: #55aa00; stroke-width: 3"/>
    <path d="M 337.460833 202.010937 
L 337.460833 209.347917 
" clip-path="url(#p42ff51a113)" style="fill: none; stroke: #ff0000; stroke-width: 3"/>
    <path d="M 337.460833 157.989062 
L 337.460833 165.326042 
" clip-path="url(#p42ff51a113)" style="fill: none; stroke: #ff0000; stroke-width: 3"/>
    <path d="M 311.965757 146.799243 
L 316.708722 142.056278 
" clip-path="url(#p42ff51a113)" style="fill: none; stroke: #55aa00; stroke-width: 3"/>
    <path d="M 337.460833 135.978125 
L 337.460833 143.315104 
" clip-path="url(#p42ff51a113)" style="fill: none; stroke: #ff0000; stroke-width: 3"/>
    <path d="M 327.084778 131.680222 
L 332.272806 126.492194 
" clip-path="url(#p42ff51a113)" style="fill: none; stroke: #55aa00; stroke-width: 3"/>
    <path d="M 321.89675 136.86825 
L 327.084778 131.680222 
" clip-path="url(#p42ff51a113)" style="fill: none; stroke: #55aa00; stroke-width: 3"/>
    <path d="M 337.460833 143.315104 
L 337.460833 150.652083 
" clip-path="url(#p42ff51a113)" style="fill: none; stroke: #ff0000; stroke-width: 3"/>
    <path d="M 330.123854 238.695833 
L 322.786875 238.695833 
" clip-path="url(#p42ff51a113)" style="fill: none; stroke: #ff0000; stroke-width: 3"/>
    <path d="M 337.460833 231.358854 
L 337.460833 238.695833 
" clip-path="url(#p42ff51a113)" style="fill: none; stroke: #ff0000; stroke-width: 3"/>
    <path d="M 332.272806 126.492194 
L 337.460833 121.304167 
" clip-path="url(#p42ff51a113)" style="fill: none; stroke: #55aa00; stroke-width: 3"/>
    <path d="M 337.460833 128.641146 
L 337.460833 135.978125 
" clip-path="url(#p42ff51a113)" style="fill: none; stroke: #ff0000; stroke-width: 3"/>
    <path d="M 315.449896 238.695833 
L 308.112917 238.695833 
" clip-path="url(#p42ff51a113)" style="fill: none; stroke: #ff0000; stroke-width: 3"/>
    <path d="M 258.486088 198.13801 
L 254.430306 190.026445 
" clip-path="url(#p42ff51a113)" style="fill: none; stroke: #00aa55; stroke-width: 3"/>
   </g>
   <g id="patch_8">
    <path d="M 208.33 250.435 
L 208.33 109.565 
" style="fill: none; stroke: #000000; stroke-width: 0.8; stroke-linejoin: miter; stroke-linecap: square"/>
   </g>
   <g id="patch_9">
    <path d="M 349.2 250.435 
L 349.2 109.565 
" style="fill: none; stroke: #000000; stroke-width: 0.8; stroke-linejoin: miter; stroke-linecap: square"/>
   </g>
   <g id="patch_10">
    <path d="M 208.33 250.435 
L 349.2 250.435 
" style="fill: none; stroke: #000000; stroke-width: 0.8; stroke-linejoin: miter; stroke-linecap: square"/>
   </g>
   <g id="patch_11">
    <path d="M 208.33 109.565 
L 349.2 109.565 
" style="fill: none; stroke: #000000; stroke-width: 0.8; stroke-linejoin: miter; stroke-linecap: square"/>
   </g>
   <g id="text_18">
    <!-- Out -->
    <g transform="translate(267.887187 103.565)scale(0.12 -0.12)">
     <defs>
      <path id="DejaVuSans-4f" d="M 2522 4238 
Q 1834 4238 1429 3725 
Q 1025 3213 1025 2328 
Q 1025 1447 1429 934 
Q 1834 422 2522 422 
Q 3209 422 3611 934 
Q 4013 1447 4013 2328 
Q 4013 3213 3611 3725 
Q 3209 4238 2522 4238 
z
M 2522 4750 
Q 3503 4750 4090 4092 
Q 4678 3434 4678 2328 
Q 4678 1225 4090 567 
Q 3503 -91 2522 -91 
Q 1538 -91 948 565 
Q 359 1222 359 2328 
Q 359 3434 948 4092 
Q 1538 4750 2522 4750 
z
" transform="scale(0.015625)"/>
      <path id="DejaVuSans-75" d="M 544 1381 
L 544 3500 
L 1119 3500 
L 1119 1403 
Q 1119 906 1312 657 
Q 1506 409 1894 409 
Q 2359 409 2629 706 
Q 2900 1003 2900 1516 
L 2900 3500 
L 3475 3500 
L 3475 0 
L 2900 0 
L 2900 538 
Q 2691 219 2414 64 
Q 2138 -91 1772 -91 
Q 1169 -91 856 284 
Q 544 659 544 1381 
z
M 1991 3584 
L 1991 3584 
z
" transform="scale(0.015625)"/>
      <path id="DejaVuSans-74" d="M 1172 4494 
L 1172 3500 
L 2356 3500 
L 2356 3053 
L 1172 3053 
L 1172 1153 
Q 1172 725 1289 603 
Q 1406 481 1766 481 
L 2356 481 
L 2356 0 
L 1766 0 
Q 1100 0 847 248 
Q 594 497 594 1153 
L 594 3053 
L 172 3053 
L 172 3500 
L 594 3500 
L 594 4494 
L 1172 4494 
z
" transform="scale(0.015625)"/>
     </defs>
     <use xlink:href="#DejaVuSans-4f"/>
     <use xlink:href="#DejaVuSans-75" x="78.710938"/>
     <use xlink:href="#DejaVuSans-74" x="142.089844"/>
    </g>
   </g>
  </g>
 </g>
 <defs>
  <clipPath id="pe85a8069a3">
   <rect x="33.73" y="109.565" width="140.87" height="140.87"/>
  </clipPath>
  <clipPath id="p42ff51a113">
   <rect x="208.33" y="109.565" width="140.87" height="140.87"/>
  </clipPath>
 </defs>
</svg>
