<?xml version="1.0" encoding="utf-8" standalone="no"?>
<!DOCTYPE svg PUBLIC "-//W3C//DTD SVG 1.1//EN"
  "http://www.w3.org/Graphics/SVG/1.1/DTD/svg11.dtd">
<svg xmlns:xlink="http://www.w3.org/1999/xlink" width="460.8pt" height="345.6pt" viewBox="0 0 460.8 345.6" xmlns="http://www.w3.org/2000/svg" version="1.1">
 <metadata>
  <rdf:RDF xmlns:dc="http://purl.org/dc/elements/1.1/" xmlns:cc="http://creativecommons.org/ns#" xmlns:rdf="http://www.w3.org/1999/02/22-rdf-syntax-ns#">
   <cc:Work>
    <dc:type rdf:resource="http://purl.org/dc/dcmitype/StillImage"/>
    <dc:date>2023-11-15T16:27:19.507715</dc:date>
    <dc:format>image/svg+xml</dc:format>
    <dc:creator>
     <cc:Agent>
      <dc:title>Matplotlib v3.8.1, https://matplotlib.org/</dc:title>
     </cc:Agent>
    </dc:creator>
   </cc:Work>
  </rdf:RDF>
 </metadata>
 <defs>
  <style type="text/css">*{stroke-linejoin: round; stroke-linecap: butt}</style>
 </defs>
 <g id="figure_1">
  <g id="patch_1">
   <path d="M 0 345.6 
L 460.8 345.6 
L 460.8 0 
L 0 0 
z
" style="fill: #ffffff"/>
  </g>
  <g id="axes_1">
   <g id="patch_2">
    <path d="M 33.73 273.835 
L 225 273.835 
L 225 82.565 
L 33.73 82.565 
z
" style="fill: #ffffff"/>
   </g>
   <g id="PathCollection_1">
    <defs>
     <path id="m1a75994021" d="M 0 1.581139 
C 0.419323 1.581139 0.821528 1.41454 1.118034 1.118034 
C 1.41454 0.821528 1.581139 0.419323 1.581139 0 
C 1.581139 -0.419323 1.41454 -0.821528 1.118034 -1.118034 
C 0.821528 -1.41454 0.419323 -1.581139 0 -1.581139 
C -0.419323 -1.581139 -0.821528 -1.41454 -1.118034 -1.118034 
C -1.41454 -0.821528 -1.581139 -0.419323 -1.581139 0 
C -1.581139 0.419323 -1.41454 0.821528 -1.118034 1.118034 
C -0.821528 1.41454 -0.419323 1.581139 0 1.581139 
z
" style="stroke: #0000ff"/>
    </defs>
    <g clip-path="url(#p3195dd12c8)">
     <use xlink:href="#m1a75994021" x="129.365" y="257.895833" style="fill: #0000ff; stroke: #0000ff"/>
     <use xlink:href="#m1a75994021" x="209.060833" y="257.895833" style="fill: #0000ff; stroke: #0000ff"/>
     <use xlink:href="#m1a75994021" x="209.060833" y="98.504167" style="fill: #0000ff; stroke: #0000ff"/>
     <use xlink:href="#m1a75994021" x="129.365" y="178.2" style="fill: #0000ff; stroke: #0000ff"/>
     <use xlink:href="#m1a75994021" x="49.669167" y="98.504167" style="fill: #0000ff; stroke: #0000ff"/>
    </g>
   </g>
   <g id="PathCollection_2">
    <defs>
     <path id="C0_0_7301c708ba" d="M 0 2.236068 
C 0.593012 2.236068 1.161816 2.000462 1.581139 1.581139 
C 2.000462 1.161816 2.236068 0.593012 2.236068 -0 
C 2.236068 -0.593012 2.000462 -1.161816 1.581139 -1.581139 
C 1.161816 -2.000462 0.593012 -2.236068 0 -2.236068 
C -0.593012 -2.236068 -1.161816 -2.000462 -1.581139 -1.581139 
C -2.000462 -1.161816 -2.236068 -0.593012 -2.236068 0 
C -2.236068 0.593012 -2.000462 1.161816 -1.581139 1.581139 
C -1.161816 2.000462 -0.593012 2.236068 0 2.236068 
z
"/>
    </defs>
    <g clip-path="url(#p3195dd12c8)">
     <use xlink:href="#C0_0_7301c708ba" x="121.395417" y="218.047917" style="fill: #1b9e77; stroke: #1b9e77"/>
    </g>
    <g clip-path="url(#p3195dd12c8)">
     <use xlink:href="#C0_0_7301c708ba" x="145.304167" y="241.956667" style="fill: #666666; stroke: #666666"/>
    </g>
   </g>
   <g id="matplotlib.axis_1">
    <g id="xtick_1">
     <g id="line2d_1">
      <defs>
       <path id="m6e09f6c4b5" d="M 0 0 
L 0 3.5 
" style="stroke: #000000; stroke-width: 0.8"/>
      </defs>
      <g>
       <use xlink:href="#m6e09f6c4b5" x="49.669167" y="273.835" style="stroke: #000000; stroke-width: 0.8"/>
      </g>
     </g>
     <g id="text_1">
      <!-- −1.0 -->
      <g transform="translate(37.52776 288.433437) scale(0.1 -0.1)">
       <defs>
        <path id="DejaVuSans-2212" d="M 678 2272 
L 4684 2272 
L 4684 1741 
L 678 1741 
L 678 2272 
z
" transform="scale(0.015625)"/>
        <path id="DejaVuSans-31" d="M 794 531 
L 1825 531 
L 1825 4091 
L 703 3866 
L 703 4441 
L 1819 4666 
L 2450 4666 
L 2450 531 
L 3481 531 
L 3481 0 
L 794 0 
L 794 531 
z
" transform="scale(0.015625)"/>
        <path id="DejaVuSans-2e" d="M 684 794 
L 1344 794 
L 1344 0 
L 684 0 
L 684 794 
z
" transform="scale(0.015625)"/>
        <path id="DejaVuSans-30" d="M 2034 4250 
Q 1547 4250 1301 3770 
Q 1056 3291 1056 2328 
Q 1056 1369 1301 889 
Q 1547 409 2034 409 
Q 2525 409 2770 889 
Q 3016 1369 3016 2328 
Q 3016 3291 2770 3770 
Q 2525 4250 2034 4250 
z
M 2034 4750 
Q 2819 4750 3233 4129 
Q 3647 3509 3647 2328 
Q 3647 1150 3233 529 
Q 2819 -91 2034 -91 
Q 1250 -91 836 529 
Q 422 1150 422 2328 
Q 422 3509 836 4129 
Q 1250 4750 2034 4750 
z
" transform="scale(0.015625)"/>
       </defs>
       <use xlink:href="#DejaVuSans-2212"/>
       <use xlink:href="#DejaVuSans-31" x="83.789062"/>
       <use xlink:href="#DejaVuSans-2e" x="147.412109"/>
       <use xlink:href="#DejaVuSans-30" x="179.199219"/>
      </g>
     </g>
    </g>
    <g id="xtick_2">
     <g id="line2d_2">
      <g>
       <use xlink:href="#m6e09f6c4b5" x="89.517083" y="273.835" style="stroke: #000000; stroke-width: 0.8"/>
      </g>
     </g>
     <g id="text_2">
      <!-- −0.5 -->
      <g transform="translate(77.375677 288.433437) scale(0.1 -0.1)">
       <defs>
        <path id="DejaVuSans-35" d="M 691 4666 
L 3169 4666 
L 3169 4134 
L 1269 4134 
L 1269 2991 
Q 1406 3038 1543 3061 
Q 1681 3084 1819 3084 
Q 2600 3084 3056 2656 
Q 3513 2228 3513 1497 
Q 3513 744 3044 326 
Q 2575 -91 1722 -91 
Q 1428 -91 1123 -41 
Q 819 9 494 109 
L 494 744 
Q 775 591 1075 516 
Q 1375 441 1709 441 
Q 2250 441 2565 725 
Q 2881 1009 2881 1497 
Q 2881 1984 2565 2268 
Q 2250 2553 1709 2553 
Q 1456 2553 1204 2497 
Q 953 2441 691 2322 
L 691 4666 
z
" transform="scale(0.015625)"/>
       </defs>
       <use xlink:href="#DejaVuSans-2212"/>
       <use xlink:href="#DejaVuSans-30" x="83.789062"/>
       <use xlink:href="#DejaVuSans-2e" x="147.412109"/>
       <use xlink:href="#DejaVuSans-35" x="179.199219"/>
      </g>
     </g>
    </g>
    <g id="xtick_3">
     <g id="line2d_3">
      <g>
       <use xlink:href="#m6e09f6c4b5" x="129.365" y="273.835" style="stroke: #000000; stroke-width: 0.8"/>
      </g>
     </g>
     <g id="text_3">
      <!-- 0.0 -->
      <g transform="translate(121.413438 288.433437) scale(0.1 -0.1)">
       <use xlink:href="#DejaVuSans-30"/>
       <use xlink:href="#DejaVuSans-2e" x="63.623047"/>
       <use xlink:href="#DejaVuSans-30" x="95.410156"/>
      </g>
     </g>
    </g>
    <g id="xtick_4">
     <g id="line2d_4">
      <g>
       <use xlink:href="#m6e09f6c4b5" x="169.212917" y="273.835" style="stroke: #000000; stroke-width: 0.8"/>
      </g>
     </g>
     <g id="text_4">
      <!-- 0.5 -->
      <g transform="translate(161.261354 288.433437) scale(0.1 -0.1)">
       <use xlink:href="#DejaVuSans-30"/>
       <use xlink:href="#DejaVuSans-2e" x="63.623047"/>
       <use xlink:href="#DejaVuSans-35" x="95.410156"/>
      </g>
     </g>
    </g>
    <g id="xtick_5">
     <g id="line2d_5">
      <g>
       <use xlink:href="#m6e09f6c4b5" x="209.060833" y="273.835" style="stroke: #000000; stroke-width: 0.8"/>
      </g>
     </g>
     <g id="text_5">
      <!-- 1.0 -->
      <g transform="translate(201.109271 288.433437) scale(0.1 -0.1)">
       <use xlink:href="#DejaVuSans-31"/>
       <use xlink:href="#DejaVuSans-2e" x="63.623047"/>
       <use xlink:href="#DejaVuSans-30" x="95.410156"/>
      </g>
     </g>
    </g>
   </g>
   <g id="matplotlib.axis_2">
    <g id="ytick_1">
     <g id="line2d_6">
      <defs>
       <path id="m1eaeac7c86" d="M 0 0 
L -3.5 0 
" style="stroke: #000000; stroke-width: 0.8"/>
      </defs>
      <g>
       <use xlink:href="#m1eaeac7c86" x="33.73" y="257.895833" style="stroke: #000000; stroke-width: 0.8"/>
      </g>
     </g>
     <g id="text_6">
      <!-- 0.0 -->
      <g transform="translate(10.826875 261.695052) scale(0.1 -0.1)">
       <use xlink:href="#DejaVuSans-30"/>
       <use xlink:href="#DejaVuSans-2e" x="63.623047"/>
       <use xlink:href="#DejaVuSans-30" x="95.410156"/>
      </g>
     </g>
    </g>
    <g id="ytick_2">
     <g id="line2d_7">
      <g>
       <use xlink:href="#m1eaeac7c86" x="33.73" y="218.047917" style="stroke: #000000; stroke-width: 0.8"/>
      </g>
     </g>
     <g id="text_7">
      <!-- 0.5 -->
      <g transform="translate(10.826875 221.847135) scale(0.1 -0.1)">
       <use xlink:href="#DejaVuSans-30"/>
       <use xlink:href="#DejaVuSans-2e" x="63.623047"/>
       <use xlink:href="#DejaVuSans-35" x="95.410156"/>
      </g>
     </g>
    </g>
    <g id="ytick_3">
     <g id="line2d_8">
      <g>
       <use xlink:href="#m1eaeac7c86" x="33.73" y="178.2" style="stroke: #000000; stroke-width: 0.8"/>
      </g>
     </g>
     <g id="text_8">
      <!-- 1.0 -->
      <g transform="translate(10.826875 181.999219) scale(0.1 -0.1)">
       <use xlink:href="#DejaVuSans-31"/>
       <use xlink:href="#DejaVuSans-2e" x="63.623047"/>
       <use xlink:href="#DejaVuSans-30" x="95.410156"/>
      </g>
     </g>
    </g>
    <g id="ytick_4">
     <g id="line2d_9">
      <g>
       <use xlink:href="#m1eaeac7c86" x="33.73" y="138.352083" style="stroke: #000000; stroke-width: 0.8"/>
      </g>
     </g>
     <g id="text_9">
      <!-- 1.5 -->
      <g transform="translate(10.826875 142.151302) scale(0.1 -0.1)">
       <use xlink:href="#DejaVuSans-31"/>
       <use xlink:href="#DejaVuSans-2e" x="63.623047"/>
       <use xlink:href="#DejaVuSans-35" x="95.410156"/>
      </g>
     </g>
    </g>
    <g id="ytick_5">
     <g id="line2d_10">
      <g>
       <use xlink:href="#m1eaeac7c86" x="33.73" y="98.504167" style="stroke: #000000; stroke-width: 0.8"/>
      </g>
     </g>
     <g id="text_10">
      <!-- 2.0 -->
      <g transform="translate(10.826875 102.303385) scale(0.1 -0.1)">
       <defs>
        <path id="DejaVuSans-32" d="M 1228 531 
L 3431 531 
L 3431 0 
L 469 0 
L 469 531 
Q 828 903 1448 1529 
Q 2069 2156 2228 2338 
Q 2531 2678 2651 2914 
Q 2772 3150 2772 3378 
Q 2772 3750 2511 3984 
Q 2250 4219 1831 4219 
Q 1534 4219 1204 4116 
Q 875 4013 500 3803 
L 500 4441 
Q 881 4594 1212 4672 
Q 1544 4750 1819 4750 
Q 2544 4750 2975 4387 
Q 3406 4025 3406 3419 
Q 3406 3131 3298 2873 
Q 3191 2616 2906 2266 
Q 2828 2175 2409 1742 
Q 1991 1309 1228 531 
z
" transform="scale(0.015625)"/>
       </defs>
       <use xlink:href="#DejaVuSans-32"/>
       <use xlink:href="#DejaVuSans-2e" x="63.623047"/>
       <use xlink:href="#DejaVuSans-30" x="95.410156"/>
      </g>
     </g>
    </g>
   </g>
   <g id="LineCollection_1">
    <path d="M 129.365 257.895833 
L 209.060833 257.895833 
" clip-path="url(#p3195dd12c8)" style="fill: none; stroke: #ff0000; stroke-width: 3"/>
    <path d="M 209.060833 257.895833 
L 209.060833 98.504167 
" clip-path="url(#p3195dd12c8)" style="fill: none; stroke: #ff0000; stroke-width: 3"/>
    <path d="M 209.060833 98.504167 
L 129.365 178.2 
" clip-path="url(#p3195dd12c8)" style="fill: none; stroke: #808000; stroke-width: 3"/>
    <path d="M 129.365 178.2 
L 49.669167 98.504167 
" clip-path="url(#p3195dd12c8)" style="fill: none; stroke: #808000; stroke-width: 3"/>
    <path d="M 49.669167 98.504167 
L 129.365 257.895833 
" clip-path="url(#p3195dd12c8)" style="fill: none; stroke: #00ff00; stroke-width: 3"/>
    <path d="M 129.365 257.895833 
L 129.365 178.2 
" clip-path="url(#p3195dd12c8)" style="fill: none; stroke: #008080; stroke-width: 3"/>
   </g>
   <g id="patch_3">
    <path d="M 33.73 273.835 
L 33.73 82.565 
" style="fill: none; stroke: #000000; stroke-width: 0.8; stroke-linejoin: miter; stroke-linecap: square"/>
   </g>
   <g id="patch_4">
    <path d="M 225 273.835 
L 225 82.565 
" style="fill: none; stroke: #000000; stroke-width: 0.8; stroke-linejoin: miter; stroke-linecap: square"/>
   </g>
   <g id="patch_5">
    <path d="M 33.73 273.835 
L 225 273.835 
" style="fill: none; stroke: #000000; stroke-width: 0.8; stroke-linejoin: miter; stroke-linecap: square"/>
   </g>
   <g id="patch_6">
    <path d="M 33.73 82.565 
L 225 82.565 
" style="fill: none; stroke: #000000; stroke-width: 0.8; stroke-linejoin: miter; stroke-linecap: square"/>
   </g>
   <g id="text_11">
    <!-- In -->
    <g transform="translate(123.7925 76.565) scale(0.12 -0.12)">
     <defs>
      <path id="DejaVuSans-49" d="M 628 4666 
L 1259 4666 
L 1259 0 
L 628 0 
L 628 4666 
z
" transform="scale(0.015625)"/>
      <path id="DejaVuSans-6e" d="M 3513 2113 
L 3513 0 
L 2938 0 
L 2938 2094 
Q 2938 2591 2744 2837 
Q 2550 3084 2163 3084 
Q 1697 3084 1428 2787 
Q 1159 2491 1159 1978 
L 1159 0 
L 581 0 
L 581 3500 
L 1159 3500 
L 1159 2956 
Q 1366 3272 1645 3428 
Q 1925 3584 2291 3584 
Q 2894 3584 3203 3211 
Q 3513 2838 3513 2113 
z
" transform="scale(0.015625)"/>
     </defs>
     <use xlink:href="#DejaVuSans-49"/>
     <use xlink:href="#DejaVuSans-6e" x="29.492188"/>
    </g>
   </g>
  </g>
  <g id="axes_2">
   <g id="patch_7">
    <path d="M 258.73 273.835 
L 450 273.835 
L 450 82.565 
L 258.73 82.565 
z
" style="fill: #ffffff"/>
   </g>
   <g id="PathCollection_3">
    <g clip-path="url(#p74032b21a7)">
     <use xlink:href="#m1a75994021" x="354.365" y="257.895833" style="fill: #0000ff; stroke: #0000ff"/>
     <use xlink:href="#m1a75994021" x="434.060833" y="257.895833" style="fill: #0000ff; stroke: #0000ff"/>
     <use xlink:href="#m1a75994021" x="434.060833" y="98.504167" style="fill: #0000ff; stroke: #0000ff"/>
     <use xlink:href="#m1a75994021" x="354.365" y="178.2" style="fill: #0000ff; stroke: #0000ff"/>
     <use xlink:href="#m1a75994021" x="274.669167" y="98.504167" style="fill: #0000ff; stroke: #0000ff"/>
     <use xlink:href="#m1a75994021" x="310.310227" y="169.786287" style="fill: #0000ff; stroke: #0000ff"/>
     <use xlink:href="#m1a75994021" x="302.845899" y="126.680899" style="fill: #0000ff; stroke: #0000ff"/>
     <use xlink:href="#m1a75994021" x="336.54447" y="222.254773" style="fill: #0000ff; stroke: #0000ff"/>
     <use xlink:href="#m1a75994021" x="328.605449" y="152.440449" style="fill: #0000ff; stroke: #0000ff"/>
     <use xlink:href="#m1a75994021" x="292.489697" y="134.145227" style="fill: #0000ff; stroke: #0000ff"/>
     <use xlink:href="#m1a75994021" x="354.365" y="218.047917" style="fill: #0000ff; stroke: #0000ff"/>
     <use xlink:href="#m1a75994021" x="434.060833" y="178.2" style="fill: #0000ff; stroke: #0000ff"/>
     <use xlink:href="#m1a75994021" x="323.427348" y="196.02053" style="fill: #0000ff; stroke: #0000ff"/>
     <use xlink:href="#m1a75994021" x="394.212917" y="257.895833" style="fill: #0000ff; stroke: #0000ff"/>
     <use xlink:href="#m1a75994021" x="394.212917" y="198.123958" style="fill: #0000ff; stroke: #0000ff"/>
     <use xlink:href="#m1a75994021" x="374.288958" y="237.971875" style="fill: #0000ff; stroke: #0000ff"/>
     <use xlink:href="#m1a75994021" x="354.365" y="237.971875" style="fill: #0000ff; stroke: #0000ff"/>
     <use xlink:href="#m1a75994021" x="345.454735" y="240.075303" style="fill: #0000ff; stroke: #0000ff"/>
     <use xlink:href="#m1a75994021" x="374.288958" y="257.895833" style="fill: #0000ff; stroke: #0000ff"/>
     <use xlink:href="#m1a75994021" x="384.250937" y="247.933854" style="fill: #0000ff; stroke: #0000ff"/>
     <use xlink:href="#m1a75994021" x="374.288958" y="247.933854" style="fill: #0000ff; stroke: #0000ff"/>
     <use xlink:href="#m1a75994021" x="364.326979" y="242.952865" style="fill: #0000ff; stroke: #0000ff"/>
     <use xlink:href="#m1a75994021" x="354.365" y="247.933854" style="fill: #0000ff; stroke: #0000ff"/>
     <use xlink:href="#m1a75994021" x="349.909867" y="248.985568" style="fill: #0000ff; stroke: #0000ff"/>
     <use xlink:href="#m1a75994021" x="384.250937" y="257.895833" style="fill: #0000ff; stroke: #0000ff"/>
     <use xlink:href="#m1a75994021" x="434.060833" y="218.047917" style="fill: #0000ff; stroke: #0000ff"/>
     <use xlink:href="#m1a75994021" x="397.533576" y="224.689236" style="fill: #0000ff; stroke: #0000ff"/>
     <use xlink:href="#m1a75994021" x="387.722536" y="234.500276" style="fill: #0000ff; stroke: #0000ff"/>
     <use xlink:href="#m1a75994021" x="382.028629" y="240.194183" style="fill: #0000ff; stroke: #0000ff"/>
     <use xlink:href="#m1a75994021" x="397.86106" y="244.285711" style="fill: #0000ff; stroke: #0000ff"/>
     <use xlink:href="#m1a75994021" x="377.0763" y="214.043" style="fill: #0000ff; stroke: #0000ff"/>
     <use xlink:href="#m1a75994021" x="397.523675" y="234.490375" style="fill: #0000ff; stroke: #0000ff"/>
     <use xlink:href="#m1a75994021" x="434.060833" y="237.971875" style="fill: #0000ff; stroke: #0000ff"/>
     <use xlink:href="#m1a75994021" x="416.423264" y="229.608893" style="fill: #0000ff; stroke: #0000ff"/>
     <use xlink:href="#m1a75994021" x="406.340432" y="229.598707" style="fill: #0000ff; stroke: #0000ff"/>
     <use xlink:href="#m1a75994021" x="414.136875" y="257.895833" style="fill: #0000ff; stroke: #0000ff"/>
     <use xlink:href="#m1a75994021" x="411.401484" y="210.166114" style="fill: #0000ff; stroke: #0000ff"/>
     <use xlink:href="#m1a75994021" x="411.369029" y="242.293145" style="fill: #0000ff; stroke: #0000ff"/>
     <use xlink:href="#m1a75994021" x="404.007464" y="239.170529" style="fill: #0000ff; stroke: #0000ff"/>
     <use xlink:href="#m1a75994021" x="406.35091" y="219.226086" style="fill: #0000ff; stroke: #0000ff"/>
     <use xlink:href="#m1a75994021" x="411.37645" y="234.947007" style="fill: #0000ff; stroke: #0000ff"/>
     <use xlink:href="#m1a75994021" x="416.834776" y="219.13269" style="fill: #0000ff; stroke: #0000ff"/>
     <use xlink:href="#m1a75994021" x="399.195882" y="209.29971" style="fill: #0000ff; stroke: #0000ff"/>
     <use xlink:href="#m1a75994021" x="434.060833" y="228.009896" style="fill: #0000ff; stroke: #0000ff"/>
     <use xlink:href="#m1a75994021" x="434.060833" y="198.123958" style="fill: #0000ff; stroke: #0000ff"/>
     <use xlink:href="#m1a75994021" x="425.727316" y="223.028906" style="fill: #0000ff; stroke: #0000ff"/>
     <use xlink:href="#m1a75994021" x="425.621137" y="232.990885" style="fill: #0000ff; stroke: #0000ff"/>
     <use xlink:href="#m1a75994021" x="423.783688" y="245.744752" style="fill: #0000ff; stroke: #0000ff"/>
     <use xlink:href="#m1a75994021" x="434.060833" y="208.085938" style="fill: #0000ff; stroke: #0000ff"/>
     <use xlink:href="#m1a75994021" x="424.917176" y="212.781864" style="fill: #0000ff; stroke: #0000ff"/>
     <use xlink:href="#m1a75994021" x="390.024201" y="242.260455" style="fill: #0000ff; stroke: #0000ff"/>
     <use xlink:href="#m1a75994021" x="378.445563" y="226.329276" style="fill: #0000ff; stroke: #0000ff"/>
     <use xlink:href="#m1a75994021" x="404.174896" y="257.895833" style="fill: #0000ff; stroke: #0000ff"/>
     <use xlink:href="#m1a75994021" x="409.155885" y="250.732592" style="fill: #0000ff; stroke: #0000ff"/>
     <use xlink:href="#m1a75994021" x="417.219933" y="250.43862" style="fill: #0000ff; stroke: #0000ff"/>
     <use xlink:href="#m1a75994021" x="424.098854" y="257.895833" style="fill: #0000ff; stroke: #0000ff"/>
     <use xlink:href="#m1a75994021" x="399.193906" y="251.936972" style="fill: #0000ff; stroke: #0000ff"/>
     <use xlink:href="#m1a75994021" x="406.020952" y="199.557835" style="fill: #0000ff; stroke: #0000ff"/>
     <use xlink:href="#m1a75994021" x="387.325958" y="207.893428" style="fill: #0000ff; stroke: #0000ff"/>
     <use xlink:href="#m1a75994021" x="419.129936" y="238.564993" style="fill: #0000ff; stroke: #0000ff"/>
     <use xlink:href="#m1a75994021" x="434.060833" y="247.933854" style="fill: #0000ff; stroke: #0000ff"/>
     <use xlink:href="#m1a75994021" x="420.419548" y="199.79535" style="fill: #0000ff; stroke: #0000ff"/>
     <use xlink:href="#m1a75994021" x="426.651614" y="204.909085" style="fill: #0000ff; stroke: #0000ff"/>
     <use xlink:href="#m1a75994021" x="387.937591" y="224.904291" style="fill: #0000ff; stroke: #0000ff"/>
     <use xlink:href="#m1a75994021" x="392.546643" y="216.36603" style="fill: #0000ff; stroke: #0000ff"/>
     <use xlink:href="#m1a75994021" x="384.464341" y="217.51625" style="fill: #0000ff; stroke: #0000ff"/>
     <use xlink:href="#m1a75994021" x="366.668807" y="221.422317" style="fill: #0000ff; stroke: #0000ff"/>
     <use xlink:href="#m1a75994021" x="363.587285" y="231.979779" style="fill: #0000ff; stroke: #0000ff"/>
     <use xlink:href="#m1a75994021" x="370.702105" y="228.328009" style="fill: #0000ff; stroke: #0000ff"/>
     <use xlink:href="#m1a75994021" x="354.365" y="228.009896" style="fill: #0000ff; stroke: #0000ff"/>
     <use xlink:href="#m1a75994021" x="405.884101" y="126.680899" style="fill: #0000ff; stroke: #0000ff"/>
     <use xlink:href="#m1a75994021" x="434.060833" y="138.352083" style="fill: #0000ff; stroke: #0000ff"/>
     <use xlink:href="#m1a75994021" x="373.095276" y="190.549345" style="fill: #0000ff; stroke: #0000ff"/>
     <use xlink:href="#m1a75994021" x="418.911038" y="207.589884" style="fill: #0000ff; stroke: #0000ff"/>
     <use xlink:href="#m1a75994021" x="434.060833" y="188.161979" style="fill: #0000ff; stroke: #0000ff"/>
     <use xlink:href="#m1a75994021" x="418.031868" y="183.18099" style="fill: #0000ff; stroke: #0000ff"/>
     <use xlink:href="#m1a75994021" x="426.527504" y="193.142969" style="fill: #0000ff; stroke: #0000ff"/>
     <use xlink:href="#m1a75994021" x="426.82027" y="183.18099" style="fill: #0000ff; stroke: #0000ff"/>
     <use xlink:href="#m1a75994021" x="434.060833" y="158.276042" style="fill: #0000ff; stroke: #0000ff"/>
     <use xlink:href="#m1a75994021" x="422.426069" y="169.040326" style="fill: #0000ff; stroke: #0000ff"/>
     <use xlink:href="#m1a75994021" x="373.915993" y="220.614643" style="fill: #0000ff; stroke: #0000ff"/>
     <use xlink:href="#m1a75994021" x="382.607371" y="197.254868" style="fill: #0000ff; stroke: #0000ff"/>
     <use xlink:href="#m1a75994021" x="380.124551" y="152.440449" style="fill: #0000ff; stroke: #0000ff"/>
     <use xlink:href="#m1a75994021" x="354.365" y="198.123958" style="fill: #0000ff; stroke: #0000ff"/>
     <use xlink:href="#m1a75994021" x="378.804657" y="205.307222" style="fill: #0000ff; stroke: #0000ff"/>
     <use xlink:href="#m1a75994021" x="364.998" y="207.114466" style="fill: #0000ff; stroke: #0000ff"/>
     <use xlink:href="#m1a75994021" x="389.982434" y="176.693565" style="fill: #0000ff; stroke: #0000ff"/>
     <use xlink:href="#m1a75994021" x="383.453565" y="185.955067" style="fill: #0000ff; stroke: #0000ff"/>
     <use xlink:href="#m1a75994021" x="388.833241" y="192.039513" style="fill: #0000ff; stroke: #0000ff"/>
     <use xlink:href="#m1a75994021" x="401.662" y="186.11722" style="fill: #0000ff; stroke: #0000ff"/>
     <use xlink:href="#m1a75994021" x="367.244775" y="165.320225" style="fill: #0000ff; stroke: #0000ff"/>
     <use xlink:href="#m1a75994021" x="373.369221" y="177.192908" style="fill: #0000ff; stroke: #0000ff"/>
     <use xlink:href="#m1a75994021" x="376.359703" y="183.935271" style="fill: #0000ff; stroke: #0000ff"/>
     <use xlink:href="#m1a75994021" x="371.064566" y="199.818299" style="fill: #0000ff; stroke: #0000ff"/>
     <use xlink:href="#m1a75994021" x="363.294335" y="193.259012" style="fill: #0000ff; stroke: #0000ff"/>
     <use xlink:href="#m1a75994021" x="361.458835" y="200.517173" style="fill: #0000ff; stroke: #0000ff"/>
     <use xlink:href="#m1a75994021" x="354.365" y="208.085938" style="fill: #0000ff; stroke: #0000ff"/>
     <use xlink:href="#m1a75994021" x="365.932514" y="183.721406" style="fill: #0000ff; stroke: #0000ff"/>
     <use xlink:href="#m1a75994021" x="360.804888" y="171.760112" style="fill: #0000ff; stroke: #0000ff"/>
     <use xlink:href="#m1a75994021" x="354.365" y="188.161979" style="fill: #0000ff; stroke: #0000ff"/>
     <use xlink:href="#m1a75994021" x="329.985909" y="209.137652" style="fill: #0000ff; stroke: #0000ff"/>
     <use xlink:href="#m1a75994021" x="336.632855" y="183.18099" style="fill: #0000ff; stroke: #0000ff"/>
     <use xlink:href="#m1a75994021" x="361.889892" y="214.728897" style="fill: #0000ff; stroke: #0000ff"/>
     <use xlink:href="#m1a75994021" x="400.723131" y="193.848844" style="fill: #0000ff; stroke: #0000ff"/>
     <use xlink:href="#m1a75994021" x="380.699823" y="165.895497" style="fill: #0000ff; stroke: #0000ff"/>
     <use xlink:href="#m1a75994021" x="373.684663" y="158.880337" style="fill: #0000ff; stroke: #0000ff"/>
     <use xlink:href="#m1a75994021" x="373.808002" y="169.450596" style="fill: #0000ff; stroke: #0000ff"/>
     <use xlink:href="#m1a75994021" x="381.602642" y="174.508339" style="fill: #0000ff; stroke: #0000ff"/>
     <use xlink:href="#m1a75994021" x="400.443712" y="158.311523" style="fill: #0000ff; stroke: #0000ff"/>
     <use xlink:href="#m1a75994021" x="389.298241" y="158.788049" style="fill: #0000ff; stroke: #0000ff"/>
     <use xlink:href="#m1a75994021" x="389.467335" y="167.747418" style="fill: #0000ff; stroke: #0000ff"/>
     <use xlink:href="#m1a75994021" x="402.237302" y="171.500055" style="fill: #0000ff; stroke: #0000ff"/>
     <use xlink:href="#m1a75994021" x="393.004326" y="139.560674" style="fill: #0000ff; stroke: #0000ff"/>
     <use xlink:href="#m1a75994021" x="386.564438" y="146.000562" style="fill: #0000ff; stroke: #0000ff"/>
     <use xlink:href="#m1a75994021" x="396.162604" y="149.15884" style="fill: #0000ff; stroke: #0000ff"/>
     <use xlink:href="#m1a75994021" x="415.644502" y="145.623881" style="fill: #0000ff; stroke: #0000ff"/>
     <use xlink:href="#m1a75994021" x="406.369987" y="149.961975" style="fill: #0000ff; stroke: #0000ff"/>
     <use xlink:href="#m1a75994021" x="412.827257" y="160.82309" style="fill: #0000ff; stroke: #0000ff"/>
     <use xlink:href="#m1a75994021" x="399.444214" y="133.120786" style="fill: #0000ff; stroke: #0000ff"/>
     <use xlink:href="#m1a75994021" x="409.544308" y="136.780993" style="fill: #0000ff; stroke: #0000ff"/>
     <use xlink:href="#m1a75994021" x="413.481991" y="153.083749" style="fill: #0000ff; stroke: #0000ff"/>
     <use xlink:href="#m1a75994021" x="423.234921" y="157.806194" style="fill: #0000ff; stroke: #0000ff"/>
     <use xlink:href="#m1a75994021" x="401.863478" y="141.97056" style="fill: #0000ff; stroke: #0000ff"/>
     <use xlink:href="#m1a75994021" x="421.984689" y="134.724626" style="fill: #0000ff; stroke: #0000ff"/>
     <use xlink:href="#m1a75994021" x="434.060833" y="148.314062" style="fill: #0000ff; stroke: #0000ff"/>
     <use xlink:href="#m1a75994021" x="419.972467" y="112.592533" style="fill: #0000ff; stroke: #0000ff"/>
     <use xlink:href="#m1a75994021" x="434.060833" y="118.428125" style="fill: #0000ff; stroke: #0000ff"/>
     <use xlink:href="#m1a75994021" x="424.631956" y="148.479912" style="fill: #0000ff; stroke: #0000ff"/>
     <use xlink:href="#m1a75994021" x="412.928284" y="119.636716" style="fill: #0000ff; stroke: #0000ff"/>
     <use xlink:href="#m1a75994021" x="423.742994" y="123.407242" style="fill: #0000ff; stroke: #0000ff"/>
     <use xlink:href="#m1a75994021" x="414.682286" y="129.20576" style="fill: #0000ff; stroke: #0000ff"/>
     <use xlink:href="#m1a75994021" x="434.060833" y="128.390104" style="fill: #0000ff; stroke: #0000ff"/>
     <use xlink:href="#m1a75994021" x="426.68216" y="116.31786" style="fill: #0000ff; stroke: #0000ff"/>
     <use xlink:href="#m1a75994021" x="427.01665" y="105.54835" style="fill: #0000ff; stroke: #0000ff"/>
     <use xlink:href="#m1a75994021" x="434.060833" y="108.466146" style="fill: #0000ff; stroke: #0000ff"/>
     <use xlink:href="#m1a75994021" x="397.068006" y="165.486833" style="fill: #0000ff; stroke: #0000ff"/>
     <use xlink:href="#m1a75994021" x="398.041515" y="178.654821" style="fill: #0000ff; stroke: #0000ff"/>
     <use xlink:href="#m1a75994021" x="405.672239" y="164.31669" style="fill: #0000ff; stroke: #0000ff"/>
     <use xlink:href="#m1a75994021" x="412.544356" y="172.015736" style="fill: #0000ff; stroke: #0000ff"/>
     <use xlink:href="#m1a75994021" x="407.028067" y="179.008514" style="fill: #0000ff; stroke: #0000ff"/>
     <use xlink:href="#m1a75994021" x="426.697585" y="140.94999" style="fill: #0000ff; stroke: #0000ff"/>
     <use xlink:href="#m1a75994021" x="413.341374" y="192.333818" style="fill: #0000ff; stroke: #0000ff"/>
     <use xlink:href="#m1a75994021" x="434.060833" y="168.238021" style="fill: #0000ff; stroke: #0000ff"/>
     <use xlink:href="#m1a75994021" x="427.908989" y="163.788909" style="fill: #0000ff; stroke: #0000ff"/>
     <use xlink:href="#m1a75994021" x="364.326979" y="257.895833" style="fill: #0000ff; stroke: #0000ff"/>
     <use xlink:href="#m1a75994021" x="366.817474" y="250.424349" style="fill: #0000ff; stroke: #0000ff"/>
    </g>
   </g>
   <g id="PolyCollection_1">
    <path d="M 329.985909 209.137652 
L 336.54447 222.254773 
L 354.365 208.085938 
z
" clip-path="url(#p74032b21a7)" style="fill: #b3e2cd"/>
    <path d="M 302.845899 126.680899 
L 274.669167 98.504167 
L 292.489697 134.145227 
z
" clip-path="url(#p74032b21a7)" style="fill: #b3e2cd"/>
    <path d="M 383.453565 185.955067 
L 376.359703 183.935271 
L 373.095276 190.549345 
z
" clip-path="url(#p74032b21a7)" style="fill: #cccccc"/>
    <path d="M 397.523675 234.490375 
L 404.007464 239.170529 
L 406.340432 229.598707 
z
" clip-path="url(#p74032b21a7)" style="fill: #cccccc"/>
    <path d="M 336.54447 222.254773 
L 354.365 218.047917 
L 354.365 208.085938 
z
" clip-path="url(#p74032b21a7)" style="fill: #b3e2cd"/>
    <path d="M 292.489697 134.145227 
L 310.310227 169.786287 
L 328.605449 152.440449 
z
" clip-path="url(#p74032b21a7)" style="fill: #b3e2cd"/>
    <path d="M 336.632855 183.18099 
L 328.605449 152.440449 
L 310.310227 169.786287 
z
" clip-path="url(#p74032b21a7)" style="fill: #b3e2cd"/>
    <path d="M 328.605449 152.440449 
L 302.845899 126.680899 
L 292.489697 134.145227 
z
" clip-path="url(#p74032b21a7)" style="fill: #b3e2cd"/>
    <path d="M 399.195882 209.29971 
L 406.020952 199.557835 
L 394.212917 198.123958 
z
" clip-path="url(#p74032b21a7)" style="fill: #cccccc"/>
    <path d="M 349.909867 248.985568 
L 354.365 257.895833 
L 354.365 247.933854 
z
" clip-path="url(#p74032b21a7)" style="fill: #b3e2cd"/>
    <path d="M 366.817474 250.424349 
L 374.288958 257.895833 
L 374.288958 247.933854 
z
" clip-path="url(#p74032b21a7)" style="fill: #cccccc"/>
    <path d="M 401.662 186.11722 
L 398.041515 178.654821 
L 388.833241 192.039513 
z
" clip-path="url(#p74032b21a7)" style="fill: #cccccc"/>
    <path d="M 329.985909 209.137652 
L 336.632855 183.18099 
L 323.427348 196.02053 
z
" clip-path="url(#p74032b21a7)" style="fill: #b3e2cd"/>
    <path d="M 374.288958 237.971875 
L 382.028629 240.194183 
L 378.445563 226.329276 
z
" clip-path="url(#p74032b21a7)" style="fill: #cccccc"/>
    <path d="M 378.804657 205.307222 
L 371.064566 199.818299 
L 364.998 207.114466 
z
" clip-path="url(#p74032b21a7)" style="fill: #cccccc"/>
    <path d="M 378.445563 226.329276 
L 382.028629 240.194183 
L 387.722536 234.500276 
z
" clip-path="url(#p74032b21a7)" style="fill: #cccccc"/>
    <path d="M 374.288958 257.895833 
L 384.250937 247.933854 
L 374.288958 247.933854 
z
" clip-path="url(#p74032b21a7)" style="fill: #cccccc"/>
    <path d="M 345.454735 240.075303 
L 354.365 228.009896 
L 336.54447 222.254773 
z
" clip-path="url(#p74032b21a7)" style="fill: #b3e2cd"/>
    <path d="M 354.365 237.971875 
L 364.326979 242.952865 
L 363.587285 231.979779 
z
" clip-path="url(#p74032b21a7)" style="fill: #cccccc"/>
    <path d="M 354.365 228.009896 
L 345.454735 240.075303 
L 354.365 237.971875 
z
" clip-path="url(#p74032b21a7)" style="fill: #b3e2cd"/>
    <path d="M 366.817474 250.424349 
L 374.288958 247.933854 
L 364.326979 242.952865 
z
" clip-path="url(#p74032b21a7)" style="fill: #cccccc"/>
    <path d="M 397.533576 224.689236 
L 387.937591 224.904291 
L 397.523675 234.490375 
z
" clip-path="url(#p74032b21a7)" style="fill: #cccccc"/>
    <path d="M 384.250937 257.895833 
L 394.212917 257.895833 
L 384.250937 247.933854 
z
" clip-path="url(#p74032b21a7)" style="fill: #cccccc"/>
    <path d="M 364.326979 242.952865 
L 374.288958 247.933854 
L 374.288958 237.971875 
z
" clip-path="url(#p74032b21a7)" style="fill: #cccccc"/>
    <path d="M 382.028629 240.194183 
L 374.288958 247.933854 
L 384.250937 247.933854 
z
" clip-path="url(#p74032b21a7)" style="fill: #cccccc"/>
    <path d="M 354.365 257.895833 
L 364.326979 257.895833 
L 354.365 247.933854 
z
" clip-path="url(#p74032b21a7)" style="fill: #cccccc"/>
    <path d="M 378.445563 226.329276 
L 370.702105 228.328009 
L 374.288958 237.971875 
z
" clip-path="url(#p74032b21a7)" style="fill: #cccccc"/>
    <path d="M 364.326979 242.952865 
L 354.365 237.971875 
L 354.365 247.933854 
z
" clip-path="url(#p74032b21a7)" style="fill: #cccccc"/>
    <path d="M 345.454735 240.075303 
L 349.909867 248.985568 
L 354.365 237.971875 
z
" clip-path="url(#p74032b21a7)" style="fill: #b3e2cd"/>
    <path d="M 354.365 237.971875 
L 349.909867 248.985568 
L 354.365 247.933854 
z
" clip-path="url(#p74032b21a7)" style="fill: #b3e2cd"/>
    <path d="M 384.250937 247.933854 
L 374.288958 257.895833 
L 384.250937 257.895833 
z
" clip-path="url(#p74032b21a7)" style="fill: #cccccc"/>
    <path d="M 373.915993 220.614643 
L 370.702105 228.328009 
L 378.445563 226.329276 
z
" clip-path="url(#p74032b21a7)" style="fill: #cccccc"/>
    <path d="M 390.024201 242.260455 
L 387.722536 234.500276 
L 382.028629 240.194183 
z
" clip-path="url(#p74032b21a7)" style="fill: #cccccc"/>
    <path d="M 406.340432 229.598707 
L 406.35091 219.226086 
L 397.533576 224.689236 
z
" clip-path="url(#p74032b21a7)" style="fill: #cccccc"/>
    <path d="M 399.193906 251.936972 
L 390.024201 242.260455 
L 384.250937 247.933854 
z
" clip-path="url(#p74032b21a7)" style="fill: #cccccc"/>
    <path d="M 378.445563 226.329276 
L 387.722536 234.500276 
L 387.937591 224.904291 
z
" clip-path="url(#p74032b21a7)" style="fill: #cccccc"/>
    <path d="M 374.288958 247.933854 
L 382.028629 240.194183 
L 374.288958 237.971875 
z
" clip-path="url(#p74032b21a7)" style="fill: #cccccc"/>
    <path d="M 390.024201 242.260455 
L 382.028629 240.194183 
L 384.250937 247.933854 
z
" clip-path="url(#p74032b21a7)" style="fill: #cccccc"/>
    <path d="M 423.783688 245.744752 
L 434.060833 237.971875 
L 425.621137 232.990885 
z
" clip-path="url(#p74032b21a7)" style="fill: #cccccc"/>
    <path d="M 406.340432 229.598707 
L 397.533576 224.689236 
L 397.523675 234.490375 
z
" clip-path="url(#p74032b21a7)" style="fill: #cccccc"/>
    <path d="M 397.533576 224.689236 
L 392.546643 216.36603 
L 387.937591 224.904291 
z
" clip-path="url(#p74032b21a7)" style="fill: #cccccc"/>
    <path d="M 378.804657 205.307222 
L 387.325958 207.893428 
L 382.607371 197.254868 
z
" clip-path="url(#p74032b21a7)" style="fill: #cccccc"/>
    <path d="M 390.024201 242.260455 
L 397.523675 234.490375 
L 387.722536 234.500276 
z
" clip-path="url(#p74032b21a7)" style="fill: #cccccc"/>
    <path d="M 425.621137 232.990885 
L 419.129936 238.564993 
L 423.783688 245.744752 
z
" clip-path="url(#p74032b21a7)" style="fill: #cccccc"/>
    <path d="M 434.060833 218.047917 
L 425.727316 223.028906 
L 434.060833 228.009896 
z
" clip-path="url(#p74032b21a7)" style="fill: #cccccc"/>
    <path d="M 411.37645 234.947007 
L 416.423264 229.608893 
L 406.340432 229.598707 
z
" clip-path="url(#p74032b21a7)" style="fill: #cccccc"/>
    <path d="M 411.401484 210.166114 
L 399.195882 209.29971 
L 406.35091 219.226086 
z
" clip-path="url(#p74032b21a7)" style="fill: #cccccc"/>
    <path d="M 404.007464 239.170529 
L 397.523675 234.490375 
L 397.86106 244.285711 
z
" clip-path="url(#p74032b21a7)" style="fill: #cccccc"/>
    <path d="M 416.423264 229.608893 
L 416.834776 219.13269 
L 406.35091 219.226086 
z
" clip-path="url(#p74032b21a7)" style="fill: #cccccc"/>
    <path d="M 416.834776 219.13269 
L 411.401484 210.166114 
L 406.35091 219.226086 
z
" clip-path="url(#p74032b21a7)" style="fill: #cccccc"/>
    <path d="M 404.174896 257.895833 
L 414.136875 257.895833 
L 409.155885 250.732592 
z
" clip-path="url(#p74032b21a7)" style="fill: #cccccc"/>
    <path d="M 426.651614 204.909085 
L 426.527504 193.142969 
L 420.419548 199.79535 
z
" clip-path="url(#p74032b21a7)" style="fill: #cccccc"/>
    <path d="M 397.86106 244.285711 
L 399.193906 251.936972 
L 409.155885 250.732592 
z
" clip-path="url(#p74032b21a7)" style="fill: #cccccc"/>
    <path d="M 423.783688 245.744752 
L 417.219933 250.43862 
L 424.098854 257.895833 
z
" clip-path="url(#p74032b21a7)" style="fill: #cccccc"/>
    <path d="M 409.155885 250.732592 
L 404.007464 239.170529 
L 397.86106 244.285711 
z
" clip-path="url(#p74032b21a7)" style="fill: #cccccc"/>
    <path d="M 404.007464 239.170529 
L 411.369029 242.293145 
L 411.37645 234.947007 
z
" clip-path="url(#p74032b21a7)" style="fill: #cccccc"/>
    <path d="M 416.423264 229.608893 
L 406.35091 219.226086 
L 406.340432 229.598707 
z
" clip-path="url(#p74032b21a7)" style="fill: #cccccc"/>
    <path d="M 411.401484 210.166114 
L 406.020952 199.557835 
L 399.195882 209.29971 
z
" clip-path="url(#p74032b21a7)" style="fill: #cccccc"/>
    <path d="M 404.007464 239.170529 
L 411.37645 234.947007 
L 406.340432 229.598707 
z
" clip-path="url(#p74032b21a7)" style="fill: #cccccc"/>
    <path d="M 417.219933 250.43862 
L 419.129936 238.564993 
L 411.369029 242.293145 
z
" clip-path="url(#p74032b21a7)" style="fill: #cccccc"/>
    <path d="M 416.423264 229.608893 
L 425.621137 232.990885 
L 425.727316 223.028906 
z
" clip-path="url(#p74032b21a7)" style="fill: #cccccc"/>
    <path d="M 434.060833 218.047917 
L 424.917176 212.781864 
L 425.727316 223.028906 
z
" clip-path="url(#p74032b21a7)" style="fill: #cccccc"/>
    <path d="M 387.325958 207.893428 
L 399.195882 209.29971 
L 394.212917 198.123958 
z
" clip-path="url(#p74032b21a7)" style="fill: #cccccc"/>
    <path d="M 406.35091 219.226086 
L 399.195882 209.29971 
L 392.546643 216.36603 
z
" clip-path="url(#p74032b21a7)" style="fill: #cccccc"/>
    <path d="M 424.917176 212.781864 
L 434.060833 218.047917 
L 434.060833 208.085938 
z
" clip-path="url(#p74032b21a7)" style="fill: #cccccc"/>
    <path d="M 425.621137 232.990885 
L 434.060833 228.009896 
L 425.727316 223.028906 
z
" clip-path="url(#p74032b21a7)" style="fill: #cccccc"/>
    <path d="M 426.651614 204.909085 
L 424.917176 212.781864 
L 434.060833 208.085938 
z
" clip-path="url(#p74032b21a7)" style="fill: #cccccc"/>
    <path d="M 416.423264 229.608893 
L 425.727316 223.028906 
L 416.834776 219.13269 
z
" clip-path="url(#p74032b21a7)" style="fill: #cccccc"/>
    <path d="M 416.423264 229.608893 
L 411.37645 234.947007 
L 419.129936 238.564993 
z
" clip-path="url(#p74032b21a7)" style="fill: #cccccc"/>
    <path d="M 434.060833 237.971875 
L 434.060833 228.009896 
L 425.621137 232.990885 
z
" clip-path="url(#p74032b21a7)" style="fill: #cccccc"/>
    <path d="M 411.369029 242.293145 
L 409.155885 250.732592 
L 417.219933 250.43862 
z
" clip-path="url(#p74032b21a7)" style="fill: #cccccc"/>
    <path d="M 434.060833 247.933854 
L 434.060833 237.971875 
L 423.783688 245.744752 
z
" clip-path="url(#p74032b21a7)" style="fill: #cccccc"/>
    <path d="M 434.060833 198.123958 
L 426.527504 193.142969 
L 426.651614 204.909085 
z
" clip-path="url(#p74032b21a7)" style="fill: #cccccc"/>
    <path d="M 425.727316 223.028906 
L 424.917176 212.781864 
L 416.834776 219.13269 
z
" clip-path="url(#p74032b21a7)" style="fill: #cccccc"/>
    <path d="M 416.834776 219.13269 
L 424.917176 212.781864 
L 418.911038 207.589884 
z
" clip-path="url(#p74032b21a7)" style="fill: #cccccc"/>
    <path d="M 399.193906 251.936972 
L 384.250937 247.933854 
L 394.212917 257.895833 
z
" clip-path="url(#p74032b21a7)" style="fill: #cccccc"/>
    <path d="M 397.523675 234.490375 
L 390.024201 242.260455 
L 397.86106 244.285711 
z
" clip-path="url(#p74032b21a7)" style="fill: #cccccc"/>
    <path d="M 387.722536 234.500276 
L 397.523675 234.490375 
L 387.937591 224.904291 
z
" clip-path="url(#p74032b21a7)" style="fill: #cccccc"/>
    <path d="M 378.445563 226.329276 
L 384.464341 217.51625 
L 373.915993 220.614643 
z
" clip-path="url(#p74032b21a7)" style="fill: #cccccc"/>
    <path d="M 417.219933 250.43862 
L 409.155885 250.732592 
L 414.136875 257.895833 
z
" clip-path="url(#p74032b21a7)" style="fill: #cccccc"/>
    <path d="M 390.024201 242.260455 
L 399.193906 251.936972 
L 397.86106 244.285711 
z
" clip-path="url(#p74032b21a7)" style="fill: #cccccc"/>
    <path d="M 409.155885 250.732592 
L 411.369029 242.293145 
L 404.007464 239.170529 
z
" clip-path="url(#p74032b21a7)" style="fill: #cccccc"/>
    <path d="M 424.098854 257.895833 
L 434.060833 257.895833 
L 434.060833 247.933854 
z
" clip-path="url(#p74032b21a7)" style="fill: #cccccc"/>
    <path d="M 417.219933 250.43862 
L 423.783688 245.744752 
L 419.129936 238.564993 
z
" clip-path="url(#p74032b21a7)" style="fill: #cccccc"/>
    <path d="M 394.212917 257.895833 
L 404.174896 257.895833 
L 399.193906 251.936972 
z
" clip-path="url(#p74032b21a7)" style="fill: #cccccc"/>
    <path d="M 417.219933 250.43862 
L 414.136875 257.895833 
L 424.098854 257.895833 
z
" clip-path="url(#p74032b21a7)" style="fill: #cccccc"/>
    <path d="M 409.155885 250.732592 
L 399.193906 251.936972 
L 404.174896 257.895833 
z
" clip-path="url(#p74032b21a7)" style="fill: #cccccc"/>
    <path d="M 406.020952 199.557835 
L 418.911038 207.589884 
L 420.419548 199.79535 
z
" clip-path="url(#p74032b21a7)" style="fill: #cccccc"/>
    <path d="M 406.020952 199.557835 
L 420.419548 199.79535 
L 413.341374 192.333818 
z
" clip-path="url(#p74032b21a7)" style="fill: #cccccc"/>
    <path d="M 382.607371 197.254868 
L 387.325958 207.893428 
L 394.212917 198.123958 
z
" clip-path="url(#p74032b21a7)" style="fill: #cccccc"/>
    <path d="M 378.445563 226.329276 
L 387.937591 224.904291 
L 384.464341 217.51625 
z
" clip-path="url(#p74032b21a7)" style="fill: #cccccc"/>
    <path d="M 416.423264 229.608893 
L 419.129936 238.564993 
L 425.621137 232.990885 
z
" clip-path="url(#p74032b21a7)" style="fill: #cccccc"/>
    <path d="M 411.369029 242.293145 
L 419.129936 238.564993 
L 411.37645 234.947007 
z
" clip-path="url(#p74032b21a7)" style="fill: #cccccc"/>
    <path d="M 426.82027 183.18099 
L 434.060833 188.161979 
L 434.060833 178.2 
z
" clip-path="url(#p74032b21a7)" style="fill: #cccccc"/>
    <path d="M 424.098854 257.895833 
L 434.060833 247.933854 
L 423.783688 245.744752 
z
" clip-path="url(#p74032b21a7)" style="fill: #cccccc"/>
    <path d="M 411.401484 210.166114 
L 418.911038 207.589884 
L 406.020952 199.557835 
z
" clip-path="url(#p74032b21a7)" style="fill: #cccccc"/>
    <path d="M 434.060833 198.123958 
L 426.651614 204.909085 
L 434.060833 208.085938 
z
" clip-path="url(#p74032b21a7)" style="fill: #cccccc"/>
    <path d="M 418.911038 207.589884 
L 426.651614 204.909085 
L 420.419548 199.79535 
z
" clip-path="url(#p74032b21a7)" style="fill: #cccccc"/>
    <path d="M 397.533576 224.689236 
L 406.35091 219.226086 
L 392.546643 216.36603 
z
" clip-path="url(#p74032b21a7)" style="fill: #cccccc"/>
    <path d="M 377.0763 214.043 
L 373.915993 220.614643 
L 384.464341 217.51625 
z
" clip-path="url(#p74032b21a7)" style="fill: #cccccc"/>
    <path d="M 399.195882 209.29971 
L 387.325958 207.893428 
L 392.546643 216.36603 
z
" clip-path="url(#p74032b21a7)" style="fill: #cccccc"/>
    <path d="M 384.464341 217.51625 
L 387.325958 207.893428 
L 377.0763 214.043 
z
" clip-path="url(#p74032b21a7)" style="fill: #cccccc"/>
    <path d="M 387.937591 224.904291 
L 392.546643 216.36603 
L 384.464341 217.51625 
z
" clip-path="url(#p74032b21a7)" style="fill: #cccccc"/>
    <path d="M 387.325958 207.893428 
L 384.464341 217.51625 
L 392.546643 216.36603 
z
" clip-path="url(#p74032b21a7)" style="fill: #cccccc"/>
    <path d="M 364.998 207.114466 
L 377.0763 214.043 
L 378.804657 205.307222 
z
" clip-path="url(#p74032b21a7)" style="fill: #cccccc"/>
    <path d="M 354.365 228.009896 
L 354.365 237.971875 
L 363.587285 231.979779 
z
" clip-path="url(#p74032b21a7)" style="fill: #cccccc"/>
    <path d="M 374.288958 237.971875 
L 363.587285 231.979779 
L 364.326979 242.952865 
z
" clip-path="url(#p74032b21a7)" style="fill: #cccccc"/>
    <path d="M 354.365 228.009896 
L 366.668807 221.422317 
L 354.365 218.047917 
z
" clip-path="url(#p74032b21a7)" style="fill: #cccccc"/>
    <path d="M 366.668807 221.422317 
L 363.587285 231.979779 
L 370.702105 228.328009 
z
" clip-path="url(#p74032b21a7)" style="fill: #cccccc"/>
    <path d="M 374.288958 237.971875 
L 370.702105 228.328009 
L 363.587285 231.979779 
z
" clip-path="url(#p74032b21a7)" style="fill: #cccccc"/>
    <path d="M 366.668807 221.422317 
L 354.365 228.009896 
L 363.587285 231.979779 
z
" clip-path="url(#p74032b21a7)" style="fill: #cccccc"/>
    <path d="M 336.54447 222.254773 
L 354.365 228.009896 
L 354.365 218.047917 
z
" clip-path="url(#p74032b21a7)" style="fill: #b3e2cd"/>
    <path d="M 418.031868 183.18099 
L 426.82027 183.18099 
L 422.426069 169.040326 
z
" clip-path="url(#p74032b21a7)" style="fill: #cccccc"/>
    <path d="M 405.884101 126.680899 
L 409.544308 136.780993 
L 414.682286 129.20576 
z
" clip-path="url(#p74032b21a7)" style="fill: #cccccc"/>
    <path d="M 363.294335 193.259012 
L 373.095276 190.549345 
L 365.932514 183.721406 
z
" clip-path="url(#p74032b21a7)" style="fill: #cccccc"/>
    <path d="M 366.668807 221.422317 
L 361.889892 214.728897 
L 354.365 218.047917 
z
" clip-path="url(#p74032b21a7)" style="fill: #cccccc"/>
    <path d="M 416.834776 219.13269 
L 418.911038 207.589884 
L 411.401484 210.166114 
z
" clip-path="url(#p74032b21a7)" style="fill: #cccccc"/>
    <path d="M 426.651614 204.909085 
L 418.911038 207.589884 
L 424.917176 212.781864 
z
" clip-path="url(#p74032b21a7)" style="fill: #cccccc"/>
    <path d="M 396.162604 149.15884 
L 401.863478 141.97056 
L 393.004326 139.560674 
z
" clip-path="url(#p74032b21a7)" style="fill: #cccccc"/>
    <path d="M 434.060833 198.123958 
L 434.060833 188.161979 
L 426.527504 193.142969 
z
" clip-path="url(#p74032b21a7)" style="fill: #cccccc"/>
    <path d="M 402.237302 171.500055 
L 389.982434 176.693565 
L 398.041515 178.654821 
z
" clip-path="url(#p74032b21a7)" style="fill: #cccccc"/>
    <path d="M 426.82027 183.18099 
L 426.527504 193.142969 
L 434.060833 188.161979 
z
" clip-path="url(#p74032b21a7)" style="fill: #cccccc"/>
    <path d="M 413.341374 192.333818 
L 426.527504 193.142969 
L 418.031868 183.18099 
z
" clip-path="url(#p74032b21a7)" style="fill: #cccccc"/>
    <path d="M 422.426069 169.040326 
L 426.82027 183.18099 
L 434.060833 178.2 
z
" clip-path="url(#p74032b21a7)" style="fill: #cccccc"/>
    <path d="M 426.527504 193.142969 
L 426.82027 183.18099 
L 418.031868 183.18099 
z
" clip-path="url(#p74032b21a7)" style="fill: #cccccc"/>
    <path d="M 413.481991 153.083749 
L 424.631956 148.479912 
L 415.644502 145.623881 
z
" clip-path="url(#p74032b21a7)" style="fill: #cccccc"/>
    <path d="M 423.234921 157.806194 
L 427.908989 163.788909 
L 434.060833 158.276042 
z
" clip-path="url(#p74032b21a7)" style="fill: #cccccc"/>
    <path d="M 380.124551 152.440449 
L 380.699823 165.895497 
L 389.298241 158.788049 
z
" clip-path="url(#p74032b21a7)" style="fill: #cccccc"/>
    <path d="M 377.0763 214.043 
L 366.668807 221.422317 
L 373.915993 220.614643 
z
" clip-path="url(#p74032b21a7)" style="fill: #cccccc"/>
    <path d="M 370.702105 228.328009 
L 373.915993 220.614643 
L 366.668807 221.422317 
z
" clip-path="url(#p74032b21a7)" style="fill: #cccccc"/>
    <path d="M 382.607371 197.254868 
L 388.833241 192.039513 
L 383.453565 185.955067 
z
" clip-path="url(#p74032b21a7)" style="fill: #cccccc"/>
    <path d="M 387.325958 207.893428 
L 378.804657 205.307222 
L 377.0763 214.043 
z
" clip-path="url(#p74032b21a7)" style="fill: #cccccc"/>
    <path d="M 354.365 198.123958 
L 361.458835 200.517173 
L 363.294335 193.259012 
z
" clip-path="url(#p74032b21a7)" style="fill: #cccccc"/>
    <path d="M 383.453565 185.955067 
L 373.095276 190.549345 
L 382.607371 197.254868 
z
" clip-path="url(#p74032b21a7)" style="fill: #cccccc"/>
    <path d="M 336.632855 183.18099 
L 354.365 198.123958 
L 354.365 188.161979 
z
" clip-path="url(#p74032b21a7)" style="fill: #b3e2cd"/>
    <path d="M 373.095276 190.549345 
L 371.064566 199.818299 
L 382.607371 197.254868 
z
" clip-path="url(#p74032b21a7)" style="fill: #cccccc"/>
    <path d="M 361.458835 200.517173 
L 371.064566 199.818299 
L 363.294335 193.259012 
z
" clip-path="url(#p74032b21a7)" style="fill: #cccccc"/>
    <path d="M 361.458835 200.517173 
L 354.365 208.085938 
L 364.998 207.114466 
z
" clip-path="url(#p74032b21a7)" style="fill: #cccccc"/>
    <path d="M 377.0763 214.043 
L 364.998 207.114466 
L 361.889892 214.728897 
z
" clip-path="url(#p74032b21a7)" style="fill: #cccccc"/>
    <path d="M 400.723131 193.848844 
L 388.833241 192.039513 
L 394.212917 198.123958 
z
" clip-path="url(#p74032b21a7)" style="fill: #cccccc"/>
    <path d="M 397.068006 165.486833 
L 402.237302 171.500055 
L 405.672239 164.31669 
z
" clip-path="url(#p74032b21a7)" style="fill: #cccccc"/>
    <path d="M 388.833241 192.039513 
L 382.607371 197.254868 
L 394.212917 198.123958 
z
" clip-path="url(#p74032b21a7)" style="fill: #cccccc"/>
    <path d="M 373.808002 169.450596 
L 373.684663 158.880337 
L 367.244775 165.320225 
z
" clip-path="url(#p74032b21a7)" style="fill: #cccccc"/>
    <path d="M 400.723131 193.848844 
L 394.212917 198.123958 
L 406.020952 199.557835 
z
" clip-path="url(#p74032b21a7)" style="fill: #cccccc"/>
    <path d="M 389.982434 176.693565 
L 383.453565 185.955067 
L 388.833241 192.039513 
z
" clip-path="url(#p74032b21a7)" style="fill: #cccccc"/>
    <path d="M 401.662 186.11722 
L 400.723131 193.848844 
L 413.341374 192.333818 
z
" clip-path="url(#p74032b21a7)" style="fill: #cccccc"/>
    <path d="M 422.426069 169.040326 
L 412.827257 160.82309 
L 412.544356 172.015736 
z
" clip-path="url(#p74032b21a7)" style="fill: #cccccc"/>
    <path d="M 383.453565 185.955067 
L 381.602642 174.508339 
L 376.359703 183.935271 
z
" clip-path="url(#p74032b21a7)" style="fill: #cccccc"/>
    <path d="M 360.804888 171.760112 
L 373.808002 169.450596 
L 367.244775 165.320225 
z
" clip-path="url(#p74032b21a7)" style="fill: #cccccc"/>
    <path d="M 365.932514 183.721406 
L 360.804888 171.760112 
L 354.365 178.2 
z
" clip-path="url(#p74032b21a7)" style="fill: #cccccc"/>
    <path d="M 381.602642 174.508339 
L 383.453565 185.955067 
L 389.982434 176.693565 
z
" clip-path="url(#p74032b21a7)" style="fill: #cccccc"/>
    <path d="M 365.932514 183.721406 
L 376.359703 183.935271 
L 373.369221 177.192908 
z
" clip-path="url(#p74032b21a7)" style="fill: #cccccc"/>
    <path d="M 382.607371 197.254868 
L 371.064566 199.818299 
L 378.804657 205.307222 
z
" clip-path="url(#p74032b21a7)" style="fill: #cccccc"/>
    <path d="M 371.064566 199.818299 
L 373.095276 190.549345 
L 363.294335 193.259012 
z
" clip-path="url(#p74032b21a7)" style="fill: #cccccc"/>
    <path d="M 373.095276 190.549345 
L 376.359703 183.935271 
L 365.932514 183.721406 
z
" clip-path="url(#p74032b21a7)" style="fill: #cccccc"/>
    <path d="M 354.365 188.161979 
L 354.365 198.123958 
L 363.294335 193.259012 
z
" clip-path="url(#p74032b21a7)" style="fill: #cccccc"/>
    <path d="M 354.365 208.085938 
L 354.365 218.047917 
L 361.889892 214.728897 
z
" clip-path="url(#p74032b21a7)" style="fill: #cccccc"/>
    <path d="M 371.064566 199.818299 
L 361.458835 200.517173 
L 364.998 207.114466 
z
" clip-path="url(#p74032b21a7)" style="fill: #cccccc"/>
    <path d="M 361.458835 200.517173 
L 354.365 198.123958 
L 354.365 208.085938 
z
" clip-path="url(#p74032b21a7)" style="fill: #cccccc"/>
    <path d="M 354.365 198.123958 
L 336.632855 183.18099 
L 329.985909 209.137652 
z
" clip-path="url(#p74032b21a7)" style="fill: #b3e2cd"/>
    <path d="M 373.369221 177.192908 
L 373.808002 169.450596 
L 360.804888 171.760112 
z
" clip-path="url(#p74032b21a7)" style="fill: #cccccc"/>
    <path d="M 354.365 188.161979 
L 365.932514 183.721406 
L 354.365 178.2 
z
" clip-path="url(#p74032b21a7)" style="fill: #cccccc"/>
    <path d="M 365.932514 183.721406 
L 354.365 188.161979 
L 363.294335 193.259012 
z
" clip-path="url(#p74032b21a7)" style="fill: #cccccc"/>
    <path d="M 373.369221 177.192908 
L 360.804888 171.760112 
L 365.932514 183.721406 
z
" clip-path="url(#p74032b21a7)" style="fill: #cccccc"/>
    <path d="M 336.632855 183.18099 
L 354.365 188.161979 
L 354.365 178.2 
z
" clip-path="url(#p74032b21a7)" style="fill: #b3e2cd"/>
    <path d="M 328.605449 152.440449 
L 336.632855 183.18099 
L 354.365 178.2 
z
" clip-path="url(#p74032b21a7)" style="fill: #b3e2cd"/>
    <path d="M 354.365 198.123958 
L 329.985909 209.137652 
L 354.365 208.085938 
z
" clip-path="url(#p74032b21a7)" style="fill: #b3e2cd"/>
    <path d="M 310.310227 169.786287 
L 323.427348 196.02053 
L 336.632855 183.18099 
z
" clip-path="url(#p74032b21a7)" style="fill: #b3e2cd"/>
    <path d="M 377.0763 214.043 
L 361.889892 214.728897 
L 366.668807 221.422317 
z
" clip-path="url(#p74032b21a7)" style="fill: #cccccc"/>
    <path d="M 354.365 208.085938 
L 361.889892 214.728897 
L 364.998 207.114466 
z
" clip-path="url(#p74032b21a7)" style="fill: #cccccc"/>
    <path d="M 413.341374 192.333818 
L 400.723131 193.848844 
L 406.020952 199.557835 
z
" clip-path="url(#p74032b21a7)" style="fill: #cccccc"/>
    <path d="M 388.833241 192.039513 
L 400.723131 193.848844 
L 401.662 186.11722 
z
" clip-path="url(#p74032b21a7)" style="fill: #cccccc"/>
    <path d="M 381.602642 174.508339 
L 380.699823 165.895497 
L 373.808002 169.450596 
z
" clip-path="url(#p74032b21a7)" style="fill: #cccccc"/>
    <path d="M 397.068006 165.486833 
L 389.298241 158.788049 
L 389.467335 167.747418 
z
" clip-path="url(#p74032b21a7)" style="fill: #cccccc"/>
    <path d="M 381.602642 174.508339 
L 373.808002 169.450596 
L 373.369221 177.192908 
z
" clip-path="url(#p74032b21a7)" style="fill: #cccccc"/>
    <path d="M 380.699823 165.895497 
L 380.124551 152.440449 
L 373.684663 158.880337 
z
" clip-path="url(#p74032b21a7)" style="fill: #cccccc"/>
    <path d="M 373.684663 158.880337 
L 373.808002 169.450596 
L 380.699823 165.895497 
z
" clip-path="url(#p74032b21a7)" style="fill: #cccccc"/>
    <path d="M 376.359703 183.935271 
L 381.602642 174.508339 
L 373.369221 177.192908 
z
" clip-path="url(#p74032b21a7)" style="fill: #cccccc"/>
    <path d="M 389.467335 167.747418 
L 381.602642 174.508339 
L 389.982434 176.693565 
z
" clip-path="url(#p74032b21a7)" style="fill: #cccccc"/>
    <path d="M 423.234921 157.806194 
L 424.631956 148.479912 
L 413.481991 153.083749 
z
" clip-path="url(#p74032b21a7)" style="fill: #cccccc"/>
    <path d="M 380.124551 152.440449 
L 389.298241 158.788049 
L 386.564438 146.000562 
z
" clip-path="url(#p74032b21a7)" style="fill: #cccccc"/>
    <path d="M 389.467335 167.747418 
L 389.298241 158.788049 
L 380.699823 165.895497 
z
" clip-path="url(#p74032b21a7)" style="fill: #cccccc"/>
    <path d="M 389.298241 158.788049 
L 396.162604 149.15884 
L 386.564438 146.000562 
z
" clip-path="url(#p74032b21a7)" style="fill: #cccccc"/>
    <path d="M 381.602642 174.508339 
L 389.467335 167.747418 
L 380.699823 165.895497 
z
" clip-path="url(#p74032b21a7)" style="fill: #cccccc"/>
    <path d="M 389.982434 176.693565 
L 402.237302 171.500055 
L 397.068006 165.486833 
z
" clip-path="url(#p74032b21a7)" style="fill: #cccccc"/>
    <path d="M 407.028067 179.008514 
L 418.031868 183.18099 
L 412.544356 172.015736 
z
" clip-path="url(#p74032b21a7)" style="fill: #cccccc"/>
    <path d="M 412.544356 172.015736 
L 412.827257 160.82309 
L 405.672239 164.31669 
z
" clip-path="url(#p74032b21a7)" style="fill: #cccccc"/>
    <path d="M 396.162604 149.15884 
L 400.443712 158.311523 
L 406.369987 149.961975 
z
" clip-path="url(#p74032b21a7)" style="fill: #cccccc"/>
    <path d="M 406.369987 149.961975 
L 401.863478 141.97056 
L 396.162604 149.15884 
z
" clip-path="url(#p74032b21a7)" style="fill: #cccccc"/>
    <path d="M 396.162604 149.15884 
L 389.298241 158.788049 
L 400.443712 158.311523 
z
" clip-path="url(#p74032b21a7)" style="fill: #cccccc"/>
    <path d="M 393.004326 139.560674 
L 386.564438 146.000562 
L 396.162604 149.15884 
z
" clip-path="url(#p74032b21a7)" style="fill: #cccccc"/>
    <path d="M 413.481991 153.083749 
L 415.644502 145.623881 
L 406.369987 149.961975 
z
" clip-path="url(#p74032b21a7)" style="fill: #cccccc"/>
    <path d="M 415.644502 145.623881 
L 421.984689 134.724626 
L 409.544308 136.780993 
z
" clip-path="url(#p74032b21a7)" style="fill: #cccccc"/>
    <path d="M 412.827257 160.82309 
L 406.369987 149.961975 
L 400.443712 158.311523 
z
" clip-path="url(#p74032b21a7)" style="fill: #cccccc"/>
    <path d="M 399.444214 133.120786 
L 401.863478 141.97056 
L 409.544308 136.780993 
z
" clip-path="url(#p74032b21a7)" style="fill: #cccccc"/>
    <path d="M 405.672239 164.31669 
L 412.827257 160.82309 
L 400.443712 158.311523 
z
" clip-path="url(#p74032b21a7)" style="fill: #cccccc"/>
    <path d="M 427.908989 163.788909 
L 423.234921 157.806194 
L 422.426069 169.040326 
z
" clip-path="url(#p74032b21a7)" style="fill: #cccccc"/>
    <path d="M 426.697585 140.94999 
L 415.644502 145.623881 
L 424.631956 148.479912 
z
" clip-path="url(#p74032b21a7)" style="fill: #cccccc"/>
    <path d="M 409.544308 136.780993 
L 406.369987 149.961975 
L 415.644502 145.623881 
z
" clip-path="url(#p74032b21a7)" style="fill: #cccccc"/>
    <path d="M 405.884101 126.680899 
L 399.444214 133.120786 
L 409.544308 136.780993 
z
" clip-path="url(#p74032b21a7)" style="fill: #cccccc"/>
    <path d="M 406.369987 149.961975 
L 412.827257 160.82309 
L 413.481991 153.083749 
z
" clip-path="url(#p74032b21a7)" style="fill: #cccccc"/>
    <path d="M 423.234921 157.806194 
L 413.481991 153.083749 
L 412.827257 160.82309 
z
" clip-path="url(#p74032b21a7)" style="fill: #cccccc"/>
    <path d="M 422.426069 169.040326 
L 423.234921 157.806194 
L 412.827257 160.82309 
z
" clip-path="url(#p74032b21a7)" style="fill: #cccccc"/>
    <path d="M 421.984689 134.724626 
L 426.697585 140.94999 
L 434.060833 138.352083 
z
" clip-path="url(#p74032b21a7)" style="fill: #cccccc"/>
    <path d="M 409.544308 136.780993 
L 401.863478 141.97056 
L 406.369987 149.961975 
z
" clip-path="url(#p74032b21a7)" style="fill: #cccccc"/>
    <path d="M 393.004326 139.560674 
L 401.863478 141.97056 
L 399.444214 133.120786 
z
" clip-path="url(#p74032b21a7)" style="fill: #cccccc"/>
    <path d="M 426.68216 116.31786 
L 427.01665 105.54835 
L 419.972467 112.592533 
z
" clip-path="url(#p74032b21a7)" style="fill: #cccccc"/>
    <path d="M 409.544308 136.780993 
L 421.984689 134.724626 
L 414.682286 129.20576 
z
" clip-path="url(#p74032b21a7)" style="fill: #cccccc"/>
    <path d="M 423.742994 123.407242 
L 419.972467 112.592533 
L 412.928284 119.636716 
z
" clip-path="url(#p74032b21a7)" style="fill: #cccccc"/>
    <path d="M 434.060833 158.276042 
L 434.060833 148.314062 
L 424.631956 148.479912 
z
" clip-path="url(#p74032b21a7)" style="fill: #cccccc"/>
    <path d="M 423.742994 123.407242 
L 434.060833 128.390104 
L 434.060833 118.428125 
z
" clip-path="url(#p74032b21a7)" style="fill: #cccccc"/>
    <path d="M 434.060833 158.276042 
L 424.631956 148.479912 
L 423.234921 157.806194 
z
" clip-path="url(#p74032b21a7)" style="fill: #cccccc"/>
    <path d="M 434.060833 148.314062 
L 434.060833 138.352083 
L 426.697585 140.94999 
z
" clip-path="url(#p74032b21a7)" style="fill: #cccccc"/>
    <path d="M 434.060833 128.390104 
L 421.984689 134.724626 
L 434.060833 138.352083 
z
" clip-path="url(#p74032b21a7)" style="fill: #cccccc"/>
    <path d="M 412.928284 119.636716 
L 414.682286 129.20576 
L 423.742994 123.407242 
z
" clip-path="url(#p74032b21a7)" style="fill: #cccccc"/>
    <path d="M 434.060833 118.428125 
L 426.68216 116.31786 
L 423.742994 123.407242 
z
" clip-path="url(#p74032b21a7)" style="fill: #cccccc"/>
    <path d="M 423.742994 123.407242 
L 414.682286 129.20576 
L 421.984689 134.724626 
z
" clip-path="url(#p74032b21a7)" style="fill: #cccccc"/>
    <path d="M 412.928284 119.636716 
L 405.884101 126.680899 
L 414.682286 129.20576 
z
" clip-path="url(#p74032b21a7)" style="fill: #cccccc"/>
    <path d="M 427.01665 105.54835 
L 434.060833 108.466146 
L 434.060833 98.504167 
z
" clip-path="url(#p74032b21a7)" style="fill: #cccccc"/>
    <path d="M 421.984689 134.724626 
L 434.060833 128.390104 
L 423.742994 123.407242 
z
" clip-path="url(#p74032b21a7)" style="fill: #cccccc"/>
    <path d="M 419.972467 112.592533 
L 423.742994 123.407242 
L 426.68216 116.31786 
z
" clip-path="url(#p74032b21a7)" style="fill: #cccccc"/>
    <path d="M 426.68216 116.31786 
L 434.060833 108.466146 
L 427.01665 105.54835 
z
" clip-path="url(#p74032b21a7)" style="fill: #cccccc"/>
    <path d="M 434.060833 108.466146 
L 426.68216 116.31786 
L 434.060833 118.428125 
z
" clip-path="url(#p74032b21a7)" style="fill: #cccccc"/>
    <path d="M 389.298241 158.788049 
L 397.068006 165.486833 
L 400.443712 158.311523 
z
" clip-path="url(#p74032b21a7)" style="fill: #cccccc"/>
    <path d="M 389.982434 176.693565 
L 397.068006 165.486833 
L 389.467335 167.747418 
z
" clip-path="url(#p74032b21a7)" style="fill: #cccccc"/>
    <path d="M 388.833241 192.039513 
L 398.041515 178.654821 
L 389.982434 176.693565 
z
" clip-path="url(#p74032b21a7)" style="fill: #cccccc"/>
    <path d="M 407.028067 179.008514 
L 398.041515 178.654821 
L 401.662 186.11722 
z
" clip-path="url(#p74032b21a7)" style="fill: #cccccc"/>
    <path d="M 397.068006 165.486833 
L 405.672239 164.31669 
L 400.443712 158.311523 
z
" clip-path="url(#p74032b21a7)" style="fill: #cccccc"/>
    <path d="M 405.672239 164.31669 
L 402.237302 171.500055 
L 412.544356 172.015736 
z
" clip-path="url(#p74032b21a7)" style="fill: #cccccc"/>
    <path d="M 407.028067 179.008514 
L 412.544356 172.015736 
L 402.237302 171.500055 
z
" clip-path="url(#p74032b21a7)" style="fill: #cccccc"/>
    <path d="M 418.031868 183.18099 
L 422.426069 169.040326 
L 412.544356 172.015736 
z
" clip-path="url(#p74032b21a7)" style="fill: #cccccc"/>
    <path d="M 398.041515 178.654821 
L 407.028067 179.008514 
L 402.237302 171.500055 
z
" clip-path="url(#p74032b21a7)" style="fill: #cccccc"/>
    <path d="M 407.028067 179.008514 
L 401.662 186.11722 
L 413.341374 192.333818 
z
" clip-path="url(#p74032b21a7)" style="fill: #cccccc"/>
    <path d="M 415.644502 145.623881 
L 426.697585 140.94999 
L 421.984689 134.724626 
z
" clip-path="url(#p74032b21a7)" style="fill: #cccccc"/>
    <path d="M 434.060833 148.314062 
L 426.697585 140.94999 
L 424.631956 148.479912 
z
" clip-path="url(#p74032b21a7)" style="fill: #cccccc"/>
    <path d="M 426.527504 193.142969 
L 413.341374 192.333818 
L 420.419548 199.79535 
z
" clip-path="url(#p74032b21a7)" style="fill: #cccccc"/>
    <path d="M 413.341374 192.333818 
L 418.031868 183.18099 
L 407.028067 179.008514 
z
" clip-path="url(#p74032b21a7)" style="fill: #cccccc"/>
    <path d="M 422.426069 169.040326 
L 434.060833 168.238021 
L 427.908989 163.788909 
z
" clip-path="url(#p74032b21a7)" style="fill: #cccccc"/>
    <path d="M 422.426069 169.040326 
L 434.060833 178.2 
L 434.060833 168.238021 
z
" clip-path="url(#p74032b21a7)" style="fill: #cccccc"/>
    <path d="M 434.060833 158.276042 
L 427.908989 163.788909 
L 434.060833 168.238021 
z
" clip-path="url(#p74032b21a7)" style="fill: #cccccc"/>
    <path d="M 354.365 247.933854 
L 366.817474 250.424349 
L 364.326979 242.952865 
z
" clip-path="url(#p74032b21a7)" style="fill: #cccccc"/>
    <path d="M 364.326979 257.895833 
L 366.817474 250.424349 
L 354.365 247.933854 
z
" clip-path="url(#p74032b21a7)" style="fill: #cccccc"/>
    <path d="M 374.288958 257.895833 
L 366.817474 250.424349 
L 364.326979 257.895833 
z
" clip-path="url(#p74032b21a7)" style="fill: #cccccc"/>
   </g>
   <g id="line2d_11">
    <path d="M 302.845899 126.680899 
L 274.669167 98.504167 
M 328.605449 152.440449 
L 354.365 178.2 
M 328.605449 152.440449 
L 310.310227 169.786287 
M 328.605449 152.440449 
L 302.845899 126.680899 
M 292.489697 134.145227 
L 274.669167 98.504167 
M 292.489697 134.145227 
L 310.310227 169.786287 
M 292.489697 134.145227 
L 302.845899 126.680899 
M 292.489697 134.145227 
L 328.605449 152.440449 
M 354.365 218.047917 
L 336.54447 222.254773 
M 323.427348 196.02053 
L 310.310227 169.786287 
M 345.454735 240.075303 
L 336.54447 222.254773 
M 345.454735 240.075303 
L 354.365 237.971875 
M 384.250937 247.933854 
L 394.212917 257.895833 
M 384.250937 247.933854 
L 374.288958 257.895833 
M 374.288958 247.933854 
L 374.288958 237.971875 
M 374.288958 247.933854 
L 374.288958 257.895833 
M 374.288958 247.933854 
L 384.250937 247.933854 
M 364.326979 242.952865 
L 374.288958 237.971875 
M 364.326979 242.952865 
L 354.365 237.971875 
M 364.326979 242.952865 
L 374.288958 247.933854 
M 354.365 247.933854 
L 354.365 257.895833 
M 354.365 247.933854 
L 354.365 237.971875 
M 354.365 247.933854 
L 364.326979 242.952865 
M 349.909867 248.985568 
L 354.365 257.895833 
M 349.909867 248.985568 
L 354.365 237.971875 
M 349.909867 248.985568 
L 345.454735 240.075303 
M 349.909867 248.985568 
L 354.365 247.933854 
M 384.250937 257.895833 
L 394.212917 257.895833 
M 384.250937 257.895833 
L 374.288958 257.895833 
M 384.250937 257.895833 
L 384.250937 247.933854 
M 382.028629 240.194183 
L 374.288958 237.971875 
M 382.028629 240.194183 
L 384.250937 247.933854 
M 382.028629 240.194183 
L 374.288958 247.933854 
M 382.028629 240.194183 
L 387.722536 234.500276 
M 397.523675 234.490375 
L 397.533576 224.689236 
M 397.523675 234.490375 
L 387.722536 234.500276 
M 397.523675 234.490375 
L 397.86106 244.285711 
M 406.340432 229.598707 
L 397.533576 224.689236 
M 406.340432 229.598707 
L 397.523675 234.490375 
M 406.340432 229.598707 
L 416.423264 229.608893 
M 404.007464 239.170529 
L 397.86106 244.285711 
M 404.007464 239.170529 
L 397.523675 234.490375 
M 404.007464 239.170529 
L 406.340432 229.598707 
M 404.007464 239.170529 
L 411.369029 242.293145 
M 406.35091 219.226086 
L 397.533576 224.689236 
M 406.35091 219.226086 
L 416.423264 229.608893 
M 406.35091 219.226086 
L 406.340432 229.598707 
M 406.35091 219.226086 
L 411.401484 210.166114 
M 411.37645 234.947007 
L 416.423264 229.608893 
M 411.37645 234.947007 
L 406.340432 229.598707 
M 411.37645 234.947007 
L 411.369029 242.293145 
M 411.37645 234.947007 
L 404.007464 239.170529 
M 416.834776 219.13269 
L 416.423264 229.608893 
M 416.834776 219.13269 
L 411.401484 210.166114 
M 416.834776 219.13269 
L 406.35091 219.226086 
M 399.195882 209.29971 
L 394.212917 198.123958 
M 399.195882 209.29971 
L 411.401484 210.166114 
M 399.195882 209.29971 
L 406.35091 219.226086 
M 434.060833 228.009896 
L 434.060833 218.047917 
M 434.060833 228.009896 
L 434.060833 237.971875 
M 425.727316 223.028906 
L 434.060833 218.047917 
M 425.727316 223.028906 
L 416.423264 229.608893 
M 425.727316 223.028906 
L 416.834776 219.13269 
M 425.727316 223.028906 
L 434.060833 228.009896 
M 425.621137 232.990885 
L 434.060833 237.971875 
M 425.621137 232.990885 
L 416.423264 229.608893 
M 425.621137 232.990885 
L 434.060833 228.009896 
M 425.621137 232.990885 
L 425.727316 223.028906 
M 423.783688 245.744752 
L 434.060833 237.971875 
M 423.783688 245.744752 
L 425.621137 232.990885 
M 434.060833 208.085938 
L 434.060833 218.047917 
M 434.060833 208.085938 
L 434.060833 198.123958 
M 424.917176 212.781864 
L 434.060833 218.047917 
M 424.917176 212.781864 
L 416.834776 219.13269 
M 424.917176 212.781864 
L 425.727316 223.028906 
M 424.917176 212.781864 
L 434.060833 208.085938 
M 390.024201 242.260455 
L 384.250937 247.933854 
M 390.024201 242.260455 
L 387.722536 234.500276 
M 390.024201 242.260455 
L 382.028629 240.194183 
M 390.024201 242.260455 
L 397.86106 244.285711 
M 390.024201 242.260455 
L 397.523675 234.490375 
M 378.445563 226.329276 
L 374.288958 237.971875 
M 378.445563 226.329276 
L 387.722536 234.500276 
M 378.445563 226.329276 
L 382.028629 240.194183 
M 404.174896 257.895833 
L 394.212917 257.895833 
M 404.174896 257.895833 
L 414.136875 257.895833 
M 409.155885 250.732592 
L 397.86106 244.285711 
M 409.155885 250.732592 
L 414.136875 257.895833 
M 409.155885 250.732592 
L 411.369029 242.293145 
M 409.155885 250.732592 
L 404.007464 239.170529 
M 409.155885 250.732592 
L 404.174896 257.895833 
M 417.219933 250.43862 
L 414.136875 257.895833 
M 417.219933 250.43862 
L 411.369029 242.293145 
M 417.219933 250.43862 
L 423.783688 245.744752 
M 417.219933 250.43862 
L 409.155885 250.732592 
M 424.098854 257.895833 
L 434.060833 257.895833 
M 424.098854 257.895833 
L 414.136875 257.895833 
M 424.098854 257.895833 
L 423.783688 245.744752 
M 424.098854 257.895833 
L 417.219933 250.43862 
M 399.193906 251.936972 
L 394.212917 257.895833 
M 399.193906 251.936972 
L 384.250937 247.933854 
M 399.193906 251.936972 
L 397.86106 244.285711 
M 399.193906 251.936972 
L 390.024201 242.260455 
M 399.193906 251.936972 
L 404.174896 257.895833 
M 399.193906 251.936972 
L 409.155885 250.732592 
M 406.020952 199.557835 
L 394.212917 198.123958 
M 406.020952 199.557835 
L 411.401484 210.166114 
M 406.020952 199.557835 
L 399.195882 209.29971 
M 387.325958 207.893428 
L 394.212917 198.123958 
M 387.325958 207.893428 
L 377.0763 214.043 
M 387.325958 207.893428 
L 399.195882 209.29971 
M 419.129936 238.564993 
L 416.423264 229.608893 
M 419.129936 238.564993 
L 411.369029 242.293145 
M 419.129936 238.564993 
L 411.37645 234.947007 
M 419.129936 238.564993 
L 425.621137 232.990885 
M 419.129936 238.564993 
L 423.783688 245.744752 
M 419.129936 238.564993 
L 417.219933 250.43862 
M 434.060833 247.933854 
L 434.060833 257.895833 
M 434.060833 247.933854 
L 434.060833 237.971875 
M 434.060833 247.933854 
L 423.783688 245.744752 
M 434.060833 247.933854 
L 424.098854 257.895833 
M 420.419548 199.79535 
L 406.020952 199.557835 
M 426.651614 204.909085 
L 434.060833 198.123958 
M 426.651614 204.909085 
L 434.060833 208.085938 
M 426.651614 204.909085 
L 424.917176 212.781864 
M 426.651614 204.909085 
L 420.419548 199.79535 
M 387.937591 224.904291 
L 397.533576 224.689236 
M 387.937591 224.904291 
L 387.722536 234.500276 
M 387.937591 224.904291 
L 397.523675 234.490375 
M 387.937591 224.904291 
L 378.445563 226.329276 
M 392.546643 216.36603 
L 397.533576 224.689236 
M 392.546643 216.36603 
L 406.35091 219.226086 
M 392.546643 216.36603 
L 399.195882 209.29971 
M 392.546643 216.36603 
L 387.325958 207.893428 
M 392.546643 216.36603 
L 387.937591 224.904291 
M 384.464341 217.51625 
L 377.0763 214.043 
M 384.464341 217.51625 
L 378.445563 226.329276 
M 384.464341 217.51625 
L 387.325958 207.893428 
M 384.464341 217.51625 
L 387.937591 224.904291 
M 384.464341 217.51625 
L 392.546643 216.36603 
M 366.668807 221.422317 
L 354.365 218.047917 
M 366.668807 221.422317 
L 377.0763 214.043 
M 363.587285 231.979779 
L 374.288958 237.971875 
M 363.587285 231.979779 
L 354.365 237.971875 
M 363.587285 231.979779 
L 364.326979 242.952865 
M 363.587285 231.979779 
L 366.668807 221.422317 
M 370.702105 228.328009 
L 374.288958 237.971875 
M 370.702105 228.328009 
L 378.445563 226.329276 
M 370.702105 228.328009 
L 366.668807 221.422317 
M 370.702105 228.328009 
L 363.587285 231.979779 
M 354.365 228.009896 
L 336.54447 222.254773 
M 354.365 228.009896 
L 354.365 218.047917 
M 354.365 228.009896 
L 354.365 237.971875 
M 354.365 228.009896 
L 345.454735 240.075303 
M 354.365 228.009896 
L 366.668807 221.422317 
M 354.365 228.009896 
L 363.587285 231.979779 
M 418.911038 207.589884 
L 411.401484 210.166114 
M 418.911038 207.589884 
L 416.834776 219.13269 
M 418.911038 207.589884 
L 424.917176 212.781864 
M 418.911038 207.589884 
L 406.020952 199.557835 
M 418.911038 207.589884 
L 420.419548 199.79535 
M 418.911038 207.589884 
L 426.651614 204.909085 
M 434.060833 188.161979 
L 434.060833 178.2 
M 434.060833 188.161979 
L 434.060833 198.123958 
M 426.527504 193.142969 
L 434.060833 198.123958 
M 426.527504 193.142969 
L 420.419548 199.79535 
M 426.527504 193.142969 
L 426.651614 204.909085 
M 426.527504 193.142969 
L 434.060833 188.161979 
M 426.527504 193.142969 
L 418.031868 183.18099 
M 426.82027 183.18099 
L 434.060833 178.2 
M 426.82027 183.18099 
L 434.060833 188.161979 
M 426.82027 183.18099 
L 418.031868 183.18099 
M 426.82027 183.18099 
L 426.527504 193.142969 
M 422.426069 169.040326 
L 434.060833 178.2 
M 422.426069 169.040326 
L 418.031868 183.18099 
M 422.426069 169.040326 
L 426.82027 183.18099 
M 373.915993 220.614643 
L 377.0763 214.043 
M 373.915993 220.614643 
L 378.445563 226.329276 
M 373.915993 220.614643 
L 384.464341 217.51625 
M 373.915993 220.614643 
L 366.668807 221.422317 
M 373.915993 220.614643 
L 370.702105 228.328009 
M 382.607371 197.254868 
L 394.212917 198.123958 
M 382.607371 197.254868 
L 387.325958 207.893428 
M 382.607371 197.254868 
L 373.095276 190.549345 
M 378.804657 205.307222 
L 377.0763 214.043 
M 378.804657 205.307222 
L 387.325958 207.893428 
M 378.804657 205.307222 
L 382.607371 197.254868 
M 364.998 207.114466 
L 377.0763 214.043 
M 364.998 207.114466 
L 378.804657 205.307222 
M 383.453565 185.955067 
L 373.095276 190.549345 
M 383.453565 185.955067 
L 382.607371 197.254868 
M 383.453565 185.955067 
L 389.982434 176.693565 
M 388.833241 192.039513 
L 394.212917 198.123958 
M 388.833241 192.039513 
L 382.607371 197.254868 
M 388.833241 192.039513 
L 389.982434 176.693565 
M 388.833241 192.039513 
L 383.453565 185.955067 
M 401.662 186.11722 
L 388.833241 192.039513 
M 376.359703 183.935271 
L 373.095276 190.549345 
M 376.359703 183.935271 
L 383.453565 185.955067 
M 376.359703 183.935271 
L 373.369221 177.192908 
M 371.064566 199.818299 
L 373.095276 190.549345 
M 371.064566 199.818299 
L 382.607371 197.254868 
M 371.064566 199.818299 
L 378.804657 205.307222 
M 371.064566 199.818299 
L 364.998 207.114466 
M 363.294335 193.259012 
L 373.095276 190.549345 
M 363.294335 193.259012 
L 354.365 198.123958 
M 363.294335 193.259012 
L 371.064566 199.818299 
M 361.458835 200.517173 
L 354.365 198.123958 
M 361.458835 200.517173 
L 364.998 207.114466 
M 361.458835 200.517173 
L 371.064566 199.818299 
M 361.458835 200.517173 
L 363.294335 193.259012 
M 354.365 208.085938 
L 336.54447 222.254773 
M 354.365 208.085938 
L 354.365 218.047917 
M 354.365 208.085938 
L 354.365 198.123958 
M 354.365 208.085938 
L 364.998 207.114466 
M 354.365 208.085938 
L 361.458835 200.517173 
M 365.932514 183.721406 
L 354.365 178.2 
M 365.932514 183.721406 
L 373.095276 190.549345 
M 365.932514 183.721406 
L 373.369221 177.192908 
M 365.932514 183.721406 
L 376.359703 183.935271 
M 365.932514 183.721406 
L 363.294335 193.259012 
M 360.804888 171.760112 
L 354.365 178.2 
M 360.804888 171.760112 
L 367.244775 165.320225 
M 360.804888 171.760112 
L 373.369221 177.192908 
M 360.804888 171.760112 
L 365.932514 183.721406 
M 354.365 188.161979 
L 354.365 178.2 
M 354.365 188.161979 
L 354.365 198.123958 
M 354.365 188.161979 
L 363.294335 193.259012 
M 354.365 188.161979 
L 365.932514 183.721406 
M 329.985909 209.137652 
L 336.54447 222.254773 
M 329.985909 209.137652 
L 323.427348 196.02053 
M 329.985909 209.137652 
L 354.365 198.123958 
M 329.985909 209.137652 
L 354.365 208.085938 
M 336.632855 183.18099 
L 354.365 178.2 
M 336.632855 183.18099 
L 310.310227 169.786287 
M 336.632855 183.18099 
L 328.605449 152.440449 
M 336.632855 183.18099 
L 323.427348 196.02053 
M 336.632855 183.18099 
L 354.365 198.123958 
M 336.632855 183.18099 
L 354.365 188.161979 
M 336.632855 183.18099 
L 329.985909 209.137652 
M 361.889892 214.728897 
L 354.365 218.047917 
M 361.889892 214.728897 
L 377.0763 214.043 
M 361.889892 214.728897 
L 366.668807 221.422317 
M 361.889892 214.728897 
L 364.998 207.114466 
M 361.889892 214.728897 
L 354.365 208.085938 
M 400.723131 193.848844 
L 394.212917 198.123958 
M 400.723131 193.848844 
L 406.020952 199.557835 
M 400.723131 193.848844 
L 388.833241 192.039513 
M 400.723131 193.848844 
L 401.662 186.11722 
M 380.699823 165.895497 
L 380.124551 152.440449 
M 373.684663 158.880337 
L 380.124551 152.440449 
M 373.684663 158.880337 
L 367.244775 165.320225 
M 373.684663 158.880337 
L 380.699823 165.895497 
M 373.808002 169.450596 
L 367.244775 165.320225 
M 373.808002 169.450596 
L 373.369221 177.192908 
M 373.808002 169.450596 
L 360.804888 171.760112 
M 373.808002 169.450596 
L 380.699823 165.895497 
M 373.808002 169.450596 
L 373.684663 158.880337 
M 381.602642 174.508339 
L 389.982434 176.693565 
M 381.602642 174.508339 
L 383.453565 185.955067 
M 381.602642 174.508339 
L 373.369221 177.192908 
M 381.602642 174.508339 
L 376.359703 183.935271 
M 381.602642 174.508339 
L 380.699823 165.895497 
M 381.602642 174.508339 
L 373.808002 169.450596 
M 389.298241 158.788049 
L 380.124551 152.440449 
M 389.298241 158.788049 
L 380.699823 165.895497 
M 389.298241 158.788049 
L 400.443712 158.311523 
M 389.467335 167.747418 
L 389.982434 176.693565 
M 389.467335 167.747418 
L 380.699823 165.895497 
M 389.467335 167.747418 
L 381.602642 174.508339 
M 389.467335 167.747418 
L 389.298241 158.788049 
M 402.237302 171.500055 
L 389.982434 176.693565 
M 386.564438 146.000562 
L 380.124551 152.440449 
M 386.564438 146.000562 
L 389.298241 158.788049 
M 386.564438 146.000562 
L 393.004326 139.560674 
M 396.162604 149.15884 
L 400.443712 158.311523 
M 396.162604 149.15884 
L 389.298241 158.788049 
M 396.162604 149.15884 
L 393.004326 139.560674 
M 396.162604 149.15884 
L 386.564438 146.000562 
M 406.369987 149.961975 
L 400.443712 158.311523 
M 406.369987 149.961975 
L 396.162604 149.15884 
M 406.369987 149.961975 
L 415.644502 145.623881 
M 412.827257 160.82309 
L 422.426069 169.040326 
M 412.827257 160.82309 
L 400.443712 158.311523 
M 412.827257 160.82309 
L 406.369987 149.961975 
M 399.444214 133.120786 
L 405.884101 126.680899 
M 399.444214 133.120786 
L 393.004326 139.560674 
M 409.544308 136.780993 
L 405.884101 126.680899 
M 409.544308 136.780993 
L 415.644502 145.623881 
M 409.544308 136.780993 
L 406.369987 149.961975 
M 409.544308 136.780993 
L 399.444214 133.120786 
M 413.481991 153.083749 
L 415.644502 145.623881 
M 413.481991 153.083749 
L 406.369987 149.961975 
M 413.481991 153.083749 
L 412.827257 160.82309 
M 423.234921 157.806194 
L 434.060833 158.276042 
M 423.234921 157.806194 
L 422.426069 169.040326 
M 423.234921 157.806194 
L 412.827257 160.82309 
M 423.234921 157.806194 
L 413.481991 153.083749 
M 401.863478 141.97056 
L 393.004326 139.560674 
M 401.863478 141.97056 
L 396.162604 149.15884 
M 401.863478 141.97056 
L 406.369987 149.961975 
M 401.863478 141.97056 
L 399.444214 133.120786 
M 401.863478 141.97056 
L 409.544308 136.780993 
M 421.984689 134.724626 
L 434.060833 138.352083 
M 421.984689 134.724626 
L 415.644502 145.623881 
M 421.984689 134.724626 
L 409.544308 136.780993 
M 434.060833 148.314062 
L 434.060833 138.352083 
M 434.060833 148.314062 
L 434.060833 158.276042 
M 424.631956 148.479912 
L 434.060833 158.276042 
M 424.631956 148.479912 
L 415.644502 145.623881 
M 424.631956 148.479912 
L 413.481991 153.083749 
M 424.631956 148.479912 
L 423.234921 157.806194 
M 424.631956 148.479912 
L 434.060833 148.314062 
M 412.928284 119.636716 
L 405.884101 126.680899 
M 412.928284 119.636716 
L 419.972467 112.592533 
M 423.742994 123.407242 
L 421.984689 134.724626 
M 423.742994 123.407242 
L 419.972467 112.592533 
M 423.742994 123.407242 
L 434.060833 118.428125 
M 423.742994 123.407242 
L 412.928284 119.636716 
M 414.682286 129.20576 
L 405.884101 126.680899 
M 414.682286 129.20576 
L 409.544308 136.780993 
M 414.682286 129.20576 
L 421.984689 134.724626 
M 414.682286 129.20576 
L 412.928284 119.636716 
M 414.682286 129.20576 
L 423.742994 123.407242 
M 434.060833 128.390104 
L 434.060833 138.352083 
M 434.060833 128.390104 
L 421.984689 134.724626 
M 434.060833 128.390104 
L 434.060833 118.428125 
M 434.060833 128.390104 
L 423.742994 123.407242 
M 426.68216 116.31786 
L 419.972467 112.592533 
M 426.68216 116.31786 
L 434.060833 118.428125 
M 426.68216 116.31786 
L 423.742994 123.407242 
M 427.01665 105.54835 
L 434.060833 98.504167 
M 427.01665 105.54835 
L 419.972467 112.592533 
M 427.01665 105.54835 
L 426.68216 116.31786 
M 434.060833 108.466146 
L 434.060833 98.504167 
M 434.060833 108.466146 
L 434.060833 118.428125 
M 434.060833 108.466146 
L 426.68216 116.31786 
M 434.060833 108.466146 
L 427.01665 105.54835 
M 397.068006 165.486833 
L 389.982434 176.693565 
M 397.068006 165.486833 
L 400.443712 158.311523 
M 397.068006 165.486833 
L 389.298241 158.788049 
M 397.068006 165.486833 
L 389.467335 167.747418 
M 397.068006 165.486833 
L 402.237302 171.500055 
M 398.041515 178.654821 
L 389.982434 176.693565 
M 398.041515 178.654821 
L 388.833241 192.039513 
M 398.041515 178.654821 
L 401.662 186.11722 
M 398.041515 178.654821 
L 402.237302 171.500055 
M 405.672239 164.31669 
L 400.443712 158.311523 
M 405.672239 164.31669 
L 402.237302 171.500055 
M 405.672239 164.31669 
L 412.827257 160.82309 
M 405.672239 164.31669 
L 397.068006 165.486833 
M 412.544356 172.015736 
L 418.031868 183.18099 
M 412.544356 172.015736 
L 422.426069 169.040326 
M 412.544356 172.015736 
L 402.237302 171.500055 
M 412.544356 172.015736 
L 412.827257 160.82309 
M 412.544356 172.015736 
L 405.672239 164.31669 
M 407.028067 179.008514 
L 418.031868 183.18099 
M 407.028067 179.008514 
L 401.662 186.11722 
M 407.028067 179.008514 
L 402.237302 171.500055 
M 407.028067 179.008514 
L 398.041515 178.654821 
M 407.028067 179.008514 
L 412.544356 172.015736 
M 426.697585 140.94999 
L 434.060833 138.352083 
M 426.697585 140.94999 
L 415.644502 145.623881 
M 426.697585 140.94999 
L 421.984689 134.724626 
M 426.697585 140.94999 
L 434.060833 148.314062 
M 426.697585 140.94999 
L 424.631956 148.479912 
M 413.341374 192.333818 
L 406.020952 199.557835 
M 413.341374 192.333818 
L 420.419548 199.79535 
M 413.341374 192.333818 
L 418.031868 183.18099 
M 413.341374 192.333818 
L 426.527504 193.142969 
M 413.341374 192.333818 
L 401.662 186.11722 
M 413.341374 192.333818 
L 400.723131 193.848844 
M 413.341374 192.333818 
L 407.028067 179.008514 
M 434.060833 168.238021 
L 434.060833 178.2 
M 434.060833 168.238021 
L 434.060833 158.276042 
M 434.060833 168.238021 
L 422.426069 169.040326 
M 427.908989 163.788909 
L 434.060833 158.276042 
M 427.908989 163.788909 
L 422.426069 169.040326 
M 427.908989 163.788909 
L 423.234921 157.806194 
M 427.908989 163.788909 
L 434.060833 168.238021 
M 364.326979 257.895833 
L 354.365 257.895833 
M 364.326979 257.895833 
L 374.288958 257.895833 
M 364.326979 257.895833 
L 354.365 247.933854 
M 366.817474 250.424349 
L 374.288958 257.895833 
M 366.817474 250.424349 
L 374.288958 247.933854 
M 366.817474 250.424349 
L 364.326979 242.952865 
M 366.817474 250.424349 
L 354.365 247.933854 
M 366.817474 250.424349 
L 364.326979 257.895833 
L 364.326979 257.895833 
" clip-path="url(#p74032b21a7)" style="fill: none; stroke: #000000; stroke-width: 1.5; stroke-linecap: square"/>
   </g>
   <g id="matplotlib.axis_3">
    <g id="xtick_6">
     <g id="line2d_12">
      <g>
       <use xlink:href="#m6e09f6c4b5" x="274.669167" y="273.835" style="stroke: #000000; stroke-width: 0.8"/>
      </g>
     </g>
     <g id="text_12">
      <!-- −1.0 -->
      <g transform="translate(262.52776 288.433437) scale(0.1 -0.1)">
       <use xlink:href="#DejaVuSans-2212"/>
       <use xlink:href="#DejaVuSans-31" x="83.789062"/>
       <use xlink:href="#DejaVuSans-2e" x="147.412109"/>
       <use xlink:href="#DejaVuSans-30" x="179.199219"/>
      </g>
     </g>
    </g>
    <g id="xtick_7">
     <g id="line2d_13">
      <g>
       <use xlink:href="#m6e09f6c4b5" x="314.517083" y="273.835" style="stroke: #000000; stroke-width: 0.8"/>
      </g>
     </g>
     <g id="text_13">
      <!-- −0.5 -->
      <g transform="translate(302.375677 288.433437) scale(0.1 -0.1)">
       <use xlink:href="#DejaVuSans-2212"/>
       <use xlink:href="#DejaVuSans-30" x="83.789062"/>
       <use xlink:href="#DejaVuSans-2e" x="147.412109"/>
       <use xlink:href="#DejaVuSans-35" x="179.199219"/>
      </g>
     </g>
    </g>
    <g id="xtick_8">
     <g id="line2d_14">
      <g>
       <use xlink:href="#m6e09f6c4b5" x="354.365" y="273.835" style="stroke: #000000; stroke-width: 0.8"/>
      </g>
     </g>
     <g id="text_14">
      <!-- 0.0 -->
      <g transform="translate(346.413437 288.433437) scale(0.1 -0.1)">
       <use xlink:href="#DejaVuSans-30"/>
       <use xlink:href="#DejaVuSans-2e" x="63.623047"/>
       <use xlink:href="#DejaVuSans-30" x="95.410156"/>
      </g>
     </g>
    </g>
    <g id="xtick_9">
     <g id="line2d_15">
      <g>
       <use xlink:href="#m6e09f6c4b5" x="394.212917" y="273.835" style="stroke: #000000; stroke-width: 0.8"/>
      </g>
     </g>
     <g id="text_15">
      <!-- 0.5 -->
      <g transform="translate(386.261354 288.433437) scale(0.1 -0.1)">
       <use xlink:href="#DejaVuSans-30"/>
       <use xlink:href="#DejaVuSans-2e" x="63.623047"/>
       <use xlink:href="#DejaVuSans-35" x="95.410156"/>
      </g>
     </g>
    </g>
    <g id="xtick_10">
     <g id="line2d_16">
      <g>
       <use xlink:href="#m6e09f6c4b5" x="434.060833" y="273.835" style="stroke: #000000; stroke-width: 0.8"/>
      </g>
     </g>
     <g id="text_16">
      <!-- 1.0 -->
      <g transform="translate(426.109271 288.433437) scale(0.1 -0.1)">
       <use xlink:href="#DejaVuSans-31"/>
       <use xlink:href="#DejaVuSans-2e" x="63.623047"/>
       <use xlink:href="#DejaVuSans-30" x="95.410156"/>
      </g>
     </g>
    </g>
   </g>
   <g id="matplotlib.axis_4">
    <g id="ytick_6">
     <g id="line2d_17">
      <g>
       <use xlink:href="#m1eaeac7c86" x="258.73" y="257.895833" style="stroke: #000000; stroke-width: 0.8"/>
      </g>
     </g>
     <g id="text_17">
      <!-- 0.0 -->
      <g transform="translate(235.826875 261.695052) scale(0.1 -0.1)">
       <use xlink:href="#DejaVuSans-30"/>
       <use xlink:href="#DejaVuSans-2e" x="63.623047"/>
       <use xlink:href="#DejaVuSans-30" x="95.410156"/>
      </g>
     </g>
    </g>
    <g id="ytick_7">
     <g id="line2d_18">
      <g>
       <use xlink:href="#m1eaeac7c86" x="258.73" y="218.047917" style="stroke: #000000; stroke-width: 0.8"/>
      </g>
     </g>
     <g id="text_18">
      <!-- 0.5 -->
      <g transform="translate(235.826875 221.847135) scale(0.1 -0.1)">
       <use xlink:href="#DejaVuSans-30"/>
       <use xlink:href="#DejaVuSans-2e" x="63.623047"/>
       <use xlink:href="#DejaVuSans-35" x="95.410156"/>
      </g>
     </g>
    </g>
    <g id="ytick_8">
     <g id="line2d_19">
      <g>
       <use xlink:href="#m1eaeac7c86" x="258.73" y="178.2" style="stroke: #000000; stroke-width: 0.8"/>
      </g>
     </g>
     <g id="text_19">
      <!-- 1.0 -->
      <g transform="translate(235.826875 181.999219) scale(0.1 -0.1)">
       <use xlink:href="#DejaVuSans-31"/>
       <use xlink:href="#DejaVuSans-2e" x="63.623047"/>
       <use xlink:href="#DejaVuSans-30" x="95.410156"/>
      </g>
     </g>
    </g>
    <g id="ytick_9">
     <g id="line2d_20">
      <g>
       <use xlink:href="#m1eaeac7c86" x="258.73" y="138.352083" style="stroke: #000000; stroke-width: 0.8"/>
      </g>
     </g>
     <g id="text_20">
      <!-- 1.5 -->
      <g transform="translate(235.826875 142.151302) scale(0.1 -0.1)">
       <use xlink:href="#DejaVuSans-31"/>
       <use xlink:href="#DejaVuSans-2e" x="63.623047"/>
       <use xlink:href="#DejaVuSans-35" x="95.410156"/>
      </g>
     </g>
    </g>
    <g id="ytick_10">
     <g id="line2d_21">
      <g>
       <use xlink:href="#m1eaeac7c86" x="258.73" y="98.504167" style="stroke: #000000; stroke-width: 0.8"/>
      </g>
     </g>
     <g id="text_21">
      <!-- 2.0 -->
      <g transform="translate(235.826875 102.303385) scale(0.1 -0.1)">
       <use xlink:href="#DejaVuSans-32"/>
       <use xlink:href="#DejaVuSans-2e" x="63.623047"/>
       <use xlink:href="#DejaVuSans-30" x="95.410156"/>
      </g>
     </g>
    </g>
   </g>
   <g id="line2d_22"/>
   <g id="LineCollection_2">
    <path d="M 434.060833 257.895833 
L 424.098854 257.895833 
" clip-path="url(#p74032b21a7)" style="fill: none; stroke: #ff0000; stroke-width: 3"/>
    <path d="M 434.060833 98.504167 
L 434.060833 108.466146 
" clip-path="url(#p74032b21a7)" style="fill: none; stroke: #ff0000; stroke-width: 3"/>
    <path d="M 360.804888 171.760112 
L 354.365 178.2 
" clip-path="url(#p74032b21a7)" style="fill: none; stroke: #808000; stroke-width: 3"/>
    <path d="M 302.845899 126.680899 
L 274.669167 98.504167 
" clip-path="url(#p74032b21a7)" style="fill: none; stroke: #808000; stroke-width: 3"/>
    <path d="M 354.365 257.895833 
L 349.909867 248.985568 
" clip-path="url(#p74032b21a7)" style="fill: none; stroke: #00ff00; stroke-width: 3"/>
    <path d="M 354.365 218.047917 
L 354.365 208.085938 
" clip-path="url(#p74032b21a7)" style="fill: none; stroke: #008080; stroke-width: 3"/>
    <path d="M 310.310227 169.786287 
L 292.489697 134.145227 
" clip-path="url(#p74032b21a7)" style="fill: none; stroke: #00ff00; stroke-width: 3"/>
    <path d="M 302.845899 126.680899 
L 328.605449 152.440449 
" clip-path="url(#p74032b21a7)" style="fill: none; stroke: #808000; stroke-width: 3"/>
    <path d="M 336.54447 222.254773 
L 329.985909 209.137652 
" clip-path="url(#p74032b21a7)" style="fill: none; stroke: #00ff00; stroke-width: 3"/>
    <path d="M 328.605449 152.440449 
L 354.365 178.2 
" clip-path="url(#p74032b21a7)" style="fill: none; stroke: #808000; stroke-width: 3"/>
    <path d="M 292.489697 134.145227 
L 274.669167 98.504167 
" clip-path="url(#p74032b21a7)" style="fill: none; stroke: #00ff00; stroke-width: 3"/>
    <path d="M 354.365 247.933854 
L 354.365 257.895833 
" clip-path="url(#p74032b21a7)" style="fill: none; stroke: #008080; stroke-width: 3"/>
    <path d="M 434.060833 178.2 
L 434.060833 188.161979 
" clip-path="url(#p74032b21a7)" style="fill: none; stroke: #ff0000; stroke-width: 3"/>
    <path d="M 323.427348 196.02053 
L 310.310227 169.786287 
" clip-path="url(#p74032b21a7)" style="fill: none; stroke: #00ff00; stroke-width: 3"/>
    <path d="M 394.212917 257.895833 
L 384.250937 257.895833 
" clip-path="url(#p74032b21a7)" style="fill: none; stroke: #ff0000; stroke-width: 3"/>
    <path d="M 354.365 237.971875 
L 354.365 228.009896 
" clip-path="url(#p74032b21a7)" style="fill: none; stroke: #008080; stroke-width: 3"/>
    <path d="M 345.454735 240.075303 
L 336.54447 222.254773 
" clip-path="url(#p74032b21a7)" style="fill: none; stroke: #00ff00; stroke-width: 3"/>
    <path d="M 374.288958 257.895833 
L 364.326979 257.895833 
" clip-path="url(#p74032b21a7)" style="fill: none; stroke: #ff0000; stroke-width: 3"/>
    <path d="M 354.365 247.933854 
L 354.365 237.971875 
" clip-path="url(#p74032b21a7)" style="fill: none; stroke: #008080; stroke-width: 3"/>
    <path d="M 349.909867 248.985568 
L 345.454735 240.075303 
" clip-path="url(#p74032b21a7)" style="fill: none; stroke: #00ff00; stroke-width: 3"/>
    <path d="M 384.250937 257.895833 
L 374.288958 257.895833 
" clip-path="url(#p74032b21a7)" style="fill: none; stroke: #ff0000; stroke-width: 3"/>
    <path d="M 434.060833 218.047917 
L 434.060833 228.009896 
" clip-path="url(#p74032b21a7)" style="fill: none; stroke: #ff0000; stroke-width: 3"/>
    <path d="M 434.060833 237.971875 
L 434.060833 247.933854 
" clip-path="url(#p74032b21a7)" style="fill: none; stroke: #ff0000; stroke-width: 3"/>
    <path d="M 414.136875 257.895833 
L 404.174896 257.895833 
" clip-path="url(#p74032b21a7)" style="fill: none; stroke: #ff0000; stroke-width: 3"/>
    <path d="M 434.060833 228.009896 
L 434.060833 237.971875 
" clip-path="url(#p74032b21a7)" style="fill: none; stroke: #ff0000; stroke-width: 3"/>
    <path d="M 434.060833 198.123958 
L 434.060833 208.085938 
" clip-path="url(#p74032b21a7)" style="fill: none; stroke: #ff0000; stroke-width: 3"/>
    <path d="M 434.060833 208.085938 
L 434.060833 218.047917 
" clip-path="url(#p74032b21a7)" style="fill: none; stroke: #ff0000; stroke-width: 3"/>
    <path d="M 404.174896 257.895833 
L 394.212917 257.895833 
" clip-path="url(#p74032b21a7)" style="fill: none; stroke: #ff0000; stroke-width: 3"/>
    <path d="M 424.098854 257.895833 
L 414.136875 257.895833 
" clip-path="url(#p74032b21a7)" style="fill: none; stroke: #ff0000; stroke-width: 3"/>
    <path d="M 434.060833 247.933854 
L 434.060833 257.895833 
" clip-path="url(#p74032b21a7)" style="fill: none; stroke: #ff0000; stroke-width: 3"/>
    <path d="M 354.365 228.009896 
L 354.365 218.047917 
" clip-path="url(#p74032b21a7)" style="fill: none; stroke: #008080; stroke-width: 3"/>
    <path d="M 405.884101 126.680899 
L 412.928284 119.636716 
" clip-path="url(#p74032b21a7)" style="fill: none; stroke: #808000; stroke-width: 3"/>
    <path d="M 434.060833 138.352083 
L 434.060833 148.314062 
" clip-path="url(#p74032b21a7)" style="fill: none; stroke: #ff0000; stroke-width: 3"/>
    <path d="M 434.060833 188.161979 
L 434.060833 198.123958 
" clip-path="url(#p74032b21a7)" style="fill: none; stroke: #ff0000; stroke-width: 3"/>
    <path d="M 434.060833 158.276042 
L 434.060833 168.238021 
" clip-path="url(#p74032b21a7)" style="fill: none; stroke: #ff0000; stroke-width: 3"/>
    <path d="M 380.124551 152.440449 
L 386.564438 146.000562 
" clip-path="url(#p74032b21a7)" style="fill: none; stroke: #808000; stroke-width: 3"/>
    <path d="M 354.365 198.123958 
L 354.365 188.161979 
" clip-path="url(#p74032b21a7)" style="fill: none; stroke: #008080; stroke-width: 3"/>
    <path d="M 367.244775 165.320225 
L 373.684663 158.880337 
" clip-path="url(#p74032b21a7)" style="fill: none; stroke: #808000; stroke-width: 3"/>
    <path d="M 354.365 208.085938 
L 354.365 198.123958 
" clip-path="url(#p74032b21a7)" style="fill: none; stroke: #008080; stroke-width: 3"/>
    <path d="M 360.804888 171.760112 
L 367.244775 165.320225 
" clip-path="url(#p74032b21a7)" style="fill: none; stroke: #808000; stroke-width: 3"/>
    <path d="M 354.365 188.161979 
L 354.365 178.2 
" clip-path="url(#p74032b21a7)" style="fill: none; stroke: #008080; stroke-width: 3"/>
    <path d="M 329.985909 209.137652 
L 323.427348 196.02053 
" clip-path="url(#p74032b21a7)" style="fill: none; stroke: #00ff00; stroke-width: 3"/>
    <path d="M 373.684663 158.880337 
L 380.124551 152.440449 
" clip-path="url(#p74032b21a7)" style="fill: none; stroke: #808000; stroke-width: 3"/>
    <path d="M 393.004326 139.560674 
L 399.444214 133.120786 
" clip-path="url(#p74032b21a7)" style="fill: none; stroke: #808000; stroke-width: 3"/>
    <path d="M 386.564438 146.000562 
L 393.004326 139.560674 
" clip-path="url(#p74032b21a7)" style="fill: none; stroke: #808000; stroke-width: 3"/>
    <path d="M 399.444214 133.120786 
L 405.884101 126.680899 
" clip-path="url(#p74032b21a7)" style="fill: none; stroke: #808000; stroke-width: 3"/>
    <path d="M 434.060833 148.314062 
L 434.060833 158.276042 
" clip-path="url(#p74032b21a7)" style="fill: none; stroke: #ff0000; stroke-width: 3"/>
    <path d="M 419.972467 112.592533 
L 427.01665 105.54835 
" clip-path="url(#p74032b21a7)" style="fill: none; stroke: #808000; stroke-width: 3"/>
    <path d="M 434.060833 118.428125 
L 434.060833 128.390104 
" clip-path="url(#p74032b21a7)" style="fill: none; stroke: #ff0000; stroke-width: 3"/>
    <path d="M 412.928284 119.636716 
L 419.972467 112.592533 
" clip-path="url(#p74032b21a7)" style="fill: none; stroke: #808000; stroke-width: 3"/>
    <path d="M 434.060833 128.390104 
L 434.060833 138.352083 
" clip-path="url(#p74032b21a7)" style="fill: none; stroke: #ff0000; stroke-width: 3"/>
    <path d="M 427.01665 105.54835 
L 434.060833 98.504167 
" clip-path="url(#p74032b21a7)" style="fill: none; stroke: #808000; stroke-width: 3"/>
    <path d="M 434.060833 108.466146 
L 434.060833 118.428125 
" clip-path="url(#p74032b21a7)" style="fill: none; stroke: #ff0000; stroke-width: 3"/>
    <path d="M 434.060833 168.238021 
L 434.060833 178.2 
" clip-path="url(#p74032b21a7)" style="fill: none; stroke: #ff0000; stroke-width: 3"/>
    <path d="M 364.326979 257.895833 
L 354.365 257.895833 
" clip-path="url(#p74032b21a7)" style="fill: none; stroke: #ff0000; stroke-width: 3"/>
   </g>
   <g id="patch_8">
    <path d="M 258.73 273.835 
L 258.73 82.565 
" style="fill: none; stroke: #000000; stroke-width: 0.8; stroke-linejoin: miter; stroke-linecap: square"/>
   </g>
   <g id="patch_9">
    <path d="M 450 273.835 
L 450 82.565 
" style="fill: none; stroke: #000000; stroke-width: 0.8; stroke-linejoin: miter; stroke-linecap: square"/>
   </g>
   <g id="patch_10">
    <path d="M 258.73 273.835 
L 450 273.835 
" style="fill: none; stroke: #000000; stroke-width: 0.8; stroke-linejoin: miter; stroke-linecap: square"/>
   </g>
   <g id="patch_11">
    <path d="M 258.73 82.565 
L 450 82.565 
" style="fill: none; stroke: #000000; stroke-width: 0.8; stroke-linejoin: miter; stroke-linecap: square"/>
   </g>
   <g id="text_22">
    <!-- Out -->
    <g transform="translate(343.487187 76.565) scale(0.12 -0.12)">
     <defs>
      <path id="DejaVuSans-4f" d="M 2522 4238 
Q 1834 4238 1429 3725 
Q 1025 3213 1025 2328 
Q 1025 1447 1429 934 
Q 1834 422 2522 422 
Q 3209 422 3611 934 
Q 4013 1447 4013 2328 
Q 4013 3213 3611 3725 
Q 3209 4238 2522 4238 
z
M 2522 4750 
Q 3503 4750 4090 4092 
Q 4678 3434 4678 2328 
Q 4678 1225 4090 567 
Q 3503 -91 2522 -91 
Q 1538 -91 948 565 
Q 359 1222 359 2328 
Q 359 3434 948 4092 
Q 1538 4750 2522 4750 
z
" transform="scale(0.015625)"/>
      <path id="DejaVuSans-75" d="M 544 1381 
L 544 3500 
L 1119 3500 
L 1119 1403 
Q 1119 906 1312 657 
Q 1506 409 1894 409 
Q 2359 409 2629 706 
Q 2900 1003 2900 1516 
L 2900 3500 
L 3475 3500 
L 3475 0 
L 2900 0 
L 2900 538 
Q 2691 219 2414 64 
Q 2138 -91 1772 -91 
Q 1169 -91 856 284 
Q 544 659 544 1381 
z
M 1991 3584 
L 1991 3584 
z
" transform="scale(0.015625)"/>
      <path id="DejaVuSans-74" d="M 1172 4494 
L 1172 3500 
L 2356 3500 
L 2356 3053 
L 1172 3053 
L 1172 1153 
Q 1172 725 1289 603 
Q 1406 481 1766 481 
L 2356 481 
L 2356 0 
L 1766 0 
Q 1100 0 847 248 
Q 594 497 594 1153 
L 594 3053 
L 172 3053 
L 172 3500 
L 594 3500 
L 594 4494 
L 1172 4494 
z
" transform="scale(0.015625)"/>
     </defs>
     <use xlink:href="#DejaVuSans-4f"/>
     <use xlink:href="#DejaVuSans-75" x="78.710938"/>
     <use xlink:href="#DejaVuSans-74" x="142.089844"/>
    </g>
   </g>
  </g>
 </g>
 <defs>
  <clipPath id="p3195dd12c8">
   <rect x="33.73" y="82.565" width="191.27" height="191.27"/>
  </clipPath>
  <clipPath id="p74032b21a7">
   <rect x="258.73" y="82.565" width="191.27" height="191.27"/>
  </clipPath>
 </defs>
</svg>
