<?xml version="1.0" encoding="utf-8" standalone="no"?>
<!DOCTYPE svg PUBLIC "-//W3C//DTD SVG 1.1//EN"
  "http://www.w3.org/Graphics/SVG/1.1/DTD/svg11.dtd">
<!-- Created with matplotlib (https://matplotlib.org/) -->
<svg height="345.6pt" version="1.1" viewBox="0 0 460.8 345.6" width="460.8pt" xmlns="http://www.w3.org/2000/svg" xmlns:xlink="http://www.w3.org/1999/xlink">
 <metadata>
  <rdf:RDF xmlns:cc="http://creativecommons.org/ns#" xmlns:dc="http://purl.org/dc/elements/1.1/" xmlns:rdf="http://www.w3.org/1999/02/22-rdf-syntax-ns#">
   <cc:Work>
    <dc:type rdf:resource="http://purl.org/dc/dcmitype/StillImage"/>
    <dc:date>2021-01-20T22:53:55.670890</dc:date>
    <dc:format>image/svg+xml</dc:format>
    <dc:creator>
     <cc:Agent>
      <dc:title>Matplotlib v3.3.2, https://matplotlib.org/</dc:title>
     </cc:Agent>
    </dc:creator>
   </cc:Work>
  </rdf:RDF>
 </metadata>
 <defs>
  <style type="text/css">*{stroke-linecap:butt;stroke-linejoin:round;}</style>
 </defs>
 <g id="figure_1">
  <g id="patch_1">
   <path d="M 0 345.6 
L 460.8 345.6 
L 460.8 0 
L 0 0 
z
" style="fill:#ffffff;"/>
  </g>
  <g id="axes_1">
   <g id="patch_2">
    <path d="M 58.0228 317.72 
L 364.9428 317.72 
L 364.9428 10.8 
L 58.0228 10.8 
z
" style="fill:#ffffff;"/>
   </g>
   <g id="PolyCollection_1">
    <path clip-path="url(#p4123850c84)" d="M 268.158368 186.058295 
L 268.740559 211.661138 
L 316.114618 199.137273 
z
" style="fill:#9999d9;"/>
    <path clip-path="url(#p4123850c84)" d="M 141.728255 303.769091 
L 159.166891 280.517576 
L 115.5703 265.985379 
z
" style="fill:#9999d9;"/>
    <path clip-path="url(#p4123850c84)" d="M 211.4828 164.26 
L 215.13348 128.471182 
L 179.755574 134.995806 
z
" style="fill:#9999d9;"/>
    <path clip-path="url(#p4123850c84)" d="M 158.352356 172.477965 
L 138.069414 136.043959 
L 117.604929 171.299408 
z
" style="fill:#9999d9;"/>
    <path clip-path="url(#p4123850c84)" d="M 211.4828 303.769091 
L 215.842459 268.891818 
L 185.716097 265.985379 
z
" style="fill:#9999d9;"/>
    <path clip-path="url(#p4123850c84)" d="M 255.079391 277.611136 
L 215.842459 268.891818 
L 246.360073 303.769091 
z
" style="fill:#9999d9;"/>
    <path clip-path="url(#p4123850c84)" d="M 320.474277 168.619659 
L 268.158368 186.058295 
L 316.114618 199.137273 
z
" style="fill:#9999d9;"/>
    <path clip-path="url(#p4123850c84)" d="M 215.13348 128.471182 
L 194.058276 113.372518 
L 179.755574 134.995806 
z
" style="fill:#9999d9;"/>
    <path clip-path="url(#p4123850c84)" d="M 350.991891 234.014545 
L 316.114618 199.137273 
L 316.114618 234.014545 
z
" style="fill:#9999d9;"/>
    <path clip-path="url(#p4123850c84)" d="M 281.237345 303.769091 
L 316.114618 268.891818 
L 281.237345 268.891818 
z
" style="fill:#9999d9;"/>
    <path clip-path="url(#p4123850c84)" d="M 98.022507 146.821364 
L 71.973709 164.26 
L 117.604929 171.299408 
z
" style="fill:#9999d9;"/>
    <path clip-path="url(#p4123850c84)" d="M 133.932261 67.424176 
L 141.728255 94.505455 
L 161.297806 60.693639 
z
" style="fill:#9999d9;"/>
    <path clip-path="url(#p4123850c84)" d="M 246.360073 24.750909 
L 224.621799 58.955439 
L 261.256899 59.628182 
z
" style="fill:#9999d9;"/>
    <path clip-path="url(#p4123850c84)" d="M 307.3953 85.786136 
L 281.237345 94.505455 
L 316.114618 111.944091 
z
" style="fill:#9999d9;"/>
    <path clip-path="url(#p4123850c84)" d="M 71.973709 199.137273 
L 71.973709 234.014545 
L 101.919506 234.296681 
z
" style="fill:#9999d9;"/>
    <path clip-path="url(#p4123850c84)" d="M 211.4828 234.014545 
L 246.360073 251.453182 
L 243.246031 214.084675 
z
" style="fill:#9999d9;"/>
    <path clip-path="url(#p4123850c84)" d="M 255.079391 277.611136 
L 281.237345 268.891818 
L 246.360073 251.453182 
z
" style="fill:#9999d9;"/>
    <path clip-path="url(#p4123850c84)" d="M 316.114618 234.014545 
L 316.114618 268.891818 
L 350.991891 234.014545 
z
" style="fill:#9999d9;"/>
    <path clip-path="url(#p4123850c84)" d="M 316.114618 199.137273 
L 350.991891 199.137273 
L 320.474277 168.619659 
z
" style="fill:#9999d9;"/>
    <path clip-path="url(#p4123850c84)" d="M 350.991891 164.26 
L 320.474277 168.619659 
L 350.991891 199.137273 
z
" style="fill:#9999d9;"/>
    <path clip-path="url(#p4123850c84)" d="M 350.991891 268.891818 
L 350.991891 234.014545 
L 316.114618 268.891818 
z
" style="fill:#9999d9;"/>
    <path clip-path="url(#p4123850c84)" d="M 316.114618 303.769091 
L 350.991891 303.769091 
L 316.114618 268.891818 
z
" style="fill:#9999d9;"/>
    <path clip-path="url(#p4123850c84)" d="M 281.237345 234.014545 
L 316.114618 268.891818 
L 316.114618 234.014545 
z
" style="fill:#9999d9;"/>
    <path clip-path="url(#p4123850c84)" d="M 316.114618 199.137273 
L 281.237345 234.014545 
L 316.114618 234.014545 
z
" style="fill:#9999d9;"/>
    <path clip-path="url(#p4123850c84)" d="M 316.114618 199.137273 
L 350.991891 234.014545 
L 350.991891 199.137273 
z
" style="fill:#9999d9;"/>
    <path clip-path="url(#p4123850c84)" d="M 259.315779 108.941774 
L 298.675982 146.821364 
L 281.237345 94.505455 
z
" style="fill:#9999d9;"/>
    <path clip-path="url(#p4123850c84)" d="M 316.114618 111.944091 
L 350.991891 129.382727 
L 350.991891 94.505455 
z
" style="fill:#9999d9;"/>
    <path clip-path="url(#p4123850c84)" d="M 246.360073 251.453182 
L 281.237345 268.891818 
L 281.237345 234.014545 
z
" style="fill:#9999d9;"/>
    <path clip-path="url(#p4123850c84)" d="M 316.114618 268.891818 
L 281.237345 234.014545 
L 281.237345 268.891818 
z
" style="fill:#9999d9;"/>
    <path clip-path="url(#p4123850c84)" d="M 211.4828 234.014545 
L 215.842459 268.891818 
L 246.360073 251.453182 
z
" style="fill:#9999d9;"/>
    <path clip-path="url(#p4123850c84)" d="M 246.360073 251.453182 
L 268.740559 211.661138 
L 243.246031 214.084675 
z
" style="fill:#9999d9;"/>
    <path clip-path="url(#p4123850c84)" d="M 159.166891 280.517576 
L 141.728255 303.769091 
L 176.605527 303.769091 
z
" style="fill:#9999d9;"/>
    <path clip-path="url(#p4123850c84)" d="M 281.237345 303.769091 
L 281.237345 268.891818 
L 255.079391 277.611136 
z
" style="fill:#9999d9;"/>
    <path clip-path="url(#p4123850c84)" d="M 215.842459 268.891818 
L 255.079391 277.611136 
L 246.360073 251.453182 
z
" style="fill:#9999d9;"/>
    <path clip-path="url(#p4123850c84)" d="M 159.166891 280.517576 
L 176.605527 303.769091 
L 185.716097 265.985379 
z
" style="fill:#9999d9;"/>
    <path clip-path="url(#p4123850c84)" d="M 215.842459 268.891818 
L 211.4828 303.769091 
L 246.360073 303.769091 
z
" style="fill:#9999d9;"/>
    <path clip-path="url(#p4123850c84)" d="M 211.4828 234.014545 
L 178.441897 222.085018 
L 185.716097 265.985379 
z
" style="fill:#9999d9;"/>
    <path clip-path="url(#p4123850c84)" d="M 281.237345 303.769091 
L 255.079391 277.611136 
L 246.360073 303.769091 
z
" style="fill:#9999d9;"/>
    <path clip-path="url(#p4123850c84)" d="M 243.246031 214.084675 
L 205.039189 199.137273 
L 211.4828 234.014545 
z
" style="fill:#9999d9;"/>
    <path clip-path="url(#p4123850c84)" d="M 115.5703 265.985379 
L 106.850982 303.769091 
L 141.728255 303.769091 
z
" style="fill:#9999d9;"/>
    <path clip-path="url(#p4123850c84)" d="M 176.605527 303.769091 
L 211.4828 303.769091 
L 185.716097 265.985379 
z
" style="fill:#9999d9;"/>
    <path clip-path="url(#p4123850c84)" d="M 115.5703 265.985379 
L 159.166891 280.517576 
L 159.166891 251.453182 
z
" style="fill:#9999d9;"/>
    <path clip-path="url(#p4123850c84)" d="M 211.4828 234.014545 
L 185.716097 265.985379 
L 215.842459 268.891818 
z
" style="fill:#9999d9;"/>
    <path clip-path="url(#p4123850c84)" d="M 159.166891 251.453182 
L 159.166891 280.517576 
L 185.716097 265.985379 
z
" style="fill:#9999d9;"/>
    <path clip-path="url(#p4123850c84)" d="M 131.24733 240.355484 
L 115.5703 265.985379 
L 159.166891 251.453182 
z
" style="fill:#9999d9;"/>
    <path clip-path="url(#p4123850c84)" d="M 131.24733 240.355484 
L 101.919506 234.296681 
L 115.5703 265.985379 
z
" style="fill:#9999d9;"/>
    <path clip-path="url(#p4123850c84)" d="M 94.680267 281.062533 
L 71.973709 303.769091 
L 106.850982 303.769091 
z
" style="fill:#9999d9;"/>
    <path clip-path="url(#p4123850c84)" d="M 178.441897 222.085018 
L 211.4828 234.014545 
L 205.039189 199.137273 
z
" style="fill:#9999d9;"/>
    <path clip-path="url(#p4123850c84)" d="M 121.746484 211.852945 
L 131.24733 240.355484 
L 178.441897 222.085018 
z
" style="fill:#9999d9;"/>
    <path clip-path="url(#p4123850c84)" d="M 178.441897 222.085018 
L 131.24733 240.355484 
L 159.166891 251.453182 
z
" style="fill:#9999d9;"/>
    <path clip-path="url(#p4123850c84)" d="M 94.680267 281.062533 
L 106.850982 303.769091 
L 115.5703 265.985379 
z
" style="fill:#9999d9;"/>
    <path clip-path="url(#p4123850c84)" d="M 101.919506 234.296681 
L 131.24733 240.355484 
L 121.746484 211.852945 
z
" style="fill:#9999d9;"/>
    <path clip-path="url(#p4123850c84)" d="M 101.919506 234.296681 
L 121.746484 211.852945 
L 99.900072 193.595775 
z
" style="fill:#9999d9;"/>
    <path clip-path="url(#p4123850c84)" d="M 101.919506 234.296681 
L 71.973709 234.014545 
L 71.973709 268.891818 
z
" style="fill:#9999d9;"/>
    <path clip-path="url(#p4123850c84)" d="M 316.114618 268.891818 
L 281.237345 303.769091 
L 316.114618 303.769091 
z
" style="fill:#9999d9;"/>
    <path clip-path="url(#p4123850c84)" d="M 316.114618 268.891818 
L 350.991891 303.769091 
L 350.991891 268.891818 
z
" style="fill:#9999d9;"/>
    <path clip-path="url(#p4123850c84)" d="M 350.991891 129.382727 
L 320.474277 168.619659 
L 350.991891 164.26 
z
" style="fill:#9999d9;"/>
    <path clip-path="url(#p4123850c84)" d="M 268.158368 186.058295 
L 320.474277 168.619659 
L 298.675982 146.821364 
z
" style="fill:#9999d9;"/>
    <path clip-path="url(#p4123850c84)" d="M 250.719732 133.742386 
L 238.596788 92.827003 
L 215.13348 128.471182 
z
" style="fill:#9999d9;"/>
    <path clip-path="url(#p4123850c84)" d="M 350.991891 129.382727 
L 316.114618 111.944091 
L 298.675982 146.821364 
z
" style="fill:#9999d9;"/>
    <path clip-path="url(#p4123850c84)" d="M 236.726377 183.204087 
L 205.039189 199.137273 
L 243.246031 214.084675 
z
" style="fill:#9999d9;"/>
    <path clip-path="url(#p4123850c84)" d="M 250.719732 133.742386 
L 254.539784 161.53343 
L 298.675982 146.821364 
z
" style="fill:#9999d9;"/>
    <path clip-path="url(#p4123850c84)" d="M 254.539784 161.53343 
L 211.4828 164.26 
L 236.726377 183.204087 
z
" style="fill:#9999d9;"/>
    <path clip-path="url(#p4123850c84)" d="M 268.740559 211.661138 
L 246.360073 251.453182 
L 281.237345 234.014545 
z
" style="fill:#9999d9;"/>
    <path clip-path="url(#p4123850c84)" d="M 236.726377 183.204087 
L 243.246031 214.084675 
L 268.158368 186.058295 
z
" style="fill:#9999d9;"/>
    <path clip-path="url(#p4123850c84)" d="M 316.114618 199.137273 
L 268.740559 211.661138 
L 281.237345 234.014545 
z
" style="fill:#9999d9;"/>
    <path clip-path="url(#p4123850c84)" d="M 268.158368 186.058295 
L 243.246031 214.084675 
L 268.740559 211.661138 
z
" style="fill:#9999d9;"/>
    <path clip-path="url(#p4123850c84)" d="M 254.539784 161.53343 
L 236.726377 183.204087 
L 268.158368 186.058295 
z
" style="fill:#9999d9;"/>
    <path clip-path="url(#p4123850c84)" d="M 236.726377 183.204087 
L 211.4828 164.26 
L 205.039189 199.137273 
z
" style="fill:#9999d9;"/>
    <path clip-path="url(#p4123850c84)" d="M 298.675982 146.821364 
L 254.539784 161.53343 
L 268.158368 186.058295 
z
" style="fill:#9999d9;"/>
    <path clip-path="url(#p4123850c84)" d="M 211.4828 164.26 
L 254.539784 161.53343 
L 250.719732 133.742386 
z
" style="fill:#9999d9;"/>
    <path clip-path="url(#p4123850c84)" d="M 186.353303 177.651168 
L 205.039189 199.137273 
L 211.4828 164.26 
z
" style="fill:#9999d9;"/>
    <path clip-path="url(#p4123850c84)" d="M 159.166891 251.453182 
L 185.716097 265.985379 
L 178.441897 222.085018 
z
" style="fill:#9999d9;"/>
    <path clip-path="url(#p4123850c84)" d="M 179.755574 134.995806 
L 158.352356 172.477965 
L 186.353303 177.651168 
z
" style="fill:#9999d9;"/>
    <path clip-path="url(#p4123850c84)" d="M 158.352356 172.477965 
L 179.755574 134.995806 
L 138.069414 136.043959 
z
" style="fill:#9999d9;"/>
    <path clip-path="url(#p4123850c84)" d="M 186.353303 177.651168 
L 178.441897 222.085018 
L 205.039189 199.137273 
z
" style="fill:#9999d9;"/>
    <path clip-path="url(#p4123850c84)" d="M 178.441897 222.085018 
L 158.352356 172.477965 
L 137.461749 189.759766 
z
" style="fill:#9999d9;"/>
    <path clip-path="url(#p4123850c84)" d="M 179.755574 134.995806 
L 186.353303 177.651168 
L 211.4828 164.26 
z
" style="fill:#9999d9;"/>
    <path clip-path="url(#p4123850c84)" d="M 178.441897 222.085018 
L 186.353303 177.651168 
L 158.352356 172.477965 
z
" style="fill:#9999d9;"/>
    <path clip-path="url(#p4123850c84)" d="M 215.13348 128.471182 
L 211.4828 164.26 
L 250.719732 133.742386 
z
" style="fill:#9999d9;"/>
    <path clip-path="url(#p4123850c84)" d="M 138.069414 136.043959 
L 179.755574 134.995806 
L 158.444525 116.908269 
z
" style="fill:#9999d9;"/>
    <path clip-path="url(#p4123850c84)" d="M 238.596788 92.827003 
L 250.719732 133.742386 
L 259.315779 108.941774 
z
" style="fill:#9999d9;"/>
    <path clip-path="url(#p4123850c84)" d="M 215.13348 128.471182 
L 214.730122 82.855359 
L 194.058276 113.372518 
z
" style="fill:#9999d9;"/>
    <path clip-path="url(#p4123850c84)" d="M 261.256899 59.628182 
L 238.596788 92.827003 
L 281.237345 94.505455 
z
" style="fill:#9999d9;"/>
    <path clip-path="url(#p4123850c84)" d="M 194.058276 113.372518 
L 189.356215 87.87694 
L 158.444525 116.908269 
z
" style="fill:#9999d9;"/>
    <path clip-path="url(#p4123850c84)" d="M 261.256899 59.628182 
L 224.621799 58.955439 
L 238.596788 92.827003 
z
" style="fill:#9999d9;"/>
    <path clip-path="url(#p4123850c84)" d="M 106.850982 59.628182 
L 133.932261 67.424176 
L 141.728255 24.750909 
z
" style="fill:#9999d9;"/>
    <path clip-path="url(#p4123850c84)" d="M 214.730122 82.855359 
L 215.13348 128.471182 
L 238.596788 92.827003 
z
" style="fill:#9999d9;"/>
    <path clip-path="url(#p4123850c84)" d="M 158.444525 116.908269 
L 189.356215 87.87694 
L 141.728255 94.505455 
z
" style="fill:#9999d9;"/>
    <path clip-path="url(#p4123850c84)" d="M 110.304822 112.667975 
L 71.973709 129.382727 
L 98.022507 146.821364 
z
" style="fill:#9999d9;"/>
    <path clip-path="url(#p4123850c84)" d="M 117.604929 171.299408 
L 99.900072 193.595775 
L 137.461749 189.759766 
z
" style="fill:#9999d9;"/>
    <path clip-path="url(#p4123850c84)" d="M 298.675982 146.821364 
L 259.315779 108.941774 
L 250.719732 133.742386 
z
" style="fill:#9999d9;"/>
    <path clip-path="url(#p4123850c84)" d="M 281.237345 94.505455 
L 238.596788 92.827003 
L 259.315779 108.941774 
z
" style="fill:#9999d9;"/>
    <path clip-path="url(#p4123850c84)" d="M 194.058276 113.372518 
L 158.444525 116.908269 
L 179.755574 134.995806 
z
" style="fill:#9999d9;"/>
    <path clip-path="url(#p4123850c84)" d="M 288.685759 52.179769 
L 281.237345 24.750909 
L 261.256899 59.628182 
z
" style="fill:#9999d9;"/>
    <path clip-path="url(#p4123850c84)" d="M 161.297806 60.693639 
L 141.728255 94.505455 
L 189.356215 87.87694 
z
" style="fill:#9999d9;"/>
    <path clip-path="url(#p4123850c84)" d="M 141.728255 94.505455 
L 138.069414 136.043959 
L 158.444525 116.908269 
z
" style="fill:#9999d9;"/>
    <path clip-path="url(#p4123850c84)" d="M 71.973709 164.26 
L 98.022507 146.821364 
L 71.973709 129.382727 
z
" style="fill:#9999d9;"/>
    <path clip-path="url(#p4123850c84)" d="M 99.110127 86.7646 
L 71.973709 94.505455 
L 110.304822 112.667975 
z
" style="fill:#9999d9;"/>
    <path clip-path="url(#p4123850c84)" d="M 99.900072 193.595775 
L 71.973709 164.26 
L 71.973709 199.137273 
z
" style="fill:#9999d9;"/>
    <path clip-path="url(#p4123850c84)" d="M 178.441897 222.085018 
L 137.461749 189.759766 
L 121.746484 211.852945 
z
" style="fill:#9999d9;"/>
    <path clip-path="url(#p4123850c84)" d="M 158.352356 172.477965 
L 117.604929 171.299408 
L 137.461749 189.759766 
z
" style="fill:#9999d9;"/>
    <path clip-path="url(#p4123850c84)" d="M 117.604929 171.299408 
L 138.069414 136.043959 
L 98.022507 146.821364 
z
" style="fill:#9999d9;"/>
    <path clip-path="url(#p4123850c84)" d="M 138.069414 136.043959 
L 110.304822 112.667975 
L 98.022507 146.821364 
z
" style="fill:#9999d9;"/>
    <path clip-path="url(#p4123850c84)" d="M 99.900072 193.595775 
L 121.746484 211.852945 
L 137.461749 189.759766 
z
" style="fill:#9999d9;"/>
    <path clip-path="url(#p4123850c84)" d="M 110.304822 112.667975 
L 138.069414 136.043959 
L 141.728255 94.505455 
z
" style="fill:#9999d9;"/>
    <path clip-path="url(#p4123850c84)" d="M 71.973709 164.26 
L 99.900072 193.595775 
L 117.604929 171.299408 
z
" style="fill:#9999d9;"/>
    <path clip-path="url(#p4123850c84)" d="M 101.919506 234.296681 
L 99.900072 193.595775 
L 71.973709 199.137273 
z
" style="fill:#9999d9;"/>
    <path clip-path="url(#p4123850c84)" d="M 141.728255 94.505455 
L 133.932261 67.424176 
L 99.110127 86.7646 
z
" style="fill:#9999d9;"/>
    <path clip-path="url(#p4123850c84)" d="M 71.973709 129.382727 
L 110.304822 112.667975 
L 71.973709 94.505455 
z
" style="fill:#9999d9;"/>
    <path clip-path="url(#p4123850c84)" d="M 281.237345 94.505455 
L 307.3953 85.786136 
L 288.685759 52.179769 
z
" style="fill:#9999d9;"/>
    <path clip-path="url(#p4123850c84)" d="M 224.621799 58.955439 
L 246.360073 24.750909 
L 211.4828 24.750909 
z
" style="fill:#9999d9;"/>
    <path clip-path="url(#p4123850c84)" d="M 192.859979 56.187886 
L 211.4828 24.750909 
L 176.605527 24.750909 
z
" style="fill:#9999d9;"/>
    <path clip-path="url(#p4123850c84)" d="M 261.256899 59.628182 
L 281.237345 24.750909 
L 246.360073 24.750909 
z
" style="fill:#9999d9;"/>
    <path clip-path="url(#p4123850c84)" d="M 214.730122 82.855359 
L 224.621799 58.955439 
L 192.859979 56.187886 
z
" style="fill:#9999d9;"/>
    <path clip-path="url(#p4123850c84)" d="M 194.058276 113.372518 
L 214.730122 82.855359 
L 189.356215 87.87694 
z
" style="fill:#9999d9;"/>
    <path clip-path="url(#p4123850c84)" d="M 161.297806 60.693639 
L 189.356215 87.87694 
L 192.859979 56.187886 
z
" style="fill:#9999d9;"/>
    <path clip-path="url(#p4123850c84)" d="M 238.596788 92.827003 
L 224.621799 58.955439 
L 214.730122 82.855359 
z
" style="fill:#9999d9;"/>
    <path clip-path="url(#p4123850c84)" d="M 189.356215 87.87694 
L 214.730122 82.855359 
L 192.859979 56.187886 
z
" style="fill:#9999d9;"/>
    <path clip-path="url(#p4123850c84)" d="M 141.728255 24.750909 
L 161.297806 60.693639 
L 176.605527 24.750909 
z
" style="fill:#9999d9;"/>
    <path clip-path="url(#p4123850c84)" d="M 211.4828 24.750909 
L 192.859979 56.187886 
L 224.621799 58.955439 
z
" style="fill:#9999d9;"/>
    <path clip-path="url(#p4123850c84)" d="M 176.605527 24.750909 
L 161.297806 60.693639 
L 192.859979 56.187886 
z
" style="fill:#9999d9;"/>
    <path clip-path="url(#p4123850c84)" d="M 101.919506 234.296681 
L 94.680267 281.062533 
L 115.5703 265.985379 
z
" style="fill:#9999d9;"/>
    <path clip-path="url(#p4123850c84)" d="M 71.973709 268.891818 
L 94.680267 281.062533 
L 101.919506 234.296681 
z
" style="fill:#9999d9;"/>
    <path clip-path="url(#p4123850c84)" d="M 71.973709 303.769091 
L 94.680267 281.062533 
L 71.973709 268.891818 
z
" style="fill:#9999d9;"/>
    <path clip-path="url(#p4123850c84)" d="M 307.3953 85.786136 
L 350.991891 94.505455 
L 316.114618 59.628182 
z
" style="fill:#9999d9;"/>
    <path clip-path="url(#p4123850c84)" d="M 320.474277 168.619659 
L 350.991891 129.382727 
L 298.675982 146.821364 
z
" style="fill:#9999d9;"/>
    <path clip-path="url(#p4123850c84)" d="M 281.237345 94.505455 
L 298.675982 146.821364 
L 316.114618 111.944091 
z
" style="fill:#9999d9;"/>
    <path clip-path="url(#p4123850c84)" d="M 281.237345 24.750909 
L 288.685759 52.179769 
L 316.114618 24.750909 
z
" style="fill:#9999d9;"/>
    <path clip-path="url(#p4123850c84)" d="M 350.991891 59.628182 
L 350.991891 24.750909 
L 316.114618 59.628182 
z
" style="fill:#9999d9;"/>
    <path clip-path="url(#p4123850c84)" d="M 350.991891 94.505455 
L 307.3953 85.786136 
L 316.114618 111.944091 
z
" style="fill:#9999d9;"/>
    <path clip-path="url(#p4123850c84)" d="M 307.3953 85.786136 
L 316.114618 59.628182 
L 288.685759 52.179769 
z
" style="fill:#9999d9;"/>
    <path clip-path="url(#p4123850c84)" d="M 288.685759 52.179769 
L 261.256899 59.628182 
L 281.237345 94.505455 
z
" style="fill:#9999d9;"/>
    <path clip-path="url(#p4123850c84)" d="M 316.114618 24.750909 
L 288.685759 52.179769 
L 316.114618 59.628182 
z
" style="fill:#9999d9;"/>
    <path clip-path="url(#p4123850c84)" d="M 316.114618 59.628182 
L 350.991891 94.505455 
L 350.991891 59.628182 
z
" style="fill:#9999d9;"/>
    <path clip-path="url(#p4123850c84)" d="M 316.114618 59.628182 
L 350.991891 24.750909 
L 316.114618 24.750909 
z
" style="fill:#9999d9;"/>
    <path clip-path="url(#p4123850c84)" d="M 71.973709 94.505455 
L 99.110127 86.7646 
L 71.973709 59.628182 
z
" style="fill:#9999d9;"/>
    <path clip-path="url(#p4123850c84)" d="M 106.850982 24.750909 
L 71.973709 24.750909 
L 106.850982 59.628182 
z
" style="fill:#9999d9;"/>
    <path clip-path="url(#p4123850c84)" d="M 141.728255 24.750909 
L 133.932261 67.424176 
L 161.297806 60.693639 
z
" style="fill:#9999d9;"/>
    <path clip-path="url(#p4123850c84)" d="M 133.932261 67.424176 
L 106.850982 59.628182 
L 99.110127 86.7646 
z
" style="fill:#9999d9;"/>
    <path clip-path="url(#p4123850c84)" d="M 99.110127 86.7646 
L 110.304822 112.667975 
L 141.728255 94.505455 
z
" style="fill:#9999d9;"/>
    <path clip-path="url(#p4123850c84)" d="M 71.973709 59.628182 
L 99.110127 86.7646 
L 106.850982 59.628182 
z
" style="fill:#9999d9;"/>
    <path clip-path="url(#p4123850c84)" d="M 106.850982 59.628182 
L 141.728255 24.750909 
L 106.850982 24.750909 
z
" style="fill:#9999d9;"/>
    <path clip-path="url(#p4123850c84)" d="M 106.850982 59.628182 
L 71.973709 24.750909 
L 71.973709 59.628182 
z
" style="fill:#9999d9;"/>
   </g>
   <g id="line2d_1">
    <path clip-path="url(#p4123850c84)" d="M 316.114618 199.137273 
L 281.237345 234.014545 
M 316.114618 199.137273 
L 350.991891 234.014545 
M 316.114618 268.891818 
L 350.991891 303.769091 
M 316.114618 268.891818 
L 281.237345 234.014545 
M 316.114618 268.891818 
L 281.237345 303.769091 
M 316.114618 268.891818 
L 350.991891 234.014545 
M 316.114618 234.014545 
L 281.237345 234.014545 
M 316.114618 234.014545 
L 350.991891 234.014545 
M 316.114618 234.014545 
L 316.114618 199.137273 
M 316.114618 234.014545 
L 316.114618 268.891818 
M 350.991891 199.137273 
L 350.991891 164.26 
M 350.991891 199.137273 
L 350.991891 234.014545 
M 350.991891 199.137273 
L 316.114618 199.137273 
M 298.675982 146.821364 
L 281.237345 94.505455 
M 281.237345 268.891818 
L 281.237345 234.014545 
M 281.237345 268.891818 
L 281.237345 303.769091 
M 281.237345 268.891818 
L 316.114618 268.891818 
M 246.360073 251.453182 
L 281.237345 234.014545 
M 246.360073 251.453182 
L 211.4828 234.014545 
M 246.360073 251.453182 
L 281.237345 268.891818 
M 215.842459 268.891818 
L 211.4828 303.769091 
M 215.842459 268.891818 
L 211.4828 234.014545 
M 215.842459 268.891818 
L 246.360073 251.453182 
M 246.360073 303.769091 
L 211.4828 303.769091 
M 246.360073 303.769091 
L 281.237345 303.769091 
M 246.360073 303.769091 
L 215.842459 268.891818 
M 176.605527 303.769091 
L 211.4828 303.769091 
M 176.605527 303.769091 
L 141.728255 303.769091 
M 255.079391 277.611136 
L 281.237345 303.769091 
M 255.079391 277.611136 
L 281.237345 268.891818 
M 255.079391 277.611136 
L 246.360073 251.453182 
M 255.079391 277.611136 
L 215.842459 268.891818 
M 255.079391 277.611136 
L 246.360073 303.769091 
M 159.166891 280.517576 
L 141.728255 303.769091 
M 159.166891 280.517576 
L 176.605527 303.769091 
M 159.166891 280.517576 
L 159.166891 251.453182 
M 185.716097 265.985379 
L 211.4828 303.769091 
M 185.716097 265.985379 
L 211.4828 234.014545 
M 185.716097 265.985379 
L 215.842459 268.891818 
M 185.716097 265.985379 
L 176.605527 303.769091 
M 185.716097 265.985379 
L 159.166891 251.453182 
M 185.716097 265.985379 
L 159.166891 280.517576 
M 115.5703 265.985379 
L 141.728255 303.769091 
M 115.5703 265.985379 
L 159.166891 251.453182 
M 115.5703 265.985379 
L 159.166891 280.517576 
M 106.850982 303.769091 
L 71.973709 303.769091 
M 106.850982 303.769091 
L 141.728255 303.769091 
M 106.850982 303.769091 
L 115.5703 265.985379 
M 131.24733 240.355484 
L 159.166891 251.453182 
M 131.24733 240.355484 
L 115.5703 265.985379 
M 131.24733 240.355484 
L 121.746484 211.852945 
M 101.919506 234.296681 
L 71.973709 234.014545 
M 101.919506 234.296681 
L 115.5703 265.985379 
M 101.919506 234.296681 
L 121.746484 211.852945 
M 101.919506 234.296681 
L 131.24733 240.355484 
M 316.114618 303.769091 
L 350.991891 303.769091 
M 316.114618 303.769091 
L 281.237345 303.769091 
M 316.114618 303.769091 
L 316.114618 268.891818 
M 350.991891 268.891818 
L 350.991891 303.769091 
M 350.991891 268.891818 
L 350.991891 234.014545 
M 350.991891 268.891818 
L 316.114618 268.891818 
M 320.474277 168.619659 
L 350.991891 164.26 
M 320.474277 168.619659 
L 316.114618 199.137273 
M 320.474277 168.619659 
L 350.991891 199.137273 
M 320.474277 168.619659 
L 298.675982 146.821364 
M 250.719732 133.742386 
L 211.4828 164.26 
M 250.719732 133.742386 
L 298.675982 146.821364 
M 268.158368 186.058295 
L 316.114618 199.137273 
M 268.158368 186.058295 
L 298.675982 146.821364 
M 268.158368 186.058295 
L 320.474277 168.619659 
M 243.246031 214.084675 
L 211.4828 234.014545 
M 243.246031 214.084675 
L 246.360073 251.453182 
M 243.246031 214.084675 
L 268.158368 186.058295 
M 268.740559 211.661138 
L 281.237345 234.014545 
M 268.740559 211.661138 
L 316.114618 199.137273 
M 268.740559 211.661138 
L 246.360073 251.453182 
M 268.740559 211.661138 
L 268.158368 186.058295 
M 268.740559 211.661138 
L 243.246031 214.084675 
M 236.726377 183.204087 
L 211.4828 164.26 
M 236.726377 183.204087 
L 268.158368 186.058295 
M 236.726377 183.204087 
L 243.246031 214.084675 
M 254.539784 161.53343 
L 211.4828 164.26 
M 254.539784 161.53343 
L 298.675982 146.821364 
M 254.539784 161.53343 
L 250.719732 133.742386 
M 254.539784 161.53343 
L 268.158368 186.058295 
M 254.539784 161.53343 
L 236.726377 183.204087 
M 205.039189 199.137273 
L 211.4828 164.26 
M 205.039189 199.137273 
L 211.4828 234.014545 
M 205.039189 199.137273 
L 243.246031 214.084675 
M 205.039189 199.137273 
L 236.726377 183.204087 
M 178.441897 222.085018 
L 211.4828 234.014545 
M 178.441897 222.085018 
L 159.166891 251.453182 
M 178.441897 222.085018 
L 185.716097 265.985379 
M 178.441897 222.085018 
L 121.746484 211.852945 
M 178.441897 222.085018 
L 131.24733 240.355484 
M 178.441897 222.085018 
L 205.039189 199.137273 
M 178.441897 222.085018 
L 158.352356 172.477965 
M 186.353303 177.651168 
L 211.4828 164.26 
M 186.353303 177.651168 
L 205.039189 199.137273 
M 186.353303 177.651168 
L 158.352356 172.477965 
M 186.353303 177.651168 
L 178.441897 222.085018 
M 179.755574 134.995806 
L 211.4828 164.26 
M 179.755574 134.995806 
L 158.352356 172.477965 
M 179.755574 134.995806 
L 186.353303 177.651168 
M 215.13348 128.471182 
L 211.4828 164.26 
M 215.13348 128.471182 
L 250.719732 133.742386 
M 215.13348 128.471182 
L 179.755574 134.995806 
M 238.596788 92.827003 
L 281.237345 94.505455 
M 238.596788 92.827003 
L 250.719732 133.742386 
M 238.596788 92.827003 
L 215.13348 128.471182 
M 189.356215 87.87694 
L 141.728255 94.505455 
M 194.058276 113.372518 
L 179.755574 134.995806 
M 194.058276 113.372518 
L 215.13348 128.471182 
M 194.058276 113.372518 
L 189.356215 87.87694 
M 138.069414 136.043959 
L 141.728255 94.505455 
M 138.069414 136.043959 
L 158.352356 172.477965 
M 138.069414 136.043959 
L 179.755574 134.995806 
M 259.315779 108.941774 
L 281.237345 94.505455 
M 259.315779 108.941774 
L 298.675982 146.821364 
M 259.315779 108.941774 
L 250.719732 133.742386 
M 259.315779 108.941774 
L 238.596788 92.827003 
M 158.444525 116.908269 
L 141.728255 94.505455 
M 158.444525 116.908269 
L 179.755574 134.995806 
M 158.444525 116.908269 
L 189.356215 87.87694 
M 158.444525 116.908269 
L 194.058276 113.372518 
M 158.444525 116.908269 
L 138.069414 136.043959 
M 117.604929 171.299408 
L 71.973709 164.26 
M 117.604929 171.299408 
L 158.352356 172.477965 
M 117.604929 171.299408 
L 138.069414 136.043959 
M 137.461749 189.759766 
L 121.746484 211.852945 
M 137.461749 189.759766 
L 158.352356 172.477965 
M 137.461749 189.759766 
L 178.441897 222.085018 
M 137.461749 189.759766 
L 117.604929 171.299408 
M 71.973709 129.382727 
L 71.973709 164.26 
M 71.973709 129.382727 
L 71.973709 94.505455 
M 71.973709 199.137273 
L 71.973709 164.26 
M 71.973709 199.137273 
L 71.973709 234.014545 
M 71.973709 199.137273 
L 101.919506 234.296681 
M 98.022507 146.821364 
L 71.973709 164.26 
M 98.022507 146.821364 
L 138.069414 136.043959 
M 98.022507 146.821364 
L 117.604929 171.299408 
M 98.022507 146.821364 
L 71.973709 129.382727 
M 99.900072 193.595775 
L 71.973709 164.26 
M 99.900072 193.595775 
L 121.746484 211.852945 
M 99.900072 193.595775 
L 101.919506 234.296681 
M 99.900072 193.595775 
L 117.604929 171.299408 
M 99.900072 193.595775 
L 137.461749 189.759766 
M 99.900072 193.595775 
L 71.973709 199.137273 
M 110.304822 112.667975 
L 141.728255 94.505455 
M 110.304822 112.667975 
L 138.069414 136.043959 
M 110.304822 112.667975 
L 71.973709 94.505455 
M 110.304822 112.667975 
L 71.973709 129.382727 
M 110.304822 112.667975 
L 98.022507 146.821364 
M 261.256899 59.628182 
L 281.237345 94.505455 
M 261.256899 59.628182 
L 238.596788 92.827003 
M 261.256899 59.628182 
L 281.237345 24.750909 
M 246.360073 24.750909 
L 211.4828 24.750909 
M 246.360073 24.750909 
L 281.237345 24.750909 
M 246.360073 24.750909 
L 261.256899 59.628182 
M 224.621799 58.955439 
L 211.4828 24.750909 
M 224.621799 58.955439 
L 238.596788 92.827003 
M 224.621799 58.955439 
L 261.256899 59.628182 
M 224.621799 58.955439 
L 246.360073 24.750909 
M 176.605527 24.750909 
L 211.4828 24.750909 
M 176.605527 24.750909 
L 141.728255 24.750909 
M 214.730122 82.855359 
L 215.13348 128.471182 
M 214.730122 82.855359 
L 238.596788 92.827003 
M 214.730122 82.855359 
L 189.356215 87.87694 
M 214.730122 82.855359 
L 194.058276 113.372518 
M 214.730122 82.855359 
L 224.621799 58.955439 
M 161.297806 60.693639 
L 141.728255 94.505455 
M 161.297806 60.693639 
L 189.356215 87.87694 
M 161.297806 60.693639 
L 141.728255 24.750909 
M 161.297806 60.693639 
L 176.605527 24.750909 
M 192.859979 56.187886 
L 211.4828 24.750909 
M 192.859979 56.187886 
L 189.356215 87.87694 
M 192.859979 56.187886 
L 224.621799 58.955439 
M 192.859979 56.187886 
L 176.605527 24.750909 
M 192.859979 56.187886 
L 214.730122 82.855359 
M 192.859979 56.187886 
L 161.297806 60.693639 
M 71.973709 268.891818 
L 71.973709 303.769091 
M 71.973709 268.891818 
L 71.973709 234.014545 
M 71.973709 268.891818 
L 101.919506 234.296681 
M 94.680267 281.062533 
L 71.973709 303.769091 
M 94.680267 281.062533 
L 115.5703 265.985379 
M 94.680267 281.062533 
L 106.850982 303.769091 
M 94.680267 281.062533 
L 101.919506 234.296681 
M 94.680267 281.062533 
L 71.973709 268.891818 
M 350.991891 129.382727 
L 350.991891 164.26 
M 350.991891 129.382727 
L 298.675982 146.821364 
M 350.991891 129.382727 
L 320.474277 168.619659 
M 350.991891 129.382727 
L 350.991891 94.505455 
M 316.114618 111.944091 
L 281.237345 94.505455 
M 316.114618 111.944091 
L 298.675982 146.821364 
M 316.114618 111.944091 
L 350.991891 94.505455 
M 316.114618 111.944091 
L 350.991891 129.382727 
M 316.114618 59.628182 
L 350.991891 24.750909 
M 316.114618 59.628182 
L 350.991891 94.505455 
M 307.3953 85.786136 
L 281.237345 94.505455 
M 307.3953 85.786136 
L 350.991891 94.505455 
M 307.3953 85.786136 
L 316.114618 111.944091 
M 307.3953 85.786136 
L 316.114618 59.628182 
M 288.685759 52.179769 
L 281.237345 94.505455 
M 288.685759 52.179769 
L 281.237345 24.750909 
M 288.685759 52.179769 
L 261.256899 59.628182 
M 288.685759 52.179769 
L 316.114618 59.628182 
M 288.685759 52.179769 
L 307.3953 85.786136 
M 350.991891 59.628182 
L 350.991891 24.750909 
M 350.991891 59.628182 
L 350.991891 94.505455 
M 350.991891 59.628182 
L 316.114618 59.628182 
M 316.114618 24.750909 
L 350.991891 24.750909 
M 316.114618 24.750909 
L 281.237345 24.750909 
M 316.114618 24.750909 
L 316.114618 59.628182 
M 316.114618 24.750909 
L 288.685759 52.179769 
M 106.850982 59.628182 
L 71.973709 24.750909 
M 106.850982 59.628182 
L 141.728255 24.750909 
M 133.932261 67.424176 
L 141.728255 94.505455 
M 133.932261 67.424176 
L 141.728255 24.750909 
M 133.932261 67.424176 
L 161.297806 60.693639 
M 133.932261 67.424176 
L 106.850982 59.628182 
M 99.110127 86.7646 
L 141.728255 94.505455 
M 99.110127 86.7646 
L 71.973709 94.505455 
M 99.110127 86.7646 
L 110.304822 112.667975 
M 99.110127 86.7646 
L 106.850982 59.628182 
M 99.110127 86.7646 
L 133.932261 67.424176 
M 106.850982 24.750909 
L 71.973709 24.750909 
M 106.850982 24.750909 
L 141.728255 24.750909 
M 106.850982 24.750909 
L 106.850982 59.628182 
M 71.973709 59.628182 
L 71.973709 24.750909 
M 71.973709 59.628182 
L 71.973709 94.505455 
M 71.973709 59.628182 
L 106.850982 59.628182 
M 71.973709 59.628182 
L 99.110127 86.7646 
L 99.110127 86.7646 
" style="fill:none;stroke:#000000;stroke-linecap:square;stroke-width:0.5;"/>
   </g>
   <g id="matplotlib.axis_1">
    <g id="xtick_1">
     <g id="line2d_2">
      <defs>
       <path d="M 0 0 
L 0 3.5 
" id="m34e7d08249" style="stroke:#000000;stroke-width:0.8;"/>
      </defs>
      <g>
       <use style="stroke:#000000;stroke-width:0.8;" x="71.973709" xlink:href="#m34e7d08249" y="317.72"/>
      </g>
     </g>
     <g id="text_1">
      <!-- 0.0 -->
      <g transform="translate(64.022147 332.318437)scale(0.1 -0.1)">
       <defs>
        <path d="M 31.78125 66.40625 
Q 24.171875 66.40625 20.328125 58.90625 
Q 16.5 51.421875 16.5 36.375 
Q 16.5 21.390625 20.328125 13.890625 
Q 24.171875 6.390625 31.78125 6.390625 
Q 39.453125 6.390625 43.28125 13.890625 
Q 47.125 21.390625 47.125 36.375 
Q 47.125 51.421875 43.28125 58.90625 
Q 39.453125 66.40625 31.78125 66.40625 
z
M 31.78125 74.21875 
Q 44.046875 74.21875 50.515625 64.515625 
Q 56.984375 54.828125 56.984375 36.375 
Q 56.984375 17.96875 50.515625 8.265625 
Q 44.046875 -1.421875 31.78125 -1.421875 
Q 19.53125 -1.421875 13.0625 8.265625 
Q 6.59375 17.96875 6.59375 36.375 
Q 6.59375 54.828125 13.0625 64.515625 
Q 19.53125 74.21875 31.78125 74.21875 
z
" id="DejaVuSans-48"/>
        <path d="M 10.6875 12.40625 
L 21 12.40625 
L 21 0 
L 10.6875 0 
z
" id="DejaVuSans-46"/>
       </defs>
       <use xlink:href="#DejaVuSans-48"/>
       <use x="63.623047" xlink:href="#DejaVuSans-46"/>
       <use x="95.410156" xlink:href="#DejaVuSans-48"/>
      </g>
     </g>
    </g>
    <g id="xtick_2">
     <g id="line2d_3">
      <g>
       <use style="stroke:#000000;stroke-width:0.8;" x="127.777345" xlink:href="#m34e7d08249" y="317.72"/>
      </g>
     </g>
     <g id="text_2">
      <!-- 0.2 -->
      <g transform="translate(119.825783 332.318437)scale(0.1 -0.1)">
       <defs>
        <path d="M 19.1875 8.296875 
L 53.609375 8.296875 
L 53.609375 0 
L 7.328125 0 
L 7.328125 8.296875 
Q 12.9375 14.109375 22.625 23.890625 
Q 32.328125 33.6875 34.8125 36.53125 
Q 39.546875 41.84375 41.421875 45.53125 
Q 43.3125 49.21875 43.3125 52.78125 
Q 43.3125 58.59375 39.234375 62.25 
Q 35.15625 65.921875 28.609375 65.921875 
Q 23.96875 65.921875 18.8125 64.3125 
Q 13.671875 62.703125 7.8125 59.421875 
L 7.8125 69.390625 
Q 13.765625 71.78125 18.9375 73 
Q 24.125 74.21875 28.421875 74.21875 
Q 39.75 74.21875 46.484375 68.546875 
Q 53.21875 62.890625 53.21875 53.421875 
Q 53.21875 48.921875 51.53125 44.890625 
Q 49.859375 40.875 45.40625 35.40625 
Q 44.1875 33.984375 37.640625 27.21875 
Q 31.109375 20.453125 19.1875 8.296875 
z
" id="DejaVuSans-50"/>
       </defs>
       <use xlink:href="#DejaVuSans-48"/>
       <use x="63.623047" xlink:href="#DejaVuSans-46"/>
       <use x="95.410156" xlink:href="#DejaVuSans-50"/>
      </g>
     </g>
    </g>
    <g id="xtick_3">
     <g id="line2d_4">
      <g>
       <use style="stroke:#000000;stroke-width:0.8;" x="183.580982" xlink:href="#m34e7d08249" y="317.72"/>
      </g>
     </g>
     <g id="text_3">
      <!-- 0.4 -->
      <g transform="translate(175.629419 332.318437)scale(0.1 -0.1)">
       <defs>
        <path d="M 37.796875 64.3125 
L 12.890625 25.390625 
L 37.796875 25.390625 
z
M 35.203125 72.90625 
L 47.609375 72.90625 
L 47.609375 25.390625 
L 58.015625 25.390625 
L 58.015625 17.1875 
L 47.609375 17.1875 
L 47.609375 0 
L 37.796875 0 
L 37.796875 17.1875 
L 4.890625 17.1875 
L 4.890625 26.703125 
z
" id="DejaVuSans-52"/>
       </defs>
       <use xlink:href="#DejaVuSans-48"/>
       <use x="63.623047" xlink:href="#DejaVuSans-46"/>
       <use x="95.410156" xlink:href="#DejaVuSans-52"/>
      </g>
     </g>
    </g>
    <g id="xtick_4">
     <g id="line2d_5">
      <g>
       <use style="stroke:#000000;stroke-width:0.8;" x="239.384618" xlink:href="#m34e7d08249" y="317.72"/>
      </g>
     </g>
     <g id="text_4">
      <!-- 0.6 -->
      <g transform="translate(231.433056 332.318437)scale(0.1 -0.1)">
       <defs>
        <path d="M 33.015625 40.375 
Q 26.375 40.375 22.484375 35.828125 
Q 18.609375 31.296875 18.609375 23.390625 
Q 18.609375 15.53125 22.484375 10.953125 
Q 26.375 6.390625 33.015625 6.390625 
Q 39.65625 6.390625 43.53125 10.953125 
Q 47.40625 15.53125 47.40625 23.390625 
Q 47.40625 31.296875 43.53125 35.828125 
Q 39.65625 40.375 33.015625 40.375 
z
M 52.59375 71.296875 
L 52.59375 62.3125 
Q 48.875 64.0625 45.09375 64.984375 
Q 41.3125 65.921875 37.59375 65.921875 
Q 27.828125 65.921875 22.671875 59.328125 
Q 17.53125 52.734375 16.796875 39.40625 
Q 19.671875 43.65625 24.015625 45.921875 
Q 28.375 48.1875 33.59375 48.1875 
Q 44.578125 48.1875 50.953125 41.515625 
Q 57.328125 34.859375 57.328125 23.390625 
Q 57.328125 12.15625 50.6875 5.359375 
Q 44.046875 -1.421875 33.015625 -1.421875 
Q 20.359375 -1.421875 13.671875 8.265625 
Q 6.984375 17.96875 6.984375 36.375 
Q 6.984375 53.65625 15.1875 63.9375 
Q 23.390625 74.21875 37.203125 74.21875 
Q 40.921875 74.21875 44.703125 73.484375 
Q 48.484375 72.75 52.59375 71.296875 
z
" id="DejaVuSans-54"/>
       </defs>
       <use xlink:href="#DejaVuSans-48"/>
       <use x="63.623047" xlink:href="#DejaVuSans-46"/>
       <use x="95.410156" xlink:href="#DejaVuSans-54"/>
      </g>
     </g>
    </g>
    <g id="xtick_5">
     <g id="line2d_6">
      <g>
       <use style="stroke:#000000;stroke-width:0.8;" x="295.188255" xlink:href="#m34e7d08249" y="317.72"/>
      </g>
     </g>
     <g id="text_5">
      <!-- 0.8 -->
      <g transform="translate(287.236692 332.318437)scale(0.1 -0.1)">
       <defs>
        <path d="M 31.78125 34.625 
Q 24.75 34.625 20.71875 30.859375 
Q 16.703125 27.09375 16.703125 20.515625 
Q 16.703125 13.921875 20.71875 10.15625 
Q 24.75 6.390625 31.78125 6.390625 
Q 38.8125 6.390625 42.859375 10.171875 
Q 46.921875 13.96875 46.921875 20.515625 
Q 46.921875 27.09375 42.890625 30.859375 
Q 38.875 34.625 31.78125 34.625 
z
M 21.921875 38.8125 
Q 15.578125 40.375 12.03125 44.71875 
Q 8.5 49.078125 8.5 55.328125 
Q 8.5 64.0625 14.71875 69.140625 
Q 20.953125 74.21875 31.78125 74.21875 
Q 42.671875 74.21875 48.875 69.140625 
Q 55.078125 64.0625 55.078125 55.328125 
Q 55.078125 49.078125 51.53125 44.71875 
Q 48 40.375 41.703125 38.8125 
Q 48.828125 37.15625 52.796875 32.3125 
Q 56.78125 27.484375 56.78125 20.515625 
Q 56.78125 9.90625 50.3125 4.234375 
Q 43.84375 -1.421875 31.78125 -1.421875 
Q 19.734375 -1.421875 13.25 4.234375 
Q 6.78125 9.90625 6.78125 20.515625 
Q 6.78125 27.484375 10.78125 32.3125 
Q 14.796875 37.15625 21.921875 38.8125 
z
M 18.3125 54.390625 
Q 18.3125 48.734375 21.84375 45.5625 
Q 25.390625 42.390625 31.78125 42.390625 
Q 38.140625 42.390625 41.71875 45.5625 
Q 45.3125 48.734375 45.3125 54.390625 
Q 45.3125 60.0625 41.71875 63.234375 
Q 38.140625 66.40625 31.78125 66.40625 
Q 25.390625 66.40625 21.84375 63.234375 
Q 18.3125 60.0625 18.3125 54.390625 
z
" id="DejaVuSans-56"/>
       </defs>
       <use xlink:href="#DejaVuSans-48"/>
       <use x="63.623047" xlink:href="#DejaVuSans-46"/>
       <use x="95.410156" xlink:href="#DejaVuSans-56"/>
      </g>
     </g>
    </g>
    <g id="xtick_6">
     <g id="line2d_7">
      <g>
       <use style="stroke:#000000;stroke-width:0.8;" x="350.991891" xlink:href="#m34e7d08249" y="317.72"/>
      </g>
     </g>
     <g id="text_6">
      <!-- 1.0 -->
      <g transform="translate(343.040328 332.318437)scale(0.1 -0.1)">
       <defs>
        <path d="M 12.40625 8.296875 
L 28.515625 8.296875 
L 28.515625 63.921875 
L 10.984375 60.40625 
L 10.984375 69.390625 
L 28.421875 72.90625 
L 38.28125 72.90625 
L 38.28125 8.296875 
L 54.390625 8.296875 
L 54.390625 0 
L 12.40625 0 
z
" id="DejaVuSans-49"/>
       </defs>
       <use xlink:href="#DejaVuSans-49"/>
       <use x="63.623047" xlink:href="#DejaVuSans-46"/>
       <use x="95.410156" xlink:href="#DejaVuSans-48"/>
      </g>
     </g>
    </g>
   </g>
   <g id="matplotlib.axis_2">
    <g id="ytick_1">
     <g id="line2d_8">
      <defs>
       <path d="M 0 0 
L -3.5 0 
" id="m20563befc0" style="stroke:#000000;stroke-width:0.8;"/>
      </defs>
      <g>
       <use style="stroke:#000000;stroke-width:0.8;" x="58.0228" xlink:href="#m20563befc0" y="303.769091"/>
      </g>
     </g>
     <g id="text_7">
      <!-- 0.0 -->
      <g transform="translate(35.119675 307.56831)scale(0.1 -0.1)">
       <use xlink:href="#DejaVuSans-48"/>
       <use x="63.623047" xlink:href="#DejaVuSans-46"/>
       <use x="95.410156" xlink:href="#DejaVuSans-48"/>
      </g>
     </g>
    </g>
    <g id="ytick_2">
     <g id="line2d_9">
      <g>
       <use style="stroke:#000000;stroke-width:0.8;" x="58.0228" xlink:href="#m20563befc0" y="247.965455"/>
      </g>
     </g>
     <g id="text_8">
      <!-- 0.2 -->
      <g transform="translate(35.119675 251.764673)scale(0.1 -0.1)">
       <use xlink:href="#DejaVuSans-48"/>
       <use x="63.623047" xlink:href="#DejaVuSans-46"/>
       <use x="95.410156" xlink:href="#DejaVuSans-50"/>
      </g>
     </g>
    </g>
    <g id="ytick_3">
     <g id="line2d_10">
      <g>
       <use style="stroke:#000000;stroke-width:0.8;" x="58.0228" xlink:href="#m20563befc0" y="192.161818"/>
      </g>
     </g>
     <g id="text_9">
      <!-- 0.4 -->
      <g transform="translate(35.119675 195.961037)scale(0.1 -0.1)">
       <use xlink:href="#DejaVuSans-48"/>
       <use x="63.623047" xlink:href="#DejaVuSans-46"/>
       <use x="95.410156" xlink:href="#DejaVuSans-52"/>
      </g>
     </g>
    </g>
    <g id="ytick_4">
     <g id="line2d_11">
      <g>
       <use style="stroke:#000000;stroke-width:0.8;" x="58.0228" xlink:href="#m20563befc0" y="136.358182"/>
      </g>
     </g>
     <g id="text_10">
      <!-- 0.6 -->
      <g transform="translate(35.119675 140.157401)scale(0.1 -0.1)">
       <use xlink:href="#DejaVuSans-48"/>
       <use x="63.623047" xlink:href="#DejaVuSans-46"/>
       <use x="95.410156" xlink:href="#DejaVuSans-54"/>
      </g>
     </g>
    </g>
    <g id="ytick_5">
     <g id="line2d_12">
      <g>
       <use style="stroke:#000000;stroke-width:0.8;" x="58.0228" xlink:href="#m20563befc0" y="80.554545"/>
      </g>
     </g>
     <g id="text_11">
      <!-- 0.8 -->
      <g transform="translate(35.119675 84.353764)scale(0.1 -0.1)">
       <use xlink:href="#DejaVuSans-48"/>
       <use x="63.623047" xlink:href="#DejaVuSans-46"/>
       <use x="95.410156" xlink:href="#DejaVuSans-56"/>
      </g>
     </g>
    </g>
    <g id="ytick_6">
     <g id="line2d_13">
      <g>
       <use style="stroke:#000000;stroke-width:0.8;" x="58.0228" xlink:href="#m20563befc0" y="24.750909"/>
      </g>
     </g>
     <g id="text_12">
      <!-- 1.0 -->
      <g transform="translate(35.119675 28.550128)scale(0.1 -0.1)">
       <use xlink:href="#DejaVuSans-49"/>
       <use x="63.623047" xlink:href="#DejaVuSans-46"/>
       <use x="95.410156" xlink:href="#DejaVuSans-48"/>
      </g>
     </g>
    </g>
   </g>
   <g id="LineCollection_1">
    <path clip-path="url(#p4123850c84)" d="M 71.973709 303.769091 
L 71.973709 268.891818 
" style="fill:none;stroke:#ff0000;stroke-width:3;"/>
    <path clip-path="url(#p4123850c84)" d="M 71.973709 24.750909 
L 106.850982 24.750909 
" style="fill:none;stroke:#00ff00;stroke-width:3;"/>
    <path clip-path="url(#p4123850c84)" d="M 350.991891 24.750909 
L 350.991891 59.628182 
" style="fill:none;stroke:#0000ff;stroke-width:3;"/>
    <path clip-path="url(#p4123850c84)" d="M 350.991891 303.769091 
L 316.114618 303.769091 
" style="fill:none;stroke:#00cfff;stroke-width:3;"/>
    <path clip-path="url(#p4123850c84)" d="M 71.973709 164.26 
L 71.973709 129.382727 
" style="fill:none;stroke:#ff0000;stroke-width:3;"/>
    <path clip-path="url(#p4123850c84)" d="M 211.4828 303.769091 
L 176.605527 303.769091 
" style="fill:none;stroke:#00cfff;stroke-width:3;"/>
    <path clip-path="url(#p4123850c84)" d="M 350.991891 164.26 
L 350.991891 199.137273 
" style="fill:none;stroke:#0000ff;stroke-width:3;"/>
    <path clip-path="url(#p4123850c84)" d="M 211.4828 24.750909 
L 246.360073 24.750909 
" style="fill:none;stroke:#00ff00;stroke-width:3;"/>
    <path clip-path="url(#p4123850c84)" d="M 281.237345 303.769091 
L 246.360073 303.769091 
" style="fill:none;stroke:#00cfff;stroke-width:3;"/>
    <path clip-path="url(#p4123850c84)" d="M 350.991891 234.014545 
L 350.991891 268.891818 
" style="fill:none;stroke:#0000ff;stroke-width:3;"/>
    <path clip-path="url(#p4123850c84)" d="M 350.991891 199.137273 
L 350.991891 234.014545 
" style="fill:none;stroke:#0000ff;stroke-width:3;"/>
    <path clip-path="url(#p4123850c84)" d="M 141.728255 303.769091 
L 106.850982 303.769091 
" style="fill:none;stroke:#00cfff;stroke-width:3;"/>
    <path clip-path="url(#p4123850c84)" d="M 246.360073 303.769091 
L 211.4828 303.769091 
" style="fill:none;stroke:#00cfff;stroke-width:3;"/>
    <path clip-path="url(#p4123850c84)" d="M 176.605527 303.769091 
L 141.728255 303.769091 
" style="fill:none;stroke:#00cfff;stroke-width:3;"/>
    <path clip-path="url(#p4123850c84)" d="M 71.973709 234.014545 
L 71.973709 199.137273 
" style="fill:none;stroke:#ff0000;stroke-width:3;"/>
    <path clip-path="url(#p4123850c84)" d="M 106.850982 303.769091 
L 71.973709 303.769091 
" style="fill:none;stroke:#00cfff;stroke-width:3;"/>
    <path clip-path="url(#p4123850c84)" d="M 316.114618 303.769091 
L 281.237345 303.769091 
" style="fill:none;stroke:#00cfff;stroke-width:3;"/>
    <path clip-path="url(#p4123850c84)" d="M 350.991891 268.891818 
L 350.991891 303.769091 
" style="fill:none;stroke:#0000ff;stroke-width:3;"/>
    <path clip-path="url(#p4123850c84)" d="M 350.991891 94.505455 
L 350.991891 129.382727 
" style="fill:none;stroke:#0000ff;stroke-width:3;"/>
    <path clip-path="url(#p4123850c84)" d="M 281.237345 24.750909 
L 316.114618 24.750909 
" style="fill:none;stroke:#00ff00;stroke-width:3;"/>
    <path clip-path="url(#p4123850c84)" d="M 141.728255 24.750909 
L 176.605527 24.750909 
" style="fill:none;stroke:#00ff00;stroke-width:3;"/>
    <path clip-path="url(#p4123850c84)" d="M 71.973709 94.505455 
L 71.973709 59.628182 
" style="fill:none;stroke:#ff0000;stroke-width:3;"/>
    <path clip-path="url(#p4123850c84)" d="M 71.973709 129.382727 
L 71.973709 94.505455 
" style="fill:none;stroke:#ff0000;stroke-width:3;"/>
    <path clip-path="url(#p4123850c84)" d="M 71.973709 199.137273 
L 71.973709 164.26 
" style="fill:none;stroke:#ff0000;stroke-width:3;"/>
    <path clip-path="url(#p4123850c84)" d="M 246.360073 24.750909 
L 281.237345 24.750909 
" style="fill:none;stroke:#00ff00;stroke-width:3;"/>
    <path clip-path="url(#p4123850c84)" d="M 176.605527 24.750909 
L 211.4828 24.750909 
" style="fill:none;stroke:#00ff00;stroke-width:3;"/>
    <path clip-path="url(#p4123850c84)" d="M 71.973709 268.891818 
L 71.973709 234.014545 
" style="fill:none;stroke:#ff0000;stroke-width:3;"/>
    <path clip-path="url(#p4123850c84)" d="M 350.991891 129.382727 
L 350.991891 164.26 
" style="fill:none;stroke:#0000ff;stroke-width:3;"/>
    <path clip-path="url(#p4123850c84)" d="M 350.991891 59.628182 
L 350.991891 94.505455 
" style="fill:none;stroke:#0000ff;stroke-width:3;"/>
    <path clip-path="url(#p4123850c84)" d="M 316.114618 24.750909 
L 350.991891 24.750909 
" style="fill:none;stroke:#00ff00;stroke-width:3;"/>
    <path clip-path="url(#p4123850c84)" d="M 106.850982 24.750909 
L 141.728255 24.750909 
" style="fill:none;stroke:#00ff00;stroke-width:3;"/>
    <path clip-path="url(#p4123850c84)" d="M 71.973709 59.628182 
L 71.973709 24.750909 
" style="fill:none;stroke:#ff0000;stroke-width:3;"/>
   </g>
   <g id="line2d_14"/>
   <g id="line2d_15">
    <path clip-path="url(#p4123850c84)" d="M 71.973709 303.769091 
L 71.973709 303.769091 
" style="fill:none;stroke:#ff0000;stroke-linecap:square;stroke-width:1.5;"/>
   </g>
   <g id="line2d_16">
    <path clip-path="url(#p4123850c84)" d="M 71.973709 303.769091 
L 71.973709 303.769091 
" style="fill:none;stroke:#00ff00;stroke-linecap:square;stroke-width:1.5;"/>
   </g>
   <g id="line2d_17">
    <path clip-path="url(#p4123850c84)" d="M 71.973709 303.769091 
L 71.973709 303.769091 
" style="fill:none;stroke:#0000ff;stroke-linecap:square;stroke-width:1.5;"/>
   </g>
   <g id="line2d_18">
    <path clip-path="url(#p4123850c84)" d="M 71.973709 303.769091 
L 71.973709 303.769091 
" style="fill:none;stroke:#00cfff;stroke-linecap:square;stroke-width:1.5;"/>
   </g>
   <g id="patch_3">
    <path d="M 58.0228 317.72 
L 58.0228 10.8 
" style="fill:none;stroke:#000000;stroke-linecap:square;stroke-linejoin:miter;stroke-width:0.8;"/>
   </g>
   <g id="patch_4">
    <path d="M 364.9428 317.72 
L 364.9428 10.8 
" style="fill:none;stroke:#000000;stroke-linecap:square;stroke-linejoin:miter;stroke-width:0.8;"/>
   </g>
   <g id="patch_5">
    <path d="M 58.0228 317.72 
L 364.9428 317.72 
" style="fill:none;stroke:#000000;stroke-linecap:square;stroke-linejoin:miter;stroke-width:0.8;"/>
   </g>
   <g id="patch_6">
    <path d="M 58.0228 10.8 
L 364.9428 10.8 
" style="fill:none;stroke:#000000;stroke-linecap:square;stroke-linejoin:miter;stroke-width:0.8;"/>
   </g>
   <g id="legend_1">
    <g id="patch_7">
     <path d="M 308.231863 78.625 
L 357.9428 78.625 
Q 359.9428 78.625 359.9428 76.625 
L 359.9428 17.8 
Q 359.9428 15.8 357.9428 15.8 
L 308.231863 15.8 
Q 306.231863 15.8 306.231863 17.8 
L 306.231863 76.625 
Q 306.231863 78.625 308.231863 78.625 
z
" style="fill:#ffffff;opacity:0.8;stroke:#cccccc;stroke-linejoin:miter;"/>
    </g>
    <g id="line2d_19">
     <path d="M 310.231863 23.898438 
L 330.231863 23.898438 
" style="fill:none;stroke:#ff0000;stroke-linecap:square;stroke-width:1.5;"/>
    </g>
    <g id="line2d_20"/>
    <g id="text_13">
     <!-- b_1 -->
     <g transform="translate(338.231863 27.398438)scale(0.1 -0.1)">
      <defs>
       <path d="M 48.6875 27.296875 
Q 48.6875 37.203125 44.609375 42.84375 
Q 40.53125 48.484375 33.40625 48.484375 
Q 26.265625 48.484375 22.1875 42.84375 
Q 18.109375 37.203125 18.109375 27.296875 
Q 18.109375 17.390625 22.1875 11.75 
Q 26.265625 6.109375 33.40625 6.109375 
Q 40.53125 6.109375 44.609375 11.75 
Q 48.6875 17.390625 48.6875 27.296875 
z
M 18.109375 46.390625 
Q 20.953125 51.265625 25.265625 53.625 
Q 29.59375 56 35.59375 56 
Q 45.5625 56 51.78125 48.09375 
Q 58.015625 40.1875 58.015625 27.296875 
Q 58.015625 14.40625 51.78125 6.484375 
Q 45.5625 -1.421875 35.59375 -1.421875 
Q 29.59375 -1.421875 25.265625 0.953125 
Q 20.953125 3.328125 18.109375 8.203125 
L 18.109375 0 
L 9.078125 0 
L 9.078125 75.984375 
L 18.109375 75.984375 
z
" id="DejaVuSans-98"/>
       <path d="M 50.984375 -16.609375 
L 50.984375 -23.578125 
L -0.984375 -23.578125 
L -0.984375 -16.609375 
z
" id="DejaVuSans-95"/>
      </defs>
      <use xlink:href="#DejaVuSans-98"/>
      <use x="63.476562" xlink:href="#DejaVuSans-95"/>
      <use x="113.476562" xlink:href="#DejaVuSans-49"/>
     </g>
    </g>
    <g id="line2d_21">
     <path d="M 310.231863 38.854688 
L 330.231863 38.854688 
" style="fill:none;stroke:#00ff00;stroke-linecap:square;stroke-width:1.5;"/>
    </g>
    <g id="line2d_22"/>
    <g id="text_14">
     <!-- b_2 -->
     <g transform="translate(338.231863 42.354688)scale(0.1 -0.1)">
      <use xlink:href="#DejaVuSans-98"/>
      <use x="63.476562" xlink:href="#DejaVuSans-95"/>
      <use x="113.476562" xlink:href="#DejaVuSans-50"/>
     </g>
    </g>
    <g id="line2d_23">
     <path d="M 310.231863 53.810938 
L 330.231863 53.810938 
" style="fill:none;stroke:#0000ff;stroke-linecap:square;stroke-width:1.5;"/>
    </g>
    <g id="line2d_24"/>
    <g id="text_15">
     <!-- b_3 -->
     <g transform="translate(338.231863 57.310938)scale(0.1 -0.1)">
      <defs>
       <path d="M 40.578125 39.3125 
Q 47.65625 37.796875 51.625 33 
Q 55.609375 28.21875 55.609375 21.1875 
Q 55.609375 10.40625 48.1875 4.484375 
Q 40.765625 -1.421875 27.09375 -1.421875 
Q 22.515625 -1.421875 17.65625 -0.515625 
Q 12.796875 0.390625 7.625 2.203125 
L 7.625 11.71875 
Q 11.71875 9.328125 16.59375 8.109375 
Q 21.484375 6.890625 26.8125 6.890625 
Q 36.078125 6.890625 40.9375 10.546875 
Q 45.796875 14.203125 45.796875 21.1875 
Q 45.796875 27.640625 41.28125 31.265625 
Q 36.765625 34.90625 28.71875 34.90625 
L 20.21875 34.90625 
L 20.21875 43.015625 
L 29.109375 43.015625 
Q 36.375 43.015625 40.234375 45.921875 
Q 44.09375 48.828125 44.09375 54.296875 
Q 44.09375 59.90625 40.109375 62.90625 
Q 36.140625 65.921875 28.71875 65.921875 
Q 24.65625 65.921875 20.015625 65.03125 
Q 15.375 64.15625 9.8125 62.3125 
L 9.8125 71.09375 
Q 15.4375 72.65625 20.34375 73.4375 
Q 25.25 74.21875 29.59375 74.21875 
Q 40.828125 74.21875 47.359375 69.109375 
Q 53.90625 64.015625 53.90625 55.328125 
Q 53.90625 49.265625 50.4375 45.09375 
Q 46.96875 40.921875 40.578125 39.3125 
z
" id="DejaVuSans-51"/>
      </defs>
      <use xlink:href="#DejaVuSans-98"/>
      <use x="63.476562" xlink:href="#DejaVuSans-95"/>
      <use x="113.476562" xlink:href="#DejaVuSans-51"/>
     </g>
    </g>
    <g id="line2d_25">
     <path d="M 310.231863 68.767188 
L 330.231863 68.767188 
" style="fill:none;stroke:#00cfff;stroke-linecap:square;stroke-width:1.5;"/>
    </g>
    <g id="line2d_26"/>
    <g id="text_16">
     <!-- b_4 -->
     <g transform="translate(338.231863 72.267188)scale(0.1 -0.1)">
      <use xlink:href="#DejaVuSans-98"/>
      <use x="63.476562" xlink:href="#DejaVuSans-95"/>
      <use x="113.476562" xlink:href="#DejaVuSans-52"/>
     </g>
    </g>
   </g>
  </g>
  <g id="axes_2">
   <g id="patch_8">
    <path clip-path="url(#pfd77919ec7)" d="M 386.2071 317.72 
L 386.2071 256.336 
L 386.2071 72.184 
L 386.2071 10.8 
L 401.5531 10.8 
L 401.5531 72.184 
L 401.5531 256.336 
L 401.5531 317.72 
z
" style="fill:#ffffff;stroke:#ffffff;stroke-linejoin:miter;stroke-width:0.01;"/>
   </g>
   <g id="QuadMesh_1">
    <path clip-path="url(#pfd77919ec7)" d="M 386.2071 317.72 
L 401.5531 317.72 
L 401.5531 256.336 
L 386.2071 256.336 
L 386.2071 317.72 
" style="fill:#d99999;"/>
    <path clip-path="url(#pfd77919ec7)" d="M 386.2071 256.336 
L 401.5531 256.336 
L 401.5531 194.952 
L 386.2071 194.952 
L 386.2071 256.336 
" style="fill:#99d999;"/>
    <path clip-path="url(#pfd77919ec7)" d="M 386.2071 194.952 
L 401.5531 194.952 
L 401.5531 133.568 
L 386.2071 133.568 
L 386.2071 194.952 
" style="fill:#9999d9;"/>
    <path clip-path="url(#pfd77919ec7)" d="M 386.2071 133.568 
L 401.5531 133.568 
L 401.5531 72.184 
L 386.2071 72.184 
L 386.2071 133.568 
" style="fill:#00e0ff;"/>
    <path clip-path="url(#pfd77919ec7)" d="M 386.2071 72.184 
L 401.5531 72.184 
L 401.5531 10.8 
L 386.2071 10.8 
L 386.2071 72.184 
" style="fill:#ffb353;"/>
   </g>
   <g id="matplotlib.axis_3"/>
   <g id="matplotlib.axis_4">
    <g id="ytick_7">
     <g id="line2d_27">
      <defs>
       <path d="M 0 0 
L 3.5 0 
" id="m6d168d661b" style="stroke:#000000;stroke-width:0.8;"/>
      </defs>
      <g>
       <use style="stroke:#000000;stroke-width:0.8;" x="401.5531" xlink:href="#m6d168d661b" y="164.26"/>
      </g>
     </g>
     <g id="text_17">
      <!-- 1 -->
      <g transform="translate(408.5531 168.059219)scale(0.1 -0.1)">
       <use xlink:href="#DejaVuSans-49"/>
      </g>
     </g>
    </g>
   </g>
   <g id="patch_9">
    <path d="M 386.2071 317.72 
L 386.2071 256.336 
L 386.2071 72.184 
L 386.2071 10.8 
L 401.5531 10.8 
L 401.5531 72.184 
L 401.5531 256.336 
L 401.5531 317.72 
z
" style="fill:none;stroke:#000000;stroke-linejoin:miter;stroke-width:0.8;"/>
   </g>
  </g>
 </g>
 <defs>
  <clipPath id="p4123850c84">
   <rect height="306.92" width="306.92" x="58.0228" y="10.8"/>
  </clipPath>
  <clipPath id="pfd77919ec7">
   <rect height="306.92" width="15.346" x="386.2071" y="10.8"/>
  </clipPath>
 </defs>
</svg>
